<svg width="244" height="186" viewBox="0 0 244 186" fill="none" xmlns="http://www.w3.org/2000/svg">
<path d="M211.344 95.1648C228.863 77.6455 228.863 49.241 211.344 31.7216V31.7216C193.825 14.2023 165.42 14.2023 147.901 31.7216L58 121.622L107.301 170.923C115.112 178.734 127.775 178.734 135.585 170.923L211.344 95.1648Z" fill="url(#paint0_linear_491_15199)"/>
<path d="M152.279 77.6259C153.081 80.834 150.108 84.4765 148.522 85.8967L138 95.9218L145.265 104.443L156.037 92.6637C159.845 89.0546 163.469 89.1549 164.805 89.6561C176.579 92.1624 180.838 84.6435 182.341 83.3904C183.543 82.3879 199.877 63.2565 207.893 53.8162C208.728 52.8972 209.898 50.7084 207.893 49.3048C205.889 47.9013 204.219 48.72 203.635 49.3048L180.838 74.3677C180.003 74.7855 177.882 75.3703 176.078 74.3677C174.274 73.3652 174.826 71.4437 175.327 70.6083L199.877 46.0467C200.545 45.4619 201.53 43.8411 200.127 42.0366C198.725 40.2321 197.038 40.7834 196.37 41.2847C189.105 48.4694 174.224 63.1897 172.821 64.5932C171.068 66.3476 169.565 66.5982 167.561 65.3451C165.957 64.3426 166.559 62.4211 167.06 61.5857L191.36 39.029C192.362 38.1101 193.965 35.8711 192.362 34.2671C190.758 32.6631 188.353 33.7658 187.351 34.5177C180.086 39.5303 156.037 61.8363 153.532 65.0945C151.027 68.3526 151.277 73.6159 152.279 77.6259Z" fill="#F9FAFB"/>
<mask id="mask0_491_15199" style="mask-type:alpha" maskUnits="userSpaceOnUse" x="58" y="18" width="167" height="159">
<path d="M211.344 95.1648C228.863 77.6455 228.863 49.241 211.344 31.7216V31.7216C193.825 14.2023 165.42 14.2023 147.901 31.7216L58 121.622L107.301 170.923C115.112 178.734 127.775 178.734 135.585 170.923L211.344 95.1648Z" fill="url(#paint1_linear_491_15199)"/>
</mask>
<g mask="url(#mask0_491_15199)">
<g style="mix-blend-mode:multiply" opacity="0.75" filter="url(#filter0_f_491_15199)">
<path fill-rule="evenodd" clip-rule="evenodd" d="M39.2083 25.9628C21.3036 43.0882 20.6719 71.4856 37.7973 89.3903L111.852 166.815C119.487 174.797 132.147 175.079 140.13 167.444L190.515 119.252L190.395 119.127L210.382 100.01C192.763 109.712 167.896 93.6155 157.116 84.3328L102.636 27.3738C85.5104 9.46914 57.1129 8.83741 39.2083 25.9628Z" fill="#367EBE"/>
</g>
</g>
<path fill-rule="evenodd" clip-rule="evenodd" d="M31.7215 31.7217C14.2022 49.241 14.2022 77.6455 31.7215 95.1649L107.48 170.923C115.291 178.734 127.954 178.734 135.764 170.923L185.065 121.622L184.943 121.5L204.5 101.943C187.101 112.035 161.882 96.4955 150.898 87.4549L95.1647 31.7217C77.6454 14.2023 49.2409 14.2023 31.7215 31.7217Z" fill="url(#paint2_linear_491_15199)"/>
<mask id="mask1_491_15199" style="mask-type:alpha" maskUnits="userSpaceOnUse" x="18" y="18" width="168" height="159">
<path d="M31.7216 95.1648C14.2022 77.6455 14.2022 49.241 31.7216 31.7216V31.7216C49.241 14.2023 77.6455 14.2023 95.1648 31.7216L185.066 121.622L135.765 170.923C127.954 178.734 115.291 178.734 107.48 170.923L31.7216 95.1648Z" fill="url(#paint3_linear_491_15199)"/>
</mask>
<g mask="url(#mask1_491_15199)">
<path d="M54.6358 80.835C61.644 96.1121 75.4936 104.732 81.5423 107.132C84.0452 108.272 92.4926 107.758 97.1856 107.132C100.94 106.631 105.752 112.68 108.449 115.584L134.104 144.698L164.139 177.569C169.562 184.039 182.16 195.225 189.168 188.213C196.176 181.2 188.543 171.308 183.85 167.238L155.066 140.315C141.613 128.315 114.018 103.688 111.265 101.184C108.511 98.6791 108.24 97.0095 108.449 96.4877C109.7 89.7258 108.97 82.8177 108.449 80.2089C107.302 74.887 100.94 62.2396 84.671 54.2254C68.402 46.2112 58.4945 50.0513 55.5744 52.9732C52.3415 55.895 47.6276 65.558 54.6358 80.835Z" fill="#F9FAFB"/>
</g>
<defs>
<filter id="filter0_f_491_15199" x="-4.64465" y="-16.4791" width="245.027" height="219.47" filterUnits="userSpaceOnUse" color-interpolation-filters="sRGB">
<feFlood flood-opacity="0" result="BackgroundImageFix"/>
<feBlend mode="normal" in="SourceGraphic" in2="BackgroundImageFix" result="shape"/>
<feGaussianBlur stdDeviation="15" result="effect1_foregroundBlur_491_15199"/>
</filter>
<linearGradient id="paint0_linear_491_15199" x1="163.5" y1="119" x2="215.5" y2="-8.5" gradientUnits="userSpaceOnUse">
<stop stop-color="#45A1F2"/>
<stop offset="1" stop-color="#C0E1FE"/>
</linearGradient>
<linearGradient id="paint1_linear_491_15199" x1="245" y1="4.94324" x2="99.8192" y2="33.1516" gradientUnits="userSpaceOnUse">
<stop stop-color="#45A1F2"/>
<stop offset="1" stop-color="#C0E1FE"/>
</linearGradient>
<linearGradient id="paint2_linear_491_15199" x1="154" y1="155.943" x2="14.8983" y2="37.8795" gradientUnits="userSpaceOnUse">
<stop stop-color="#2F94ED"/>
<stop offset="1" stop-color="#9ED2FF"/>
</linearGradient>
<linearGradient id="paint3_linear_491_15199" x1="154" y1="155.943" x2="14.8983" y2="37.8795" gradientUnits="userSpaceOnUse">
<stop stop-color="#2F94ED"/>
<stop offset="1" stop-color="#9ED2FF"/>
</linearGradient>
</defs>
</svg>
