<svg width="163" height="157" viewBox="0 0 163 157" fill="none" xmlns="http://www.w3.org/2000/svg">
<path d="M141.197 63.5789C152.902 51.8743 152.902 32.8975 141.197 21.193V21.193C129.493 9.48842 110.516 9.48842 98.8114 21.193L38.7494 81.255L66.9931 109.499C74.8036 117.309 87.4669 117.309 95.2774 109.499L141.197 63.5789Z" fill="url(#paint0_linear_380_14768)"/>
<path d="M101.737 51.8613C102.272 54.0046 100.286 56.4381 99.2262 57.3869L92.1968 64.0847L97.0504 69.7777L104.247 61.9079C106.791 59.4967 109.212 59.5637 110.105 59.8986C117.971 61.573 120.816 56.5497 121.821 55.7125C122.624 55.0427 133.536 42.2612 138.892 35.9542C139.45 35.3402 140.231 33.8779 138.892 32.9402C137.553 32.0025 136.437 32.5495 136.047 32.9402L120.816 49.6845C120.259 49.9636 118.842 50.3543 117.636 49.6845C116.431 49.0147 116.8 47.731 117.134 47.1729L133.536 30.7634C133.983 30.3727 134.641 29.2899 133.704 28.0843C132.766 26.8787 131.639 27.2471 131.193 27.582C126.34 32.382 116.398 42.2165 115.461 43.1542C114.289 44.3263 113.285 44.4938 111.946 43.6566C110.875 42.9868 111.277 41.7031 111.611 41.1449L127.846 26.075C128.515 25.461 129.586 23.9652 128.515 22.8936C127.444 21.8219 125.837 22.5587 125.168 23.061C120.314 26.4099 104.247 41.3124 102.574 43.4891C100.9 45.6659 101.067 49.1822 101.737 51.8613Z" fill="url(#paint1_linear_380_14768)"/>
<mask id="mask0_380_14768" style="mask-type:alpha" maskUnits="userSpaceOnUse" x="38" y="12" width="112" height="104">
<path d="M141.197 63.5789C152.902 51.8743 152.902 32.8975 141.197 21.193V21.193C129.493 9.48842 110.516 9.48842 98.8113 21.193L38.7493 81.255L66.9931 109.499C74.8036 117.309 87.4669 117.309 95.2774 109.499L141.197 63.5789Z" fill="url(#paint2_linear_380_14768)"/>
</mask>
<g mask="url(#mask0_380_14768)">
<g style="mix-blend-mode:multiply" opacity="0.75" filter="url(#filter0_f_380_14768)">
<path fill-rule="evenodd" clip-rule="evenodd" d="M26.1948 17.3456C14.2328 28.7869 13.8107 47.759 25.2521 59.721L70.1393 106.651C77.7742 114.633 90.4343 114.915 98.4166 107.28L127.282 79.6712L127.202 79.5877L140.555 66.8157C128.784 73.2975 112.17 62.5438 104.968 56.3421L68.5702 18.2882C57.1289 6.32628 38.1567 5.90422 26.1948 17.3456Z" fill="#AFBACA"/>
</g>
</g>
<path fill-rule="evenodd" clip-rule="evenodd" d="M21.193 21.193C9.48841 32.8975 9.48842 51.8744 21.193 63.5789L67.1128 109.499C74.9233 117.309 87.5866 117.309 95.3971 109.499L123.641 81.255L123.559 81.1733L136.625 68.1075C125.001 74.8495 108.152 64.4679 100.814 58.4279L63.5789 21.193C51.8743 9.48844 32.8975 9.48844 21.193 21.193Z" fill="url(#paint3_linear_380_14768)"/>
<mask id="mask1_380_14768" style="mask-type:alpha" maskUnits="userSpaceOnUse" x="12" y="12" width="112" height="104">
<path d="M21.193 63.5789C9.48842 51.8743 9.48841 32.8975 21.193 21.193V21.193C32.8975 9.48842 51.8743 9.48842 63.5789 21.193L123.641 81.255L95.3971 109.499C87.5866 117.309 74.9233 117.309 67.1128 109.499L21.193 63.5789Z" fill="url(#paint4_linear_380_14768)"/>
</mask>
<g mask="url(#mask1_380_14768)">
<path d="M36.5018 54.0052C41.1839 64.2117 50.4367 69.9703 54.4778 71.5738C56.15 72.3357 61.7936 71.9921 64.929 71.5738C67.4372 71.2392 70.6518 75.2808 72.4538 77.2208L89.5937 96.6717L109.66 118.632C113.283 122.955 121.7 130.428 126.382 125.743C131.064 121.059 125.964 114.449 122.828 111.73L103.598 93.7436C94.6103 85.7262 76.1744 69.2731 74.335 67.5999C72.4956 65.9267 72.3145 64.8113 72.4538 64.4627C73.2899 59.9451 72.8022 55.3298 72.4538 53.5869C71.6874 50.0314 67.4372 41.5818 56.568 36.2275C45.6988 30.8733 39.0797 33.4389 37.1288 35.3909C34.9689 37.343 31.8196 43.7987 36.5018 54.0052Z" fill="url(#paint5_linear_380_14768)"/>
</g>
<path d="M32.914 149.218C32.0888 149.218 31.4755 149.073 31.074 148.782C30.6949 148.491 30.5053 148.133 30.5053 147.708L30.8399 147.137C30.706 147.361 30.4496 147.641 30.0704 147.976C29.6912 148.29 29.2006 148.58 28.5984 148.849C27.9962 149.095 27.2491 149.218 26.3569 149.218C25.331 149.218 24.3496 148.994 23.4129 148.547C22.4985 148.099 21.6844 147.484 20.9707 146.701C20.257 145.895 19.6883 144.989 19.2645 143.982C18.8631 142.975 18.6624 141.912 18.6624 140.793C18.6624 139.697 18.8631 138.656 19.2645 137.671C19.6883 136.664 20.257 135.78 20.9707 135.02C21.7067 134.236 22.5319 133.621 23.4464 133.173C24.3608 132.726 25.331 132.502 26.3569 132.502C27.1821 132.502 27.8847 132.625 28.4646 132.871C29.0445 133.095 29.524 133.364 29.9031 133.677C30.3046 133.99 30.6057 134.292 30.8064 134.583L30.5388 134.113C30.5165 133.576 30.6949 133.173 31.074 132.905C31.4755 132.614 32.1 132.469 32.9475 132.469C33.7504 132.469 34.3191 132.592 34.6537 132.838C35.0105 133.084 35.2224 133.408 35.2893 133.811C35.3785 134.214 35.4231 134.639 35.4231 135.087V146.667C35.4231 147.092 35.3785 147.506 35.2893 147.909C35.2224 148.312 35.0105 148.636 34.6537 148.883C34.3191 149.106 33.7393 149.218 32.914 149.218ZM27.0929 144.217C27.6728 144.217 28.1969 144.071 28.6653 143.78C29.156 143.467 29.5351 143.053 29.8028 142.538C30.0927 142.024 30.2377 141.453 30.2377 140.827C30.2377 140.178 30.0927 139.607 29.8028 139.115C29.5128 138.6 29.1225 138.197 28.6318 137.906C28.1412 137.593 27.6059 137.436 27.026 137.436C26.3792 137.436 25.7994 137.593 25.2864 137.906C24.7957 138.22 24.3943 138.634 24.082 139.148C23.7921 139.663 23.6471 140.245 23.6471 140.894C23.6471 141.498 23.7921 142.057 24.082 142.572C24.3943 143.064 24.8069 143.467 25.3198 143.78C25.8551 144.071 26.4461 144.217 27.0929 144.217Z" fill="#F9FAFB"/>
<path d="M44.1373 149.52C43.5351 149.52 42.8772 149.453 42.1635 149.319C41.4721 149.185 40.7918 148.994 40.1227 148.748C39.4537 148.48 38.8961 148.178 38.45 147.842C38.0039 147.484 37.7475 147.081 37.6806 146.634C37.6359 146.41 37.6359 146.175 37.6806 145.929C37.7475 145.66 37.859 145.392 38.0151 145.123C38.1712 144.832 38.3608 144.53 38.5838 144.217C38.7623 143.971 38.963 143.814 39.186 143.747C39.409 143.68 39.6655 143.691 39.9555 143.78C40.3123 143.848 40.6692 143.971 41.026 144.15C41.4052 144.306 41.7732 144.485 42.13 144.687C42.5092 144.866 42.8995 145.034 43.3009 145.19C43.7024 145.324 44.115 145.392 44.5388 145.392C45.1632 145.392 45.6428 145.302 45.9773 145.123C46.3342 144.922 46.5126 144.653 46.5126 144.317C46.5126 144.071 46.4345 143.87 46.2784 143.713C46.1446 143.557 45.9439 143.422 45.6762 143.311C45.4309 143.176 45.1409 143.064 44.8064 142.975C44.4719 142.885 44.1039 142.796 43.7024 142.706C43.3232 142.594 42.9329 142.483 42.5315 142.371C41.9739 142.214 41.4386 142.013 40.9257 141.766C40.4127 141.52 39.9443 141.207 39.5206 140.827C39.0968 140.424 38.7623 139.943 38.5169 139.383C38.2716 138.801 38.1489 138.097 38.1489 137.269C38.1489 136.172 38.4054 135.255 38.9184 134.516C39.4313 133.778 40.1785 133.218 41.1598 132.838C42.1412 132.435 43.3344 132.234 44.7395 132.234C45.1409 132.234 45.5424 132.256 45.9439 132.301C46.3453 132.345 46.7356 132.424 47.1148 132.536C47.5162 132.648 47.9065 132.782 48.2857 132.938C48.6648 133.095 49.044 133.285 49.4231 133.509C50.0922 133.822 50.4379 134.248 50.4602 134.785C50.4825 135.322 50.293 135.87 49.8915 136.429C49.6462 136.81 49.3897 137.09 49.1221 137.269C48.8544 137.425 48.5756 137.47 48.2857 137.403C47.9288 137.313 47.5385 137.168 47.1148 136.966C46.7133 136.765 46.2784 136.575 45.81 136.396C45.364 136.217 44.9179 136.127 44.4719 136.127C44.0927 136.127 43.7693 136.183 43.5017 136.295C43.234 136.385 43.0333 136.519 42.8995 136.698C42.7657 136.855 42.6988 137.045 42.6988 137.269C42.6988 137.559 42.7768 137.794 42.9329 137.973C43.1114 138.13 43.3455 138.264 43.6355 138.376C43.9254 138.488 44.26 138.589 44.6391 138.678C45.0183 138.768 45.4309 138.857 45.8769 138.947C46.4791 139.059 47.0925 139.215 47.717 139.417C48.3637 139.596 48.9436 139.864 49.4566 140.222C49.9919 140.58 50.4156 141.062 50.7279 141.666C51.0624 142.27 51.2297 143.064 51.2297 144.049C51.2297 145.817 50.6164 147.171 49.3897 148.111C48.163 149.05 46.4122 149.52 44.1373 149.52Z" fill="#F9FAFB"/>
<path d="M61.7347 149.554C60.1735 149.554 58.8242 149.297 57.6867 148.782C56.5716 148.267 55.6571 147.596 54.9434 146.768C54.2297 145.917 53.6945 144.978 53.3376 143.948C53.0031 142.919 52.8358 141.89 52.8358 140.86C52.8358 139.182 53.2149 137.694 53.9732 136.396C54.7315 135.098 55.7798 134.08 57.118 133.341C58.4562 132.58 59.9951 132.2 61.7347 132.2C63.0283 132.2 64.1435 132.413 65.0802 132.838C66.0392 133.241 66.8198 133.778 67.422 134.449C68.0465 135.098 68.5037 135.803 68.7937 136.564C69.1059 137.324 69.262 138.052 69.262 138.745C69.262 139.976 68.9609 140.894 68.3588 141.498C67.7789 142.08 67.0317 142.371 66.1173 142.371H58.1551C58.1997 142.952 58.4004 143.445 58.7573 143.848C59.1364 144.25 59.6048 144.564 60.1624 144.787C60.7199 145.011 61.311 145.123 61.9355 145.123C62.4707 145.123 62.9391 145.101 63.3406 145.056C63.742 144.989 64.0877 144.911 64.3776 144.821C64.6676 144.709 64.9352 144.608 65.1806 144.519C65.4259 144.407 65.6378 144.317 65.8162 144.25C66.0169 144.183 66.2065 144.138 66.3849 144.116C66.7195 144.094 67.0206 144.194 67.2882 144.418C67.5781 144.62 67.8346 144.933 68.0577 145.358C68.2138 145.604 68.3142 145.839 68.3588 146.063C68.4257 146.287 68.4591 146.511 68.4591 146.734C68.4591 147.271 68.1803 147.752 67.6228 148.178C67.0875 148.603 66.318 148.938 65.3144 149.185C64.333 149.431 63.1398 149.554 61.7347 149.554ZM58.1551 139.618H63.4409C63.7978 139.618 64.0543 139.562 64.2104 139.45C64.3888 139.316 64.478 139.07 64.478 138.712C64.478 138.309 64.3553 137.962 64.11 137.671C63.8647 137.358 63.5301 137.123 63.1064 136.966C62.7049 136.787 62.2365 136.698 61.7013 136.698C61.0099 136.698 60.3965 136.832 59.8613 137.101C59.326 137.369 58.9022 137.727 58.59 138.175C58.3 138.622 58.1551 139.104 58.1551 139.618Z" fill="#F9FAFB"/>
<path d="M78.5995 149.218C77.5736 149.218 76.6034 149.017 75.689 148.614C74.7969 148.211 74.0163 147.652 73.3472 146.936C72.6781 146.197 72.1539 145.336 71.7748 144.351C71.4179 143.344 71.2395 142.248 71.2395 141.062V134.986C71.2395 134.538 71.2841 134.124 71.3733 133.744C71.4625 133.364 71.6744 133.05 72.009 132.804C72.3658 132.558 72.9569 132.435 73.7821 132.435C74.6073 132.435 75.1872 132.558 75.5217 132.804C75.8786 133.05 76.0904 133.375 76.1574 133.778C76.2466 134.158 76.2912 134.572 76.2912 135.02V141.062C76.2912 141.711 76.4027 142.281 76.6257 142.773C76.8711 143.243 77.2168 143.601 77.6628 143.848C78.1312 144.094 78.6776 144.217 79.3021 144.217C79.9489 144.217 80.4953 144.094 80.9414 143.848C81.4097 143.579 81.7666 143.21 82.0119 142.74C82.2796 142.27 82.4134 141.711 82.4134 141.062V134.952C82.4134 134.505 82.458 134.091 82.5472 133.711C82.6364 133.33 82.8483 133.028 83.1828 132.804C83.5397 132.558 84.1307 132.435 84.9559 132.435C85.7811 132.435 86.361 132.558 86.6956 132.804C87.0524 133.05 87.2643 133.375 87.3312 133.778C87.4204 134.158 87.465 134.561 87.465 134.986V146.801C87.465 147.227 87.4204 147.629 87.3312 148.01C87.2643 148.368 87.0524 148.659 86.6956 148.883C86.3387 149.106 85.7588 149.218 84.9559 149.218C84.3538 149.218 83.8854 149.151 83.5508 149.017C83.2163 148.883 82.971 148.715 82.8148 148.513C82.6587 148.312 82.5583 148.099 82.5137 147.876C82.4914 147.652 82.4803 147.45 82.4803 147.271L82.9152 146.902C82.8483 146.992 82.7033 147.159 82.4803 147.406C82.2573 147.652 81.9562 147.92 81.577 148.211C81.2202 148.48 80.7964 148.715 80.3057 148.916C79.8151 149.117 79.2463 149.218 78.5995 149.218Z" fill="#F9FAFB"/>
<path d="M98.8922 148.95C97.7993 148.95 96.8291 148.737 95.9816 148.312C95.1564 147.864 94.465 147.271 93.9074 146.533C93.3721 145.772 92.9595 144.899 92.6696 143.915C92.4019 142.93 92.2793 141.867 92.3016 140.726C92.3016 139.629 92.4466 138.589 92.7365 137.604C93.0264 136.597 93.439 135.713 93.9743 134.952C94.5319 134.169 95.2121 133.565 96.0151 133.14C96.8403 132.692 97.7993 132.469 98.8922 132.469C99.8735 132.469 100.821 132.692 101.736 133.14C102.673 133.587 103.498 134.203 104.211 134.986C104.925 135.747 105.483 136.631 105.884 137.638C106.308 138.645 106.52 139.708 106.52 140.827C106.52 141.945 106.308 143.008 105.884 144.015C105.483 145 104.925 145.862 104.211 146.6C103.498 147.338 102.684 147.92 101.769 148.345C100.855 148.748 99.8958 148.95 98.8922 148.95ZM92.4354 156.2C91.6325 156.2 91.0526 156.077 90.6958 155.831C90.3612 155.607 90.1493 155.305 90.0601 154.924C89.9932 154.566 89.9598 154.175 89.9598 153.75V134.986C89.9598 134.538 89.9932 134.136 90.0601 133.778C90.127 133.397 90.3278 133.084 90.6623 132.838C91.0192 132.592 91.599 132.469 92.402 132.469C93.0933 132.469 93.6398 132.569 94.0412 132.771C94.465 132.972 94.7661 133.285 94.9445 133.711V153.716C94.9668 154.141 94.9334 154.544 94.8441 154.924C94.7549 155.305 94.5319 155.607 94.175 155.831C93.8405 156.077 93.2606 156.2 92.4354 156.2ZM98.1896 144.217C98.8141 144.217 99.3717 144.071 99.8623 143.78C100.353 143.467 100.743 143.053 101.033 142.538C101.345 142.024 101.502 141.453 101.502 140.827C101.502 140.178 101.357 139.607 101.067 139.115C100.777 138.6 100.386 138.197 99.8958 137.906C99.4051 137.615 98.8476 137.47 98.2231 137.47C97.6209 137.47 97.0633 137.627 96.5503 137.94C96.0597 138.231 95.6694 138.634 95.3794 139.148C95.1118 139.641 94.978 140.2 94.978 140.827C94.978 141.453 95.1229 142.024 95.4129 142.538C95.7028 143.053 96.0931 143.467 96.5838 143.78C97.0745 144.071 97.6097 144.217 98.1896 144.217Z" fill="#F9FAFB"/>
<path d="M122.235 149.218C121.41 149.218 120.797 149.073 120.395 148.782C120.016 148.491 119.827 148.133 119.827 147.708L120.161 147.137C120.027 147.361 119.771 147.641 119.392 147.976C119.013 148.29 118.522 148.58 117.92 148.849C117.318 149.095 116.57 149.218 115.678 149.218C114.652 149.218 113.671 148.994 112.734 148.547C111.82 148.099 111.006 147.484 110.292 146.701C109.578 145.895 109.01 144.989 108.586 143.982C108.184 142.975 107.984 141.912 107.984 140.793C107.984 139.697 108.184 138.656 108.586 137.671C109.01 136.664 109.578 135.78 110.292 135.02C111.028 134.236 111.853 133.621 112.768 133.173C113.682 132.726 114.652 132.502 115.678 132.502C116.504 132.502 117.206 132.625 117.786 132.871C118.366 133.095 118.845 133.364 119.225 133.677C119.626 133.99 119.927 134.292 120.128 134.583L119.86 134.113C119.838 133.576 120.016 133.173 120.395 132.905C120.797 132.614 121.421 132.469 122.269 132.469C123.072 132.469 123.641 132.592 123.975 132.838C124.332 133.084 124.544 133.408 124.611 133.811C124.7 134.214 124.745 134.639 124.745 135.087V146.667C124.745 147.092 124.7 147.506 124.611 147.909C124.544 148.312 124.332 148.636 123.975 148.883C123.641 149.106 123.061 149.218 122.235 149.218ZM116.414 144.217C116.994 144.217 117.518 144.071 117.987 143.78C118.477 143.467 118.856 143.053 119.124 142.538C119.414 142.024 119.559 141.453 119.559 140.827C119.559 140.178 119.414 139.607 119.124 139.115C118.834 138.6 118.444 138.197 117.953 137.906C117.463 137.593 116.927 137.436 116.347 137.436C115.701 137.436 115.121 137.593 114.608 137.906C114.117 138.22 113.716 138.634 113.403 139.148C113.113 139.663 112.968 140.245 112.968 140.894C112.968 141.498 113.113 142.057 113.403 142.572C113.716 143.064 114.128 143.467 114.641 143.78C115.176 144.071 115.768 144.217 116.414 144.217Z" fill="#F9FAFB"/>
<path d="M129.946 149.218C129.121 149.218 128.53 149.106 128.173 148.883C127.838 148.636 127.626 148.323 127.537 147.943C127.47 147.54 127.437 147.126 127.437 146.701V134.885C127.437 134.46 127.481 134.069 127.571 133.711C127.66 133.33 127.872 133.028 128.206 132.804C128.563 132.58 129.154 132.469 129.979 132.469C130.693 132.469 131.217 132.569 131.552 132.771C131.886 132.95 132.098 133.173 132.187 133.442C132.299 133.711 132.355 133.968 132.355 134.214C132.355 134.438 132.377 134.594 132.422 134.684L132.221 135.322C132.265 134.986 132.433 134.65 132.723 134.315C133.035 133.957 133.414 133.643 133.86 133.375C134.329 133.084 134.819 132.86 135.332 132.704C135.867 132.547 136.392 132.469 136.905 132.469C137.975 132.469 138.923 132.67 139.748 133.073C140.596 133.453 141.309 134.013 141.889 134.751C142.469 135.49 142.904 136.362 143.194 137.369C143.506 138.354 143.662 139.439 143.662 140.625V146.734C143.662 147.159 143.618 147.573 143.529 147.976C143.462 148.357 143.25 148.659 142.893 148.883C142.558 149.106 141.978 149.218 141.153 149.218C140.306 149.218 139.704 149.106 139.347 148.883C139.012 148.636 138.8 148.323 138.711 147.943C138.622 147.54 138.577 147.126 138.577 146.701V140.625C138.577 139.954 138.466 139.383 138.243 138.913C138.02 138.443 137.685 138.085 137.239 137.839C136.793 137.571 136.247 137.436 135.6 137.436C134.953 137.436 134.395 137.571 133.927 137.839C133.459 138.108 133.091 138.477 132.823 138.947C132.578 139.417 132.455 139.976 132.455 140.625V146.734C132.455 147.159 132.41 147.573 132.321 147.976C132.254 148.357 132.042 148.659 131.686 148.883C131.351 149.106 130.771 149.218 129.946 149.218Z" fill="#F9FAFB"/>
<defs>
<filter id="filter0_f_380_14768" x="-13.0602" y="-20.9668" width="183.615" height="163.794" filterUnits="userSpaceOnUse" color-interpolation-filters="sRGB">
<feFlood flood-opacity="0" result="BackgroundImageFix"/>
<feBlend mode="normal" in="SourceGraphic" in2="BackgroundImageFix" result="shape"/>
<feGaussianBlur stdDeviation="15" result="effect1_foregroundBlur_380_14768"/>
</filter>
<linearGradient id="paint0_linear_380_14768" x1="90.5265" y1="79.1689" x2="165.895" y2="70.0596" gradientUnits="userSpaceOnUse">
<stop stop-color="#E9EFF7"/>
<stop offset="1" stop-color="white"/>
</linearGradient>
<linearGradient id="paint1_linear_380_14768" x1="92.1968" y1="69.7777" x2="103.292" y2="14.9845" gradientUnits="userSpaceOnUse">
<stop stop-color="#449EEE"/>
<stop offset="1" stop-color="#8FC5F5"/>
</linearGradient>
<linearGradient id="paint2_linear_380_14768" x1="163.683" y1="3.30253" x2="66.6884" y2="22.1483" gradientUnits="userSpaceOnUse">
<stop stop-color="#45A1F2"/>
<stop offset="1" stop-color="#C0E1FE"/>
</linearGradient>
<linearGradient id="paint3_linear_380_14768" x1="106.227" y1="97.6044" x2="20.5554" y2="14.6615" gradientUnits="userSpaceOnUse">
<stop stop-color="#E9EFF7"/>
<stop offset="1" stop-color="white"/>
</linearGradient>
<linearGradient id="paint4_linear_380_14768" x1="102.886" y1="104.184" x2="9.95345" y2="25.307" gradientUnits="userSpaceOnUse">
<stop stop-color="#2F94ED"/>
<stop offset="1" stop-color="#9ED2FF"/>
</linearGradient>
<linearGradient id="paint5_linear_380_14768" x1="34.0727" y1="33.0326" x2="128.274" y2="127.234" gradientUnits="userSpaceOnUse">
<stop stop-color="#449EEE"/>
<stop offset="1" stop-color="#8FC5F5"/>
</linearGradient>
</defs>
</svg>
