<svg width="242" height="242" viewBox="0 0 242 242" fill="none" xmlns="http://www.w3.org/2000/svg">
<circle cx="121" cy="121" r="91" fill="#8FC5F5"/>
<circle opacity="0.3" cx="121" cy="121" r="121" fill="#8FC5F5"/>
<path d="M170.108 126.677C170.108 126.677 156.437 111.379 151.279 96.1038C146.12 80.8281 148.592 82.5445 148.592 82.5445C148.592 82.5445 155.554 97.4018 160.845 104.578C166.136 111.755 175.542 122.278 175.542 122.278L170.108 126.677Z" fill="#455468"/>
<path d="M172.866 84.926C172.775 84.7681 172.63 84.6464 172.456 84.5819C172.283 84.5173 172.091 84.5142 171.915 84.5729C171.739 84.6316 171.59 84.7485 171.494 84.9032C171.397 85.0579 171.36 85.2406 171.388 85.4194C172.221 90.783 174.019 103.404 173.948 111.578C173.859 122.203 173.948 126.306 173.948 126.306H179.635C179.635 126.306 178.626 104.348 177.34 97.6539C176.425 92.9607 174.521 87.7472 172.866 84.926Z" fill="#455468"/>
<path d="M175.95 124.52C178.335 119.269 179.911 113.704 180.628 108.006C181.097 104.096 180.264 98.8124 179.017 91.7592C178.537 89.1806 178.297 86.565 178.3 83.9444C178.303 83.6524 178.406 83.3697 178.593 83.1407C178.779 82.9116 179.038 82.749 179.329 82.6785C179.621 82.608 179.928 82.6334 180.203 82.7509C180.478 82.8683 180.705 83.0712 180.849 83.3276C181.533 84.5183 183.525 88.5839 184.027 91.137C185.406 98.1098 186.967 101.58 185.77 108.188C184.573 114.796 180.17 124.971 180.17 124.971L175.95 124.52Z" fill="#455468"/>
<path d="M181.07 124.971C181.07 124.971 196.081 93.6097 197.118 88.9594C198.156 84.3091 201.697 73.5872 202.111 74.1933C202.525 74.7994 203.154 80.4634 200.456 86.9373C197.758 93.4112 186.201 125.926 186.201 125.926H181.075" fill="#455468"/>
<path d="M174.306 123.566C174.156 123.485 174.014 123.392 173.881 123.287C173.616 123.088 173.214 122.815 172.723 122.423C171.724 121.656 170.323 120.498 168.69 118.958C164.462 114.914 160.801 110.346 157.8 105.372C154.806 100.402 152.317 95.16 150.368 89.721C149.613 87.6399 149.061 85.9343 148.713 84.7489C148.531 84.1589 148.404 83.6762 148.316 83.3812C148.265 83.2234 148.226 83.062 148.2 82.8985C148.273 83.0488 148.332 83.2049 148.377 83.3651C148.493 83.6977 148.642 84.1482 148.835 84.7114C149.226 85.886 149.811 87.5756 150.589 89.6459C152.6 95.0403 155.109 100.246 158.086 105.2C161.079 110.148 164.697 114.713 168.855 118.787C170.466 120.337 171.84 121.522 172.811 122.311C173.291 122.718 173.683 123.008 173.914 123.217C174.055 123.322 174.186 123.439 174.306 123.566Z" fill="#263238"/>
<path d="M175.944 108.521C175.873 108.219 175.829 107.912 175.812 107.603C175.74 106.954 175.646 106.107 175.536 105.088C175.299 102.942 174.924 100.041 174.394 96.8278C173.865 93.615 173.291 90.724 172.816 88.6376C172.59 87.6346 172.408 86.8032 172.265 86.1649C172.182 85.8646 172.126 85.5576 172.099 85.2477C172.221 85.5359 172.317 85.8338 172.386 86.1381C172.557 86.712 172.778 87.5487 173.037 88.5893C173.55 90.665 174.179 93.556 174.692 96.7796C175.205 100.003 175.558 102.937 175.74 105.066C175.829 106.139 175.889 106.997 175.911 107.593C175.95 107.9 175.961 108.211 175.944 108.521Z" fill="#263238"/>
<path d="M179.487 83.0808C179.553 83.2096 179.612 83.3422 179.663 83.4777C179.773 83.7727 179.922 84.1589 180.11 84.6416C180.297 85.1244 180.54 85.768 180.755 86.5082C180.971 87.2484 181.268 88.0744 181.484 89.0184C181.605 89.4904 181.726 89.9838 181.859 90.4934C181.991 91.0029 182.074 91.5661 182.184 92.1025C182.433 93.2181 182.581 94.4249 182.736 95.6907C183.418 101.213 183.213 106.804 182.129 112.264C181.853 113.519 181.611 114.71 181.285 115.804C181.131 116.341 180.998 116.877 180.838 117.413L180.358 118.856C180.071 119.784 179.724 120.594 179.442 121.313C179.161 122.032 178.891 122.638 178.665 123.126C178.438 123.614 178.267 123.973 178.113 124.258C178.06 124.393 177.991 124.523 177.909 124.644C177.943 124.501 177.993 124.363 178.058 124.231L178.532 123.083C178.753 122.584 179.007 121.973 179.26 121.248C179.514 120.524 179.856 119.714 180.126 118.792C180.27 118.331 180.424 117.848 180.584 117.344C180.744 116.84 180.86 116.309 181.009 115.761C181.324 114.689 181.561 113.482 181.82 112.232C182.867 106.796 183.072 101.239 182.427 95.7444C182.256 94.4839 182.113 93.2825 181.875 92.1722C181.765 91.6358 181.682 91.0727 181.566 90.5631C181.451 90.0536 181.329 89.5601 181.213 89.0881C181.015 88.1441 180.739 87.3127 180.535 86.5779C180.331 85.8431 180.121 85.2102 179.944 84.6953C179.768 84.1804 179.652 83.8157 179.553 83.5153C179.515 83.3731 179.493 83.2275 179.487 83.0808Z" fill="#263238"/>
<path d="M201.94 74.8262C201.946 74.8725 201.946 74.9194 201.94 74.9657C201.94 75.0783 201.901 75.2124 201.874 75.3733C201.808 75.7327 201.725 76.2583 201.576 76.9341C201.289 78.2857 200.804 80.222 200.053 82.5767C199.303 84.9313 198.282 87.6989 197.063 90.7294C195.844 93.7598 194.448 97.0746 193.113 100.593C191.778 104.112 190.719 107.539 189.742 110.655C188.766 113.772 187.85 116.555 186.984 118.872C186.295 120.701 185.503 122.492 184.612 124.236C184.303 124.858 184.027 125.309 183.85 125.641C183.768 125.786 183.696 125.899 183.641 126.001C183.585 126.103 183.563 126.119 183.558 126.113C183.572 126.069 183.59 126.026 183.613 125.985C183.663 125.883 183.718 125.759 183.795 125.609C183.955 125.282 184.209 124.81 184.501 124.182C185.103 122.943 185.919 121.114 186.769 118.819C187.618 116.523 188.523 113.713 189.477 110.591C190.432 107.469 191.48 104.031 192.837 100.507C194.194 96.9834 195.596 93.674 196.815 90.6489C198.034 87.6238 199.088 84.8777 199.86 82.5338C200.633 80.1898 201.151 78.2697 201.477 76.9288C201.642 76.2583 201.747 75.738 201.83 75.384C201.874 75.2231 201.902 75.089 201.929 74.9818C201.922 74.9297 201.926 74.8769 201.94 74.8262Z" fill="#263238"/>
<path d="M155.665 67.9017C155.458 67.7079 155.192 67.5864 154.906 67.5563C154.621 67.5263 154.334 67.5894 154.09 67.7358C153.846 67.8821 153.659 68.1034 153.558 68.3646C153.458 68.6258 153.45 68.9121 153.535 69.1783C154.047 70.7916 154.678 72.3671 155.422 73.8929C157.485 78.157 163.543 93.4541 166.384 101.854C169.225 110.253 173.219 125.926 173.219 125.926L179.288 124.971C179.288 124.971 173.743 99.2254 168.326 89.9409C163.967 82.4855 159.626 71.7099 155.665 67.9017Z" fill="#455468"/>
<path d="M168.039 107.11C168.169 107.334 168.275 107.572 168.353 107.818C168.53 108.279 168.778 108.955 169.048 109.797C169.6 111.476 170.29 113.82 170.979 116.427C171.669 119.033 172.237 121.409 172.634 123.131L173.092 125.169C173.157 125.419 173.2 125.674 173.219 125.931C173.109 125.697 173.026 125.453 172.971 125.202L172.419 123.179L170.659 116.502C169.97 113.895 169.324 111.546 168.822 109.851L168.221 107.85C168.133 107.611 168.072 107.362 168.039 107.11Z" fill="#263238"/>
<path d="M176.259 125.448C176.241 125.396 176.23 125.342 176.226 125.287C176.226 125.164 176.187 125.014 176.16 124.826C176.094 124.418 176.038 123.812 175.912 123.04C175.685 121.495 175.288 119.285 174.637 116.545C173.864 113.362 172.917 110.222 171.802 107.137C170.56 103.645 169.004 99.8744 167.234 95.975C163.67 88.1763 160.111 81.2626 157.772 76.1296C156.591 73.5818 155.676 71.5007 155.069 70.0472C154.765 69.3231 154.545 68.7546 154.39 68.3737L154.219 67.9339C154.198 67.8841 154.183 67.8318 154.175 67.7784C154.207 67.8231 154.233 67.8718 154.252 67.9232C154.302 68.0358 154.368 68.1753 154.451 68.3469L155.185 69.9989C155.825 71.4364 156.768 73.5014 157.976 76.0384C160.371 81.1231 163.962 88.0207 167.531 95.8248C169.297 99.7349 170.842 103.516 172.083 107.019C173.184 110.118 174.105 113.275 174.841 116.475C175.346 118.63 175.738 120.809 176.016 123.002C176.127 123.78 176.16 124.386 176.204 124.799C176.204 124.987 176.232 125.143 176.243 125.266C176.257 125.326 176.263 125.387 176.259 125.448Z" fill="#263238"/>
<path d="M179.277 124.971C179.182 124.646 179.114 124.314 179.073 123.979L178.598 121.27C178.179 118.99 177.544 115.847 176.629 112.425C175.713 109.003 174.698 105.957 173.914 103.768L172.965 101.178C172.833 100.866 172.724 100.545 172.64 100.218C172.811 100.512 172.959 100.818 173.081 101.135C173.341 101.736 173.705 102.605 174.124 103.693C175.219 106.527 176.158 109.415 176.938 112.345C177.719 115.277 178.349 118.245 178.824 121.238C178.995 122.386 179.128 123.314 179.194 123.963C179.248 124.296 179.276 124.633 179.277 124.971Z" fill="#263238"/>
<path d="M191.706 124.123H168.061V152.132H191.706V124.123Z" fill="#FF725E"/>
<g opacity="0.3">
<path d="M191.706 124.123H168.061V152.132H191.706V124.123Z" fill="black"/>
</g>
<path d="M184.165 124.123H163.184V152.132H184.165V124.123Z" fill="#FF725E"/>
<path d="M67.644 123.081C67.6746 122.637 67.8139 122.206 68.0503 121.824C68.2867 121.442 68.6135 121.121 69.0034 120.887C81.0723 113.123 90.1666 95.9074 91.0745 81.3354C91.0745 80.5064 91.1247 79.6627 91.1548 78.8141C91.8521 57.9803 95.0072 32.7085 97.8414 25.9736C103.078 13.523 120.815 12.3526 120.815 12.3526C144.346 10.7188 148.545 28.2949 150.913 44.3056C152.387 54.2592 158.081 89.8212 158.081 89.8212L153.747 91.4451C148.655 106.12 137.193 117.99 122.27 123.452C117.936 125.037 114.244 125.676 112.539 124.31C105.66 131.106 97.1514 136.133 87.7789 138.941C83.9817 140.067 79.9988 140.818 76.0411 140.457C73.4778 140.223 70.7691 139.399 69.2341 137.38C68.5694 136.505 68.1744 135.465 68.095 134.38C68.0156 133.295 68.2551 132.21 68.7857 131.253C69.3163 130.295 70.116 129.504 71.0916 128.972C72.0671 128.439 73.1783 128.187 74.2954 128.246C73.4076 125.422 67.5386 126.246 67.644 123.081Z" fill="#263238"/>
<path d="M117.67 18.8241L119.145 17.4586L135.051 23.6912C136.161 23.7528 137.207 24.2159 137.983 24.9894C138.759 25.7628 139.209 26.7907 139.245 27.8707L139.105 78.2777C139.105 81.6915 138.417 84.6566 136.295 87.3779L134.063 90.2455C128.967 96.7853 118.513 96.2488 114.46 89.0409C114.211 88.6343 114.022 88.1961 113.898 87.7387C113.796 87.368 113.716 86.9918 113.657 86.6122C113.186 82.5595 113.156 79.0434 113.156 79.0434C112.87 74.5908 112.775 72.7669 112.775 72.8059C112.775 72.8449 103.033 71.7183 100.4 59.5604C99.0905 53.5131 99.3363 45.1932 99.7075 37.0099C100.219 25.6566 108.305 18.8144 117.67 18.8241Z" fill="#FFBF9D"/>
<path d="M120.931 43.7789C120.948 44.1886 121.129 44.5755 121.435 44.8571C121.742 45.1387 122.15 45.2926 122.571 45.2859C122.778 45.2924 122.984 45.2585 123.177 45.1863C123.37 45.114 123.546 45.0048 123.694 44.8652C123.843 44.7256 123.962 44.5584 124.043 44.3735C124.124 44.1885 124.166 43.9897 124.166 43.7887C124.149 43.3786 123.968 42.9911 123.662 42.7088C123.356 42.4264 122.948 42.2714 122.526 42.2768C122.319 42.2716 122.114 42.3066 121.921 42.3796C121.728 42.4527 121.553 42.5623 121.404 42.7022C121.256 42.8421 121.137 43.0093 121.056 43.1942C120.975 43.3791 120.932 43.5779 120.931 43.7789Z" fill="#263238"/>
<path d="M104.488 44.2081C104.505 44.6177 104.686 45.0047 104.992 45.2863C105.299 45.5678 105.706 45.7217 106.128 45.715C106.335 45.7215 106.541 45.6877 106.734 45.6154C106.927 45.5432 107.103 45.434 107.251 45.2944C107.4 45.1548 107.518 44.9876 107.6 44.8026C107.681 44.6177 107.723 44.4188 107.723 44.2178C107.705 43.8082 107.524 43.4214 107.218 43.1393C106.912 42.8572 106.505 42.7018 106.083 42.706C105.876 42.7008 105.671 42.7358 105.478 42.8088C105.285 42.8818 105.109 42.9915 104.961 43.1314C104.812 43.2712 104.694 43.4385 104.613 43.6234C104.532 43.8083 104.489 44.007 104.488 44.2081Z" fill="#263238"/>
<path d="M101.373 40.2383C101.583 40.4334 102.762 39.4922 104.503 39.4093C106.243 39.3264 107.563 40.1164 107.738 39.897C107.829 39.7994 107.603 39.4434 107.031 39.0728C106.251 38.6057 105.342 38.3827 104.428 38.4339C103.513 38.4692 102.634 38.7888 101.92 39.3459C101.433 39.7507 101.252 40.1408 101.373 40.2383Z" fill="#263238"/>
<path d="M119.03 40.4041C119.261 40.5748 120.334 39.5214 122.039 39.2678C123.745 39.0142 125.16 39.6629 125.31 39.4288C125.39 39.3264 125.129 38.9899 124.517 38.6826C123.693 38.2912 122.764 38.1583 121.859 38.3022C120.964 38.4336 120.134 38.8384 119.491 39.458C119.04 39.9311 118.919 40.3261 119.03 40.4041Z" fill="#263238"/>
<path d="M112.95 52.7133C112.95 52.6206 111.862 52.4889 110.101 52.3573C109.655 52.3573 109.228 52.2695 109.138 51.9769C109.077 51.5333 109.157 51.0822 109.369 50.6845C109.735 49.6165 110.111 48.4997 110.512 47.3292C112.098 42.5597 113.216 38.6436 113.02 38.5851C112.825 38.5266 111.375 42.3402 109.795 47.1147C109.414 48.2884 109.051 49.4117 108.707 50.4846C108.456 51.02 108.406 51.6241 108.566 52.1915C108.638 52.3405 108.744 52.4715 108.877 52.5746C109.009 52.6777 109.163 52.7502 109.329 52.7864C109.577 52.8386 109.832 52.8599 110.086 52.8498C111.857 52.8547 112.95 52.8108 112.95 52.7133Z" fill="#263238"/>
<path d="M112.79 72.7864C118.731 72.5863 124.498 70.7866 129.449 67.5876C129.449 67.5876 125.641 76.2782 112.965 75.7466L112.79 72.7864Z" fill="#FF9A6C"/>
<path d="M113.898 56.7562C114.207 56.3347 114.622 55.9969 115.103 55.775C115.584 55.5531 116.116 55.4544 116.647 55.4882C117.033 55.5015 117.412 55.591 117.761 55.7511C118.111 55.9112 118.423 56.1387 118.679 56.4197C118.926 56.6903 119.081 57.0281 119.124 57.3875C119.167 57.7468 119.096 58.1104 118.919 58.429C118.483 59.0971 117.51 59.2921 116.667 59.102C115.832 58.8586 115.055 58.4576 114.38 57.9218C114.185 57.7887 114.015 57.6237 113.878 57.4341C113.81 57.3437 113.771 57.2358 113.766 57.1239C113.76 57.0121 113.789 56.9011 113.848 56.805" fill="#FF9A6C"/>
<path d="M118.132 53.635C117.846 53.635 117.936 55.4687 116.391 56.8489C114.846 58.229 112.82 58.1266 112.82 58.3851C112.82 58.5021 113.286 58.7216 114.134 58.7021C115.248 58.6678 116.314 58.2515 117.144 57.5267C117.931 56.8316 118.411 55.8667 118.483 54.8347C118.493 54.0642 118.257 53.6204 118.132 53.635Z" fill="#263238"/>
<path d="M117.364 33.8107C117.605 34.2398 119.29 33.7668 121.347 33.7034C123.404 33.64 125.124 33.9277 125.325 33.4839C125.415 33.2693 125.064 32.8841 124.322 32.5378C123.357 32.1282 122.308 31.9382 121.257 31.9821C120.205 32.0261 119.177 32.3029 118.252 32.7914C117.575 33.1913 117.254 33.6058 117.364 33.8107Z" fill="#263238"/>
<path d="M101.624 32.9621C101.95 33.3279 103.128 32.8743 104.568 32.7817C106.008 32.689 107.242 32.9133 107.503 32.4939C107.618 32.294 107.402 31.9185 106.85 31.582C106.112 31.1814 105.267 31.0032 104.424 31.0701C103.581 31.1369 102.777 31.4458 102.115 31.9575C101.624 32.3769 101.478 32.7768 101.624 32.9621Z" fill="#263238"/>
<path d="M138.924 49.3775C138.924 49.3775 130.015 52.0744 124.974 30.6894C123.248 23.3742 116.276 17.4586 116.276 17.4586L119.105 16.6344C119.105 16.6344 136.662 21.4478 136.973 21.6624C137.284 21.877 141.382 30.4846 141.382 30.4846L138.924 49.3775Z" fill="#263238"/>
<path d="M136.727 48.5777C136.686 47.6658 137.66 45.4614 138.578 45.2761C141.035 44.7884 145.505 44.7543 145.866 50.865C146.368 59.219 137.624 57.9754 137.594 57.7364C137.564 57.4975 136.867 51.7331 136.727 48.5777Z" fill="#FFBF9D"/>
<path d="M140.038 54.4251C140.073 54.3958 140.193 54.5177 140.449 54.6153C140.815 54.7439 141.217 54.7299 141.573 54.5762C142.46 54.2056 143.143 52.7621 143.077 51.2551C143.055 50.5371 142.87 49.8327 142.536 49.1922C142.444 48.9399 142.291 48.7126 142.09 48.5293C141.89 48.3461 141.647 48.2122 141.382 48.1388C141.207 48.103 141.026 48.1278 140.868 48.2089C140.71 48.29 140.587 48.4222 140.519 48.5826C140.419 48.8265 140.484 48.9874 140.439 49.0069C140.394 49.0264 140.243 48.8752 140.293 48.5192C140.329 48.3088 140.437 48.1163 140.599 47.973C140.828 47.7885 141.121 47.6961 141.417 47.7145C141.774 47.7642 142.111 47.9013 142.398 48.1129C142.685 48.3245 142.912 48.6036 143.057 48.924C143.463 49.6289 143.686 50.4187 143.709 51.2259C143.755 52.9132 142.962 54.5372 141.738 54.9518C141.511 55.0311 141.268 55.0591 141.028 55.0338C140.789 55.0084 140.558 54.9304 140.354 54.8055C140.063 54.625 140.007 54.4397 140.038 54.4251Z" fill="#FF9A6C"/>
<path d="M132.879 45.2858C132.447 45.2254 132.018 45.1408 131.595 45.0322C130.452 44.6945 129.404 44.1035 128.535 43.3058C127.932 42.7641 127.397 42.1552 126.94 41.4917C126.425 40.7227 125.99 39.9059 125.641 39.0532C124.897 37.0662 124.279 35.037 123.79 32.9767C123.188 30.8016 122.531 28.7436 121.814 26.9148C121.19 25.2882 120.441 23.7101 119.572 22.194C118.988 21.1749 118.331 20.1971 117.605 19.2679C117.354 18.9363 117.134 18.6973 116.988 18.5266C116.921 18.4383 116.846 18.3567 116.762 18.2828C116.819 18.3785 116.882 18.4698 116.953 18.5559C117.083 18.7314 117.294 18.9802 117.535 19.3215C118.229 20.2679 118.862 21.2549 119.431 22.2769C120.272 23.7977 121.002 25.3735 121.618 26.9928C122.32 28.8216 122.967 30.8699 123.569 33.045C124.061 35.1137 124.687 37.1498 125.445 39.141C125.806 40.0043 126.252 40.8309 126.78 41.6087C127.252 42.2794 127.804 42.8933 128.425 43.4375C129.32 44.2376 130.398 44.8193 131.57 45.1346C131.997 45.2453 132.438 45.2962 132.879 45.2858Z" fill="#263238"/>
<path d="M144.627 80.9307C144.667 80.7979 144.697 80.6626 144.718 80.5259C144.773 80.2333 144.843 79.8383 144.933 79.3408C145.119 78.2679 145.38 76.7415 145.706 74.8054L145.5 74.7761C145.455 75.0785 145.41 75.415 145.36 75.7515V75.7222C145.305 75.8344 145.239 75.9612 145.179 76.0977L145.395 76.1709C146.705 71.7735 147.626 67.2753 148.149 62.7254C148.482 59.8364 148.658 56.9323 148.675 54.0252C148.645 50.9723 148.675 47.7292 147.828 44.491C147.483 43.1637 146.957 41.8875 146.263 40.6968C145.579 39.5528 144.783 38.4765 143.885 37.4829C142.139 35.5322 140.258 33.8302 138.538 32.1574L129.343 23.3401L123.078 17.4147L121.367 15.82L120.916 15.4104C120.869 15.3592 120.815 15.3149 120.755 15.2787C120.793 15.3379 120.839 15.392 120.891 15.4396L121.312 15.8737C121.713 16.2687 122.27 16.8198 122.973 17.522L129.127 23.5352C131.746 26.0663 134.846 29.0753 138.292 32.4159C140.007 34.0984 141.884 35.7955 143.604 37.7317C145.435 39.6856 146.757 42.039 147.456 44.5934C148.279 47.7633 148.269 50.9918 148.304 54.0349C148.292 56.9285 148.125 59.8195 147.803 62.6962C147.302 67.2333 146.423 71.7234 145.174 76.1221L145.39 76.2002C145.45 76.0636 145.51 75.9368 145.56 75.8198C145.606 75.4735 145.651 75.137 145.686 74.8444L145.48 74.8151C145.194 76.7659 144.978 78.2923 144.803 79.3652C144.738 79.8529 144.683 80.2674 144.642 80.56C144.626 80.6829 144.621 80.807 144.627 80.9307Z" fill="#455468"/>
<path d="M151.414 42.311C151.382 42.186 151.331 42.0661 151.264 41.955C151.128 41.6965 150.963 41.3697 150.762 40.9796C150.326 40.131 149.639 38.9264 148.756 37.4683C147.873 36.0101 146.709 34.3129 145.355 32.489C144 30.6651 142.4 28.7387 140.619 26.8026C138.839 24.8665 137.013 23.1352 135.302 21.6185C133.592 20.1018 131.972 18.8241 130.572 17.8C129.173 16.7758 128.019 15.9809 127.196 15.4737L126.243 14.8836C126.137 14.8066 126.021 14.7443 125.897 14.6983C125.986 14.7933 126.087 14.8769 126.198 14.947C126.444 15.1226 126.745 15.3323 127.106 15.5956C127.903 16.1418 129.032 16.966 130.401 18.0341C131.771 19.1021 133.356 20.3847 135.057 21.8965C136.757 23.4083 138.503 25.1201 140.288 27.0708C142.074 29.0216 143.644 30.9187 145.024 32.7133C146.403 34.508 147.557 36.1857 148.48 37.6243C149.403 39.063 150.13 40.2383 150.602 41.0674L151.168 42.0135C151.239 42.1214 151.321 42.2212 151.414 42.311Z" fill="#455468"/>
<path d="M139.937 109.646C140.162 109.387 140.36 109.107 140.529 108.812C140.89 108.265 141.407 107.47 142.069 106.505C143.773 103.983 145.615 101.553 147.587 99.2237C149.539 96.8822 151.749 94.7562 154.178 92.8838C155.219 92.1503 156.299 91.4714 157.414 90.8502C157.079 90.9453 156.754 91.0727 156.445 91.2306C156.075 91.3967 155.716 91.5873 155.372 91.8011C154.904 92.0639 154.452 92.3521 154.018 92.6643C151.514 94.4999 149.253 96.6294 147.286 99.0042C145.293 101.342 143.465 103.807 141.813 106.383C141.181 107.358 140.7 108.187 140.379 108.758C140.204 109.04 140.056 109.337 139.937 109.646Z" fill="#263238"/>
<path d="M147.055 151.118L161.296 89.4652L146.749 81.9109C146.448 81.4867 139.089 78.2582 139.089 78.2582C137.145 81.3069 134.585 83.9413 131.565 86.0026C122.757 91.1721 113.918 86.9487 113.166 79.0238L105.1 81.2282L89.5496 83.8373C89.5496 83.8373 76.8637 115.976 78.5441 128.548C80.2245 141.121 77.882 162.876 77.882 162.876L76.5728 170.07L89.8104 170.333H91.9875L121.513 170.172L147.281 170.07C144.231 161.574 147.055 151.118 147.055 151.118Z" fill="#FFED71"/>
<path d="M67.8146 156.336C65.3043 156.454 62.8094 155.895 60.6048 154.722C58.4001 153.55 56.5711 151.808 55.3193 149.689C54.4826 148.291 54.0284 146.708 54 145.09C54 138.394 58.2888 128.792 59.7134 125.334C61.765 120.35 81.3231 85.8319 83.6757 86.3196C86.0283 86.8073 87.3074 86.9877 87.3074 86.9877L76.1715 136.097L111.591 141.745L107.703 154.912L67.8146 156.336Z" fill="#FFBF9D"/>
<path d="M66.8965 104.364L84.8945 113.63L90.8437 83.8177C90.8437 83.8177 83.2191 84.4859 80.701 87.5973C78.1829 90.7087 66.8965 104.364 66.8965 104.364Z" fill="#FFED71"/>
<path d="M88.712 138.097L83.8613 127.856L81.7445 120.287L75.2987 115.41C75.2987 115.41 73.1618 115.654 73.8239 117.268C74.4861 118.882 77.7265 121.784 77.7265 121.784L79.6327 126.958L76.5327 121.701L72.0181 119.526L67.5387 119.848C67.5387 119.848 66.711 121.799 68.7877 121.862H71.0249L74.4259 124.525L76.5527 129.524L73.3474 124.686L68.6172 123.052L65.6074 123.798C65.6074 123.798 64.7798 125.09 66.2696 125.261C67.7594 125.432 68.7777 125.422 68.7777 125.422L71.5115 126.968L73.9193 131.874L69.6856 128.509L64.213 127.875C64.213 127.875 63.3 129.158 64.7146 129.641C66.1591 130.22 67.5722 130.871 68.9482 131.591L71.993 135.683L88.712 138.097Z" fill="#FFBF9D"/>
<path d="M88.7121 138.097L71.9681 135.737H71.9329V135.707L68.8731 131.621L68.9082 131.645C67.9501 131.157 66.9519 130.67 65.8985 130.211C65.6326 130.099 65.3668 129.982 65.0959 129.88C64.8076 129.788 64.5301 129.667 64.2682 129.519C64.1299 129.428 64.0171 129.305 63.9401 129.161C63.863 129.017 63.8241 128.857 63.8268 128.694C63.8433 128.377 63.9491 128.07 64.1328 127.807L64.1629 127.758H64.2331L69.7058 128.387H69.7409L73.9745 131.772L73.7939 131.908L71.3812 127.031L71.4313 127.08L68.6925 125.534H68.7577C68.0304 125.534 67.2829 125.476 66.5155 125.398C66.3034 125.409 66.0913 125.375 65.8944 125.297C65.6976 125.22 65.5208 125.101 65.3768 124.949C65.2551 124.758 65.2154 124.529 65.2664 124.31C65.3114 124.108 65.3893 123.913 65.4972 123.735V123.691H65.5473L68.5571 122.94H68.5972H68.6323L73.3826 124.608H73.4227V124.642L76.6732 129.484L76.4475 129.602L75.3038 126.924C74.9778 126.144 74.6467 125.373 74.3006 124.603L74.3407 124.652L70.9397 121.989L71.02 122.018H69.6957C69.2538 122.037 68.811 122.022 68.3715 121.974C68.132 121.947 67.9053 121.855 67.7173 121.708C67.5292 121.562 67.3874 121.366 67.308 121.145C67.196 120.707 67.2329 120.245 67.4134 119.828V119.76H67.4986L71.9781 119.438H72.0132H72.0433L76.5579 121.618H76.588V121.652L79.6879 126.91L79.4672 127.007L77.6263 121.838L77.6564 121.886C76.5202 120.868 75.4701 119.762 74.5163 118.58C74.2893 118.288 74.0831 117.982 73.8993 117.663C73.6983 117.338 73.599 116.964 73.6134 116.585C73.6385 116.395 73.7099 116.214 73.8215 116.056C73.9332 115.898 74.0819 115.769 74.2554 115.678C74.5762 115.497 74.9309 115.379 75.2988 115.332H75.3389H75.374L81.8098 120.209H81.8349V120.238L83.9367 127.812L88.7121 138.097L83.7962 127.89L81.6894 120.311L81.7245 120.36L75.2737 115.512H75.349C75.0118 115.558 74.6866 115.665 74.3909 115.829C74.2451 115.904 74.1199 116.012 74.0256 116.143C73.9314 116.275 73.8709 116.426 73.8491 116.585C73.814 117.239 74.3006 117.863 74.7169 118.434C75.6656 119.602 76.7089 120.695 77.837 121.701V121.725L79.7481 126.9L79.5324 126.997L76.4274 121.745L76.4826 121.789L71.9681 119.614H72.0333L67.5538 119.936L67.6642 119.862C67.5086 120.223 67.4752 120.623 67.5689 121.004C67.6314 121.183 67.7463 121.341 67.8995 121.458C68.0527 121.575 68.2376 121.646 68.4316 121.662C68.8582 121.705 69.2873 121.718 69.7158 121.701H71.0752L71.1103 121.73L74.5113 124.393H74.5414V124.422L75.5446 126.744C75.9308 127.661 76.3221 128.573 76.6833 129.421L76.4525 129.538L73.2472 124.7L73.3124 124.749L68.5871 123.115H68.6473L65.6376 123.861L65.7179 123.808C65.61 123.945 65.5416 124.108 65.5196 124.279C65.4975 124.45 65.5227 124.624 65.5925 124.783C65.6906 124.914 65.8355 125.005 65.9988 125.037C66.1779 125.082 66.3609 125.112 66.5456 125.125C67.303 125.198 68.0504 125.247 68.7627 125.256H68.7928H68.8229L71.5567 126.802H71.5918V126.836L73.9946 131.742L74.2203 132.206L73.814 131.879L69.5854 128.465H69.6456L64.1729 127.826L64.2682 127.782C64.1111 128.012 64.0178 128.278 63.9973 128.553C63.9924 128.684 64.0221 128.813 64.0836 128.929C64.1451 129.046 64.2363 129.144 64.3485 129.216C64.5999 129.352 64.8635 129.464 65.136 129.553C65.4119 129.66 65.6778 129.777 65.9436 129.889C66.997 130.377 68.0003 130.865 68.9533 131.352L71.9931 135.449L71.938 135.415L88.7121 138.097Z" fill="#FF9A6C"/>
<g opacity="0.3">
<path d="M147.346 155.01C147.346 155.01 143.233 163.388 137.89 165.841C132.929 168.119 129.779 168.611 123.875 168.192C120.991 167.992 111.591 166.217 108.19 165.266L85.2808 155.707L133.436 163.086L147.346 155.01Z" fill="black"/>
</g>
<path d="M159.099 92.5229C159.099 92.5229 167.717 89.5529 167.882 108.334C168.048 127.114 145.395 158.633 141.512 161.735C137.63 164.837 133.236 166.924 121.593 165.246C106.991 163.144 86.0234 155.712 86.0234 155.712L98.8498 144.115L124.884 142.974L146.047 100.677C146.047 100.677 151.876 91.7036 159.099 92.5229Z" fill="#FFBF9D"/>
<path d="M107.703 154.903C107.703 154.903 114.159 158.853 121.447 158.648C128.736 158.443 135.187 160.735 136.125 160.111C137.063 159.487 137.168 158.36 136.125 157.853C135.081 157.346 130.672 156.741 130.672 156.741L126.86 155.22C126.86 155.22 139.877 156.307 140.915 155.819C141.954 155.332 142.997 154.605 142.581 153.493C142.483 153.185 142.29 152.913 142.03 152.714C141.769 152.514 141.452 152.397 141.121 152.376C141.121 152.376 143.935 152.479 143.83 151.367C143.748 150.895 143.567 150.445 143.299 150.044C143.03 149.643 142.68 149.3 142.27 149.036C141.853 148.836 136.391 146.675 136.391 146.675L129.368 145.32L136.11 145.056L141.999 146.656C141.999 146.656 144.351 146.914 143.83 144.988C143.308 143.062 136.12 140.94 136.12 140.94L126.96 140.326C126.96 140.326 134.038 139.321 134.765 137.195C135.493 135.068 134.264 133.854 134.264 133.854C134.264 133.854 129.248 135.78 126.87 136.185C124.492 136.59 121.563 137.497 117.71 139.019C115.624 139.82 113.585 140.732 111.601 141.75" fill="#FFBF9D"/>
<path d="M111.591 141.745L111.962 141.54C112.207 141.408 112.579 141.218 113.07 140.979C114.074 140.492 115.518 139.833 117.444 139.058C119.781 138.096 122.175 137.272 124.613 136.59C125.325 136.405 126.077 136.234 126.86 136.102C127.656 135.949 128.441 135.749 129.212 135.503C130.813 135.015 132.483 134.43 134.229 133.771H134.289L134.329 133.815C134.644 134.184 134.873 134.614 135.001 135.078C135.128 135.541 135.15 136.025 135.066 136.497L134.991 136.858L134.891 137.214C134.805 137.458 134.666 137.681 134.484 137.868C134.114 138.227 133.683 138.522 133.21 138.741C132.247 139.191 131.238 139.544 130.201 139.794C129.137 140.07 128.058 140.292 126.97 140.457V140.243L136.135 140.848H136.16C138.051 141.406 139.889 142.124 141.652 142.993C142.103 143.226 142.535 143.49 142.947 143.783C143.157 143.937 143.354 144.108 143.534 144.295C143.726 144.487 143.87 144.719 143.955 144.973C144.03 145.232 144.047 145.503 144.005 145.768C143.984 145.907 143.936 146.041 143.862 146.161C143.788 146.282 143.69 146.387 143.574 146.471C143.1 146.75 142.543 146.865 141.994 146.797L136.1 145.203H136.14L129.398 145.466V145.217L134.414 146.193L136.421 146.578H136.446L142.3 148.933C142.765 149.206 143.156 149.584 143.438 150.036C143.751 150.464 143.926 150.973 143.94 151.499C143.917 151.642 143.857 151.778 143.764 151.892C143.672 152.007 143.551 152.096 143.413 152.152C143.174 152.268 142.919 152.349 142.656 152.391C142.146 152.483 141.629 152.522 141.111 152.508V152.259C141.343 152.271 141.57 152.328 141.779 152.428C141.988 152.528 142.174 152.668 142.325 152.84C142.627 153.175 142.792 153.608 142.786 154.054C142.764 154.274 142.697 154.487 142.589 154.681C142.482 154.875 142.335 155.047 142.159 155.185C141.835 155.458 141.476 155.687 141.091 155.868C140.992 155.927 140.883 155.968 140.77 155.99C140.664 156.014 140.557 156.029 140.449 156.034C140.238 156.058 140.027 156.063 139.822 156.068C139.405 156.068 138.994 156.068 138.583 156.068C137.76 156.068 136.947 156.019 136.145 155.98C132.934 155.819 129.844 155.571 126.835 155.332L126.89 155.112L130.697 156.634C132.102 156.839 133.466 157.058 134.795 157.351C135.126 157.429 135.457 157.507 135.799 157.614C136.14 157.703 136.45 157.88 136.696 158.126C136.817 158.257 136.906 158.413 136.956 158.582C137.006 158.751 137.017 158.928 136.987 159.102C136.921 159.437 136.745 159.743 136.486 159.974C136.426 160.032 136.362 160.086 136.295 160.135C136.224 160.193 136.145 160.239 136.059 160.272C135.896 160.317 135.727 160.337 135.558 160.331C135.237 160.326 134.917 160.298 134.6 160.248C133.973 160.165 133.366 160.048 132.764 159.94C131.565 159.721 130.396 159.506 129.252 159.331C127.139 158.988 125.004 158.79 122.862 158.741C122.36 158.741 121.859 158.741 121.402 158.741C120.946 158.741 120.454 158.741 119.998 158.741C119.541 158.741 119.095 158.682 118.658 158.638L117.399 158.468C114.875 158.03 112.422 157.267 110.106 156.2C109.303 155.829 108.706 155.517 108.31 155.298C107.914 155.078 107.718 154.942 107.718 154.942C107.771 154.967 107.823 154.994 107.874 155.024L108.325 155.263C108.731 155.473 109.328 155.78 110.136 156.136C112.455 157.176 114.903 157.917 117.419 158.341L118.673 158.502C119.105 158.546 119.551 158.565 120.003 158.599C120.454 158.633 120.921 158.599 121.397 158.599C121.874 158.599 122.365 158.599 122.862 158.599C125.013 158.639 127.159 158.83 129.283 159.17C130.421 159.341 131.59 159.55 132.794 159.77C133.396 159.877 134.003 159.989 134.62 160.072C134.929 160.117 135.24 160.143 135.553 160.15C135.702 160.153 135.85 160.135 135.994 160.096C136.124 160.035 136.242 159.95 136.34 159.848C136.562 159.644 136.713 159.378 136.772 159.087C136.795 158.943 136.785 158.797 136.742 158.658C136.7 158.518 136.626 158.39 136.526 158.282C136.304 158.063 136.025 157.906 135.718 157.829C135.407 157.726 135.081 157.653 134.755 157.575C133.441 157.287 132.072 157.087 130.677 156.873H130.647L126.835 155.332L126.132 155.054L126.89 155.112C129.864 155.356 132.969 155.6 136.185 155.751C136.987 155.79 137.8 155.824 138.618 155.839C139.024 155.839 139.435 155.839 139.842 155.839C140.047 155.839 140.253 155.839 140.454 155.81C140.551 155.8 140.648 155.786 140.745 155.766C140.835 155.749 140.922 155.716 141 155.668C141.361 155.493 141.698 155.275 142.004 155.02C142.157 154.901 142.284 154.753 142.378 154.586C142.472 154.418 142.531 154.234 142.55 154.044C142.549 153.66 142.405 153.289 142.144 153.001C142.018 152.859 141.865 152.743 141.693 152.659C141.52 152.576 141.333 152.526 141.141 152.513V152.264C141.645 152.277 142.149 152.239 142.646 152.152C142.885 152.115 143.116 152.042 143.333 151.937C143.432 151.899 143.521 151.837 143.589 151.757C143.657 151.677 143.704 151.581 143.724 151.479C143.693 151.002 143.519 150.544 143.223 150.162C142.961 149.751 142.606 149.404 142.184 149.148L136.365 146.792L134.359 146.407L129.343 145.432L128.264 145.222L129.363 145.178L136.105 144.92H136.145L142.039 146.553C142.526 146.619 143.021 146.521 143.443 146.275C143.615 146.123 143.735 145.923 143.786 145.702C143.837 145.482 143.818 145.251 143.729 145.042C143.54 144.608 143.222 144.24 142.816 143.983C142.418 143.695 141.997 143.438 141.557 143.213C139.809 142.347 137.986 141.633 136.11 141.077H136.14L126.975 140.457L125.972 140.389L126.975 140.238C128.054 140.074 129.124 139.858 130.18 139.589C131.196 139.341 132.184 138.994 133.13 138.555C133.58 138.348 133.992 138.069 134.349 137.731C134.511 137.564 134.634 137.364 134.71 137.146L134.815 136.81L134.881 136.463C134.963 136.021 134.945 135.566 134.829 135.131C134.713 134.696 134.501 134.29 134.208 133.942H134.314C132.568 134.595 130.898 135.181 129.298 135.663C128.517 135.906 127.723 136.104 126.92 136.258C126.142 136.39 125.415 136.556 124.683 136.746C122.246 137.417 119.854 138.231 117.52 139.185C115.588 139.94 114.119 140.599 113.13 141.057L112.007 141.594L111.591 141.745Z" fill="#FF9A6C"/>
<path d="M127.196 150.377C127.92 150.481 128.651 150.537 129.383 150.543C130.727 150.621 132.588 150.772 134.62 151.074C136.652 151.377 138.477 151.762 139.787 152.074C140.486 152.287 141.2 152.45 141.924 152.562C141.266 152.246 140.574 152 139.862 151.83C138.163 151.341 136.432 150.966 134.68 150.708C132.93 150.451 131.163 150.309 129.393 150.284C128.66 150.236 127.923 150.267 127.196 150.377Z" fill="#FF9A6C"/>
<path d="M81.5588 113.991C81.2879 115.215 81.0572 116.234 80.8967 117.014C80.8017 117.381 80.738 117.754 80.7061 118.131C80.8539 117.78 80.968 117.416 81.0472 117.044C81.2478 116.273 81.5086 115.264 81.8247 114.054C82.4717 111.523 83.3295 108.022 84.2575 104.144C85.7624 97.8046 87.0114 92.4059 87.3324 90.7283V90.5966L87.2221 90.6697C87.027 90.7833 86.8453 90.9175 86.6803 91.0696C86.8916 90.9883 87.0934 90.8853 87.2823 90.7624L87.197 90.7039C86.6954 92.3425 85.3761 97.7021 83.8512 104.062" fill="#263238"/>
<path d="M135.463 115.429L164.556 128.036C164.556 128.036 175.848 94.1566 159.214 88.6995L150.872 90.5966L135.463 115.429Z" fill="#FFED71"/>
<path d="M107.703 154.903C107.703 154.976 98.7793 155.351 87.7638 155.746C76.7483 156.141 67.8145 156.405 67.8145 156.336C67.8145 156.268 76.7382 155.888 87.7538 155.493C98.7693 155.098 107.703 154.844 107.703 154.903Z" fill="#FF9A6C"/>
<path d="M71.9879 135.654C71.9879 135.698 71.416 135.751 70.5181 135.966C69.3526 136.255 68.243 136.726 67.2326 137.361C66.2151 137.995 65.3412 138.825 64.6643 139.799C64.1626 140.545 63.967 141.082 63.9219 141.067C63.9349 140.934 63.9688 140.804 64.0222 140.682C64.1537 140.34 64.3218 140.013 64.5238 139.706C65.1742 138.684 66.056 137.82 67.1021 137.18C68.1359 136.526 69.2858 136.065 70.4931 135.819C70.8576 135.751 71.2262 135.704 71.5966 135.678C71.7245 135.648 71.857 135.639 71.9879 135.654Z" fill="#FF9A6C"/>
<path d="M140.479 111.406C140.464 111.499 140.435 111.589 140.394 111.674L140.103 112.416C139.847 113.054 139.455 113.976 138.959 115.112C137.956 117.38 136.511 120.477 134.795 123.847C133.08 127.217 131.44 130.231 130.231 132.396C129.629 133.479 129.132 134.347 128.781 134.951L128.375 135.639C128.332 135.721 128.28 135.798 128.219 135.868C128.245 135.78 128.283 135.695 128.33 135.615L128.691 134.903C129.037 134.259 129.498 133.381 130.07 132.313C131.234 130.123 132.844 127.105 134.585 123.735C136.325 120.365 137.775 117.288 138.813 115.039L140.032 112.377L140.373 111.655C140.4 111.569 140.435 111.485 140.479 111.406Z" fill="#263238"/>
</svg>
