<svg width="90" height="83" viewBox="0 0 90 83" fill="none" xmlns="http://www.w3.org/2000/svg">
<g clip-path="url(#clip0_550_16252)">
<path d="M89.9821 69.3691C89.9821 69.3976 69.8411 69.4221 45.0021 69.4221C20.1631 69.4221 0.0180664 69.3976 0.0180664 69.3691C0.0180664 69.3405 20.1549 69.316 45.0021 69.316C69.8493 69.316 89.9821 69.3405 89.9821 69.3691Z" fill="#263238"/>
<path d="M60.0797 39.5421C59.9981 39.891 58.2621 55.6969 58.2621 55.6969L56.6913 57.9307L56.2649 61.3497L59.5289 69.422H35.3794C35.3794 69.422 34.9979 65.1564 35.0306 64.016C35.0632 62.8757 35.6426 58.6916 35.6426 58.6916L35.5875 54.4423L34.6736 35.9211L42.854 33.2814C47.7969 32.4307 55.0715 36.1374 55.0715 36.1374L60.0797 39.5421Z" fill="#449EEE"/>
<path d="M56.9423 27.7612C58.0174 27.6938 58.8415 26.7962 59.4331 25.8966C59.988 25.0561 60.4531 24.1136 60.4654 23.1079C60.4654 22.2348 60.1226 21.4025 59.7799 20.5987C59.4372 19.795 59.068 18.9341 58.5151 18.2262C57.9623 17.5183 57.1789 16.943 56.2854 16.8329" fill="#263238"/>
<path d="M44.3757 31.9738L44.388 31.7065L45.0183 16.2739L45.3672 15.3988L53.0865 14.3359C53.685 14.2893 54.2867 14.3644 54.8554 14.5568C55.424 14.7491 55.9478 15.0547 56.395 15.4551C56.8423 15.8555 57.2038 16.3423 57.4577 16.8863C57.7116 17.4302 57.8527 18.02 57.8724 18.6199C57.9703 21.429 57.9825 24.8623 57.5909 26.9452C56.8075 31.1231 53.568 31.5699 53.568 31.5699C53.568 31.5699 53.5129 32.6653 53.4517 34.2504C53.4068 35.4459 52.3501 38.8955 51.1526 38.9302C50.6385 38.9445 49.235 38.4977 48.5659 38.3998C44.3451 37.7837 44.3757 31.9738 44.3757 31.9738Z" fill="#FFBE9D"/>
<path d="M56.4465 21.0558C56.4444 21.1965 56.3873 21.3308 56.2874 21.4299C56.1875 21.529 56.0528 21.5851 55.912 21.5862C55.8432 21.5897 55.7744 21.5795 55.7097 21.556C55.6449 21.5326 55.5855 21.4964 55.5349 21.4496C55.4843 21.4029 55.4436 21.3465 55.4152 21.2837C55.3868 21.221 55.3712 21.1532 55.3694 21.0843C55.3715 20.9436 55.4286 20.8093 55.5285 20.7102C55.6284 20.6111 55.7631 20.555 55.9039 20.5539C55.9727 20.5504 56.0415 20.5606 56.1062 20.584C56.171 20.6075 56.2304 20.6437 56.281 20.6904C56.3316 20.7372 56.3723 20.7936 56.4007 20.8564C56.4291 20.9191 56.4447 20.9869 56.4465 21.0558Z" fill="#263238"/>
<path d="M57.0788 20.3723C57.0094 20.4417 56.6096 20.1275 56.0282 20.1133C55.4468 20.099 55.0082 20.3764 54.9531 20.303C54.9225 20.2724 54.9939 20.1459 55.1836 20.0174C55.4393 19.8494 55.7409 19.7652 56.0466 19.7767C56.3488 19.7838 56.6409 19.8867 56.8809 20.0704C57.0543 20.2132 57.1114 20.3417 57.0788 20.3723Z" fill="#263238"/>
<path d="M50.7651 21.0007C50.763 21.1414 50.7059 21.2757 50.606 21.3748C50.5061 21.474 50.3714 21.53 50.2306 21.5311C50.1618 21.5347 50.093 21.5244 50.0283 21.501C49.9635 21.4775 49.9041 21.4414 49.8535 21.3946C49.8029 21.3478 49.7622 21.2914 49.7338 21.2287C49.7054 21.1659 49.6898 21.0981 49.688 21.0293C49.6901 20.8885 49.7472 20.7543 49.8471 20.6551C49.947 20.556 50.0817 20.4999 50.2225 20.4989C50.2913 20.4953 50.3601 20.5055 50.4248 20.529C50.4896 20.5524 50.549 20.5886 50.5996 20.6354C50.6502 20.6821 50.6909 20.7386 50.7193 20.8013C50.7477 20.864 50.7633 20.9318 50.7651 21.0007Z" fill="#263238"/>
<path d="M51.3688 20.3233C51.2995 20.3927 50.8976 20.0785 50.3182 20.0642C49.7389 20.05 49.2982 20.3274 49.2432 20.254C49.2126 20.2234 49.284 20.0969 49.4737 19.9684C49.7292 19.8001 50.0309 19.7159 50.3366 19.7276C50.6388 19.7348 50.9309 19.8376 51.171 20.0214C51.3444 20.1642 51.4015 20.2927 51.3688 20.3233Z" fill="#263238"/>
<path d="M53.3639 24.687C53.3639 24.6543 53.725 24.6013 54.3125 24.5442C54.4615 24.5319 54.6022 24.5054 54.6308 24.4054C54.6466 24.2524 54.616 24.0982 54.5431 23.9628L54.1351 22.8224C53.572 21.1904 53.1661 19.8644 53.2334 19.842C53.3007 19.8195 53.8087 21.119 54.3737 22.7428C54.5084 23.1508 54.6389 23.5242 54.7613 23.8893C54.8504 24.0711 54.8721 24.2785 54.8225 24.4748C54.7989 24.5252 54.7643 24.5697 54.7212 24.605C54.6781 24.6403 54.6277 24.6655 54.5737 24.6788C54.4908 24.6986 54.4058 24.7075 54.3207 24.7053C53.723 24.7278 53.3639 24.7196 53.3639 24.687Z" fill="#263238"/>
<path d="M53.568 31.5699C51.586 31.5451 49.6496 30.971 47.9744 29.9114C47.9744 29.9114 49.2616 32.8388 53.4824 32.5634L53.568 31.5699Z" fill="#EB996E"/>
<path d="M53.0723 26.0803C52.9652 25.9394 52.824 25.828 52.662 25.7566C52.5 25.6852 52.3225 25.6562 52.1462 25.6723C52.0176 25.6803 51.892 25.7141 51.7767 25.7715C51.6614 25.829 51.5588 25.909 51.475 26.0068C51.3956 26.1021 51.3471 26.2193 51.3358 26.3428C51.3245 26.4663 51.351 26.5903 51.4118 26.6984C51.503 26.8037 51.6235 26.8793 51.758 26.9157C51.8925 26.952 52.0347 26.9474 52.1666 26.9024C52.4438 26.8134 52.7005 26.6699 52.9214 26.4801C52.9879 26.4356 53.0454 26.3789 53.0907 26.3128C53.1124 26.281 53.1241 26.2433 53.1241 26.2047C53.1241 26.1661 53.1124 26.1285 53.0907 26.0966" fill="#EB996E"/>
<path d="M51.6361 25.0418C51.732 25.0418 51.7157 25.6681 52.2481 26.1312C52.7806 26.5943 53.4476 26.5392 53.4517 26.631C53.4517 26.6697 53.2987 26.7493 53.0131 26.7493C52.644 26.7447 52.2884 26.6095 52.0094 26.3678C51.741 26.1362 51.5735 25.8091 51.5423 25.4559C51.528 25.1907 51.5933 25.0377 51.6361 25.0418Z" fill="#263238"/>
<path d="M51.5811 18.0528C51.5199 18.2078 50.9426 18.1181 50.2592 18.1813C49.5758 18.2446 49.0189 18.4139 48.9332 18.2711C48.8944 18.2017 48.9944 18.0671 49.2208 17.91C49.5224 17.7309 49.8608 17.6227 50.2103 17.5937C50.5599 17.5647 50.9115 17.6157 51.2384 17.7427C51.4852 17.8508 51.6076 17.9773 51.5811 18.0528Z" fill="#263238"/>
<path d="M56.9117 18.6853C56.8056 18.8159 56.4098 18.6669 55.9284 18.6486C55.4469 18.6302 55.0369 18.7118 54.9471 18.5711C54.9084 18.5037 54.9757 18.3671 55.1511 18.2528C55.3945 18.11 55.6748 18.0425 55.9566 18.0588C56.2383 18.0751 56.5089 18.1746 56.7342 18.3446C56.9055 18.4854 56.9586 18.62 56.9117 18.6853Z" fill="#263238"/>
<path d="M44.335 20.9904C43.5157 21.4927 42.797 22.143 42.2155 22.908C41.5463 23.7465 41.1118 24.8317 41.2791 25.8925C41.5096 27.3634 42.7846 28.4079 43.9699 29.3095C44.6512 29.4075 45.1592 28.6547 45.2653 27.9733C45.3713 27.292 45.2775 26.5555 45.5998 25.9456C45.8895 25.3989 46.4607 25.0643 46.8422 24.5767C47.5521 23.671 47.5052 22.396 47.3318 21.2577C47.1584 20.1193 47.3318 18.4017 48.7945 16.7697C48.7945 16.7839 45.2367 18.1732 44.335 20.9904Z" fill="#263238"/>
<path d="M43.0743 24.7787C43.6863 23.8954 43.5313 22.6 42.8234 21.782C42.1155 20.9639 40.9731 20.609 39.896 20.7008C39.1126 20.7681 38.3191 21.0761 37.8132 21.6779C37.3072 22.2797 37.1542 23.2079 37.5745 23.873C37.807 24.2402 38.211 24.587 38.1192 25.0133C38.0274 25.4397 37.5439 25.5764 37.2012 25.8171C36.9068 26.0382 36.6893 26.3462 36.5795 26.6976C36.4696 27.0491 36.473 27.4261 36.5892 27.7755C36.7161 28.1203 36.9278 28.4276 37.2048 28.669C37.4819 28.9104 37.8153 29.0781 38.1742 29.1566C38.9 29.3029 39.6543 29.1673 40.2836 28.7771C40.2836 29.432 40.9874 29.9318 41.6382 29.8767C42.2889 29.8216 42.8418 29.3463 43.1906 28.7935C43.6592 27.9913 43.882 27.0691 43.8312 26.1415C43.7801 25.2186 43.6386 24.3031 43.4089 23.4079" fill="#263238"/>
<path d="M44.1513 29.5095C44.1167 29.4935 44.0845 29.4729 44.0554 29.4483L43.7902 29.2565C43.5638 29.0872 43.2353 28.8485 42.8539 28.5058C42.3996 28.1181 41.9983 27.6723 41.6605 27.1798C41.242 26.5697 40.9999 25.8561 40.9607 25.1173C40.9432 24.7338 41.0036 24.3508 41.1382 23.9913C41.2693 23.6582 41.4633 23.3535 41.7094 23.0937C42.1357 22.677 42.6063 22.3083 43.1129 21.9941C43.4455 21.7756 43.7624 21.5343 44.0615 21.2719C44.1656 21.1761 44.2431 21.0985 44.2941 21.0435C44.3184 21.0147 44.3458 20.9887 44.3757 20.9659C44.3757 20.9659 44.3553 21.0006 44.3084 21.0577C44.2415 21.1438 44.1686 21.2249 44.0901 21.3005C43.8001 21.5781 43.4876 21.8313 43.1558 22.0573C42.6606 22.3776 42.1999 22.7481 41.7808 23.163C41.5452 23.4143 41.3602 23.7087 41.2361 24.03C41.1079 24.3769 41.0504 24.7459 41.0668 25.1153C41.1037 25.834 41.335 26.5292 41.7359 27.1267C42.0664 27.6152 42.457 28.06 42.8987 28.4507C43.2721 28.7893 43.5923 29.0443 43.8106 29.2239L44.0615 29.4279C44.0943 29.4518 44.1244 29.4791 44.1513 29.5095Z" fill="#455A64"/>
<path d="M41.1525 24.1851C41.1342 24.1953 41.0281 23.9688 40.7588 23.6832C40.4141 23.3051 39.9646 23.0381 39.4676 22.9164C38.9705 22.7947 38.4485 22.8237 37.9681 22.9998C37.5989 23.1304 37.3989 23.2793 37.3887 23.263C37.3785 23.2467 37.4295 23.2161 37.5213 23.1508C37.6533 23.0623 37.7942 22.9878 37.9416 22.9284C38.4337 22.7278 38.9767 22.6879 39.4929 22.8143C40.0091 22.9407 40.4721 23.227 40.8159 23.6322C40.9199 23.7524 41.0102 23.8838 41.0852 24.0239C41.1168 24.0733 41.1396 24.1278 41.1525 24.1851Z" fill="#455A64"/>
<path d="M37.8784 25.303C37.8662 25.303 37.9417 25.099 38.2171 24.9276C38.3777 24.8325 38.5549 24.7688 38.7393 24.74C38.9613 24.7058 39.186 24.6928 39.4105 24.7012C39.8169 24.7122 40.2201 24.776 40.61 24.8909C40.774 24.9284 40.931 24.9917 41.0751 25.0786C40.9113 25.0488 40.7492 25.01 40.5896 24.9623C40.2013 24.8714 39.805 24.8195 39.4064 24.8073C39.0127 24.7696 38.6158 24.8335 38.2538 24.9929C38.1134 25.0762 37.9867 25.1808 37.8784 25.303Z" fill="#455A64"/>
<path d="M37.1768 28.6363C37.1768 28.618 37.4685 28.6241 37.9275 28.5343C38.5226 28.4189 39.0873 28.1813 39.586 27.8367C40.0797 27.4855 40.4962 27.037 40.81 26.5188C41.0507 26.121 41.1466 25.8436 41.165 25.8517C41.1562 25.922 41.1376 25.9906 41.1099 26.0557C41.0447 26.2308 40.9663 26.4006 40.8753 26.5637C40.5737 27.1061 40.1527 27.5727 39.6441 27.9282C39.1355 28.2838 38.5527 28.519 37.9397 28.6159C37.7555 28.6448 37.5693 28.6591 37.3828 28.6588C37.3133 28.6634 37.2436 28.6558 37.1768 28.6363Z" fill="#455A64"/>
<path d="M41.3567 24.128C41.3567 24.1178 41.4811 24.2381 41.7382 24.3789C42.1063 24.5707 42.519 24.6608 42.9336 24.64C43.2176 24.63 43.4983 24.5763 43.7659 24.4809C44.0727 24.3659 44.3592 24.2027 44.6146 23.9974C45.1913 23.5117 45.6503 22.9013 45.9569 22.2124C46.259 21.5185 46.5179 20.8065 46.7321 20.0806C46.9134 19.4849 47.1398 18.9038 47.4094 18.3425C47.5928 17.9638 47.8209 17.6083 48.0887 17.2838C48.1846 17.1716 48.2641 17.0798 48.3212 17.0328C48.3487 17.0042 48.3787 16.9783 48.411 16.9553C48.411 16.9553 48.3008 17.0777 48.1213 17.3103C47.869 17.6412 47.6529 17.9982 47.4767 18.3752C47.2182 18.9374 47.0007 19.5176 46.8259 20.1112C46.6159 20.8428 46.3576 21.5598 46.0528 22.2573C45.7403 22.9619 45.2682 23.5842 44.6737 24.0749C44.4097 24.2839 44.1134 24.4486 43.7965 24.5625C43.5195 24.6589 43.2289 24.7105 42.9357 24.7155C42.5074 24.7317 42.0832 24.6271 41.7117 24.4136C41.6531 24.3823 41.5978 24.3454 41.5464 24.3034C41.5064 24.2762 41.4688 24.2455 41.4342 24.2116C41.4058 24.1862 41.3799 24.1582 41.3567 24.128Z" fill="#455A64"/>
<path d="M47.344 20.3376C47.3542 20.3376 47.2705 20.46 47.1767 20.6987C47.0559 21.0394 46.9872 21.3963 46.9727 21.7575C46.9619 22.3005 46.9012 22.8413 46.7911 23.3732C46.6099 24.0244 46.2375 24.6064 45.7222 25.0439C45.2121 25.4899 44.5749 25.7646 43.9005 25.8293C43.3533 25.8767 42.8027 25.7921 42.295 25.5825C41.9542 25.4436 41.6396 25.2477 41.3647 25.0031C41.2923 24.9397 41.2242 24.8715 41.1607 24.7991C41.136 24.7745 41.1141 24.7471 41.0955 24.7175C41.1057 24.7175 41.1975 24.8195 41.3974 24.9786C41.6771 25.2082 41.9919 25.3914 42.3297 25.5213C42.8283 25.7158 43.3656 25.7905 43.8984 25.7396C44.5508 25.6719 45.166 25.4031 45.6589 24.9705C46.1592 24.547 46.5226 23.9848 46.7034 23.3548C46.8172 22.8299 46.8854 22.2962 46.9074 21.7595C46.93 21.3926 47.0112 21.0317 47.1481 20.6906C47.189 20.5993 47.2367 20.5114 47.2909 20.4274C47.3051 20.3955 47.3229 20.3654 47.344 20.3376Z" fill="#455A64"/>
<path d="M59.4332 25.6232C59.4332 25.6232 59.5025 25.56 59.6106 25.4356C59.7659 25.2596 59.887 25.0562 59.9676 24.8358C60.0877 24.5099 60.1371 24.1622 60.1125 23.8158C60.0761 23.3891 59.9577 22.9735 59.7636 22.5918C59.3556 21.7758 58.8048 21.1495 58.4397 20.6722C58.2946 20.4827 58.1624 20.2837 58.0439 20.0765C57.9961 20.0027 57.9578 19.9232 57.9297 19.8398C57.9863 19.9069 58.0361 19.9793 58.0786 20.0561C58.1704 20.1948 58.3112 20.3927 58.4988 20.6252C58.8742 21.0883 59.4474 21.7105 59.8595 22.5449C60.059 22.9362 60.1783 23.3635 60.2104 23.8015C60.2318 24.1608 60.1733 24.5203 60.039 24.8542C59.945 25.0796 59.8062 25.2837 59.631 25.4539C59.5845 25.499 59.5348 25.5406 59.4821 25.5784C59.4556 25.6151 59.4352 25.6273 59.4332 25.6232Z" fill="#455A64"/>
<path d="M58.8292 26.8187C59.0317 26.601 59.2014 26.355 59.3331 26.0884C59.465 25.7959 59.5344 25.4791 59.5371 25.1582C59.537 24.7646 59.4565 24.3751 59.3005 24.0137C59.1381 23.6509 58.9541 23.298 58.7497 22.957C58.5722 22.6347 58.4192 22.345 58.2948 22.09C58.1703 21.835 58.0765 21.6371 58.0153 21.4943C57.9776 21.4221 57.9495 21.3453 57.9316 21.2659C57.9779 21.3301 58.0182 21.3984 58.052 21.4699L58.3621 22.0492C58.4947 22.294 58.6538 22.5837 58.8354 22.904C59.0469 23.2451 59.235 23.6002 59.3984 23.9668C59.5599 24.3415 59.6405 24.7461 59.635 25.1541C59.627 25.4871 59.5485 25.8146 59.4045 26.1149C59.3057 26.3152 59.1755 26.4984 59.019 26.6576C58.9763 26.7001 58.9313 26.7403 58.8843 26.7779C58.8496 26.8085 58.8313 26.8208 58.8292 26.8187Z" fill="#455A64"/>
<path d="M44.135 21.531C45.5324 19.1463 47.4867 16.9288 50.1755 16.2862C51.4878 15.962 52.8527 15.91 54.186 16.1335C55.5192 16.357 56.7925 16.8512 57.9275 17.5857V12.8835L54.5717 2.05109L51.9584 0.667969L45.7813 4.20125L44.184 17.2307L44.135 21.531Z" fill="#449EEE"/>
<g opacity="0.7">
<path d="M44.135 21.531C45.5324 19.1463 47.4867 16.9288 50.1755 16.2862C51.4878 15.962 52.8527 15.91 54.186 16.1335C55.5192 16.357 56.7925 16.8512 57.9275 17.5857V12.8835L54.5717 2.05109L51.9584 0.667969L45.7813 4.20125L44.184 17.2307L44.135 21.531Z" fill="white"/>
</g>
<path d="M57.799 13.0549C57.7472 13.0369 57.6973 13.0136 57.6501 12.9855C57.5542 12.9386 57.4196 12.857 57.2421 12.7815C56.728 12.531 56.191 12.3302 55.6387 12.1818C54.82 11.9602 53.9774 11.8389 53.1295 11.8207C52.629 11.8092 52.1283 11.8276 51.6301 11.8758C51.0957 11.9157 50.5671 12.0121 50.0531 12.1634C49.0669 12.4881 48.1336 12.9555 47.2828 13.5506C46.5835 14.0291 45.9504 14.5977 45.3999 15.2418C45.0306 15.6803 44.7124 16.1594 44.4513 16.6698C44.3738 16.8473 44.3105 16.988 44.2616 17.0941C44.2431 17.1455 44.2191 17.1947 44.1902 17.241C44.2029 17.1884 44.2207 17.1372 44.2432 17.088C44.282 16.988 44.335 16.8391 44.4146 16.6514C44.6635 16.131 44.9745 15.6426 45.3407 15.1969C45.8898 14.5405 46.5245 13.9607 47.2277 13.4731C48.084 12.8672 49.026 12.3928 50.0225 12.0655C50.544 11.913 51.0801 11.8159 51.6219 11.7758C52.1236 11.7286 52.6278 11.7122 53.1315 11.7269C53.9868 11.7501 54.8358 11.8796 55.6591 12.1124C56.2134 12.2689 56.75 12.4822 57.2605 12.7489C57.4441 12.8366 57.5767 12.9243 57.6685 12.9774C57.7139 12.9998 57.7576 13.0257 57.799 13.0549Z" fill="#263238"/>
<path d="M53.717 11.7961C53.6884 11.7961 53.2498 9.32571 52.7398 6.26775C52.2298 3.20979 51.8381 0.727107 51.8667 0.723027C51.8953 0.718947 52.3339 3.19347 52.8439 6.25143C53.3539 9.30939 53.7455 11.7921 53.717 11.7961Z" fill="#263238"/>
<path d="M49.6226 12.2429C49.594 12.2429 49.6389 9.89485 49.7266 6.99805C49.8143 4.10125 49.9061 1.75525 49.9306 1.75525C49.9551 1.75525 49.9123 4.10533 49.8266 7.00213C49.7409 9.89893 49.6532 12.2449 49.6226 12.2429Z" fill="#263238"/>
<path d="M46.1384 14.1953C46.1335 14.158 46.1335 14.1203 46.1384 14.083C46.1384 13.9974 46.1384 13.8913 46.1507 13.7628C46.165 13.4853 46.1915 13.0814 46.2302 12.5857C46.3078 11.5943 46.4342 10.2234 46.6382 8.70969C46.8422 7.19601 47.0462 5.85369 47.2074 4.86225C47.2931 4.37061 47.3665 3.97485 47.4236 3.70149C47.4502 3.57501 47.4726 3.47301 47.4889 3.38937C47.4938 3.35204 47.5041 3.31562 47.5195 3.28125C47.524 3.31851 47.524 3.35619 47.5195 3.39345C47.5052 3.47709 47.491 3.58113 47.4726 3.70965C47.4277 3.99933 47.3645 4.39305 47.291 4.87449C47.138 5.85777 46.9422 7.21845 46.7525 8.72397C46.5628 10.2295 46.4159 11.5963 46.32 12.5857C46.2731 13.0712 46.2343 13.467 46.2078 13.7587C46.1935 13.8893 46.1833 13.9933 46.1731 14.079C46.1673 14.1192 46.1556 14.1584 46.1384 14.1953Z" fill="#263238"/>
<path d="M54.3126 12.5897C54.3292 12.747 54.3292 12.9057 54.3126 13.063C54.2881 13.3935 54.2595 13.775 54.2289 14.1972C54.1983 14.6195 54.1677 15.001 54.1432 15.3315C54.1404 15.4896 54.1206 15.6469 54.0841 15.8007C54.0594 15.6442 54.0539 15.4852 54.0678 15.3274C54.0678 15.0357 54.0902 14.6338 54.1228 14.1891C54.1555 13.7444 54.1983 13.3445 54.2371 13.0548C54.2442 12.8974 54.2695 12.7413 54.3126 12.5897Z" fill="#263238"/>
<path d="M34.845 58.9814C34.588 58.606 33.8964 58.2715 33.4435 58.2225C31.8768 58.0512 30.4488 58.7264 29.2126 59.7056L28.9698 60.1483C28.3048 60.6664 27.6112 61.258 27.4051 62.0761C27.2167 62.9282 27.1217 63.7983 27.1216 64.671C27.141 65.1343 27.3288 65.5746 27.6499 65.9092C27.9455 66.2364 28.3565 66.4361 28.7964 66.4662C29.6282 66.5308 30.4603 66.3446 31.1853 65.9317C31.9054 65.5173 32.5408 64.9705 33.058 64.3201C34.0234 63.1398 34.6797 61.7376 34.9674 60.2401C35.049 59.828 35.0898 59.3425 34.845 58.9814Z" fill="#449EEE"/>
<g opacity="0.4">
<path d="M34.845 58.9814C34.588 58.606 33.8964 58.2715 33.4435 58.2225C31.8768 58.0512 30.4488 58.7264 29.2126 59.7056L28.9698 60.1483C28.3048 60.6664 27.6112 61.258 27.4051 62.0761C27.2167 62.9282 27.1217 63.7983 27.1216 64.671C27.141 65.1343 27.3288 65.5746 27.6499 65.9092C27.9455 66.2364 28.3565 66.4361 28.7964 66.4662C29.6282 66.5308 30.4603 66.3446 31.1853 65.9317C31.9054 65.5173 32.5408 64.9705 33.058 64.3201C34.0234 63.1398 34.6797 61.7376 34.9674 60.2401C35.049 59.828 35.0898 59.3425 34.845 58.9814Z" fill="black"/>
</g>
<path d="M34.6756 35.9213C34.4288 36.0029 22.203 53.3306 21.8746 54.4853C21.5462 55.6399 19.7571 58.3837 22.2826 60.9602C23.8489 62.5466 25.5186 64.0275 27.2806 65.3931C26.7135 61.0255 31.0118 57.5045 34.0126 58.4184L31.7176 56.8619L36.9624 49.8953" fill="#449EEE"/>
<path d="M60.0797 39.5422C60.0797 39.5422 62.0034 41.9474 62.4828 43.5039C62.8908 44.834 65.0736 50.9887 65.0736 50.9887L69.0455 60.8317C69.0455 60.8317 68.4335 61.7007 68.2968 62.4372C68.2397 62.7309 67.7358 67.2536 66.5322 69.1692L60.1613 66.3132L59.3575 60.6114L58.26 55.697L59.3942 42.4676L60.0797 39.5422Z" fill="#449EEE"/>
<path d="M42.1992 33.4202C42.1992 33.4202 43.8312 31.9147 44.2841 31.7025C44.2841 31.7025 44.8023 33.4712 46.3241 34.3076C47.8459 35.144 48.8272 36.0457 48.8272 36.166V38.359C48.8272 38.359 42.5909 36.6556 42.1992 33.4202Z" fill="#449EEE"/>
<path d="M43.2415 44.5769L55.3591 43.8446L54.7919 36.9228L54.2717 35.756L53.4557 34.2831C53.4138 34.7811 53.2128 35.2524 52.8825 35.6274C52.2152 36.3043 51.3553 36.7588 50.4202 36.929L50.1815 38.357L44.0411 35.8212C44.0411 35.8212 43.2415 44.1852 43.2415 44.377" fill="#449EEE"/>
<path d="M50.4163 36.9229C50.4195 36.9541 50.4195 36.9855 50.4163 37.0167C50.4061 37.084 50.3919 37.1758 50.3755 37.2921C50.3361 37.541 50.2803 37.898 50.2083 38.3631V38.3815H50.1879L45.2041 38.5345L44.3881 38.5569L43.9618 38.5691C43.8238 38.5653 43.6862 38.5832 43.5538 38.6222C43.42 38.6688 43.2985 38.7451 43.1985 38.8455C43.0985 38.9458 43.0226 39.0676 42.9765 39.2015C42.9317 39.3417 42.9158 39.4895 42.9295 39.636C42.9295 39.7911 42.9295 39.9461 42.9295 40.1012C42.9561 41.3496 42.9846 42.6716 43.0132 44.0384C43.107 47.8695 43.1662 51.3395 43.1478 53.8508C43.1478 55.1074 43.1274 56.1233 43.1111 56.8251C43.1009 57.1699 43.0948 57.4371 43.0887 57.6411C43.0887 57.7288 43.0887 57.7982 43.0887 57.8451C43.0913 57.8688 43.0913 57.8928 43.0887 57.9165C43.0856 57.8928 43.0856 57.8688 43.0887 57.8451C43.0887 57.7921 43.0887 57.7227 43.0887 57.6411C43.0887 57.4493 43.0887 57.178 43.0887 56.8251C43.0887 56.1172 43.0887 55.1033 43.0887 53.8528C43.0887 51.3416 43.0173 47.8736 42.9234 44.0425C42.8969 42.6757 42.8704 41.3537 42.8439 40.1053V39.6401C42.8318 39.4823 42.8506 39.3237 42.8989 39.173C42.9498 39.0247 43.0337 38.89 43.1443 38.779C43.2549 38.6681 43.3894 38.5837 43.5375 38.5324C43.6811 38.4904 43.8306 38.4718 43.9801 38.4773L44.4045 38.4671L45.2205 38.4467L50.2062 38.3366L50.1838 38.357C50.2654 37.8932 50.3279 37.5376 50.3715 37.2901L50.4245 37.0167C50.4196 36.9856 50.4169 36.9543 50.4163 36.9229Z" fill="#263238"/>
<path d="M44.337 41.5496C44.6232 41.5496 44.8552 41.3176 44.8552 41.0315C44.8552 40.7453 44.6232 40.5133 44.337 40.5133C44.0508 40.5133 43.8188 40.7453 43.8188 41.0315C43.8188 41.3176 44.0508 41.5496 44.337 41.5496Z" fill="#263238"/>
<path d="M47.2442 40.4745C47.2442 40.5071 46.6607 40.5826 45.9508 40.7478C45.2409 40.9131 44.6799 41.1007 44.6697 41.0722C45.0661 40.8705 45.4892 40.7263 45.9263 40.6438C46.3558 40.5272 46.7992 40.4702 47.2442 40.4745Z" fill="#263238"/>
<path d="M46.3647 41.5047C46.0596 41.4579 45.7573 41.3945 45.459 41.315C45.1538 41.2686 44.8514 41.2053 44.5532 41.1253C45.1782 41.1113 45.7979 41.2411 46.3647 41.5047Z" fill="#263238"/>
<path d="M44.337 47.4084C44.6232 47.4084 44.8552 47.1764 44.8552 46.8902C44.8552 46.6041 44.6232 46.3721 44.337 46.3721C44.0508 46.3721 43.8188 46.6041 43.8188 46.8902C43.8188 47.1764 44.0508 47.4084 44.337 47.4084Z" fill="#263238"/>
<path d="M47.2442 46.3354C47.2442 46.366 46.6607 46.4415 45.9508 46.6068C45.2409 46.772 44.6799 46.9597 44.6697 46.9311C45.066 46.7296 45.4892 46.586 45.9263 46.5048C46.3555 46.387 46.7991 46.33 47.2442 46.3354Z" fill="#263238"/>
<path d="M46.3647 47.3636C46.0596 47.3168 45.7573 47.2534 45.459 47.1739C45.1538 47.1275 44.8514 47.0642 44.5532 46.9842C45.1782 46.9702 45.7979 47.1 46.3647 47.3636Z" fill="#263238"/>
<path d="M44.337 53.2694C44.6232 53.2694 44.8552 53.0374 44.8552 52.7512C44.8552 52.465 44.6232 52.233 44.337 52.233C44.0508 52.233 43.8188 52.465 43.8188 52.7512C43.8188 53.0374 44.0508 53.2694 44.337 53.2694Z" fill="#263238"/>
<path d="M47.2442 52.1943C47.2442 52.2249 46.6607 52.3004 45.9508 52.4657C45.2409 52.6309 44.6799 52.8186 44.6697 52.79C45.066 52.5885 45.4892 52.4449 45.9263 52.3637C46.3555 52.2458 46.7991 52.1888 47.2442 52.1943Z" fill="#263238"/>
<path d="M46.3647 53.2225C46.0596 53.1756 45.7573 53.1123 45.459 53.0328C45.1538 52.9864 44.8514 52.923 44.5532 52.8431C44.8652 52.8187 45.1791 52.8477 45.4814 52.9287C45.7906 52.9748 46.0895 53.0742 46.3647 53.2225Z" fill="#263238"/>
<path d="M36.2281 51.464C36.2322 51.4135 36.2418 51.3635 36.2566 51.3151C36.2811 51.209 36.3158 51.0703 36.3586 50.8969C36.4484 50.5317 36.583 50.0074 36.736 49.3567C36.889 48.7059 37.0583 47.9287 37.1909 47.0515C37.3391 46.107 37.4019 45.1512 37.3786 44.1955C37.3455 43.2387 37.1821 42.2909 36.8931 41.3782C36.6589 40.6328 36.3196 39.9246 35.8853 39.275C35.593 38.8369 35.2507 38.4344 34.8653 38.0755C34.7348 37.9429 34.6144 37.8592 34.543 37.7919C34.5025 37.7615 34.4655 37.7266 34.4329 37.6879C34.4758 37.7133 34.5167 37.7419 34.5553 37.7735C34.6328 37.8368 34.7593 37.9163 34.8939 38.0449C35.2931 38.3956 35.6473 38.7944 35.9486 39.2321C36.3957 39.8834 36.7462 40.5959 36.989 41.3476C37.2853 42.268 37.4528 43.225 37.4867 44.1914C37.5095 45.1558 37.4412 46.1203 37.2827 47.0719C37.1461 47.9491 36.9665 48.7283 36.8054 49.3791C36.6442 50.0299 36.4973 50.5521 36.3974 50.9132C36.3484 51.0845 36.3076 51.2233 36.277 51.3212C36.264 51.3699 36.2477 51.4176 36.2281 51.464Z" fill="#263238"/>
<path d="M36.0241 51.2886C35.9932 51.2003 35.97 51.1095 35.9547 51.0173C35.916 50.8418 35.8711 50.5848 35.8242 50.2645C35.706 49.4314 35.6521 48.5905 35.663 47.7492C35.6752 46.9073 35.7529 46.0677 35.8956 45.2379C35.9506 44.9217 36.0037 44.6647 36.0486 44.4913C36.0651 44.3985 36.0911 44.3075 36.1261 44.22C36.1225 44.3141 36.1103 44.4076 36.0894 44.4994C36.0567 44.6749 36.0159 44.9319 35.971 45.2502C35.8492 46.0786 35.7811 46.914 35.767 47.7512C35.7574 48.5875 35.801 49.4236 35.8976 50.2543C35.9343 50.5746 35.967 50.8316 35.9935 51.0091C36.0142 51.1008 36.0245 51.1946 36.0241 51.2886Z" fill="#263238"/>
<path d="M24.4268 56.6047C24.5301 56.5706 24.6358 56.544 24.743 56.5252C25.0253 56.4426 25.2987 56.3319 25.559 56.1947C25.8915 56.0233 26.2689 55.7867 26.6993 55.5276C27.1593 55.2298 27.6693 55.0176 28.2048 54.9013C28.7537 54.8126 29.3166 54.905 29.8083 55.1645C30.2022 55.3743 30.5659 55.6365 30.8895 55.9438C31.1075 56.1463 31.3119 56.3631 31.5015 56.5925C31.5773 56.6739 31.6456 56.7619 31.7055 56.8557C31.624 56.7828 31.5477 56.7044 31.477 56.6211C31.2753 56.4064 31.0629 56.2022 30.8405 56.0091C30.5153 55.715 30.154 55.4635 29.7654 55.2604C29.291 55.0153 28.7502 54.9295 28.2232 55.0156C27.6992 55.1306 27.1998 55.3378 26.7483 55.6276C26.3178 55.8765 25.9323 56.1111 25.5916 56.2763C25.3231 56.4102 25.0396 56.5115 24.747 56.5782C24.6669 56.5949 24.5858 56.6072 24.5043 56.6149C24.4781 56.6147 24.4521 56.6112 24.4268 56.6047Z" fill="#263238"/>
<path d="M28.6515 52.3595C28.7192 52.376 28.7843 52.4014 28.8453 52.435C28.9211 52.4647 28.9941 52.5009 29.0636 52.5431C29.1588 52.5942 29.2514 52.65 29.3411 52.7104C29.5766 52.8649 29.7972 53.0411 30 53.2367C30.4989 53.7168 30.8868 54.3003 31.1363 54.9462C31.2387 55.2103 31.3159 55.4836 31.3668 55.7622C31.388 55.8681 31.4036 55.975 31.4137 56.0825C31.4244 56.163 31.4298 56.2441 31.43 56.3253C31.4402 56.3929 31.4402 56.4616 31.43 56.5293C31.4096 56.5293 31.4015 56.2335 31.2995 55.7724C31.2387 55.503 31.1561 55.239 31.0526 54.9829C30.9206 54.6718 30.7615 54.3728 30.5773 54.0894C30.3883 53.8098 30.1738 53.5483 29.9367 53.3081C29.741 53.1128 29.5295 52.934 29.3043 52.7736C28.9127 52.4982 28.6434 52.3779 28.6515 52.3595Z" fill="#263238"/>
<g opacity="0.4">
<path d="M31.3321 56.2743C30.962 55.4315 30.3659 54.7075 29.6098 54.1826C28.8537 53.6576 27.9671 53.3522 27.0481 53.3C26.8004 53.2761 26.5507 53.3147 26.3218 53.4121C26.2087 53.4634 26.1131 53.5468 26.0471 53.652C25.9811 53.7573 25.9475 53.8796 25.9506 54.0038C25.9815 54.1205 26.0006 54.2401 26.0077 54.3608C25.9771 54.6321 25.6405 54.73 25.3773 54.8055C24.864 54.9519 24.4069 55.2498 24.0656 55.6602C23.8881 55.8642 23.7453 56.1927 23.9146 56.413C24.0554 56.5925 24.3226 56.5925 24.5491 56.5517C25.3896 56.4048 26.1382 55.952 26.9053 55.5807C27.6723 55.2094 28.5373 54.9095 29.3696 55.0972C30.2896 55.3012 30.973 56.056 31.5912 56.768" fill="black"/>
</g>
<path d="M58.2599 55.697C58.2374 55.7291 58.2122 55.7591 58.1845 55.7868L57.9499 56.0275C57.8499 56.1315 57.7234 56.256 57.5704 56.3947C57.4174 56.5334 57.2481 56.6987 57.0482 56.8639C56.5852 57.2593 56.1024 57.6311 55.6018 57.9777C54.373 58.8297 53.0429 59.5252 51.6422 60.0483C50.9955 60.285 50.4039 60.4706 49.9 60.5991C49.6491 60.6685 49.4186 60.7154 49.2166 60.7603C49.0147 60.8052 48.8413 60.8399 48.6964 60.8623L48.368 60.9153C48.33 60.9248 48.2908 60.9289 48.2517 60.9276C48.2875 60.9117 48.3252 60.9007 48.3639 60.8949L48.6903 60.8215C48.8311 60.7929 49.0045 60.7542 49.2044 60.7032C49.4043 60.6522 49.6328 60.6012 49.8796 60.5257C50.3794 60.389 50.967 60.1973 51.6075 59.9565C52.996 59.427 54.3175 58.7361 55.5447 57.8982C56.1098 57.5106 56.6014 57.1373 56.9992 56.8047C57.2032 56.6456 57.3746 56.4865 57.5296 56.3519C57.6847 56.2172 57.8173 56.0969 57.9213 55.9969L58.1681 55.7705C58.1958 55.7425 58.2266 55.7178 58.2599 55.697Z" fill="#263238"/>
<path d="M60.1614 42.2839C60.1612 42.3299 60.1564 42.3756 60.1471 42.4206C60.1328 42.5206 60.1124 42.6511 60.0879 42.8123L59.8635 44.2403C59.6758 45.45 59.429 47.1269 59.176 48.9792C58.9231 50.8315 58.7028 52.5023 58.5375 53.7283L58.3458 55.1665C58.3213 55.3277 58.3029 55.4583 58.2886 55.5582C58.2842 55.6039 58.2754 55.649 58.2621 55.6929C58.2567 55.6468 58.2567 55.6002 58.2621 55.5541C58.2703 55.4535 58.2825 55.3229 58.2988 55.1625C58.3376 54.8075 58.3906 54.3179 58.458 53.7181C58.5987 52.4941 58.8088 50.8193 59.07 48.9649C59.3311 47.1106 59.582 45.4357 59.788 44.2281C59.8941 43.6161 59.9798 43.1346 60.0492 42.8001C60.0798 42.6409 60.1063 42.5124 60.1267 42.4125C60.1328 42.3683 60.1445 42.3252 60.1614 42.2839Z" fill="#263238"/>
<path d="M53.2581 62.4514C53.2855 62.3788 53.3226 62.3102 53.3682 62.2474C53.4457 62.1271 53.56 61.9537 53.7048 61.7395C53.9965 61.3151 54.4107 60.7358 54.886 60.1075C55.3613 59.4791 55.8101 58.9284 56.1447 58.5367C56.3099 58.3327 56.4466 58.1837 56.5527 58.0756C56.6587 57.9675 56.7057 57.9124 56.7118 57.9186C56.6768 57.9844 56.6343 58.046 56.5853 58.1021L56.2018 58.604C55.8856 59.012 55.447 59.5669 54.9778 60.1911C54.5086 60.8153 54.0802 61.3866 53.7742 61.8007L53.4029 62.276C53.362 62.3402 53.3134 62.3991 53.2581 62.4514Z" fill="#263238"/>
<path d="M66.3895 58.196C66.278 58.1579 66.169 58.113 66.0631 58.0614C65.8591 57.9716 65.5531 57.8431 65.1716 57.7105C64.1797 57.3525 63.1313 57.1763 62.0769 57.1903C61.7809 57.1968 61.4885 57.2569 61.214 57.3678C60.961 57.4772 60.7306 57.6328 60.5347 57.8268C60.2028 58.1666 59.9426 58.5696 59.7697 59.012C59.647 59.3076 59.5394 59.6092 59.4473 59.9157C59.4171 60.03 59.3782 60.1419 59.3311 60.2503C59.3477 60.133 59.3729 60.0171 59.4065 59.9035C59.486 59.5912 59.5841 59.284 59.7003 58.9834C59.8699 58.5311 60.131 58.1186 60.4673 57.7717C60.6699 57.5668 60.9094 57.4021 61.1732 57.2862C61.4585 57.1696 61.7627 57.106 62.0708 57.0985C63.1381 57.0786 64.1993 57.2649 65.1961 57.6472C65.4979 57.7596 65.7935 57.8884 66.0814 58.0328C66.1834 58.0818 66.2609 58.1266 66.314 58.1552C66.3409 58.1653 66.3663 58.179 66.3895 58.196Z" fill="#263238"/>
<path d="M64.8635 55.0014C64.8635 55.0238 64.5433 55.0136 64.0475 55.1013C63.7533 55.1531 63.464 55.2296 63.1826 55.3298C62.4931 55.5787 61.8615 55.9653 61.3262 56.4661C61.1084 56.6711 60.9084 56.8942 60.7285 57.1332C60.4225 57.5412 60.2858 57.8309 60.2654 57.8207C60.2866 57.7495 60.316 57.681 60.3531 57.6167C60.3904 57.5366 60.4327 57.4589 60.4796 57.3841C60.5371 57.283 60.5997 57.185 60.6673 57.0903C60.8426 56.8414 61.0407 56.6092 61.2589 56.3967C61.7958 55.8758 62.4417 55.4808 63.1499 55.2401C63.438 55.1443 63.7344 55.076 64.0353 55.0361C64.1638 55.0136 64.2821 55.0095 64.3841 55.0014C64.4718 54.9966 64.5596 54.9966 64.6473 55.0014C64.7192 54.9938 64.7917 54.9938 64.8635 55.0014Z" fill="#263238"/>
<path d="M66.5037 67.9288C66.4045 67.2621 66.1394 66.631 65.7326 66.0935C65.3259 65.5559 64.7907 65.1292 64.176 64.8525C63.2029 64.418 61.8606 64.318 60.9365 64.8525C60.0124 65.387 58.7761 66.7007 59.0271 67.735L61.1466 71.2948C61.6925 71.6904 62.3444 71.9134 63.0182 71.9348C63.692 71.9563 64.3568 71.7753 64.9267 71.4152C65.4847 71.0351 65.927 70.5087 66.2052 69.8936C66.4834 69.2786 66.5867 68.5987 66.5037 67.9288Z" fill="#449EEE"/>
<g opacity="0.4">
<path d="M66.5037 67.9288C66.4045 67.2621 66.1394 66.631 65.7326 66.0935C65.3259 65.5559 64.7907 65.1292 64.176 64.8525C63.2029 64.418 61.8606 64.318 60.9365 64.8525C60.0124 65.387 58.7761 66.7007 59.0271 67.735L61.1466 71.2948C61.6925 71.6904 62.3444 71.9134 63.0182 71.9348C63.692 71.9563 64.3568 71.7753 64.9267 71.4152C65.4847 71.0351 65.927 70.5087 66.2052 69.8936C66.4834 69.2786 66.5867 68.5987 66.5037 67.9288Z" fill="black"/>
</g>
<path d="M65.8428 70.5237C65.8428 70.5237 65.9183 70.3809 66.0468 70.128C66.2245 69.7631 66.3475 69.3741 66.412 68.9733C66.5046 68.3786 66.4514 67.7702 66.2569 67.2006C66.1987 67.0368 66.1305 66.8767 66.0529 66.7212C65.9716 66.5602 65.8796 66.4048 65.7775 66.2561C65.3539 65.6219 64.7509 65.1283 64.0456 64.8383C63.1445 64.4971 62.1498 64.4971 61.2487 64.8383C60.867 64.9759 60.507 65.1676 60.1798 65.4074C59.9492 65.5808 59.8309 65.6889 59.8228 65.6808C59.8474 65.6505 59.8747 65.6225 59.9044 65.5971C59.9826 65.5179 60.0657 65.4437 60.1532 65.3748C60.4757 65.1166 60.8363 64.9101 61.2222 64.7628C62.1388 64.4016 63.1571 64.395 64.0782 64.7444C64.4402 64.8895 64.778 65.089 65.0798 65.336C65.3811 65.5839 65.6443 65.8747 65.8612 66.199C65.9639 66.3529 66.0573 66.513 66.1406 66.6783C66.2192 66.8383 66.2873 67.0032 66.3446 67.172C66.5409 67.7563 66.5879 68.3805 66.4813 68.9876C66.4085 69.3939 66.2707 69.7859 66.0733 70.1484C66.004 70.2749 65.9366 70.3687 65.8958 70.432C65.8825 70.4649 65.8647 70.4958 65.8428 70.5237Z" fill="#263238"/>
<path d="M60.0145 65.5176C59.9839 65.5176 59.737 64.1263 59.4596 62.3984C59.1821 60.6705 58.9822 59.267 59.0108 59.2609C59.0393 59.2548 59.2882 60.6542 59.5657 62.3821C59.8431 64.11 60.043 65.5135 60.0145 65.5176Z" fill="#263238"/>
<g opacity="0.4">
<path d="M58.6313 57.3636L59.7146 57.2881C60.4323 56.1862 61.5563 55.4127 62.8419 55.1359C63.1375 55.0586 63.4472 55.0523 63.7456 55.1176C63.8943 55.152 64.0315 55.2244 64.1438 55.3277C64.2561 55.4311 64.3396 55.5618 64.3862 55.7071C64.4238 55.8548 64.4022 56.0112 64.3259 56.1431C64.2497 56.275 64.1249 56.3719 63.9782 56.413C64.2792 56.4919 64.5605 56.6326 64.8043 56.8261C65.048 57.0196 65.2488 57.2617 65.3939 57.537C65.4551 57.6533 65.5 57.8124 65.4082 57.9063C65.3382 57.9591 65.2504 57.9825 65.1634 57.9715C64.6636 57.9715 64.1679 57.8593 63.6681 57.8369C63.1678 57.7859 62.6649 57.9045 62.2401 58.1735C61.8321 58.4652 61.6118 58.9405 61.4241 59.3975C60.7359 61.0456 60.227 62.7629 59.9063 64.5199C59.6554 63.5265 59.633 62.4799 59.4514 61.5375C59.1923 60.2013 58.9414 58.8345 58.6354 57.3677" fill="black"/>
</g>
<g opacity="0.4">
<path d="M35.1367 66.3723C36.4851 67.8105 38.3048 68.4837 40.253 68.8019C42.2012 69.1202 44.1902 69.0059 46.169 68.8958C46.6545 68.8672 47.2298 68.7836 47.442 68.345C47.5929 68.0329 47.4889 67.6636 47.3685 67.3413C46.4995 65.0422 44.7818 63.1838 43.1029 61.3906C42.4909 60.7337 41.834 60.0524 40.9752 59.7872C40.0307 59.4975 38.9576 59.7525 38.0621 59.3363C36.9849 58.8365 36.5463 57.5677 36.2138 56.4273L35.5284 54.0813C35.6793 56.6374 35.6528 58.6917 35.6528 58.6917C35.6528 58.6917 34.947 63.4163 35.0408 64.4873C35.1347 65.5583 35.1367 66.3723 35.1367 66.3723Z" fill="black"/>
</g>
<path d="M48.5659 37.2085C48.4749 37.1987 48.3853 37.1788 48.2987 37.1493C48.1273 37.1065 47.8907 37.031 47.5847 36.9249C46.809 36.6466 46.065 36.2869 45.3652 35.8519C44.6647 35.4167 44.0117 34.9094 43.417 34.3382C43.1905 34.1179 43.009 33.9302 42.9009 33.7976C42.8355 33.7331 42.778 33.6612 42.7295 33.5834C42.8026 33.6394 42.8709 33.7015 42.9335 33.769C43.0559 33.8955 43.2395 34.0709 43.4721 34.2831C44.6806 35.3905 46.085 36.2629 47.6133 36.8555C47.905 36.9698 48.1457 37.0595 48.313 37.1105C48.4 37.1357 48.4846 37.1685 48.5659 37.2085Z" fill="#263238"/>
<path d="M54.2535 36.0763C54.2367 36.1308 54.2105 36.1819 54.176 36.2273C54.098 36.3602 54.01 36.487 53.9128 36.6067C53.2697 37.4067 52.3865 37.9788 51.3934 38.2387C51.2449 38.2794 51.0935 38.3087 50.9406 38.3264C50.885 38.3388 50.8279 38.3422 50.7712 38.3366C50.7712 38.3183 51.0058 38.2795 51.373 38.1673C51.8511 38.018 52.3068 37.8046 52.7276 37.5329C53.1461 37.2588 53.525 36.9287 53.8537 36.5516C54.1066 36.2681 54.2372 36.0661 54.2535 36.0763Z" fill="#263238"/>
<path d="M55.2 37.335C54.8878 38.1345 54.2974 38.7945 53.5374 39.1934C53.8589 38.9263 54.166 38.6424 54.4574 38.3427C54.7223 38.02 54.9702 37.6836 55.2 37.335Z" fill="#263238"/>
<path d="M44.4983 61.5926L44.6248 61.566C45.0777 61.4783 46.5791 61.205 46.8219 61.4477C47.1054 61.7333 49.1393 63.7305 49.1393 63.7305C49.1393 63.7305 48.7476 64.3731 47.4624 63.7305C46.1772 63.0879 44.4983 61.5926 44.4983 61.5926Z" fill="#FFBE9D"/>
<path d="M41.6137 57.535C41.8348 57.3881 42.1039 57.3319 42.3653 57.3783C42.6267 57.4246 42.8601 57.5699 43.0172 57.7839L49.2168 66.0071L47.6276 67.172L41.3668 59.0283C41.2798 58.916 41.217 58.7869 41.1821 58.6491C41.1473 58.5114 41.1413 58.368 41.1645 58.2278C41.1876 58.0876 41.2395 57.9537 41.3168 57.8345C41.3941 57.7153 41.4952 57.6133 41.6137 57.535Z" fill="#263238"/>
<path d="M27.4377 63.0409C27.4377 63.0409 34.8001 64.2364 35.8201 64.3159C36.8401 64.3955 39.6329 67.3576 40.4427 67.6411C41.2526 67.9247 43.4456 67.8839 43.4456 67.8839C43.4456 67.8839 47.4195 68.0879 47.5419 67.8839C47.6643 67.6799 47.9071 67.7207 47.5419 66.9496C47.3156 66.4772 47.0423 66.0288 46.7259 65.6113C46.7259 65.6113 47.7459 66.868 48.0254 66.9088C48.3049 66.9496 48.9169 67.023 48.8761 66.4804C48.8353 65.9377 47.7806 63.706 47.7806 63.706C47.7806 63.706 47.3359 62.6635 46.524 62.433C45.7121 62.2025 42.1829 60.5011 42.1829 60.5011H38.4089L34.0065 58.4081C34.0065 58.4081 31.3423 57.5513 28.8066 60.3481C28.3127 60.9037 27.9371 61.5541 27.7029 62.2596L27.4377 63.0409Z" fill="#FFBE9D"/>
<path d="M48.4883 65.3869C48.4424 65.3206 48.4054 65.2486 48.3782 65.1727C48.3068 65.0095 48.219 64.8096 48.117 64.573C48.015 64.3363 47.8784 64.0099 47.7396 63.6795C47.6249 63.309 47.4009 62.9819 47.097 62.741C46.9312 62.6268 46.7542 62.5298 46.5687 62.4514L46.0485 62.2188C45.7139 62.0719 45.412 61.9454 45.1591 61.8394L44.5471 61.5885C44.4716 61.5621 44.3991 61.5279 44.3308 61.4865C44.4103 61.4992 44.4883 61.5204 44.5634 61.5497C44.7082 61.5986 44.9204 61.6721 45.1754 61.768C45.4304 61.8639 45.7405 61.9862 46.0771 62.129L46.6013 62.3575C46.7947 62.4363 46.9787 62.5362 47.1501 62.6554C47.4703 62.9091 47.7047 63.2552 47.8212 63.6468C47.9538 63.9793 48.0722 64.2833 48.1762 64.5465C48.2803 64.8096 48.3435 64.9912 48.4067 65.1585C48.4417 65.2316 48.4691 65.3082 48.4883 65.3869Z" fill="#EB996E"/>
<path d="M44.7961 63.3429C44.9383 63.4267 45.0692 63.5281 45.1858 63.6448C45.4778 63.9099 45.7505 64.1956 46.0018 64.4996C46.2576 64.803 46.4908 65.1248 46.6995 65.4625C46.7944 65.5966 46.8712 65.7427 46.9279 65.897C46.8195 65.7744 46.7219 65.6427 46.6362 65.5033C46.4628 65.2564 46.216 64.9198 45.9202 64.5669C45.6244 64.214 45.3388 63.9141 45.1246 63.6999C45.0047 63.5909 44.8948 63.4714 44.7961 63.3429Z" fill="#EB996E"/>
<path d="M46.8911 67.9452C46.8362 67.9343 46.7836 67.9135 46.7361 67.884C46.6007 67.8156 46.4711 67.7365 46.3485 67.6473C45.9525 67.3439 45.5919 66.997 45.2734 66.613C44.8919 66.1744 44.5512 65.7746 44.3105 65.4808C44.1716 65.3289 44.0454 65.1658 43.9331 64.9933C44.0901 65.1262 44.2348 65.273 44.3656 65.4319C44.6226 65.7134 44.9776 66.1051 45.3529 66.5416C45.6682 66.9199 46.0164 67.2694 46.3933 67.5861C46.6891 67.8228 46.8993 67.9309 46.8911 67.9452Z" fill="#EB996E"/>
<path d="M44.7044 67.941C44.5697 67.8957 44.442 67.8318 44.3249 67.7513C44.0313 67.5774 43.7479 67.3867 43.4763 67.1801C43.2054 66.974 42.9453 66.754 42.697 66.5212C42.5872 66.4303 42.4892 66.3262 42.4053 66.2111C42.4277 66.1866 42.9112 66.6191 43.5416 67.0964C44.1719 67.5738 44.7207 67.9145 44.7044 67.941Z" fill="#EB996E"/>
<path d="M56.783 71.0011C56.783 71.0011 56.1363 70.0015 56.0466 69.6445C55.9568 69.2875 56.0466 67.5882 54.8552 67.8554V67.988C54.8858 68.1328 54.8552 71.5886 54.8552 71.5886L56.783 71.0011Z" fill="#FFBE9D"/>
<path d="M41.5178 72.8105C41.5178 72.8105 40.4182 82.9575 52.2992 82.6617C61.9851 82.421 61.8158 72.9799 61.8158 72.9799L41.5178 72.8105Z" fill="#449EEE"/>
<path d="M51.4893 75.5829C57.6037 75.5829 62.5604 74.3846 62.5604 72.9065C62.5604 71.4283 57.6037 70.23 51.4893 70.23C45.3749 70.23 40.4182 71.4283 40.4182 72.9065C40.4182 74.3846 45.3749 75.5829 51.4893 75.5829Z" fill="#449EEE"/>
<path opacity="0.4" d="M51.6544 74.5017C57.2663 74.5017 61.8156 73.7445 61.8156 72.8105C61.8156 71.8765 57.2663 71.1194 51.6544 71.1194C46.0425 71.1194 41.4932 71.8765 41.4932 72.8105C41.4932 73.7445 46.0425 74.5017 51.6544 74.5017Z" fill="black"/>
<path d="M62.1851 73.6715L62.1361 73.7L61.9994 73.7857C61.8791 73.8612 61.6955 73.9652 61.4547 74.0876C60.7695 74.4306 60.0502 74.7006 59.3087 74.8934C58.209 75.1711 57.0929 75.3796 55.9671 75.5177C54.587 75.6732 53.1984 75.7413 51.8096 75.7217C50.3347 75.7094 48.9271 75.6605 47.6521 75.5483C46.5211 75.4548 45.3982 75.2803 44.2922 75.026C43.5471 74.8545 42.816 74.6267 42.1053 74.3447C41.8524 74.2488 41.6627 74.155 41.5321 74.0978L41.3873 74.0285C41.3526 74.0142 41.3363 74.004 41.3383 74.0019C41.3564 74.0067 41.3742 74.0128 41.3913 74.0203L41.5423 74.0795C41.6749 74.1305 41.8646 74.2161 42.1196 74.3059C42.834 74.5721 43.5661 74.7882 44.3106 74.9526C45.4143 75.1956 46.5336 75.3619 47.6603 75.4503C48.9332 75.5564 50.3367 75.6034 51.8117 75.6156C53.1956 75.633 54.5793 75.5649 55.9549 75.4116C57.0772 75.2797 58.1904 75.0794 59.2883 74.8118C60.028 74.6272 60.7476 74.3696 61.4364 74.0427C61.6771 73.9244 61.8648 73.8285 61.9872 73.7592L62.13 73.6817C62.1667 73.6776 62.183 73.6694 62.1851 73.6715Z" fill="#263238"/>
<path d="M55.4041 72.5821C55.4041 72.5821 56.6158 68.5205 57.0361 67.9799C57.3808 67.5331 59.8227 65.6849 60.6611 65.0586C60.8677 64.9027 61.1026 64.7884 61.3527 64.722C62.183 64.5037 63.0133 64.3568 64.3801 64.9484C64.8113 65.1393 65.199 65.4161 65.5196 65.762C65.8402 66.1078 66.0869 66.5154 66.2446 66.9599L61.6852 69.7934L61.5077 71.711L57.8357 70.7747C57.8535 70.5819 57.816 70.388 57.7276 70.2157C57.7276 70.2157 56.5607 73.0431 55.4041 72.5821Z" fill="#FFBE9D"/>
<path d="M51.0017 69.6975C50.5386 69.0855 50.153 68.4959 49.847 67.9961C49.541 67.4963 49.3227 67.0761 49.1779 66.7721C49.1114 66.6146 49.0315 66.4631 48.9392 66.3192C48.9865 66.4837 49.0472 66.6441 49.1208 66.7986C49.3072 67.2253 49.5169 67.6414 49.7491 68.0451C50.0973 68.6407 50.4759 69.2181 50.8833 69.775C51.3403 70.4053 51.8768 71.0745 52.446 71.766C53.2416 72.7207 53.976 73.6122 54.5737 74.3935H54.7389C54.1412 73.5775 53.3884 72.6534 52.5704 71.6701C52.0012 70.9826 51.4647 70.3197 51.0017 69.6975Z" fill="#F5F5F5"/>
<path d="M48.0886 66.7885C48.1399 66.9504 48.204 67.108 48.2804 67.2597C48.413 67.5616 48.6047 67.9961 48.8312 68.5367C49.4195 69.9459 49.9322 71.3855 50.3673 72.8493C50.5264 73.4225 50.6957 73.9795 50.8957 74.4956H51.0589C50.8549 73.9713 50.6876 73.4042 50.5203 72.8065C50.0872 71.3357 49.5577 69.8951 48.9352 68.4939C48.6945 67.9574 48.4864 67.529 48.3375 67.2352C48.2667 67.0799 48.1834 66.9305 48.0886 66.7885Z" fill="#F5F5F5"/>
<path d="M48.4885 66.3009C48.5488 66.4615 48.6218 66.617 48.7068 66.766C48.8578 67.0618 49.0801 67.4861 49.3596 68.0084C49.9206 69.0508 50.706 70.489 51.6628 72.0251C52.2176 72.9187 52.7746 73.7367 53.2948 74.4527H53.4661C52.948 73.7163 52.3768 72.8697 51.8056 71.9456C50.8508 70.4135 50.0512 68.9876 49.4657 67.9594L48.768 66.7354C48.6869 66.5831 48.5935 66.4378 48.4885 66.3009Z" fill="#F5F5F5"/>
<path d="M57.4093 73.2736C57.0063 72.3211 56.39 71.4739 55.608 70.7971C54.9077 70.1903 54.157 69.6443 53.364 69.1651C52.6316 68.702 51.936 68.2818 51.3444 67.8554C50.3962 67.1836 49.5343 66.3977 48.778 65.5155C48.5108 65.2034 48.3129 64.9504 48.1824 64.7791L48.0314 64.5751C48.0163 64.5514 47.9977 64.5301 47.9763 64.5118C47.9874 64.5381 48.0018 64.5628 48.0192 64.5853L48.1558 64.7893C48.2803 64.9688 48.468 65.2279 48.7311 65.5482C49.4738 66.4516 50.3303 67.2552 51.2791 67.939C51.8768 68.3736 52.5643 68.802 53.2926 69.2691C54.0764 69.7496 54.8182 70.2956 55.51 70.9011C56.2747 71.5651 56.877 72.3956 57.2706 73.3287C57.3878 73.6065 57.4787 73.8948 57.5419 74.1896L57.701 74.1733C57.6316 73.8651 57.5339 73.5639 57.4093 73.2736Z" fill="#F5F5F5"/>
<path d="M57.0361 73.9468C56.77 73.2746 56.4027 72.6472 55.9467 72.0863C55.3851 71.4052 54.7487 70.7893 54.0495 70.2503C53.3171 69.6689 52.5848 69.1671 51.932 68.6958C51.2792 68.2246 50.708 67.7839 50.2429 67.3882C49.8786 67.0758 49.5326 66.7427 49.2065 66.3906C49.0939 66.2538 48.9733 66.1237 48.8455 66.001C48.8637 66.044 48.8885 66.0839 48.9189 66.1193C48.9699 66.1927 49.0515 66.2988 49.1596 66.4314C49.4698 66.8023 49.8066 67.15 50.1674 67.4718C50.7036 67.947 51.2632 68.395 51.8443 68.8141C52.495 69.2935 53.2233 69.7995 53.9495 70.3747C54.6393 70.906 55.2705 71.5091 55.8325 72.174C56.285 72.7194 56.6548 73.3284 56.93 73.9815C56.9667 74.0692 56.9973 74.1549 57.0279 74.2385L57.134 74.2283C57.1095 74.1406 57.0809 74.0467 57.0361 73.9468Z" fill="#F5F5F5"/>
<path d="M51.6933 73.0023C50.91 71.5743 50.251 70.2442 49.7839 69.2793L49.2331 68.1369C49.1727 67.995 49.1003 67.8585 49.0168 67.7289C49.0568 67.8795 49.1101 68.0263 49.176 68.1675C49.2902 68.4449 49.4595 68.8427 49.6798 69.3323C50.1225 70.3095 50.7672 71.6457 51.5505 73.0839C51.8178 73.5714 52.0809 74.0386 52.3359 74.4792H52.5114C52.2482 74.008 51.9728 73.5164 51.6933 73.0023Z" fill="#F5F5F5"/>
<path d="M53.3231 71.1703C52.2242 70.0887 51.185 68.948 50.2101 67.7533C49.8368 67.2943 49.543 66.9169 49.337 66.6558C49.2385 66.5113 49.1286 66.3749 49.0085 66.2478C49.0896 66.4001 49.1831 66.5454 49.288 66.6823C49.4777 66.9557 49.7572 67.3453 50.1224 67.8145C51.0734 69.0381 52.1052 70.1967 53.2109 71.2825C53.8556 71.921 54.5104 72.4841 55.0592 73.0369C55.4565 73.4271 55.8152 73.8547 56.1302 74.314H56.2648C55.9502 73.8171 55.5814 73.3566 55.1653 72.941C54.6145 72.3698 53.9637 71.8048 53.3231 71.1703Z" fill="#F5F5F5"/>
<path d="M49.9736 73.9795C49.7023 73.1635 49.5187 72.372 49.3474 71.6559C49.0169 70.2279 48.7088 69.059 48.3804 68.2981C48.2269 67.898 48.0306 67.5156 47.7949 67.1577C47.7949 67.1577 47.7949 67.1863 47.8276 67.2352L47.9418 67.4556C48.0377 67.6494 48.1764 67.937 48.3233 68.3205C48.6313 69.0855 48.921 70.2422 49.2352 71.6824C49.4024 72.4005 49.5799 73.19 49.8472 74.0203C49.9002 74.1774 49.9594 74.3365 50.0185 74.4976H50.1654C50.1001 74.3242 50.0328 74.1488 49.9736 73.9795Z" fill="#F5F5F5"/>
<path d="M58.1949 71.5152C58.2111 71.5129 58.2276 71.5129 58.2438 71.5152C58.2914 71.5127 58.3391 71.5127 58.3866 71.5152C58.5111 71.5254 58.6947 71.5458 58.9293 71.5784C59.5935 71.6699 60.2491 71.8152 60.8897 72.0129C61.1004 72.0874 61.3051 72.1781 61.5017 72.2842C61.612 72.3421 61.7076 72.4244 61.7812 72.5249C61.818 72.5817 61.8421 72.6457 61.852 72.7125C61.8618 72.7794 61.8572 72.8476 61.8383 72.9126C61.816 72.9775 61.7811 73.0375 61.7356 73.0889C61.6901 73.1404 61.6349 73.1823 61.5731 73.2124C61.4615 73.2858 61.3434 73.3486 61.2202 73.4001C60.9676 73.5082 60.7079 73.5989 60.443 73.6714C59.268 73.9911 58.0705 74.2209 56.8607 74.3589C54.6637 74.593 52.4516 74.6544 50.245 74.5425C49.3984 74.5099 48.715 74.4691 48.2417 74.4405L47.697 74.4018L47.5563 74.3895C47.5401 74.3929 47.5235 74.3929 47.5073 74.3895H47.6991L48.2438 74.4079L50.247 74.4752C52.4496 74.5671 54.6558 74.4989 56.8485 74.2712C58.0527 74.1325 59.2452 73.9061 60.4164 73.5939C60.6775 73.5228 60.9337 73.4349 61.1835 73.3308C61.3025 73.2827 61.4166 73.2232 61.5242 73.1533C61.6297 73.1034 61.7122 73.0151 61.7547 72.9064C61.7705 72.8533 61.7747 72.7973 61.767 72.7424C61.7592 72.6875 61.7397 72.6349 61.7098 72.5882C61.6439 72.498 61.5589 72.4235 61.4609 72.3699C61.2687 72.2654 61.0689 72.1754 60.8632 72.1006C60.2276 71.8976 59.5778 71.7422 58.9191 71.6355C58.6865 71.5968 58.5111 71.5682 58.3826 71.5519C58.254 71.5356 58.1949 71.5192 58.1949 71.5152Z" fill="#263238"/>
<path d="M59.1842 69.0079C59.2025 69.0324 58.8231 69.3282 58.3886 69.7301C57.9541 70.132 57.6297 70.4869 57.6052 70.4665C58.0217 69.8735 58.56 69.3762 59.1842 69.0079Z" fill="#EB996E"/>
<path d="M59.0944 70.6155C58.8846 70.536 58.6637 70.4899 58.4396 70.4788C58.2156 70.4997 57.9961 70.5547 57.7888 70.642C57.7888 70.6318 57.8337 70.5706 57.9479 70.5053C58.0968 70.4209 58.2644 70.3753 58.4355 70.3727C58.6075 70.3687 58.7778 70.4072 58.9312 70.4849C59.0475 70.5461 59.1026 70.6053 59.0944 70.6155Z" fill="#EB996E"/>
<path d="M85.6205 43.5937C85.3483 43.4876 85.0452 43.4937 84.7775 43.6107C84.5098 43.7277 84.2994 43.9461 84.1925 44.218L82.5503 48.6182L84.5903 49.369L86.2468 45.0115C86.3502 44.7404 86.3424 44.4393 86.2252 44.1738C86.1079 43.9084 85.8906 43.6999 85.6205 43.5937Z" fill="#449EEE"/>
<path d="M85.5756 44.9849C85.5756 45.0778 85.548 45.1686 85.4964 45.2458C85.4447 45.323 85.3713 45.3832 85.2855 45.4186C85.1996 45.4541 85.1052 45.4633 85.0141 45.445C84.923 45.4267 84.8394 45.3818 84.7739 45.316C84.7084 45.2502 84.6638 45.1664 84.646 45.0752C84.6281 44.9841 84.6377 44.8897 84.6735 44.804C84.7093 44.7183 84.7698 44.6451 84.8472 44.5938C84.9246 44.5425 85.0156 44.5153 85.1084 44.5158C85.17 44.5155 85.2311 44.5274 85.288 44.551C85.3449 44.5745 85.3967 44.609 85.4401 44.6527C85.4836 44.6963 85.5179 44.7482 85.5412 44.8052C85.5644 44.8623 85.5761 44.9234 85.5756 44.9849Z" fill="#FAFAFA"/>
<path d="M84.4128 47.8695C84.4132 47.9624 84.386 48.0533 84.3347 48.1307C84.2834 48.2082 84.2102 48.2686 84.1245 48.3044C84.0388 48.3403 83.9444 48.3499 83.8533 48.332C83.7621 48.3141 83.6783 48.2696 83.6125 48.204C83.5467 48.1385 83.5018 48.0549 83.4835 47.9638C83.4653 47.8728 83.4744 47.7783 83.5099 47.6925C83.5453 47.6066 83.6055 47.5332 83.6827 47.4816C83.7599 47.4299 83.8507 47.4023 83.9436 47.4023C84.0676 47.4023 84.1867 47.4515 84.2746 47.539C84.3626 47.6266 84.4122 47.7454 84.4128 47.8695Z" fill="#FAFAFA"/>
<path d="M82.5542 48.6183L79.3901 56.8721L83.2845 56.8232L86.4608 50.0034L82.5542 48.6183Z" fill="#E0E0E0"/>
<path d="M85.496 56.8721H74.582V69.4242H85.496V56.8721Z" fill="#449EEE"/>
<path d="M85.4959 59.9974C85.4959 60.028 83.0479 60.0525 80.0389 60.0525C77.0299 60.0525 74.5798 60.0321 74.5798 59.9974C74.5798 59.9627 77.0278 59.9443 80.0368 59.9443C83.0458 59.9443 85.4959 59.9688 85.4959 59.9974Z" fill="white"/>
<path d="M85.4959 61.3499C85.4959 61.3785 83.0479 61.403 80.0389 61.403C77.0299 61.403 74.5798 61.3785 74.5798 61.3499C74.5798 61.3214 77.0278 61.2969 80.0368 61.2969C83.0458 61.2969 85.4959 61.3193 85.4959 61.3499Z" fill="white"/>
<path d="M85.496 62.7004C85.496 62.731 83.048 62.7534 80.039 62.7534C77.03 62.7534 74.582 62.731 74.582 62.7004C74.582 62.6698 77.03 62.6473 80.039 62.6473C83.048 62.6473 85.496 62.6718 85.496 62.7004Z" fill="white"/>
<path d="M85.496 64.0529C85.496 64.0815 83.048 64.106 80.039 64.106C77.03 64.106 74.582 64.0815 74.582 64.0529C74.582 64.0244 77.03 63.9999 80.039 63.9999C83.048 63.9999 85.496 64.0223 85.496 64.0529Z" fill="white"/>
<path d="M85.496 65.4034C85.496 65.4319 83.048 65.4564 80.039 65.4564C77.03 65.4564 74.582 65.4319 74.582 65.4034C74.582 65.3748 77.03 65.3503 80.039 65.3503C83.048 65.3503 85.496 65.3748 85.496 65.4034Z" fill="white"/>
<path d="M85.4959 66.7641C85.4959 66.7947 83.0479 66.8171 80.0389 66.8171C77.0299 66.8171 74.5798 66.7845 74.5798 66.7641C74.5798 66.7437 77.0278 66.7111 80.0368 66.7111C83.0458 66.7111 85.4959 66.7253 85.4959 66.7641Z" fill="white"/>
<path d="M68.1682 49.9627L75.4653 50.5461C75.4653 50.5461 75.6693 47.0026 72.2543 46.6273C68.8394 46.2519 68.1682 49.9627 68.1682 49.9627Z" fill="#455A64"/>
<path d="M77.4665 56.8721C77.3278 56.919 76.5689 55.1014 75.7733 52.8105C74.9777 50.5196 74.4433 48.6203 74.582 48.5734C74.7207 48.5265 75.4775 50.3441 76.2752 52.635C77.0728 54.926 77.6052 56.8232 77.4665 56.8721Z" fill="#455A64"/>
<path d="M77.9031 80.9093C77.856 80.9248 77.8075 80.9357 77.7583 80.942L77.3401 81.0113L77.0382 81.0583C76.926 81.0725 76.8056 81.0807 76.675 81.095C76.4139 81.1174 76.1181 81.1562 75.7897 81.1603L75.2736 81.1766C75.094 81.1766 74.9064 81.1766 74.7126 81.1766C74.325 81.1766 73.9129 81.1378 73.4886 81.1031C71.5996 80.9207 69.7556 80.4178 68.0356 79.616C67.646 79.4242 67.2706 79.2467 66.9361 79.0488C66.7688 78.953 66.6036 78.8653 66.4506 78.7694L66.012 78.4817C65.7304 78.3104 65.4958 78.1247 65.2837 77.9738C65.1776 77.8963 65.0797 77.8269 64.9899 77.7575L64.7533 77.5535L64.4289 77.2822C64.3901 77.252 64.3539 77.2186 64.3208 77.1823C64.365 77.2048 64.4062 77.2329 64.4432 77.2659L64.7798 77.5209L65.0205 77.7086C65.1103 77.7759 65.2102 77.8432 65.3184 77.9126C65.5326 78.0594 65.7692 78.239 66.0528 78.4063L66.4893 78.6776C66.6423 78.7714 66.8076 78.8551 66.9748 78.9489C67.3094 79.1427 67.6827 79.3161 68.0724 79.5058C68.9311 79.8924 69.8176 80.2142 70.7244 80.4687C71.6321 80.7107 72.5568 80.8839 73.4906 80.9868C73.921 81.0236 74.3311 81.0664 74.7146 81.0684C74.9084 81.0684 75.094 81.0868 75.2715 81.0827L75.7876 81.0725C76.114 81.0725 76.4098 81.0399 76.671 81.0236C76.7995 81.0236 76.9219 81.0073 77.032 80.995L77.334 80.9583L77.7542 80.9073C77.8038 80.9043 77.8536 80.905 77.9031 80.9093Z" fill="#455A64"/>
<path d="M69.2167 80.1055C67.6867 79.9015 65.6875 80.4931 64.541 81.5335C66.1669 81.3151 67.7462 80.8327 69.2167 80.1055Z" fill="#455A64"/>
<path d="M69.2942 80.124C69.8552 78.6837 69.027 76.656 69.027 76.656C68.8658 76.3826 68.9372 78.5266 69.2942 80.124Z" fill="#455A64"/>
<path d="M66.879 78.9816C67.287 77.9248 66.6934 76.4397 66.6934 76.4397C66.5792 76.2357 66.6261 77.8126 66.879 78.9816Z" fill="#455A64"/>
<path d="M71.4568 80.636C71.8648 79.5793 71.2712 78.0941 71.2712 78.0941C71.1549 77.8901 71.2018 79.4671 71.4568 80.636Z" fill="#455A64"/>
<path d="M66.926 79.0041C65.7856 78.8531 64.2984 79.2937 63.4478 80.0649C64.6572 79.9031 65.8321 79.5448 66.926 79.0041Z" fill="#455A64"/>
<path d="M71.6892 80.7971C70.0715 80.8196 68.0927 81.7376 67.0625 82.984C68.7136 82.512 70.2764 81.7733 71.6892 80.7971Z" fill="#455A64"/>
<path d="M77.8541 73.0717C77.5242 72.5763 77.0665 72.1794 76.5293 71.9232C75.9921 71.667 75.3956 71.561 74.803 71.6164C74.2105 71.6718 73.6439 71.8866 73.1636 72.238C72.6833 72.5894 72.307 73.0643 72.0748 73.6123C71.7043 74.5505 71.7211 75.5975 72.1217 76.5233C72.528 77.4389 73.1895 78.218 74.027 78.7673C76.1833 80.2361 79.3107 80.1688 81.3139 78.4981C82.0585 77.8861 82.6563 77.0313 82.7929 76.0725C82.8722 75.5147 82.794 74.9458 82.567 74.4302C82.34 73.9145 81.9734 73.4726 81.5085 73.1543C81.0436 72.836 80.499 72.6541 79.9361 72.629C79.3733 72.604 78.8146 72.7368 78.3233 73.0125" fill="#449EEE"/>
<path d="M77.8624 73.0677C77.7909 72.8054 77.6286 72.5769 77.4045 72.423C77.1804 72.2691 76.9089 72.1997 76.6384 72.2272L77.3606 73.086C77.1643 73.1129 76.9787 73.1915 76.8228 73.3138C76.6668 73.436 76.5462 73.5975 76.4732 73.7817C76.4406 73.8694 76.4304 73.9857 76.514 74.0387C76.5436 74.0484 76.575 74.0517 76.606 74.0481C76.637 74.0446 76.6668 74.0344 76.6935 74.0183L77.5707 73.6552C77.6309 74.1446 77.8102 74.6118 78.093 75.0159C78.2936 74.5863 78.406 74.1208 78.4234 73.647L79.3924 74.0754C79.3159 73.7966 79.1574 73.5471 78.9375 73.3594C79.2265 73.3046 79.5031 73.1974 79.7535 73.0432C79.829 72.9963 79.9106 72.9167 79.878 72.8392C79.8453 72.7617 79.7719 72.7596 79.7046 72.7535C79.0646 72.6928 78.4212 72.8265 77.8584 73.137" fill="#455A64"/>
<path d="M77.7991 73.4308C77.9494 72.4503 77.8669 71.4481 77.5583 70.5054C77.7889 70.4544 78.0724 70.4197 78.2234 70.6033C78.2981 70.7189 78.3325 70.8558 78.3213 70.993C78.3324 71.921 78.1562 72.8417 77.8031 73.7" fill="#455A64"/>
<path d="M73.0949 76.9416C73.0375 76.8988 72.9867 76.848 72.9439 76.7906C72.8184 76.6404 72.7096 76.4769 72.6196 76.3031C72.3129 75.7248 72.2047 75.0619 72.3116 74.4161C72.4185 73.7704 72.7345 73.1776 73.2112 72.729C73.3515 72.5928 73.5069 72.4731 73.6742 72.372C73.7339 72.3322 73.7984 72.3 73.866 72.2761C73.6552 72.4322 73.4542 72.6012 73.2642 72.782C72.8158 73.23 72.519 73.8072 72.4155 74.4325C72.3119 75.0578 72.4068 75.6998 72.6869 76.2684C72.8085 76.5012 72.9448 76.726 73.0949 76.9416Z" fill="white"/>
<path d="M74.068 77.6759C74.0578 77.7025 73.9048 77.6759 73.7498 77.5597C73.5947 77.4434 73.5152 77.3149 73.5458 77.2965C73.5764 77.2781 73.6784 77.372 73.8191 77.474C73.9599 77.576 74.0782 77.6474 74.068 77.6759Z" fill="white"/>
<path d="M33.0721 61.8782C32.9824 61.8986 33.6413 65.2075 33.6413 65.2075H35.3263L36.0709 62.0108C35.1048 61.6795 34.0637 61.6334 33.0721 61.8782Z" fill="#455A64"/>
<path d="M32.0562 80.5054C32.0562 80.5054 29.5756 73.5572 29.9224 71.6722C30.2692 69.7872 31.0138 69.3894 31.6095 68.7938C32.2052 68.1981 32.7009 67.7023 32.8498 67.1067C32.9987 66.511 32.8498 64.1303 32.8498 64.1303C32.8498 64.1303 32.403 63.4347 32.552 63.1878C32.7009 62.941 36.3729 63.1878 36.3729 63.1878C36.352 63.4905 36.2491 63.7818 36.075 64.0304C36.075 64.0304 35.9771 66.8088 36.126 67.1067C36.275 67.4045 38.5577 69.9362 38.9045 71.2254C39.2513 72.5147 37.5336 80.5054 37.5336 80.5054H32.0562Z" fill="#F5F5F5"/>
<path d="M32.0562 80.5054H32.1521H32.4315H33.5087L37.5336 80.487L37.5009 80.5136C37.7049 79.5038 37.9395 78.3593 38.1721 77.1006C38.4047 75.842 38.6474 74.467 38.8167 72.9921C38.8555 72.6228 38.8902 72.2495 38.8983 71.868C38.9335 71.4862 38.8517 71.1027 38.6637 70.7685C38.2843 70.0618 37.8412 69.3913 37.3398 68.7652C37.0909 68.4388 36.8298 68.1144 36.5666 67.788C36.4361 67.6228 36.3035 67.4596 36.1749 67.2882C36.1404 67.2438 36.1084 67.1975 36.0791 67.1495C36.0585 67.095 36.0448 67.0381 36.0383 66.9802C36.0228 66.8727 36.0132 66.7644 36.0097 66.6558C35.9709 65.797 35.9975 64.928 36.0219 64.0446V64.0304V64.0181C36.0587 63.9569 36.0995 63.8916 36.1341 63.8141C36.2334 63.6241 36.2931 63.4159 36.3096 63.2021L36.3585 63.2531C35.5221 63.2001 34.6939 63.1593 33.884 63.145C33.487 63.1306 33.0894 63.1463 32.6947 63.1919C32.6575 63.1981 32.6216 63.2105 32.5886 63.2286C32.5706 63.2617 32.5622 63.2991 32.5641 63.3368C32.5701 63.4292 32.5907 63.5201 32.6253 63.606C32.6954 63.7835 32.7814 63.9542 32.8824 64.116V64.1283V64.1405C32.9191 64.775 32.9456 65.3992 32.9477 66.0132C32.9525 66.319 32.9409 66.6247 32.913 66.9292C32.8747 67.2335 32.7604 67.5233 32.5805 67.7717C32.4116 68.0118 32.2225 68.237 32.0154 68.4449C31.8114 68.6489 31.6074 68.8529 31.4034 69.0467C31.1956 69.228 30.9993 69.4222 30.8159 69.6281C30.6432 69.8315 30.4965 70.0556 30.3793 70.2952C30.161 70.7602 30.0105 71.2542 29.9325 71.762C29.9071 72.0047 29.9071 72.2495 29.9325 72.4923C29.9489 72.731 29.9815 72.9676 30.0141 73.1981C30.158 74.0475 30.3445 74.889 30.5731 75.7196C30.9811 77.2373 31.3646 78.4328 31.6278 79.2549C31.7624 79.6629 31.8665 79.975 31.9379 80.1933C31.9725 80.2973 31.997 80.3789 32.0174 80.436C32.0378 80.4932 32.0419 80.5197 32.0419 80.5197C32.0291 80.494 32.0182 80.4674 32.0093 80.4401L31.9195 80.1994C31.844 79.9954 31.7339 79.6731 31.5951 79.2651C31.3197 78.4491 30.924 77.2557 30.5078 75.7359C30.3038 74.977 30.0896 74.1365 29.9366 73.2104C29.9019 72.9778 29.8693 72.7412 29.8509 72.4964C29.8235 72.2482 29.8235 71.9978 29.8509 71.7497C29.9289 71.2329 30.0807 70.73 30.3018 70.2564C30.4216 70.0096 30.5717 69.7787 30.7485 69.569C30.9335 69.3598 31.1318 69.1629 31.3422 68.9794C31.5462 68.7897 31.7502 68.5857 31.944 68.3796C32.1474 68.1747 32.333 67.9529 32.4989 67.7166C32.6692 67.4808 32.7773 67.2057 32.813 66.917C32.8394 66.6165 32.8503 66.3148 32.8457 66.0132C32.8457 65.4012 32.8151 64.779 32.7783 64.1466V64.1711C32.6713 64.0036 32.5811 63.826 32.5091 63.6407C32.4714 63.5434 32.4487 63.4409 32.4417 63.3368C32.4382 63.276 32.4547 63.2158 32.4887 63.1654C32.5347 63.1239 32.5924 63.0975 32.6539 63.0899C33.0566 63.042 33.4624 63.0256 33.8677 63.041C34.6837 63.0532 35.4997 63.094 36.3483 63.1491H36.432V63.2001C36.4164 63.4321 36.3532 63.6585 36.2463 63.8651C36.2099 63.9352 36.1697 64.0033 36.126 64.0691V64.0426C36.1015 64.9218 36.075 65.7929 36.1117 66.6436C36.116 66.7487 36.1255 66.8536 36.1403 66.9578C36.1455 67.005 36.1557 67.0515 36.1709 67.0965C36.1974 67.1373 36.2239 67.1781 36.2565 67.2209C36.381 67.3882 36.5156 67.5514 36.6462 67.7146C36.9093 68.043 37.1705 68.3674 37.4193 68.6958C37.9249 69.3278 38.3708 70.0053 38.7515 70.7195C38.9448 71.0682 39.0293 71.4668 38.9942 71.864C38.9942 72.2495 38.9493 72.6269 38.9085 72.9962C38.7372 74.4752 38.4863 75.8522 38.2537 77.1088C38.0211 78.3654 37.7825 79.514 37.5642 80.5217V80.5503H37.5356L33.4944 80.5319H32.4234H32.15L32.0562 80.5054Z" fill="#263238"/>
<path d="M37.0583 79.7853C37.687 77.4635 38.1035 75.0894 38.3027 72.6922C38.3252 72.4189 38.3252 72.1027 38.1171 71.9211C37.8641 71.7008 37.4786 71.8191 37.1583 71.9211C36.217 72.2198 35.2149 72.2732 34.2472 72.0761C33.3068 71.8721 32.3725 71.4519 31.4259 71.609C31.3054 71.6191 31.1883 71.6534 31.0814 71.7099C30.9745 71.7663 30.88 71.8437 30.8037 71.9374C30.6507 72.1659 30.6874 72.4658 30.7303 72.7371C31.1036 75.0709 31.8645 77.7514 32.4826 79.7853H37.0583Z" fill="#449EEE"/>
<path d="M37.6804 72.2088C37.6292 72.2803 37.5696 72.3453 37.5029 72.4026C37.3279 72.5681 37.1396 72.7189 36.9399 72.8534C36.281 73.3072 35.5228 73.5962 34.729 73.6959C33.9352 73.7957 33.1291 73.7033 32.3784 73.4267C32.1515 73.346 31.9318 73.2463 31.7215 73.1288C31.642 73.0906 31.5679 73.0419 31.5012 72.984C31.5012 72.9656 31.8317 73.1656 32.4029 73.3573C33.1453 73.6069 33.9344 73.6857 34.7115 73.5879C35.4886 73.4901 36.2336 73.2181 36.8909 72.7922C37.405 72.476 37.6661 72.1925 37.6804 72.2088Z" fill="white"/>
</g>
<defs>
<clipPath id="clip0_550_16252">
<rect width="89.964" height="82.3161" fill="white" transform="translate(0.0180664 0.667969)"/>
</clipPath>
</defs>
</svg>
