<svg width="81" height="69" viewBox="0 0 81 69" fill="none" xmlns="http://www.w3.org/2000/svg">
<g clip-path="url(#clip0_550_16251)">
<path d="M56.0714 27.9037C55.5172 27.9654 54.9578 27.9654 54.4036 27.9037C54.9578 27.842 55.5172 27.842 56.0714 27.9037Z" fill="#FAFAFA"/>
<path d="M80.728 68.2438C80.728 68.2705 62.7198 68.2919 40.5107 68.2919C18.3017 68.2919 0.282715 68.2705 0.282715 68.2438C0.282715 68.2171 18.2856 68.194 40.5 68.194C62.7144 68.194 80.728 68.2189 80.728 68.2438Z" fill="#263238"/>
<path d="M64.6334 58.1958C65.5002 57.5728 66.3831 56.9409 67.387 56.576C68.391 56.2111 69.5515 56.1399 70.502 56.6294C71.2977 57.0388 71.8709 57.8042 72.2002 58.6372C72.6065 59.6717 72.675 60.8081 72.396 61.8839C72.2447 62.4642 71.9438 63.0641 71.392 63.299C70.8402 63.534 70.2048 63.3311 69.6565 63.0854C67.8573 62.2771 66.2988 61.0154 65.1336 59.424C65.2508 59.3304 65.393 59.2733 65.5424 59.2601C65.6918 59.2468 65.8418 59.2778 65.9737 59.3492C66.2344 59.4962 66.4714 59.6816 66.6768 59.8992C67.3729 60.5298 68.2124 60.9808 69.1225 61.2129C69.7954 61.3909 70.7014 61.3108 70.9275 60.6539C71.0752 60.225 70.8402 59.7639 70.6124 59.3741C70.3525 58.9238 70.0553 58.4414 69.5675 58.2616C69.2009 58.1281 68.7968 58.1922 68.4123 58.2616L64.2151 58.9825L64.475 58.906" fill="#455A64"/>
<path d="M54.1546 1.58469C51.3867 0.812172 47.2856 1.88729 45.7192 4.29563C44.1528 6.70397 44.8434 10.2782 44.7206 13.1476C44.5977 16.0169 44.7206 18.9326 44.0246 21.7218C43.5867 23.5018 42.7483 25.2818 41.2069 26.2697C39.4447 27.3911 36.8031 27.5015 35.9683 29.4168C35.2723 31.0188 36.3528 32.9768 35.6497 34.5788C35.34 35.2908 34.7116 35.8248 34.4411 36.5457C34.0673 37.546 34.4767 38.7102 35.2118 39.4845C35.9469 40.2588 36.9527 40.7127 37.9548 41.0865C41.0078 42.2047 44.253 42.7039 47.5009 42.555C49.863 42.4446 52.3977 41.8857 53.9463 40.1003C55.1621 38.6977 55.5625 36.7753 55.7833 34.9383C57.1396 23.5766 57.3853 11.0863 54.1546 1.60249" fill="#263238"/>
<path d="M38.7202 36.0633C38.7433 36.0508 38.617 35.8372 38.4906 35.4118C38.3252 34.8103 38.29 34.1804 38.3873 33.5642C38.5349 32.6506 38.8759 31.7791 39.3877 31.0081C39.9555 30.1323 40.7779 29.31 41.6803 28.5001C42.5828 27.6902 43.4817 26.9408 44.2062 26.1594C44.8595 25.4756 45.4035 24.695 45.8188 23.8454C46.0964 23.2701 46.2688 22.6498 46.3279 22.0138C46.3403 21.8413 46.3403 21.6682 46.3279 21.4958C46.3279 21.3765 46.3137 21.3178 46.3048 21.3178C46.2514 21.3035 46.3938 22.3502 45.6782 23.7813C45.2518 24.6037 44.7066 25.3588 44.0602 26.0223C43.3482 26.7859 42.4457 27.5246 41.5362 28.3363C40.6266 29.148 39.7971 29.9899 39.2222 30.8977C38.702 31.695 38.3652 32.5978 38.236 33.541C38.1506 34.1771 38.2114 34.8242 38.414 35.4332C38.4707 35.5972 38.5422 35.7556 38.6276 35.9066C38.6508 35.963 38.682 36.0158 38.7202 36.0633Z" fill="#455A64"/>
<path d="M45.6817 56.4122L44.7561 68.0445L72.565 68.1816L65.0054 57.5514L45.6817 56.4122Z" fill="#263238"/>
<path d="M23.697 28.4342C23.7753 28.5018 22.0683 37.6101 21.205 42.1705C21.0608 42.9334 21.1335 43.7215 21.4148 44.4452C21.6961 45.1689 22.1747 45.7992 22.7963 46.2645C23.4386 46.7447 24.2062 47.0285 25.0064 47.0816C25.8066 47.1347 26.605 46.9547 27.3051 46.5635L38.884 40.5382L35.3382 33.1138L28.0402 37.2559L28.5208 29.5325L23.697 28.4342Z" fill="#FFBE9D"/>
<path d="M27.6502 21.1914C27.5684 20.8656 27.1572 20.7179 26.8297 20.7998C26.5103 20.9117 26.2256 21.1049 26.0037 21.3605L25.0675 21.9283C24.8908 22.0456 24.7453 22.2041 24.6436 22.3902C24.5419 22.5762 24.487 22.7843 24.4836 22.9963C24.479 23.4195 24.5446 23.8406 24.6776 24.2423C24.7755 24.5983 24.9144 25.0024 25.2579 25.1323C25.6406 25.2747 26.0643 24.9792 26.244 24.6125C26.4238 24.2459 26.4416 23.8276 26.536 23.4306C26.6497 22.9545 26.8748 22.5122 27.1928 22.1401C27.4295 21.8607 27.741 21.5474 27.6502 21.1914Z" fill="#EB996E"/>
<path d="M19.8717 21.558C19.8427 21.4672 19.8366 21.3707 19.8538 21.277C19.8709 21.1833 19.911 21.0952 19.9702 21.0206C20.0295 20.946 20.1063 20.8872 20.1937 20.8493C20.2811 20.8114 20.3766 20.7956 20.4715 20.8033C22.3726 20.9599 26.8884 21.5918 29.5673 22.3626C33.3659 23.4555 35.8668 24.1622 35.8668 24.1622L43.9337 23.9842C43.9337 23.9842 42.9654 26.7645 39.8913 26.7788C37.5649 26.7894 35.1245 25.2942 35.1245 25.2942C35.1245 25.2942 24.7863 21.7734 20.4448 21.9639C20.3181 21.9695 20.193 21.9328 20.0893 21.8597C19.9855 21.7866 19.909 21.6811 19.8717 21.5598V21.558Z" fill="#455A64"/>
<path d="M42.426 24.0073C42.5257 24.2903 42.1964 24.5413 41.9027 24.5947C41.609 24.6481 41.2726 24.6339 41.0607 24.8439C40.9856 24.9342 40.9308 25.0396 40.9001 25.1529C40.8694 25.2663 40.8635 25.3849 40.8827 25.5007C40.9248 25.7314 40.9527 25.9644 40.9664 26.1985C40.971 26.3576 40.9157 26.5125 40.8115 26.6328C40.5997 26.8482 40.2099 26.7752 40.0052 26.5545C39.8177 26.3145 39.7156 26.0189 39.7151 25.7143C39.7124 25.4987 39.6807 25.2843 39.6207 25.0771C39.5891 24.9735 39.5304 24.8802 39.4505 24.807C39.3707 24.7337 39.2728 24.6832 39.1668 24.6606C38.9123 24.6285 38.688 24.8208 38.4441 24.9062C38.3163 24.9424 38.1822 24.9505 38.051 24.9299C37.9197 24.9093 37.7945 24.8606 37.6839 24.787C37.5733 24.7134 37.4799 24.6168 37.4102 24.5037C37.3405 24.3906 37.2961 24.2638 37.28 24.1319L42.426 24.0073Z" fill="#449EEE"/>
<path d="M22.7783 21.1149C22.6518 21.1853 22.521 21.2477 22.3867 21.3018C21.7356 21.5662 21.0307 21.6712 20.3308 21.6079C20.1866 21.5961 20.0433 21.5747 19.9019 21.5438C19.9019 21.5438 19.9428 21.5438 20.0158 21.5599C20.0888 21.5759 20.1938 21.583 20.3308 21.5937C20.6787 21.6217 21.0287 21.6098 21.3739 21.5581C21.7187 21.5061 22.0566 21.416 22.3814 21.2893C22.506 21.2395 22.6057 21.1967 22.6733 21.1629L22.7783 21.1149Z" fill="#263238"/>
<path d="M26.3171 21.6257H26.2833L26.1872 21.615C26.1035 21.6043 25.9825 21.5936 25.8312 21.5847C25.4397 21.5613 25.0469 21.5816 24.6599 21.6452C24.2733 21.7111 23.895 21.8185 23.5314 21.9656C23.3926 22.0244 23.2804 22.0742 23.2057 22.1116L23.1185 22.1525L23.0864 22.165C23.0864 22.165 23.0953 22.165 23.1149 22.1454L23.1986 22.0974C23.2733 22.0564 23.3766 22.003 23.5225 21.9425C23.8851 21.7864 24.2652 21.6747 24.6546 21.6096C25.0439 21.5457 25.4395 21.5283 25.833 21.558C25.9843 21.5705 26.1053 21.5865 26.189 21.6007L26.2851 21.6185L26.3171 21.6257Z" fill="#263238"/>
<path d="M28.9622 22.966L28.5902 22.8556L28.1559 22.7239C28.0618 22.7028 27.9762 22.6538 27.9103 22.5833C27.8938 22.5622 27.8827 22.5373 27.8781 22.511C27.8734 22.4846 27.8753 22.4575 27.8836 22.432C27.8933 22.4054 27.9091 22.3816 27.9299 22.3624C27.9506 22.3432 27.9756 22.3292 28.0028 22.3216C28.1189 22.2863 28.2428 22.2863 28.3588 22.3216C28.4781 22.3448 28.6027 22.3715 28.7291 22.4071C28.9983 22.4828 29.2599 22.5835 29.5105 22.7079C29.6422 22.7737 29.7757 22.8467 29.9056 22.9286C29.9747 22.9656 30.0353 23.0165 30.0836 23.0781C30.096 23.0955 30.1038 23.1157 30.1063 23.1368C30.1088 23.158 30.1059 23.1794 30.0979 23.1992C30.079 23.2367 30.0475 23.2663 30.0089 23.2828C29.6968 23.4031 29.3589 23.4405 29.0281 23.3914C28.3428 23.3042 27.7643 22.9749 27.2481 22.7043C26.7985 22.438 26.3103 22.2428 25.801 22.1258C25.4559 22.0532 25.0983 22.0666 24.7597 22.165C24.6682 22.1938 24.5794 22.2307 24.4944 22.2753C24.4375 22.3074 24.4072 22.3216 24.4072 22.3216L24.4802 22.27C24.5643 22.2239 24.6525 22.1858 24.7436 22.1561C25.084 22.0543 25.4443 22.039 25.7921 22.1116C26.303 22.2271 26.793 22.421 27.2445 22.6865C27.7625 22.9571 28.341 23.2846 29.0245 23.3718C29.3517 23.4199 29.6858 23.3832 29.9946 23.265C30.0303 23.2512 30.0595 23.2245 30.0765 23.1903C30.0828 23.173 30.0849 23.1545 30.0828 23.1363C30.0806 23.118 30.0742 23.1006 30.0641 23.0852C30.0152 23.026 29.9546 22.9775 29.8861 22.9428C29.759 22.8622 29.6277 22.7885 29.4927 22.7221C29.2427 22.5978 28.9817 22.4971 28.713 22.4213C28.5884 22.3857 28.4638 22.3572 28.3446 22.3323C28.2335 22.3002 28.1157 22.3002 28.0046 22.3323C27.9794 22.3401 27.9563 22.3535 27.9369 22.3713C27.9175 22.3892 27.9023 22.4111 27.8925 22.4355C27.8845 22.4591 27.8824 22.4842 27.8864 22.5087C27.8905 22.5333 27.9005 22.5564 27.9156 22.5762C27.98 22.6454 28.0637 22.6938 28.1559 22.715L28.5902 22.8485L28.9622 22.966Z" fill="#263238"/>
<path d="M30.8383 22.8041C30.8704 22.859 30.8921 22.9193 30.9023 22.9821C30.9313 23.1275 30.9133 23.2784 30.8507 23.4128C30.7848 23.5456 30.679 23.6545 30.5481 23.7243C30.4928 23.7542 30.4325 23.7735 30.3701 23.7813C30.4265 23.7627 30.4813 23.7395 30.5339 23.7119C30.6627 23.6436 30.7665 23.536 30.8302 23.4048C30.8939 23.2736 30.9142 23.1256 30.8881 22.9821C30.8763 22.9215 30.8596 22.862 30.8383 22.8041Z" fill="#263238"/>
<path d="M34.1136 23.6602C34.1136 23.6602 33.9356 23.6602 33.6579 23.6424C33.3802 23.6246 32.9886 23.5837 32.5579 23.5784C32.1935 23.5652 31.8302 23.6257 31.4899 23.7564C31.4284 23.7787 31.3688 23.8061 31.3119 23.8382C31.2689 23.8587 31.2283 23.8838 31.1908 23.913L31.0894 23.9806L31.1855 23.9077C31.2226 23.8769 31.2633 23.8506 31.3065 23.8293C31.3633 23.7959 31.4229 23.7673 31.4845 23.7439C31.829 23.61 32.1976 23.5493 32.5668 23.5659C32.9993 23.5659 33.3856 23.6175 33.6668 23.6371C33.8074 23.6478 33.9213 23.6567 33.9997 23.6602H34.1136Z" fill="#263238"/>
<path d="M37.5293 26.3462C37.5293 26.3462 37.4653 26.2911 37.3513 26.1878C37.2944 26.1362 37.2232 26.0739 37.1377 26.0098C37.0523 25.9457 36.9597 25.8603 36.8458 25.7802C36.5885 25.5854 36.3192 25.4071 36.0395 25.2462C35.3547 24.8553 34.6139 24.5719 33.843 24.406C33.5291 24.3366 33.2109 24.2879 32.8907 24.2601C32.7536 24.2423 32.629 24.2405 32.5204 24.2352C32.4118 24.2298 32.3175 24.2352 32.241 24.2352C32.3175 24.2352 32.419 24.2352 32.5204 24.2352C32.6219 24.2352 32.7536 24.2352 32.8907 24.2565C33.212 24.2837 33.5312 24.3313 33.8465 24.3989C34.2321 24.4822 34.6115 24.5916 34.9822 24.7264C35.3494 24.8707 35.7063 25.0402 36.0502 25.2337C36.3301 25.3943 36.5994 25.5727 36.8565 25.7677C36.9686 25.8461 37.0612 25.9297 37.1466 25.9991C37.2321 26.0686 37.3015 26.1291 37.3567 26.1771C37.4742 26.2875 37.5293 26.3462 37.5293 26.3462Z" fill="#263238"/>
<path d="M39.8628 26.4067C39.8063 26.4374 39.7466 26.4619 39.6848 26.4797C39.5194 26.5299 39.3466 26.551 39.174 26.542C38.9177 26.5259 38.6669 26.4606 38.4353 26.3498C38.1542 26.2104 37.8951 26.0305 37.6663 25.8158C37.4189 25.5915 37.2035 25.3601 37.0042 25.1536C36.8297 24.9654 36.6449 24.7872 36.4506 24.6196C36.3196 24.5083 36.1804 24.4072 36.0341 24.317C35.9824 24.2868 35.9415 24.2618 35.913 24.2476L35.8721 24.228C36.0845 24.3305 36.2826 24.4604 36.4612 24.6143C36.6558 24.7797 36.8418 24.955 37.0184 25.1394C37.2195 25.3459 37.4349 25.5773 37.6806 25.7998C37.9079 26.0138 38.1651 26.1937 38.4442 26.3338C38.6739 26.4447 38.9229 26.51 39.1775 26.526C39.3486 26.5374 39.5203 26.5188 39.6848 26.4708C39.7299 26.4582 39.7739 26.4422 39.8166 26.4228L39.8628 26.4067Z" fill="#263238"/>
<path d="M42.919 25.5506H42.8585C42.8176 25.5506 42.7606 25.5506 42.6894 25.5506C42.5034 25.5509 42.318 25.57 42.1358 25.6076C41.9519 25.6473 41.7728 25.707 41.6018 25.7856C41.5377 25.814 41.4843 25.8407 41.4505 25.8603C41.4325 25.8711 41.4134 25.8801 41.3936 25.887C41.4582 25.8439 41.526 25.8059 41.5965 25.7731C41.9346 25.6098 42.3069 25.5298 42.6823 25.5399C42.7613 25.5382 42.8404 25.5418 42.919 25.5506Z" fill="#263238"/>
<path d="M20.7065 26.2626L20.621 24.5983C20.6116 24.4189 20.6609 24.2414 20.7616 24.0927L20.7723 24.0767C21.0591 23.6513 21.4328 23.2915 21.8688 23.0212L25.4555 20.798C25.5084 20.765 25.5684 20.7455 25.6306 20.7411C25.6927 20.7367 25.7549 20.7474 25.8119 20.7725C25.8689 20.7976 25.919 20.8362 25.9577 20.885C25.9963 20.9338 26.0226 20.9913 26.034 21.0525C26.0785 21.3462 25.9486 22.0155 25.6887 22.2825C25.2276 22.7021 24.7228 23.0709 24.1828 23.3825L27.7802 22.6848C27.864 22.9145 27.8625 23.1667 27.7759 23.3954C27.6893 23.6241 27.5234 23.8141 27.3085 23.9308L28.7877 23.6175C28.7877 23.6175 29.2718 24.3063 28.6097 24.7602C27.9475 25.2141 26.7709 25.6075 26.7709 25.6075C26.7709 25.6075 28.6061 26.3818 28.5634 26.9995C28.5207 27.6171 28.4957 29.5965 28.4957 29.5965L23.5651 29.2405L20.7065 26.2626Z" fill="#FFBE9D"/>
<path d="M24.3128 23.2739L24.2789 23.2935L24.1757 23.3451C24.0867 23.3914 23.9568 23.4555 23.8001 23.5391C23.6435 23.6228 23.4655 23.7367 23.2661 23.8667C23.0668 23.9966 22.8443 24.1301 22.6324 24.2939C22.5288 24.3733 22.4457 24.4764 22.3904 24.5947C22.3428 24.7071 22.3209 24.8287 22.3263 24.9507C22.3407 25.1576 22.3801 25.362 22.4438 25.5594C22.4846 25.6954 22.5126 25.8348 22.5274 25.976C22.5335 26.0274 22.5335 26.0794 22.5274 26.1308C22.5274 26.1308 22.5274 26.0756 22.515 25.976C22.496 25.8371 22.4651 25.7001 22.4224 25.5666C22.3538 25.3676 22.3113 25.1606 22.296 24.9507C22.2896 24.8246 22.3115 24.6987 22.3601 24.5822C22.4181 24.4591 22.5041 24.3513 22.6111 24.2672C22.7166 24.1858 22.8265 24.1104 22.9404 24.0411L23.2519 23.84C23.4495 23.7118 23.631 23.5997 23.7859 23.5178C23.9407 23.4359 24.076 23.3754 24.1686 23.3398L24.2736 23.2935L24.3128 23.2739Z" fill="#EB996E"/>
<path d="M24.6474 27.0102C24.6474 27.0102 24.6314 26.9924 24.6029 26.955L24.4801 26.7966L24.2843 26.5474C24.1951 26.4381 24.1192 26.3186 24.0582 26.1914C23.9909 26.0169 23.9764 25.8265 24.0166 25.6438C24.0568 25.4612 24.1499 25.2944 24.2843 25.1643C24.4486 25.0209 24.6357 24.906 24.8379 24.8243C25.0408 24.7282 25.2544 24.6356 25.4751 24.5449C26.2319 24.2423 27.0094 23.9943 27.8016 23.8026C28.1042 23.7261 28.3516 23.6727 28.5225 23.6371L28.7183 23.5979L28.7877 23.5854C28.7656 23.5933 28.743 23.5998 28.7201 23.605L28.5243 23.6513C28.3552 23.6922 28.1095 23.7492 27.8123 23.8293C27.0254 24.029 26.2524 24.28 25.4983 24.5805C25.2793 24.6712 25.0657 24.7585 24.8628 24.8581C24.6637 24.9386 24.4791 25.051 24.3163 25.191C24.1861 25.3162 24.0954 25.4769 24.0556 25.6531C24.0157 25.8293 24.0284 26.0134 24.0921 26.1825C24.1507 26.309 24.2235 26.4285 24.3092 26.5385C24.3804 26.6328 24.4445 26.7165 24.5015 26.7912C24.5584 26.866 24.5922 26.9158 24.6189 26.955C24.6456 26.9942 24.6474 27.0102 24.6474 27.0102Z" fill="#EB996E"/>
<path d="M28.4638 24.7994C28.4381 24.8185 28.4107 24.8352 28.3819 24.8493L28.1523 24.9703C27.9583 25.0718 27.6877 25.2071 27.3798 25.3406C27.1173 25.4543 26.8487 25.5536 26.5752 25.6378C26.4702 25.6699 26.3848 25.693 26.3243 25.7072C26.2941 25.717 26.2631 25.7241 26.2317 25.7286C26.2597 25.7134 26.2896 25.702 26.3207 25.6948L26.5663 25.6129C26.7746 25.5417 27.0576 25.4349 27.3656 25.3067C27.6735 25.1786 27.9441 25.0415 28.1416 24.9507L28.3748 24.8404C28.403 24.8238 28.4328 24.8101 28.4638 24.7994Z" fill="#EB996E"/>
<path d="M39.0458 16.8606C39.0458 16.8606 38.9852 16.9425 38.9051 17.108C38.7949 17.3436 38.739 17.6009 38.7414 17.861C38.7435 18.247 38.8801 18.6202 39.1276 18.9165C39.2812 19.0845 39.4434 19.2443 39.6136 19.3953C39.8003 19.5595 39.948 19.7632 40.0461 19.9916C40.1276 20.2294 40.12 20.4888 40.0248 20.7214C39.9367 20.9347 39.8166 21.1334 39.6688 21.3106C39.5335 21.4886 39.3893 21.6328 39.2594 21.7752C39.1383 21.9077 39.0276 22.0493 38.9283 22.1988C38.8168 22.3375 38.7372 22.499 38.695 22.6719C38.6529 22.8447 38.6493 23.0248 38.6844 23.1992C38.6844 23.1992 38.6844 23.1743 38.6666 23.128C38.65 23.0581 38.6428 22.9862 38.6453 22.9144C38.6626 22.6514 38.7532 22.3986 38.9069 22.1846C39.0055 22.0333 39.1156 21.8899 39.2362 21.7556C39.3661 21.6096 39.5085 21.4601 39.642 21.2892C39.7861 21.1142 39.9031 20.9186 39.9892 20.709C40.082 20.4819 40.089 20.2288 40.0087 19.997C39.9135 19.7733 39.7686 19.5743 39.5851 19.4149C39.4154 19.2621 39.2538 19.1005 39.1009 18.9307C38.8486 18.6289 38.7117 18.2472 38.7147 17.8538C38.7147 17.5902 38.7756 17.33 38.8927 17.0938C38.9348 17.0106 38.9862 16.9323 39.0458 16.8606Z" fill="#263238"/>
<path d="M40.6782 16.7751C40.6782 16.7751 40.6177 16.8588 40.5376 17.0243C40.428 17.2594 40.3727 17.5161 40.3756 17.7755C40.3758 18.1624 40.5126 18.5369 40.7619 18.8328C40.9007 18.9966 41.0751 19.1461 41.246 19.3116C41.4337 19.4742 41.5817 19.6776 41.6786 19.9062C41.7596 20.1445 41.7527 20.4041 41.659 20.6377C41.5701 20.8506 41.4501 21.0492 41.303 21.2269C41.1659 21.4049 41.0217 21.5473 40.8936 21.6915C40.7724 21.8238 40.6612 21.9648 40.5607 22.1134C40.4098 22.3227 40.3177 22.5685 40.2937 22.8254C40.2914 22.9203 40.2998 23.0153 40.3186 23.1084C40.3106 23.0851 40.304 23.0613 40.2991 23.0372C40.2831 22.9678 40.2766 22.8965 40.2795 22.8254C40.2967 22.5621 40.3866 22.3089 40.5394 22.0938C40.639 21.9434 40.7497 21.8006 40.8704 21.6666C40.9986 21.5206 41.141 21.3711 41.2763 21.2002C41.4197 21.0251 41.5361 20.8295 41.6216 20.6199C41.7145 20.393 41.7221 20.1401 41.643 19.9079C41.5468 19.6854 41.402 19.4871 41.2193 19.3277C41.0413 19.1621 40.8758 19.0126 40.7334 18.8435C40.4809 18.5411 40.344 18.1588 40.3471 17.7648C40.3481 17.5018 40.409 17.2425 40.5251 17.0065C40.5682 16.9245 40.6195 16.8469 40.6782 16.7751Z" fill="#263238"/>
<path d="M27.8906 43.0034C27.8799 43.0034 27.9315 41.656 28.0063 39.9952C28.081 38.3345 28.1487 36.9888 28.1576 36.9906C28.1665 36.9924 28.1166 38.3363 28.0436 39.997C27.9707 41.6578 27.8995 43.0034 27.8906 43.0034Z" fill="#EB996E"/>
<path d="M24.7951 30.3032C24.4553 29.9765 24.1333 29.6319 23.8303 29.2708C24.1701 29.5974 24.4921 29.942 24.7951 30.3032Z" fill="#EB996E"/>
<path d="M45.5749 56.0312L44.126 68.1815H64.3521L60.9826 59.5396L65.6195 58.4396C65.6195 58.4396 65.308 57.5692 65.0089 57.5496C64.7099 57.53 45.5749 56.0312 45.5749 56.0312Z" fill="#455A64"/>
<path d="M35.1904 32.8041C35.1904 32.8041 43.0349 27.7239 45.0979 27.0315C46.367 26.6061 50.178 26.5385 50.178 26.5385L43.0349 38.7457L38.9747 40.7215L35.1904 32.8041Z" fill="#449EEE"/>
<path d="M74.5124 41.341C72.1165 35.556 68.2397 29.0198 67.0916 27.9002C65.9435 26.7806 58.9036 25.8763 58.9036 25.8763L49.6725 26.8785L42.2712 37.0245L45.5126 52.8469L45.4023 53.0569C45.16 53.5237 45.0486 54.0473 45.0799 54.5723C45.1112 55.0972 45.2841 55.6039 45.5803 56.0384L65.0107 57.5586L65.0357 42.5763L74.5124 41.341Z" fill="#449EEE"/>
<path d="M62.3531 49.8209C62.3254 49.8663 62.2938 49.9092 62.2587 49.9491C62.1911 50.0292 62.1003 50.1538 61.965 50.3051C61.595 50.7278 61.1934 51.1217 60.7635 51.4834C59.3407 52.6869 57.6531 53.5363 55.8388 53.962C54.0246 54.3878 52.1352 54.3777 50.3256 53.9327C49.7794 53.7996 49.2439 53.6258 48.7236 53.413C48.5456 53.34 48.3997 53.2688 48.3035 53.235C48.2542 53.2145 48.2066 53.1901 48.1611 53.162C48.2127 53.177 48.2633 53.1954 48.3124 53.2172C48.4103 53.2545 48.5492 53.3204 48.7361 53.3863C50.7258 54.1588 52.8858 54.3856 54.9925 54.0433C57.0993 53.7009 59.0763 52.8018 60.719 51.4389C61.1509 51.0836 61.5577 50.6988 61.9365 50.2873C62.0754 50.1449 62.1697 50.0238 62.2427 49.9473C62.2764 49.9026 62.3133 49.8603 62.3531 49.8209Z" fill="#263238"/>
<path d="M65.0304 42.012C65.014 41.9651 65.0021 41.9169 64.9948 41.8678L64.9093 41.4548C64.8363 41.0846 64.7313 40.5648 64.6103 39.9294C64.3664 38.6318 64.0318 36.8535 63.6633 34.8902C63.617 34.6446 63.5725 34.4007 63.528 34.1604C63.4835 33.9201 63.4284 33.6851 63.4034 33.4484C63.3421 32.9954 63.3254 32.5376 63.3536 32.0814C63.3828 31.6694 63.4453 31.2604 63.5405 30.8585C63.6302 30.5101 63.745 30.1686 63.884 29.8368C64.086 29.3569 64.3473 28.9042 64.6619 28.4893C64.7687 28.338 64.8684 28.2348 64.9289 28.16C64.9577 28.12 64.9919 28.0841 65.0304 28.0532C65.0304 28.0532 65.0019 28.0942 64.9431 28.1725C64.8844 28.2508 64.7918 28.3505 64.6922 28.5107C64.3901 28.9297 64.1392 29.3832 63.9446 29.8617C63.8102 30.1914 63.7001 30.5305 63.6153 30.8763C63.5232 31.2743 63.4636 31.6791 63.4373 32.0867C63.4118 32.5372 63.4303 32.9891 63.4924 33.4359C63.5174 33.6709 63.5761 33.9023 63.617 34.1479C63.658 34.3936 63.706 34.6303 63.7523 34.8777C64.1083 36.8357 64.4358 38.6157 64.6726 39.9223C64.7865 40.5613 64.8773 41.0828 64.9414 41.4531L65.0108 41.8696C65.0211 41.9164 65.0277 41.9641 65.0304 42.012Z" fill="#263238"/>
<path d="M43.2253 41.6721C43.1957 41.5876 43.1737 41.5006 43.1594 41.4122C43.1238 41.2253 43.0758 40.9832 43.017 40.7002C42.9013 40.095 42.7465 39.2549 42.5809 38.3275C42.4154 37.4001 42.2712 36.5582 42.1715 35.9494C42.1252 35.6557 42.0861 35.4154 42.0576 35.2267C42.0405 35.1387 42.0304 35.0494 42.0273 34.9597C42.0573 35.0441 42.0793 35.1311 42.0932 35.2196C42.1288 35.3976 42.1769 35.6468 42.2356 35.9316C42.3513 36.5386 42.5062 37.3787 42.6717 38.3061C42.8372 39.2335 42.9814 40.0737 43.0811 40.6842C43.1274 40.9761 43.1665 41.2182 43.195 41.4069C43.2121 41.4943 43.2222 41.583 43.2253 41.6721Z" fill="#263238"/>
<path d="M65.6978 33.3576C65.7493 33.0129 65.8309 32.6734 65.9416 32.343C66.0238 32.0045 66.1357 31.6739 66.2763 31.3551C66.2236 31.6997 66.1414 32.0392 66.0306 32.3697C65.9499 32.7084 65.8385 33.0391 65.6978 33.3576Z" fill="#FAFAFA"/>
<path d="M66.7391 36.9283C66.4656 36.8054 66.2055 36.6545 65.9631 36.478C65.7039 36.3244 65.4607 36.1455 65.2368 35.944C65.7696 36.2191 66.2729 36.5477 66.7391 36.9247V36.9283Z" fill="#FAFAFA"/>
<path d="M68.7041 35.5488C68.6625 35.2411 68.6697 34.9287 68.7255 34.6232C68.7508 34.3137 68.8235 34.01 68.9409 33.7225C68.9676 33.7225 68.8821 34.1319 68.8181 34.6357C68.754 35.1394 68.7308 35.5488 68.7041 35.5488Z" fill="#FAFAFA"/>
<path d="M69.0976 39.0021C68.9759 38.7324 68.8713 38.4554 68.7844 38.1726C68.6665 37.9006 68.5648 37.6218 68.48 37.3378C68.6497 37.5842 68.7811 37.8548 68.8698 38.1406C68.9875 38.415 69.0643 38.7053 69.0976 39.0021Z" fill="#FAFAFA"/>
<path d="M67.5739 41.138C67.088 40.7754 66.6396 40.3652 66.2354 39.9133C66.7223 40.2746 67.1708 40.685 67.5739 41.138Z" fill="#FAFAFA"/>
<path d="M72.2392 38.646C72.2588 38.6656 71.9793 38.9753 71.7052 39.4061C71.4311 39.8368 71.2495 40.216 71.2246 40.2053C71.3039 39.8989 71.4404 39.6102 71.6269 39.3544C71.7858 39.0827 71.9933 38.8425 72.2392 38.646Z" fill="#FAFAFA"/>
<path d="M67.152 29.8866C66.9596 29.7757 66.7839 29.6378 66.6305 29.4772C66.4555 29.3396 66.3004 29.1785 66.1694 28.9984C66.3616 29.1113 66.5376 29.2496 66.6928 29.4096C66.8672 29.5466 67.0217 29.7071 67.152 29.8866Z" fill="#FAFAFA"/>
<path d="M61.4133 30.0255C60.9851 30.3486 60.5218 30.6221 60.032 30.8408C60.2358 30.6665 60.4592 30.5165 60.6977 30.394C60.9213 30.2442 61.1614 30.1205 61.4133 30.0255Z" fill="#FAFAFA"/>
<path d="M60.4095 35.0504C60.2212 34.8644 60.0551 34.6571 59.9146 34.4328C59.7492 34.2264 59.6088 34.0011 59.4963 33.7617C59.8504 34.1538 60.1569 34.5864 60.4095 35.0504Z" fill="#FAFAFA"/>
<path d="M62.5827 36.6881C62.3784 37.2345 62.0486 37.7254 61.6197 38.121C61.6002 38.1014 61.8458 37.8041 62.1092 37.409C62.3727 37.0138 62.5578 36.6738 62.5827 36.6881Z" fill="#FAFAFA"/>
<path d="M57.3014 37.0547C57.2747 37.0636 57.1234 36.6649 56.8795 36.2074C56.6357 35.75 56.3847 35.4046 56.4061 35.3868C56.8412 35.857 57.1477 36.4315 57.2961 37.0547H57.3014Z" fill="#FAFAFA"/>
<path d="M58.4033 40.4724C58.5019 40.1814 58.6296 39.9012 58.7842 39.6357C58.91 39.3553 59.0645 39.0887 59.2453 38.8401C59.1467 39.1313 59.0197 39.4121 58.8661 39.6785C58.7391 39.9581 58.5841 40.2241 58.4033 40.4724Z" fill="#FAFAFA"/>
<path d="M62.0896 43.0355C61.9861 42.7195 61.911 42.3948 61.8654 42.0654C61.7913 41.742 61.7472 41.4125 61.7336 41.0811C61.8376 41.3964 61.9127 41.7205 61.9579 42.0494C62.0322 42.3733 62.0763 42.7034 62.0896 43.0355Z" fill="#FAFAFA"/>
<path d="M55.3951 41.1576C55.1672 40.9742 54.9525 40.7749 54.7525 40.5613C54.5308 40.3696 54.3215 40.1639 54.126 39.9454C54.3816 40.0937 54.6142 40.2784 54.8166 40.4937C55.0397 40.6867 55.2344 40.9102 55.3951 41.1576Z" fill="#FAFAFA"/>
<path d="M52.4261 36.2092C52.0256 36.6514 51.5799 37.0505 51.0964 37.4C51.497 36.9579 51.9426 36.5588 52.4261 36.2092Z" fill="#FAFAFA"/>
<path d="M51.2583 34.7675C51.0608 34.5488 50.8866 34.3102 50.7386 34.0555C50.5656 33.8148 50.4177 33.5572 50.2971 33.2865C50.6686 33.7476 50.9908 34.2463 51.2583 34.7746V34.7675Z" fill="#FAFAFA"/>
<path d="M46.7301 37.2523C46.4909 36.9851 46.2747 36.6981 46.0839 36.3944C45.8686 36.1089 45.6786 35.8051 45.5161 35.4866C45.7553 35.7528 45.9709 36.0392 46.1605 36.3428C46.3769 36.6284 46.5676 36.9328 46.7301 37.2523Z" fill="#FAFAFA"/>
<path d="M48.0704 40.2231C48.0704 40.2498 47.4865 40.2587 46.7692 40.2961C46.0519 40.3335 45.4716 40.3798 45.468 40.3531C45.5899 40.3141 45.716 40.2902 45.8436 40.2819C46.0786 40.2516 46.4043 40.2213 46.7639 40.2035C47.1234 40.1857 47.4509 40.184 47.6877 40.1893C47.8162 40.184 47.9448 40.1954 48.0704 40.2231Z" fill="#FAFAFA"/>
<path d="M48.3997 31.6061C48.4247 31.6061 48.3232 32.0529 48.2306 32.6011C48.1381 33.1493 48.0882 33.5997 48.0615 33.5979C48.0524 32.9189 48.167 32.244 48.3997 31.6061Z" fill="#FAFAFA"/>
<path d="M46.5967 28.9949C46.7973 28.6762 47.0235 28.3744 47.2731 28.0924C47.4987 27.7906 47.7487 27.5078 48.0207 27.2469C47.8201 27.5656 47.5939 27.8674 47.3443 28.1494C47.1187 28.4512 46.8686 28.734 46.5967 28.9949Z" fill="#FAFAFA"/>
<path d="M44.788 31.4299C44.7684 31.4477 44.3484 31.0205 43.793 30.5399C43.2376 30.0593 42.7642 29.6855 42.7802 29.6642C42.9001 29.7189 43.012 29.7896 43.113 29.8742C43.3106 30.0166 43.5758 30.2302 43.8553 30.4705C44.1348 30.7108 44.3715 30.9547 44.5388 31.1327C44.6347 31.2203 44.7185 31.3203 44.788 31.4299Z" fill="#FAFAFA"/>
<path d="M41.7781 32.2772C41.7906 32.3021 41.262 32.5852 40.6763 33.0302C40.0907 33.4752 39.6742 33.9059 39.6528 33.8863C39.7232 33.7741 39.8089 33.6723 39.9074 33.5837C40.129 33.3571 40.3669 33.1471 40.6194 32.9554C40.8726 32.7637 41.1397 32.5912 41.4186 32.4392C41.5301 32.3683 41.6512 32.3138 41.7781 32.2772Z" fill="#FAFAFA"/>
<path d="M37.7392 34.7764C37.7143 34.7764 37.7179 34.294 37.6947 33.6995C37.6716 33.1049 37.6324 32.6315 37.6591 32.6315C37.744 32.9811 37.787 33.3396 37.7873 33.6995C37.816 34.059 37.7999 34.4208 37.7392 34.7764Z" fill="#FAFAFA"/>
<path d="M40.7172 37.4107C40.1441 37.001 39.6081 36.5418 39.1152 36.0383C39.4097 36.2308 39.6867 36.4488 39.9429 36.6898C40.2228 36.9057 40.482 37.147 40.7172 37.4107Z" fill="#FAFAFA"/>
<path d="M45.4254 33.6371C45.0921 33.7567 44.7491 33.8472 44.4002 33.9076C44.0574 33.9988 43.7071 34.0584 43.3535 34.0856C43.6874 33.9659 44.031 33.8754 44.3806 33.8151C44.7229 33.7249 45.0726 33.6654 45.4254 33.6371Z" fill="#FAFAFA"/>
<path d="M54.6582 34.8581C54.4988 34.7571 54.357 34.6308 54.2381 34.4843C54.0959 34.3585 53.9756 34.2099 53.8821 34.0447C54.0412 34.1468 54.183 34.2736 54.3022 34.4203C54.4439 34.5459 54.5641 34.6938 54.6582 34.8581Z" fill="#FAFAFA"/>
<path d="M58.8004 32.4534C58.6454 32.6556 58.466 32.838 58.2664 32.9963C58.0861 33.1776 57.8847 33.3366 57.6665 33.4698C58.0028 33.0859 58.3848 32.7445 58.8039 32.4534H58.8004Z" fill="#FAFAFA"/>
<path d="M62.3424 33.4342C62.3175 33.4342 62.4207 33.0248 62.5204 32.5211C62.6201 32.0173 62.6521 31.6026 62.6788 31.6044C62.7047 31.9169 62.6819 32.2316 62.6112 32.5371C62.5681 32.8481 62.4774 33.1507 62.3424 33.4342Z" fill="#FAFAFA"/>
<path d="M44.1438 39.1605C44.0312 39.0359 43.9425 38.8917 43.8821 38.735C43.7952 38.5915 43.7349 38.4336 43.7041 38.2687C43.8188 38.3926 43.9094 38.5369 43.9711 38.6941C44.0559 38.8381 44.1143 38.996 44.1438 39.1605Z" fill="#FAFAFA"/>
<path d="M50.5214 39.4096C50.4076 39.2262 50.3196 39.0279 50.2598 38.8204C50.1708 38.623 50.1108 38.4138 50.0818 38.1992C50.1959 38.3823 50.2834 38.5807 50.3417 38.7884C50.4317 38.9856 50.4922 39.1949 50.5214 39.4096Z" fill="#FAFAFA"/>
<path d="M53.9997 37.6581C53.9801 37.6403 54.0834 37.4908 54.2311 37.3235C54.3788 37.1562 54.5123 37.0334 54.5319 37.0494C54.5515 37.0654 54.4465 37.2167 54.3005 37.384C54.1546 37.5513 54.0282 37.6742 53.9997 37.6581Z" fill="#FAFAFA"/>
<path d="M46.8528 48.8063C46.6737 48.5597 46.5388 48.2839 46.4541 47.9911C46.3416 47.7076 46.2813 47.406 46.2761 47.1011C46.3028 47.1011 46.3847 47.4927 46.5467 47.9608C46.7087 48.429 46.8778 48.7921 46.8528 48.8063Z" fill="#FAFAFA"/>
<path d="M49.5674 49.0092C49.6118 48.7454 49.6859 48.4874 49.7881 48.2402C49.8607 47.9834 49.9635 47.736 50.0943 47.5033C50.0501 47.7664 49.9767 48.0237 49.8753 48.2705C49.8015 48.5277 49.6981 48.7756 49.5674 49.0092Z" fill="#FAFAFA"/>
<path d="M48.7754 52.094C48.6043 51.8686 48.4587 51.6251 48.3411 51.3677C48.1948 51.1239 48.0755 50.8648 47.9851 50.5952C48.1552 50.8215 48.3003 51.0656 48.4177 51.3232C48.5634 51.567 48.6834 51.8253 48.7754 52.094Z" fill="#FAFAFA"/>
<path d="M53.8038 51.2076C53.4962 51.1604 53.1966 51.0705 52.9138 50.9406C52.6211 50.8393 52.3447 50.696 52.0933 50.5151C52.3849 50.6121 52.6707 50.7256 52.9494 50.8551C53.2412 50.955 53.5265 51.0727 53.8038 51.2076Z" fill="#FAFAFA"/>
<path d="M52.1769 49.3777C52.1644 49.3545 52.4795 49.1498 52.8355 48.8579C53.1915 48.566 53.4585 48.3008 53.4781 48.3239C53.1399 48.78 52.6925 49.1436 52.1769 49.3812V49.3777Z" fill="#FAFAFA"/>
<path d="M56.367 50.6788C56.351 50.7002 56.027 50.5008 55.6016 50.2944C55.1762 50.0879 54.8131 49.9722 54.8202 49.9473C55.3921 50.048 55.9263 50.3007 56.367 50.6788Z" fill="#FAFAFA"/>
<path d="M57.2607 52.352C57.2429 52.3324 57.4867 52.0832 57.7555 51.7468C58.0243 51.4104 58.213 51.1185 58.2361 51.1327C58.1425 51.3804 58.0037 51.6086 57.8267 51.8055C57.674 52.0216 57.482 52.207 57.2607 52.352Z" fill="#FAFAFA"/>
<path d="M48.1204 55.5845C47.8243 55.4431 47.5424 55.2738 47.2784 55.079C46.9963 54.9109 46.7311 54.7159 46.4863 54.4969C46.7824 54.6384 47.0643 54.8076 47.3283 55.0025C47.6104 55.1706 47.8756 55.3655 48.1204 55.5845Z" fill="#FAFAFA"/>
<path d="M51.5255 54.7444C51.5362 54.7693 51.1695 54.9313 50.7548 55.2018C50.34 55.4724 50.0428 55.7358 50.0232 55.7216C50.4184 55.2568 50.9404 54.9173 51.5255 54.7444Z" fill="#FAFAFA"/>
<path d="M54.5711 56.0901C54.4208 55.94 54.292 55.7699 54.1884 55.5845C54.0599 55.4156 53.9573 55.2284 53.884 55.0292C54.1644 55.3494 54.3959 55.7093 54.5711 56.0972V56.0901Z" fill="#FAFAFA"/>
<path d="M58.2415 54.8778C58.2521 54.9027 57.9068 55.0665 57.5152 55.321C57.1236 55.5756 56.8299 55.8194 56.8032 55.7998C56.9854 55.5754 57.2075 55.3865 57.4583 55.2427C57.6938 55.0725 57.9596 54.9487 58.2415 54.8778Z" fill="#FAFAFA"/>
<path d="M59.9378 53.2847C59.9129 53.2972 59.8079 53.1067 59.6085 52.9519C59.4092 52.797 59.2116 52.7187 59.2187 52.6938C59.3859 52.6914 59.5472 52.7554 59.6673 52.8718C59.8085 52.9682 59.9058 53.1167 59.9378 53.2847Z" fill="#FAFAFA"/>
<path d="M61.8601 55.1182C61.6736 55.2658 61.469 55.389 61.2513 55.4848C61.0468 55.6063 60.8279 55.702 60.5999 55.7696C60.7856 55.621 60.9904 55.4977 61.2086 55.403C61.4124 55.2799 61.6314 55.1842 61.8601 55.1182Z" fill="#FAFAFA"/>
<path d="M63.5922 56.0901C63.5655 56.0901 63.6634 55.6825 63.7274 55.1805C63.7915 54.6785 63.7986 54.2638 63.8271 54.2638C63.876 54.5712 63.873 54.8847 63.8182 55.1912C63.7944 55.5015 63.718 55.8054 63.5922 56.0901Z" fill="#FAFAFA"/>
<path d="M63.3178 53C63.3018 53.0231 62.9423 52.7793 62.4492 52.5853C61.9561 52.3912 61.5289 52.3218 61.5325 52.2933C61.8602 52.2953 62.184 52.3656 62.483 52.4998C62.7937 52.6052 63.0784 52.7757 63.3178 53Z" fill="#FAFAFA"/>
<path d="M59.4589 43.6817C58.9254 43.4084 58.4213 43.081 57.9548 42.7045C58.4878 42.9789 58.9917 43.3063 59.4589 43.6817Z" fill="#FAFAFA"/>
<g opacity="0.3">
<path d="M50.4308 53.9718C50.3739 53.8607 50.3565 53.7336 50.3814 53.6113C50.4063 53.4891 50.4721 53.3789 50.5679 53.2989C50.7653 53.1446 51.0034 53.0512 51.2532 53.0302C52.5276 52.8308 53.8929 53.1761 55.0873 52.6902C55.8883 52.3627 56.5113 51.6952 56.9812 50.9725C57.4511 50.2498 57.8231 49.4595 58.2877 48.7297C58.7042 48.0729 59.2365 47.4463 59.9627 47.1651C60.6889 46.8838 61.6341 47.0636 62.0275 47.7347C62.4209 48.4057 62.1574 49.2299 61.789 49.892C60.7477 51.761 58.8716 53.0836 56.8263 53.7137C54.7811 54.3438 52.5793 54.3278 50.4682 53.954" fill="black"/>
</g>
<path d="M75.6712 48.4663L73.6847 41.3783L65.5074 42.4356L66.465 46.195L54.2346 42.9322L51.5361 46.5136L70.1015 55.2801C70.9525 55.6429 71.894 55.7374 72.8001 55.551C73.7063 55.3646 74.534 54.9062 75.1728 54.237C76.312 53.0337 76.1749 50.0487 75.6712 48.4663Z" fill="#FFBE9D"/>
<path d="M41.8707 41.672C41.5966 41.5991 41.2655 41.5403 41.0626 41.7361C40.9824 41.8305 40.9352 41.9485 40.9282 42.0722C40.9211 42.1959 40.9545 42.3185 41.0234 42.4214C41.1498 42.6332 41.2459 42.6635 41.5806 42.7774L44.8362 43.5161L46.0822 42.5407L41.8707 41.672Z" fill="#EB996E"/>
<path d="M52.0326 46.6846C48.0543 45.7109 44.3626 44.424 40.4324 43.6764C40.2366 43.639 40.0158 43.5874 39.9126 43.4147C39.772 43.1798 39.9535 42.8611 40.2045 42.7543C40.4666 42.6733 40.7457 42.664 41.0126 42.7276C43.1156 43.0201 45.2532 42.9478 47.3316 42.514C48.6791 42.231 50.0016 41.802 51.3616 41.624C52.7215 41.446 53.0882 42.158 54.2345 42.9234" fill="#FFBE9D"/>
<path d="M54.2346 42.9322C53.9036 42.3516 53.4223 41.871 52.8412 41.5409C52.2602 41.2107 51.6009 41.0432 50.9327 41.0561C50.1192 41.0828 49.3414 41.3783 48.5564 41.5901C47.7714 41.8019 46.9135 41.9336 46.1552 41.6346C45.865 41.5207 45.5945 41.3445 45.2848 41.3017C44.975 41.259 44.6048 41.4103 44.5496 41.7165C44.5069 41.9479 44.6564 42.1686 44.8184 42.3413C45.388 42.9429 47.2018 43.6122 48.6312 43.541" fill="#FFBE9D"/>
<path d="M48.6311 43.5428C48.6311 43.5286 48.4122 43.5428 48.0241 43.5037C47.4784 43.4461 46.9409 43.3267 46.4221 43.1477C46.0618 43.0281 45.7141 42.8731 45.3844 42.6849C45.2024 42.5844 45.0347 42.4599 44.886 42.3146C44.8067 42.247 44.7418 42.1641 44.6953 42.0708C44.6488 41.9775 44.6217 41.8758 44.6154 41.7717C44.6345 41.6678 44.6872 41.5731 44.7653 41.502C44.8435 41.431 44.9428 41.3875 45.048 41.3783C45.2823 41.3513 45.5191 41.3993 45.7244 41.5154C45.9565 41.6358 46.2005 41.7319 46.4524 41.802C46.7157 41.8647 46.9864 41.8911 47.257 41.8803C48.3588 41.8429 49.3075 41.3855 50.2082 41.2128C50.6314 41.117 51.0678 41.0941 51.4987 41.1452C51.8732 41.1951 52.2381 41.3014 52.5809 41.4602C53.0802 41.692 53.5235 42.029 53.8803 42.4481C54.1295 42.7472 54.2363 42.9412 54.2363 42.9341C54.22 42.8836 54.1966 42.8356 54.1669 42.7917C54.0945 42.6583 54.0099 42.532 53.9142 42.4143C53.5675 41.9715 53.1235 41.6146 52.6165 41.3712C52.2661 41.2011 51.8914 41.0864 51.5058 41.0312C51.0627 40.9731 50.6129 40.9917 50.1762 41.0864C49.2541 41.2644 48.3072 41.7059 47.2463 41.7415C46.9878 41.7509 46.7292 41.7258 46.4773 41.6667C46.2341 41.599 45.9985 41.5065 45.7742 41.3908C45.5427 41.2649 45.2774 41.2151 45.0159 41.2484C44.8849 41.2707 44.7621 41.3272 44.6599 41.4122C44.6081 41.4567 44.5657 41.5111 44.5351 41.5723C44.5045 41.6334 44.4865 41.7 44.4819 41.7682C44.4872 41.8904 44.5175 42.0102 44.5711 42.1201C44.6247 42.2301 44.7004 42.3278 44.7934 42.4072C44.9527 42.5596 45.1324 42.689 45.3274 42.7917C45.6669 42.9803 46.0247 43.1336 46.3954 43.2491C46.9261 43.4225 47.4761 43.5295 48.033 43.5677C48.1842 43.5769 48.3358 43.5769 48.4869 43.5677C48.5358 43.5653 48.5842 43.5569 48.6311 43.5428Z" fill="#EB996E"/>
<path d="M70.1069 47.3253C70.1069 47.3253 70.0927 47.3253 70.066 47.3128L69.9503 47.2719L69.5302 47.1188C69.1742 46.9906 68.6794 46.8215 68.1294 46.6489C67.5793 46.4762 67.0756 46.3338 66.7054 46.2377L66.2728 46.1256L66.1536 46.0953C66.1269 46.0953 66.1126 46.0828 66.1144 46.0811H66.1553L66.2764 46.1042C66.3796 46.1256 66.5291 46.1594 66.7125 46.2039C67.0809 46.2964 67.5847 46.4335 68.1365 46.6062C68.6883 46.7788 69.1813 46.9533 69.5356 47.0868C69.7136 47.1544 69.8542 47.2114 69.9521 47.2523L70.0642 47.3004L70.1069 47.3253Z" fill="#EB996E"/>
<path d="M54.7401 32.7062C55.861 32.658 56.92 32.1788 57.6961 31.3685C58.4722 30.5583 58.9054 29.4796 58.9053 28.3576V23.1956L59.1901 6.70216L58.8216 5.773L50.1352 3.0318C47.4652 2.82354 45.671 6.49567 45.5766 9.17279C45.4716 12.149 45.4609 15.7855 45.8739 17.9909C46.7034 22.4267 50.1352 22.9002 50.1352 22.9002L50.2028 28.4182C50.2109 29.0002 50.3356 29.5747 50.5696 30.1077C50.8036 30.6406 51.1422 31.1213 51.5652 31.5211C51.9883 31.9209 52.4872 32.2318 53.0326 32.4353C53.5779 32.6389 54.1585 32.731 54.7401 32.7062Z" fill="#FFBE9D"/>
<path d="M46.73 12.0653C46.7328 12.2146 46.7936 12.3568 46.8997 12.4619C47.0057 12.5669 47.1485 12.6264 47.2978 12.6278C47.3708 12.6311 47.4437 12.6199 47.5123 12.5948C47.5808 12.5696 47.6437 12.5311 47.6972 12.4814C47.7508 12.4317 47.7939 12.3718 47.824 12.3052C47.8541 12.2387 47.8707 12.1668 47.8727 12.0938C47.8695 11.9449 47.8084 11.8031 47.7024 11.6984C47.5964 11.5937 47.4539 11.5345 47.3049 11.5331C47.232 11.5293 47.159 11.5401 47.0903 11.565C47.0217 11.5898 46.9587 11.6282 46.9051 11.6778C46.8515 11.7274 46.8083 11.7873 46.7783 11.8538C46.7482 11.9204 46.7318 11.9923 46.73 12.0653Z" fill="#263238"/>
<path d="M46.4151 11.0133C46.488 11.0863 46.9135 10.7534 47.5276 10.7374C48.1417 10.7214 48.5956 11.0169 48.6668 10.9403C48.6988 10.9065 48.6223 10.773 48.4211 10.636C48.1505 10.4585 47.8314 10.3696 47.508 10.3814C47.1856 10.3874 46.8737 10.4966 46.618 10.6929C46.44 10.8442 46.3741 10.9813 46.4151 11.0133Z" fill="#263238"/>
<path d="M52.6914 12.0653C52.6942 12.2142 52.7548 12.3563 52.8605 12.4612C52.9661 12.5662 53.1085 12.626 53.2575 12.6278C53.3305 12.6316 53.4036 12.6207 53.4724 12.5958C53.5412 12.5708 53.6043 12.5323 53.6579 12.4825C53.7116 12.4327 53.7546 12.3726 53.7846 12.3058C53.8146 12.2391 53.8308 12.167 53.8324 12.0938C53.8301 11.9449 53.7695 11.8028 53.6637 11.698C53.5579 11.5932 53.4153 11.534 53.2663 11.5331C53.1934 11.5293 53.1204 11.5401 53.0518 11.565C52.9831 11.5898 52.9201 11.6282 52.8665 11.6778C52.8129 11.7274 52.7698 11.7873 52.7397 11.8538C52.7096 11.9204 52.6932 11.9923 52.6914 12.0653Z" fill="#263238"/>
<path d="M52.4635 10.9616C52.5365 11.0328 52.9619 10.7018 53.576 10.6857C54.1901 10.6697 54.644 10.9652 54.7152 10.8887C54.7455 10.8548 54.6707 10.7213 54.4696 10.5843C54.1989 10.4071 53.8798 10.3181 53.5565 10.3297C53.2341 10.3357 52.9222 10.4449 52.6665 10.6412C52.4885 10.7925 52.4262 10.9278 52.4635 10.9616Z" fill="#263238"/>
<path d="M50.3577 15.5826C50.3577 15.5488 49.9749 15.4919 49.3537 15.4296C49.1971 15.4189 49.0476 15.3922 49.0173 15.2854C48.9993 15.1235 49.0316 14.9601 49.1099 14.8172C49.2469 14.4328 49.3893 14.0305 49.5406 13.6086C50.1387 11.8874 50.5677 10.4758 50.4983 10.4509C50.4289 10.426 49.886 11.8037 49.2897 13.5232L48.8767 14.7389C48.8233 14.9169 48.7254 15.1234 48.8126 15.3566C48.8367 15.4116 48.8732 15.4603 48.9192 15.4989C48.9652 15.5375 49.0195 15.5649 49.0778 15.5791C49.1651 15.6011 49.2549 15.6112 49.3448 15.6093C49.9696 15.6254 50.3559 15.6182 50.3577 15.5826Z" fill="#263238"/>
<path d="M50.1335 22.8717C52.2327 22.8456 54.2834 22.2374 56.0574 21.1149C56.0574 21.1149 54.6939 24.2156 50.2225 23.9219L50.1335 22.8717Z" fill="#EB996E"/>
<path d="M52.2374 8.56405C52.3032 8.72959 52.9155 8.63347 53.6382 8.70111C54.3609 8.76875 54.9519 8.94853 55.0444 8.79545C55.0836 8.72247 54.9785 8.56761 54.7382 8.41275C54.4191 8.22286 54.0609 8.10814 53.6908 8.0773C53.3207 8.04646 52.9484 8.1003 52.6022 8.23475C52.3388 8.34155 52.2107 8.47683 52.2374 8.56405Z" fill="#263238"/>
<path d="M46.593 9.22623C46.7051 9.36329 47.127 9.20665 47.6343 9.18529C48.1416 9.16393 48.5777 9.25471 48.672 9.10519C48.713 9.03221 48.6418 8.89515 48.4495 8.76877C48.1941 8.61193 47.8958 8.53967 47.5969 8.56229C47.2979 8.57614 47.0105 8.6825 46.7746 8.86667C46.5983 9.01441 46.5521 9.16037 46.593 9.22623Z" fill="#263238"/>
<path d="M48.6026 3.33618C48.8091 4.73085 49.3617 6.05158 50.2099 7.17777C51.0582 8.30396 52.175 9.19975 53.4584 9.78334C53.3813 9.42734 53.3053 9.07134 53.2306 8.71534C54.3306 10.5345 56.666 12.0582 58.1683 12.6741C58.6329 12.8645 59.2274 12.6936 59.6492 12.4231C60.2402 12.0457 60.2758 11.1984 60.1512 10.5078C59.7649 8.34688 58.4833 6.4138 56.8137 4.9898C55.1441 3.5658 53.1077 2.61528 51.002 1.97804C50.4449 1.80894 50.1405 1.69324 49.5887 1.88014C49.0369 2.06704 48.3142 2.69538 48.5812 3.21158" fill="#263238"/>
<path d="M57.4636 9.40063C58.7381 13.9663 57.0524 19.0411 57.4867 23.7617C57.5829 24.8137 57.9656 26.0312 58.852 26.6097C59.2899 26.8945 59.386 26.7147 59.8897 26.8144C61.1767 27.0636 62.3924 26.5242 63.6776 26.7734C64.8381 26.9995 66.684 27.6634 67.4156 26.7325C68.1472 25.8016 67.3034 24.7069 66.5879 23.7955C65.8723 22.8841 64.9111 22.1045 64.5587 20.9991C64.1778 19.8119 64.5889 18.5374 64.7669 17.3021C65.3757 13.0852 63.8769 8.81324 61.3849 5.3547C60.5163 4.14964 59.2062 3.00866 58.0279 2.10264C56.8495 1.19662 54.1848 0.432995 52.7003 0.500635C51.2158 0.568275 48.7434 1.74664 48.1382 3.41094" fill="#263238"/>
<path d="M52.5346 6.79474C52.5257 6.81076 52.6236 6.87662 52.8123 6.9852L53.1487 7.181L52.8621 6.90688C52.1646 6.25748 51.5688 5.50682 51.0946 4.6801C50.2046 3.14752 50.0693 1.67902 49.9981 1.69682C49.975 1.69682 49.975 2.0635 50.0925 2.642C50.2514 3.39207 50.5265 4.11274 50.9077 4.778C51.3815 5.63143 52.0263 6.37796 52.8016 6.97096L52.8532 6.89264C52.6521 6.81788 52.5417 6.78406 52.5346 6.79474Z" fill="#455A64"/>
<path d="M60.6142 25.7909C60.6227 25.6932 60.6227 25.5949 60.6142 25.4972C60.6142 25.3049 60.6142 25.0219 60.6231 24.657C60.6822 23.6297 60.8335 22.6099 61.0752 21.6097C61.3493 20.3352 61.8032 18.8418 62.0755 17.1223C62.2168 16.2212 62.2604 15.3075 62.2055 14.3971C62.1577 13.4083 61.91 12.4395 61.4775 11.5491C61.0273 10.6655 60.3679 9.90533 59.5568 9.33478C58.7914 8.76696 57.9922 8.32908 57.2624 7.8734C55.9631 7.07411 54.7674 6.11755 53.7024 5.0254C52.9883 4.28603 52.3336 3.49146 51.7444 2.6491C51.5362 2.35006 51.3777 2.1151 51.2727 1.95312C51.2221 1.86749 51.1624 1.78753 51.0947 1.7146C51.132 1.80566 51.1772 1.89322 51.23 1.97626C51.3208 2.15426 51.4703 2.38922 51.6679 2.68826C52.2363 3.55446 52.8802 4.36872 53.5921 5.12152C54.6493 6.24148 55.8457 7.22134 57.1521 8.03716C57.8854 8.49996 58.6793 8.9414 59.4251 9.49854C60.2072 10.0498 60.8437 10.7828 61.2799 11.6345C61.6987 12.4976 61.9408 13.4356 61.9919 14.3935C62.0475 15.2893 62.0088 16.1884 61.8762 17.076C61.6181 18.7741 61.1784 20.28 60.9221 21.5598C60.6915 22.5703 60.5621 23.6013 60.5358 24.6374C60.5313 24.9191 60.542 25.2007 60.5679 25.4812C60.571 25.5859 60.5865 25.6898 60.6142 25.7909Z" fill="#455A64"/>
<path d="M45.5731 5.45796C45.4147 6.60935 45.322 7.76881 45.2954 8.93073C46.1961 8.20449 47.1057 7.46223 47.7874 6.52417C48.4691 5.58611 48.8946 4.41309 48.7166 3.26855C48.0643 3.46039 47.4741 3.82068 47.0054 4.31315C46.5367 4.80563 46.206 5.4129 46.0466 6.07384" fill="#263238"/>
<path d="M50.1638 17.6687C50.3169 17.3697 50.3578 17.2931 50.6177 17.1507C50.8148 17.101 51.0181 17.0806 51.2211 17.0902C51.4187 17.1009 51.5504 17.2967 51.6234 17.48C51.7427 17.7451 51.7599 18.045 51.6715 18.322C51.5682 18.5908 50.6355 18.9129 50.1335 18.2063" fill="#EB996E"/>
<path d="M50.9308 18.6745C50.9818 18.6712 51.0329 18.6712 51.0839 18.6745C51.219 18.668 51.3491 18.6215 51.4577 18.541C51.6054 18.4068 51.7007 18.2244 51.7265 18.0265C51.7473 17.9088 51.7382 17.7878 51.6999 17.6746C51.6616 17.5613 51.5955 17.4596 51.5075 17.3786C51.3151 17.2275 51.0757 17.1488 50.8311 17.1561C50.7328 17.1599 50.6364 17.1846 50.5483 17.2285C50.4603 17.2723 50.3825 17.3344 50.3203 17.4107C50.2374 17.5182 50.1829 17.6449 50.1619 17.7791C50.1581 17.8305 50.1485 17.8812 50.1334 17.9304C50.1188 17.8795 50.1158 17.826 50.1245 17.7738C50.1343 17.6289 50.1842 17.4896 50.2687 17.3715C50.3295 17.2904 50.4057 17.2221 50.493 17.1704C50.5949 17.1108 50.7097 17.0766 50.8276 17.0707C50.9552 17.0658 51.0827 17.082 51.205 17.1187C51.3363 17.155 51.4579 17.22 51.561 17.3092C51.6692 17.4028 51.7467 17.5269 51.7835 17.6652C51.82 17.7894 51.8267 17.9206 51.803 18.0479C51.7808 18.1605 51.7418 18.2691 51.6873 18.3701C51.6309 18.4813 51.5428 18.5735 51.4342 18.6349C51.3256 18.6963 51.2013 18.7243 51.0768 18.7154C51.0255 18.7138 50.9754 18.6998 50.9308 18.6745Z" fill="#263238"/>
<path d="M53.0473 14.1336C53.0633 14.1532 53.0046 14.2209 52.9013 14.2333C52.7981 14.2458 52.7233 14.1906 52.7376 14.1693C52.7518 14.1479 52.8159 14.1497 52.8907 14.1408C52.9654 14.1319 53.0313 14.1123 53.0473 14.1336Z" fill="#EB996E"/>
<path d="M54.028 14.0821C54.0031 14.0821 53.9693 14.034 53.955 13.9646C53.9408 13.8952 53.9461 13.8329 53.9711 13.8275C53.996 13.8222 54.0298 13.8738 54.0458 13.945C54.0618 14.0162 54.0601 14.0821 54.028 14.0821Z" fill="#EB996E"/>
<path d="M55.219 13.6869C55.219 13.7118 55.1514 13.7189 55.082 13.7047C55.0125 13.6904 54.9591 13.6548 54.9645 13.6299C54.9698 13.605 55.0321 13.5979 55.1015 13.6139C55.171 13.6299 55.2244 13.662 55.219 13.6869Z" fill="#EB996E"/>
<path d="M53.5563 15.1234C53.5314 15.1234 53.51 15.0664 53.51 14.997C53.51 14.9276 53.5314 14.8706 53.5563 14.8706C53.5812 14.8706 53.6026 14.9258 53.6026 14.997C53.6026 15.0682 53.5812 15.1234 53.5563 15.1234Z" fill="#EB996E"/>
<path d="M54.6261 14.6445C54.6012 14.6445 54.5798 14.632 54.5798 14.616C54.5798 14.6 54.6012 14.5875 54.6261 14.5875C54.651 14.5875 54.6724 14.6 54.6724 14.616C54.6724 14.632 54.6528 14.6445 54.6261 14.6445Z" fill="#EB996E"/>
<path d="M46.965 14.3064C46.965 14.3313 46.876 14.3491 46.787 14.3064C46.698 14.2636 46.6428 14.1835 46.6624 14.1675C46.682 14.1515 46.7461 14.1871 46.8244 14.2227C46.9027 14.2583 46.9668 14.2797 46.965 14.3064Z" fill="#EB996E"/>
<path d="M47.7608 14.139C47.7477 14.1342 47.737 14.1244 47.731 14.1118C47.725 14.0991 47.7242 14.0846 47.7288 14.0714C47.7377 14.0411 47.7626 14.0198 47.7875 14.0269C47.8007 14.0317 47.8114 14.0415 47.8174 14.0542C47.8234 14.0668 47.8242 14.0813 47.8196 14.0945C47.8187 14.1013 47.8165 14.1079 47.813 14.1138C47.8096 14.1198 47.805 14.125 47.7995 14.1291C47.7941 14.1333 47.7878 14.1363 47.7812 14.138C47.7745 14.1397 47.7676 14.14 47.7608 14.139Z" fill="#EB996E"/>
<path d="M47.3352 15.2924C47.3103 15.2924 47.2836 15.2532 47.2764 15.1998C47.2693 15.1464 47.2764 15.0984 47.3085 15.0948C47.3405 15.0913 47.3601 15.1322 47.369 15.1874C47.3779 15.2426 47.3619 15.2888 47.3352 15.2924Z" fill="#EB996E"/>
<path d="M46.2886 15.2355C46.2672 15.2212 46.2761 15.1732 46.3064 15.1251C46.3366 15.077 46.3812 15.0521 46.4025 15.0664C46.4239 15.0806 46.415 15.1304 46.3847 15.1767C46.3545 15.223 46.3099 15.2497 46.2886 15.2355Z" fill="#EB996E"/>
<path d="M42.2978 55.0771V63.3363C42.2977 64.0299 42.1321 64.7134 41.8148 65.3301C41.4974 65.9468 41.0376 66.4788 40.4733 66.8821C39.7345 67.4091 38.8496 67.6922 37.9422 67.692H26.9062C26.0799 67.6926 25.2705 67.458 24.5726 67.0156L24.1917 66.77C23.5724 66.3777 23.0621 65.8355 22.708 65.1936C22.3539 64.5517 22.1675 63.8309 22.166 63.0978V55.0771H42.2978Z" fill="#263238"/>
<path d="M22.1661 57.0654H16.5715V58.0373L19.8022 58.5339C20.2748 58.5998 20.7231 58.7842 21.1053 59.0699C21.4875 59.3556 21.7911 59.7333 21.9881 60.168C22.1013 60.4207 22.1619 60.6938 22.1661 60.9708C22.1661 60.9708 23.3053 60.953 23.4993 59.5913C23.4993 59.5646 23.5082 59.5378 23.5118 59.5111C23.576 59.019 23.4834 58.5192 23.2473 58.0827C23.0111 57.6462 22.6434 57.2952 22.1963 57.0797L22.1661 57.0654Z" fill="#455A64"/>
<path d="M42.2979 57.0725H47.896V58.048L44.6653 58.5446C44.1911 58.61 43.7413 58.7947 43.3581 59.0814C42.9748 59.3682 42.6707 59.7475 42.4741 60.184C42.3609 60.4367 42.3003 60.7098 42.2961 60.9867C42.2961 60.9867 41.1587 60.9689 40.9629 59.609L40.9522 59.5271C40.888 59.035 40.9805 58.5352 41.2167 58.0987C41.4528 57.6621 41.8206 57.3112 42.2676 57.0957L42.2979 57.0725Z" fill="#455A64"/>
<path d="M42.2978 57.0726C42.2719 57.0919 42.2446 57.1092 42.216 57.1242C42.1347 57.1679 42.0562 57.2166 41.981 57.2702C41.6947 57.4704 41.4559 57.7311 41.2815 58.0338C41.009 58.5011 40.9089 59.049 40.9984 59.5824C41.0355 59.9083 41.1645 60.217 41.3705 60.4724C41.6069 60.7436 41.9408 60.9106 42.2996 60.937L42.2569 60.9779C42.2614 60.6487 42.3425 60.3252 42.4936 60.0327C42.6466 59.7197 42.8602 59.4402 43.122 59.2104C43.3971 58.9677 43.7153 58.7787 44.06 58.6532C44.4169 58.5369 44.785 58.4588 45.1583 58.42L47.8942 58.0017L47.8568 58.0445C47.8568 57.7116 47.8568 57.3876 47.8568 57.0726L47.8995 57.1153L43.8678 57.0993L42.7161 57.0868H42.4082C42.3727 57.0908 42.3369 57.0908 42.3014 57.0868H42.4064H42.7108L43.8589 57.0744L47.8995 57.0583H47.9422V57.1011C47.9422 57.4161 47.9422 57.7401 47.9422 58.073V58.1121H47.9048L45.169 58.534C44.8018 58.5724 44.4396 58.6494 44.0885 58.7636C43.7563 58.8833 43.4495 59.0645 43.1843 59.2976C42.9348 59.508 42.7313 59.7675 42.5865 60.06C42.4416 60.3524 42.3585 60.6715 42.3423 60.9975V61.042H42.3014C42.112 61.0286 41.9272 60.9774 41.7578 60.8915C41.5885 60.8056 41.438 60.6867 41.3153 60.5418C41.1021 60.2756 40.9699 59.9537 40.9344 59.6144C40.8475 59.0666 40.9566 58.5057 41.2423 58.0302C41.4234 57.7243 41.6725 57.4642 41.9703 57.2702C42.0482 57.2187 42.1297 57.1729 42.2142 57.1331C42.24 57.1103 42.2681 57.09 42.2978 57.0726Z" fill="#263238"/>
<path d="M41.9382 55.2979C41.9241 55.3088 41.9085 55.3178 41.8919 55.3246L41.7531 55.394L41.2191 55.6556L40.8293 55.8425C40.6851 55.9084 40.5231 55.9689 40.3522 56.0383C40.0087 56.1736 39.6242 56.3463 39.1792 56.4816L38.4868 56.713C38.2447 56.7913 37.9866 56.85 37.7232 56.923C37.1981 57.0779 36.6231 57.1829 36.0215 57.3075C34.7062 57.5352 33.3744 57.6542 32.0396 57.6635C30.7048 57.6551 29.3729 57.536 28.0578 57.3075C27.4561 57.1847 26.8812 57.0779 26.3561 56.9248C26.0926 56.85 25.8345 56.7913 25.5925 56.713L24.9 56.4833C24.455 56.3481 24.0706 56.1754 23.7252 56.0419C23.5472 55.9707 23.3942 55.9102 23.25 55.8461L22.8602 55.6592L22.3262 55.3975L22.1873 55.3281L22.1428 55.3014C22.1603 55.3046 22.1771 55.3106 22.1927 55.3192L22.3351 55.3797C22.465 55.4403 22.6483 55.5221 22.8797 55.6254L23.2731 55.8034C23.4173 55.8657 23.5793 55.9226 23.7502 55.9921C24.0955 56.1202 24.48 56.2893 24.9267 56.4193L25.6192 56.6435C25.8595 56.7201 26.1176 56.777 26.3792 56.8482C26.9043 56.9995 27.4775 57.101 28.0791 57.222C29.3894 57.4469 30.7156 57.5659 32.045 57.578C33.3743 57.566 34.7006 57.447 36.0108 57.222C36.6124 57.101 37.1856 56.9978 37.7107 56.8465C37.9724 56.7753 38.2305 56.7183 38.4708 56.6418L39.1632 56.4175C39.6082 56.2875 39.9944 56.1184 40.338 55.9885C40.516 55.9209 40.6708 55.8621 40.8168 55.8016L41.2084 55.6236L41.746 55.378L41.8884 55.3157L41.9382 55.2979Z" fill="#455A64"/>
<path d="M41.9509 55.9814C41.9509 55.9814 41.9366 55.9921 41.9046 56.0081L41.7658 56.0793L41.2318 56.341L40.8419 56.519C40.6978 56.5831 40.5358 56.6436 40.3667 56.7148C40.0214 56.8501 39.6369 57.0227 39.1919 57.158L38.4995 57.3876C38.2574 57.466 38.0011 57.5247 37.7376 57.5995C37.2036 57.7543 36.6358 57.8593 36.0342 57.9839C34.7195 58.2116 33.3883 58.3307 32.0541 58.3399C30.7193 58.3308 29.3875 58.2118 28.0722 57.9839C27.4688 57.8593 26.8939 57.7543 26.3688 57.5995C26.1053 57.5265 25.8472 57.4677 25.6051 57.3894L24.9127 57.1598C24.4677 57.0245 24.0832 56.8519 23.7397 56.7166C23.5617 56.6472 23.4068 56.5866 23.2627 56.5208L22.8782 56.3446L22.3442 56.0829L22.2053 56.0135C22.1733 55.9975 22.1573 55.9886 22.1591 55.9868L22.2089 56.0046L22.3513 56.0669L22.896 56.3125L23.2894 56.4905C23.4353 56.551 23.5955 56.6098 23.7682 56.6774C24.1117 56.8074 24.498 56.9747 24.943 57.1064L25.6354 57.3289C25.8757 57.4054 26.1338 57.4624 26.3972 57.5336C26.9206 57.6849 27.4955 57.7881 28.0954 57.9092C29.4062 58.134 30.733 58.253 32.063 58.2652C33.3924 58.2539 34.7187 58.1348 36.0288 57.9092C36.6287 57.7881 37.2018 57.6867 37.7269 57.5354C37.9886 57.4642 38.2467 57.4072 38.4888 57.3307L39.1794 57.1064C39.6262 56.9747 40.0107 56.8074 40.356 56.6774C40.534 56.6098 40.6889 56.551 40.833 56.4887L41.2264 56.3107L41.7711 56.0651L41.9135 56.0046L41.9509 55.9814Z" fill="#455A64"/>
<path d="M38.154 67.9483C39.6225 67.7205 40.3772 66.9195 40.8044 65.4955C40.9612 65.0563 40.973 64.5784 40.8382 64.132C40.6816 63.6977 40.2651 63.3328 39.8023 63.3506C39.2433 63.3737 38.8446 63.9024 38.6168 64.4186C38.3889 64.9348 38.2198 65.5062 37.7802 65.8533C37.3405 66.2004 36.5164 66.0971 36.422 65.5436C36.4211 65.397 36.4056 65.2509 36.3758 65.1075C36.2512 64.7728 35.7207 64.7906 35.4858 65.063C35.2508 65.3353 35.2437 65.7269 35.2544 66.0847C35.265 66.4425 35.2775 66.8269 35.0764 67.1242C34.7791 67.5674 34.1579 67.6173 33.6239 67.6208L30.4697 67.6511C30.4697 67.6511 31.0037 67.9127 32.417 67.9127C34.3359 67.9074 38.154 67.9483 38.154 67.9483Z" fill="#449EEE"/>
<path d="M32.054 67.6458C30.9984 67.6636 29.8788 67.6653 28.9781 67.1118C28.4085 66.7647 27.9315 66.2057 27.2729 66.1061C27.084 66.0668 26.8872 66.1012 26.7229 66.2022C26.6427 66.254 26.5831 66.332 26.5542 66.423C26.5253 66.5139 26.5289 66.612 26.5644 66.7006C26.2725 66.5902 26.05 66.357 25.799 66.1666C25.5481 65.9761 25.2223 65.8391 24.9304 65.9512C24.7816 66.023 24.6624 66.1443 24.5932 66.2943C24.5241 66.4444 24.5092 66.6138 24.5513 66.7736C24.601 66.9308 24.6838 67.0757 24.794 67.1985C24.9042 67.3213 25.0393 67.4191 25.1903 67.4856C25.4935 67.6173 25.8143 67.7042 26.1426 67.7437L33.7378 67.8878C33.7361 67.6956 32.054 67.6458 32.054 67.6458Z" fill="#449EEE"/>
<path d="M26.1265 68.1815L26.1425 67.7632L38.1539 67.9483V68.1815H26.1265Z" fill="#455A64"/>
<path d="M37.3867 63.3363C37.2447 63.0983 37.1644 62.8285 37.1532 62.5515C37.142 62.2745 37.2003 61.9991 37.3227 61.7504C37.4312 61.535 37.6537 61.3214 37.8834 61.3944C38.113 61.4673 38.1593 61.7504 38.1539 61.9782C38.1415 62.4748 37.7837 63.4787 37.3867 63.3328" fill="#449EEE"/>
<path d="M30.3542 48.436C30.3649 48.436 30.3435 48.5215 30.3542 48.6746C30.3748 48.8903 30.432 49.101 30.5233 49.2976C30.6681 49.592 30.7808 49.9011 30.8597 50.2196C30.9156 50.6297 30.8124 51.0455 30.5714 51.3819C30.3435 51.7468 30.0712 52.0477 29.8932 52.3627C29.8064 52.5095 29.7388 52.6669 29.692 52.8309C29.6561 52.9733 29.6459 53.1209 29.6618 53.267C29.6795 53.4818 29.7692 53.6844 29.9163 53.8419C29.9758 53.8941 30.0382 53.9428 30.1032 53.9879C30.1032 53.9879 30.0819 53.9879 30.0427 53.9683C29.9881 53.9418 29.9372 53.9083 29.8914 53.8686C29.7263 53.7119 29.6217 53.502 29.5959 53.2759C29.5739 53.1209 29.5818 52.9632 29.6191 52.8113C29.6636 52.6381 29.7313 52.4716 29.8202 52.3164C29.9982 51.9907 30.2723 51.6845 30.493 51.3285C30.7228 51.0114 30.8245 50.6192 30.7778 50.2303C30.7021 49.9174 30.5972 49.6123 30.4646 49.3189C30.3761 49.1146 30.3271 48.8953 30.3204 48.6728C30.3202 48.6129 30.3268 48.5532 30.34 48.4948C30.3415 48.4746 30.3463 48.4547 30.3542 48.436Z" fill="#263238"/>
<path d="M32.2267 48.2757C32.2374 48.2757 32.2143 48.3612 32.2267 48.5143C32.2483 48.7298 32.3054 48.9404 32.3958 49.1373C32.5405 49.4319 32.6538 49.741 32.734 50.0593C32.7885 50.4695 32.6848 50.8851 32.4439 51.2216C32.2161 51.5865 31.9455 51.8874 31.7657 52.2024C31.6791 52.3491 31.6121 52.5065 31.5664 52.6706C31.529 52.8133 31.5181 52.9617 31.5343 53.1084C31.5528 53.3225 31.6424 53.5243 31.7889 53.6816C31.8483 53.7338 31.9107 53.7825 31.9758 53.8276C31.9758 53.8276 31.9544 53.8276 31.917 53.808C31.8612 53.7827 31.8096 53.7491 31.7639 53.7083C31.5994 53.5514 31.4954 53.3415 31.4702 53.1156C31.4485 52.9607 31.4558 52.8032 31.4916 52.651C31.5358 52.4788 31.6034 52.3134 31.6927 52.1597C31.8707 51.834 32.1431 51.5278 32.3656 51.1736C32.5949 50.8555 32.6959 50.4628 32.6486 50.0735C32.5744 49.7602 32.4695 49.4549 32.3353 49.1622C32.2468 48.9579 32.1979 48.7386 32.1911 48.516C32.191 48.4562 32.1976 48.3965 32.2107 48.338C32.2161 48.2953 32.2232 48.274 32.2267 48.2757Z" fill="#263238"/>
<path d="M34.0922 48.1191C34.1029 48.1191 34.0815 48.2046 34.0922 48.3577C34.1169 48.5743 34.177 48.7853 34.2702 48.9824C34.4145 49.2765 34.5273 49.5849 34.6066 49.9027C34.6611 50.3129 34.5573 50.7285 34.3165 51.065C34.0886 51.4299 33.8181 51.7308 33.6401 52.0458C33.5529 52.1924 33.4853 52.3498 33.4389 52.514C33.402 52.6568 33.3918 52.8053 33.4087 52.9518C33.4267 53.1657 33.5156 53.3675 33.6614 53.525C33.7212 53.5775 33.7842 53.6263 33.8501 53.671C33.8501 53.671 33.827 53.671 33.7896 53.6514C33.7342 53.6253 33.6827 53.5918 33.6365 53.5517C33.4719 53.3948 33.3679 53.1849 33.3428 52.959C33.3211 52.8041 33.3283 52.6466 33.3642 52.4944C33.4096 52.3231 33.4772 52.1586 33.5653 52.0049C33.7433 51.6774 34.0174 51.3712 34.2381 51.017C34.4671 50.6987 34.5687 50.3063 34.5229 49.9169C34.4474 49.6038 34.3419 49.2986 34.2079 49.0056C34.1202 48.801 34.0714 48.5819 34.0637 48.3594C34.064 48.2995 34.0711 48.2398 34.0851 48.1814C34.0815 48.1387 34.0922 48.1191 34.0922 48.1191Z" fill="#263238"/>
</g>
<defs>
<clipPath id="clip0_550_16251">
<rect width="80.4453" height="67.7954" fill="white" transform="translate(0.282715 0.49646)"/>
</clipPath>
</defs>
</svg>
