<svg width="360" height="370" viewBox="0 0 360 370" fill="none" xmlns="http://www.w3.org/2000/svg">
<circle opacity="0.3" cx="180" cy="185" r="99" fill="#F9FAFB"/>
<circle opacity="0.5" cx="180" cy="185" r="133.5" stroke="#F9FAFB"/>
<circle opacity="0.15" cx="180" cy="185" r="184.5" stroke="#F9FAFB"/>
<path d="M171.225 197.425L156.816 183.016C155.601 181.801 154.11 181.194 152.344 181.194C150.577 181.194 149.031 181.856 147.706 183.181C146.492 184.396 145.884 185.942 145.884 187.819C145.884 189.696 146.492 191.242 147.706 192.456L166.587 211.337C167.802 212.552 169.348 213.159 171.225 213.159C173.102 213.159 174.648 212.552 175.862 211.337L213.459 173.741C214.674 172.526 215.281 171.035 215.281 169.269C215.281 167.502 214.619 165.956 213.294 164.631C212.079 163.417 210.533 162.809 208.656 162.809C206.779 162.809 205.233 163.417 204.019 164.631L171.225 197.425ZM180.5 251.75C171.335 251.75 162.723 250.01 154.662 246.529C146.602 243.054 139.591 238.334 133.628 232.372C127.666 226.409 122.946 219.398 119.47 211.337C115.99 203.277 114.25 194.665 114.25 185.5C114.25 176.335 115.99 167.723 119.47 159.662C122.946 151.602 127.666 144.591 133.628 138.628C139.591 132.666 146.602 127.944 154.662 124.464C162.723 120.988 171.335 119.25 180.5 119.25C189.665 119.25 198.277 120.988 206.337 124.464C214.398 127.944 221.409 132.666 227.372 138.628C233.334 144.591 238.054 151.602 241.529 159.662C245.01 167.723 246.75 176.335 246.75 185.5C246.75 194.665 245.01 203.277 241.529 211.337C238.054 219.398 233.334 226.409 227.372 232.372C221.409 238.334 214.398 243.054 206.337 246.529C198.277 250.01 189.665 251.75 180.5 251.75Z" fill="white"/>
</svg>
