<svg width="131" height="131" viewBox="0 0 131 131" fill="none" xmlns="http://www.w3.org/2000/svg">
<path d="M57.8583 75.325L45.9864 63.4531C44.9858 62.4524 43.7576 61.9521 42.3021 61.9521C40.8465 61.9521 39.5729 62.4979 38.4812 63.5896C37.4805 64.5903 36.9802 65.8639 36.9802 67.4104C36.9802 68.9569 37.4805 70.2306 38.4812 71.2313L54.0375 86.7875C55.0382 87.7882 56.3118 88.2885 57.8583 88.2885C59.4049 88.2885 60.6785 87.7882 61.6792 86.7875L92.6552 55.8115C93.6559 54.8108 94.1562 53.5826 94.1562 52.1271C94.1562 50.6715 93.6104 49.3979 92.5187 48.3063C91.518 47.3056 90.2444 46.8052 88.6979 46.8052C87.1514 46.8052 85.8778 47.3056 84.8771 48.3063L57.8583 75.325ZM65.5 120.083C57.9493 120.083 50.8535 118.65 44.2125 115.782C37.5715 112.918 31.7948 109.03 26.8823 104.118C21.9698 99.2052 18.0816 93.4285 15.2178 86.7875C12.3504 80.1465 10.9167 73.0507 10.9167 65.5C10.9167 57.9493 12.3504 50.8535 15.2178 44.2125C18.0816 37.5715 21.9698 31.7948 26.8823 26.8823C31.7948 21.9698 37.5715 18.0798 44.2125 15.2124C50.8535 12.3486 57.9493 10.9167 65.5 10.9167C73.0507 10.9167 80.1465 12.3486 86.7875 15.2124C93.4285 18.0798 99.2052 21.9698 104.118 26.8823C109.03 31.7948 112.918 37.5715 115.782 44.2125C118.65 50.8535 120.083 57.9493 120.083 65.5C120.083 73.0507 118.65 80.1465 115.782 86.7875C112.918 93.4285 109.03 99.2052 104.118 104.118C99.2052 109.03 93.4285 112.918 86.7875 115.782C80.1465 118.65 73.0507 120.083 65.5 120.083Z" fill="white"/>
</svg>
