<svg width="111" height="69" viewBox="0 0 111 69" fill="none" xmlns="http://www.w3.org/2000/svg">
<rect width="111" height="69" rx="5" fill="#F9FAFB"/>
<mask id="mask0_160_20106" style="mask-type:alpha" maskUnits="userSpaceOnUse" x="0" y="0" width="111" height="69">
<rect width="111" height="69" rx="5" fill="#F9FAFB"/>
</mask>
<g mask="url(#mask0_160_20106)">
<path d="M80.1821 10.0769C80.1821 10.0769 80.1821 10.0422 80.1821 9.97768C80.1821 9.9132 80.1821 9.814 80.1821 9.69992C80.1821 9.44696 80.1821 9.08984 80.1821 8.63352C80.1821 7.69608 80.1821 6.34696 80.1474 4.66552L80.2069 4.73L59.6924 4.76968L59.7965 4.66552V10.0769L59.6924 9.97768L74.3144 10.0223L78.6297 10.0521H79.7952H80.2069C80.2069 10.0521 80.1772 10.0521 80.1127 10.0521H79.8002H78.6544L74.364 10.0818L59.6676 10.1761H59.5684V4.66056L59.6725 4.5564L80.1871 4.59608H80.2516V4.66056C80.2516 6.37672 80.2516 7.73576 80.2168 8.68312C80.2168 9.12952 80.2168 9.48168 80.2168 9.73464C80.2168 9.84376 80.2168 9.93304 80.2168 10.0025C80.2168 10.0719 80.1871 10.0818 80.1821 10.0769Z" fill="#E0E0E0"/>
<path d="M82.9647 4.65061C82.9647 4.65061 82.9647 4.61093 82.9647 4.54645C82.9647 4.48197 82.9647 4.37285 82.9647 4.25877C82.9647 3.99093 82.9647 3.62885 82.9647 3.17253C82.9647 2.22021 82.9647 0.876051 82.925 -0.795469L82.9994 -0.72107L70.6738 -0.691309L70.778 -0.795469V1.98709C70.778 2.89477 70.778 3.77765 70.778 4.62085L70.6788 4.52165L79.4977 4.56629L82.0669 4.59605H82.7564C82.8389 4.58898 82.9219 4.58898 83.0044 4.59605C82.9302 4.60445 82.8553 4.60445 82.7812 4.59605H82.1116L79.5621 4.62581L70.6788 4.67045H70.5796V4.57125C70.5796 3.72805 70.5796 2.84517 70.5796 1.93749V-0.76571C70.5548 -0.76571 70.778 -0.96411 70.6837 -0.86987L83.0093 -0.840109H83.0887V-0.76571C83.0887 0.90581 83.0589 2.26485 83.049 3.20229C83.049 3.65365 83.049 4.01077 83.049 4.27365C83.049 4.53653 82.9697 4.65557 82.9647 4.65061Z" fill="#E0E0E0"/>
<path d="M-4.30176 12.6462H13.9114V-15.4969H14.5264V12.6462H29.3469V-16.1218H-4.30176V12.6462Z" fill="#F5F5F5"/>
<path d="M29.3468 13.1968H14.5264V44.9259H29.3468V13.1968Z" fill="#F5F5F5"/>
<path d="M29.3468 47.1379H14.5264V77.7957H29.3468V47.1379Z" fill="#F5F5F5"/>
<path d="M13.9114 47.1379H-4.30176V77.7957H13.9114V47.1379Z" fill="#F5F5F5"/>
<path d="M13.9114 13.1968H-4.30176V44.9259H13.9114V13.1968Z" fill="#F5F5F5"/>
<path d="M144.375 -10.8542H98.8269C98.8022 -10.8542 98.7822 -10.8343 98.7822 -10.8096V57.0283C98.7822 57.053 98.8022 57.073 98.8269 57.073H144.375C144.399 57.073 144.419 57.053 144.419 57.0283V-10.8096C144.419 -10.8343 144.399 -10.8542 144.375 -10.8542Z" fill="#F5F5F5"/>
<path d="M144.905 57.6037H98.2809C98.2746 57.6044 98.2683 57.6038 98.2623 57.6018C98.2563 57.5999 98.2507 57.5967 98.246 57.5925C98.2414 57.5883 98.2376 57.5831 98.2351 57.5774C98.2325 57.5716 98.2312 57.5654 98.2313 57.5591V-11.3353C98.2305 -11.342 98.2312 -11.3488 98.2334 -11.3552C98.2356 -11.3616 98.2393 -11.3674 98.244 -11.3722C98.2488 -11.377 98.2546 -11.3806 98.261 -11.3828C98.2674 -11.385 98.2742 -11.3857 98.2809 -11.3849H144.905C144.911 -11.385 144.917 -11.3837 144.923 -11.3811C144.929 -11.3786 144.934 -11.3749 144.938 -11.3702C144.943 -11.3655 144.946 -11.36 144.948 -11.354C144.95 -11.3479 144.95 -11.3416 144.95 -11.3353V57.5591C144.95 57.5709 144.945 57.5823 144.936 57.5906C144.928 57.599 144.917 57.6037 144.905 57.6037ZM99.3572 56.5472H143.843C143.85 56.5472 143.856 56.5459 143.862 56.5434C143.868 56.541 143.874 56.5373 143.878 56.5327C143.883 56.5281 143.887 56.5226 143.889 56.5166C143.892 56.5106 143.893 56.5041 143.893 56.4976V-10.2789C143.893 -10.2852 143.892 -10.2914 143.889 -10.2972C143.887 -10.3029 143.883 -10.3081 143.878 -10.3123C143.874 -10.3165 143.868 -10.3197 143.862 -10.3216C143.856 -10.3236 143.85 -10.3242 143.843 -10.3235H99.3572C99.3448 -10.3236 99.3329 -10.319 99.3238 -10.3108C99.3146 -10.3025 99.3088 -10.2911 99.3076 -10.2789V56.4976C99.3087 56.5104 99.3143 56.5224 99.3234 56.5315C99.3324 56.5405 99.3444 56.5461 99.3572 56.5472Z" fill="#EBEBEB"/>
<path d="M139.861 -6.66309H103.42C103.395 -6.66309 103.375 -6.6431 103.375 -6.61845V52.7924C103.375 52.8171 103.395 52.8371 103.42 52.8371H139.861C139.885 52.8371 139.905 52.8171 139.905 52.7924V-6.61845C139.905 -6.6431 139.885 -6.66309 139.861 -6.66309Z" fill="#FAFAFA"/>
<path d="M81.4915 41.8853C80.4995 41.0768 79.0115 40.8933 78.2576 39.8715C77.4144 38.7406 77.8112 37.0592 77.1118 35.8291C76.5414 34.8371 75.3758 34.3411 74.5773 33.488C73.4315 32.2827 73.1686 30.512 73.0049 28.8603C72.6081 24.7931 72.4792 20.6515 71.2739 16.743C70.0686 12.8345 67.5688 9.08478 63.7893 7.52734L50.0798 8.02334C48.1454 9.65518 47.1733 12.1897 46.8261 14.6945C46.4789 17.1993 46.6872 19.7438 46.6971 22.2734C46.707 24.803 46.5086 27.407 45.4224 29.7134C44.6536 31.3254 43.4731 32.6894 42.6696 34.3113C41.8372 35.8604 41.5127 37.632 41.7421 39.3755C41.8659 40.2409 42.1883 41.066 42.6839 41.7862C43.1795 42.5064 43.835 43.1022 44.599 43.527C46.2557 44.3653 48.2545 44.1718 50.0153 43.5965C51.8753 42.9864 55.8533 44.2065 57.123 42.7185C57.8521 41.8704 59.2757 40.4568 60.3371 39.0432L73.2678 63.0347C74.483 65.0931 77.7318 65.0981 79.5323 63.5307C81.3328 61.9633 81.9429 59.4139 82.0123 57.0232C82.0817 54.6325 81.7494 52.2219 82.1016 49.8609C82.3099 48.4721 82.7464 47.1181 82.8307 45.7193C82.915 44.3206 82.5777 42.7731 81.4915 41.8853Z" fill="#263238"/>
<path d="M78.2224 43.5319C78.2579 43.2002 78.2378 42.865 78.1629 42.5399C77.874 41.6664 77.2854 40.9232 76.5013 40.4418C76.0053 40.1045 75.4696 39.7871 74.8992 39.3853C74.2646 38.9729 73.7429 38.4086 73.3815 37.7436C73.1894 37.371 73.0907 36.9574 73.0938 36.5383C73.0938 36.1018 73.2674 35.705 73.3021 35.3082C73.3276 35.1123 73.2941 34.9132 73.2057 34.7364C73.1173 34.5597 72.9782 34.4134 72.8061 34.3162C72.4688 34.0831 72.0373 33.9244 71.6653 33.6317C70.9641 33.0596 70.4622 32.2799 70.2319 31.4047C70.0103 30.6095 69.9166 29.7841 69.9541 28.9594C69.9987 27.397 70.1922 25.9834 70.0384 24.8525C69.9565 23.938 69.6368 23.0608 69.1109 22.3081C68.9047 22.0407 68.672 21.7948 68.4165 21.574C68.7188 21.7401 68.9825 21.9683 69.1903 22.2436C69.7621 22.9969 70.1171 23.8922 70.217 24.8327C70.3955 26.0132 70.217 27.4218 70.217 28.9594C70.1873 29.7596 70.2827 30.5595 70.4997 31.3303C70.7204 32.1594 71.1978 32.8973 71.8637 33.4383C72.196 33.7061 72.6127 33.8549 72.9946 34.1129C73.192 34.2452 73.3538 34.424 73.4658 34.6337C73.5683 34.848 73.6079 35.0871 73.5799 35.3231C73.5352 35.7745 73.3765 36.1613 73.3666 36.5433C73.36 36.9222 73.4468 37.297 73.6196 37.6345C73.961 38.2668 74.4513 38.8065 75.048 39.2068C75.5986 39.6085 76.1541 39.9359 76.6303 40.293C77.4345 40.8041 78.0224 41.5933 78.282 42.5101C78.3429 42.7601 78.3547 43.0195 78.3167 43.274C78.2992 43.3644 78.2674 43.4515 78.2224 43.5319Z" fill="#455A64"/>
<path d="M70.1082 37.9519C70.1082 37.9519 70.0636 37.9221 69.9892 37.8428C69.9148 37.7634 69.8106 37.6493 69.6965 37.4807C69.3658 37.0082 69.1051 36.4903 68.9228 35.9431C68.6602 35.1406 68.5068 34.3065 68.4664 33.4631C68.4167 32.4278 68.4399 31.3902 68.5359 30.3581C68.6202 29.262 68.6995 28.2204 68.6946 27.278C68.7019 26.445 68.6205 25.6137 68.4515 24.798C68.2694 24.049 67.998 23.3246 67.6431 22.6404C67.7825 22.79 67.9025 22.9567 68.0002 23.1364C68.2823 23.6374 68.4943 24.1748 68.6301 24.7335C68.8316 25.5599 68.9332 26.4075 68.9327 27.2581C68.9327 28.2204 68.8781 29.2421 68.7938 30.3631C68.6968 31.3851 68.6669 32.4124 68.7045 33.4383C68.7302 34.2782 68.8619 35.1114 69.0964 35.9183C69.3422 36.6379 69.6825 37.3218 70.1082 37.9519Z" fill="#455A64"/>
<path d="M71.4322 87.6562L72.9499 88.4894C72.9499 88.4894 79.3335 72.3149 79.3037 69.8051C79.2591 66.1843 76.0351 47.3413 75.3853 43.5171C74.805 40.0848 72.1514 38.6414 70.1922 38.0363C66.5019 36.1218 60.2325 33.6715 53.7597 34.7528C53.7597 34.7528 43.2842 36.841 39.8965 42.6888L29.9021 67.965C29.6071 68.7098 29.523 69.5215 29.6591 70.311L31.5587 83.4997H39.3459V69.5571L43.0957 63.0546L43.3189 72.181C43.3189 72.181 35.6755 95.9294 34.2371 110.204C32.2928 129.454 32.5656 140.004 33.2749 139.518L79.3037 140.396C79.3037 140.396 75.7821 112.044 74.9786 104.828C74.3983 99.5899 72.9599 93.3254 71.4322 87.6562ZM66.5267 71.68L68.0395 64.8749L68.4958 69.8101L67.5683 74.7701C66.9335 72.8258 66.5267 71.68 66.5267 71.68Z" fill="#455A64"/>
<path d="M72.9502 88.4894L72.8212 88.4249L72.4542 88.2116L71.0555 87.3783L65.912 84.2634L65.8574 84.2287V84.1692C66.5171 80.3599 67.3801 75.3503 68.3374 69.7852V69.815C68.2729 68.689 68.1936 67.5036 68.0993 66.3033C67.8216 62.6825 67.519 59.2254 66.9635 56.1353C66.894 55.7484 66.8048 55.3764 66.7204 55.0044C66.6361 54.6324 66.5171 54.2802 66.3931 53.9231C66.1831 53.2235 66.0273 52.5088 65.9268 51.7854C65.7639 50.4863 65.7589 49.1722 65.912 47.8719C65.9941 46.7899 66.2891 45.7347 66.78 44.767C67.1451 44.0371 67.6508 43.3864 68.268 42.8524C68.6617 42.5179 69.1095 42.2528 69.5923 42.0687C69.7165 42.0198 69.8442 41.98 69.9742 41.9497C70.0172 41.9336 70.0623 41.9236 70.1081 41.9199C69.4594 42.1331 68.858 42.47 68.3374 42.9119C66.9699 44.2092 66.162 45.9885 66.0856 47.8719C65.9549 49.1567 65.9816 50.4525 66.1649 51.7308C66.2748 52.4421 66.4406 53.1437 66.6609 53.8289C66.78 54.1761 66.8841 54.5481 66.9932 54.9201C67.1024 55.2921 67.1768 55.679 67.2462 56.0658C67.7997 59.4486 68.1821 62.8572 68.392 66.2785C68.4862 67.4838 68.5656 68.6692 68.6251 69.7951V69.8249C67.6331 75.39 66.7452 80.3946 66.0707 84.2089L66.026 84.1146L71.115 87.3039L72.4889 88.1769L72.8411 88.41L72.9502 88.4894Z" fill="#263238"/>
<path d="M43.8401 72.3149C42.8481 62.8909 41.6577 53.0552 42.9374 44.3455L43.8401 72.3149Z" fill="#455A64"/>
<path d="M42.9372 44.3455C42.9492 44.4393 42.9492 44.5343 42.9372 44.6282C42.9372 44.8464 42.8925 45.1242 42.8578 45.4416C42.8231 45.7591 42.7735 46.2253 42.7388 46.7312C42.7041 47.2371 42.6495 47.8026 42.6197 48.4375C42.5404 49.7023 42.5156 51.2101 42.5106 52.9015C42.5057 54.5928 42.585 56.4181 42.6991 58.3575C42.9223 62.2213 43.2794 65.7131 43.5125 68.2378C43.6266 69.4778 43.7159 70.4896 43.7853 71.2138C43.7853 71.5461 43.83 71.8139 43.8449 72.0322C43.859 72.1259 43.859 72.2212 43.8449 72.3149C43.8165 72.2246 43.7982 72.1315 43.7903 72.0371C43.7605 71.8239 43.7258 71.5411 43.6812 71.2237C43.5919 70.4847 43.4729 69.4728 43.3241 68.2477C43.0413 65.7231 42.6644 62.2362 42.4362 58.3624C42.3221 56.428 42.2676 54.5779 42.2676 52.9064C42.2676 51.2349 42.3271 49.7122 42.4362 48.4424C42.4709 47.8075 42.5354 47.2371 42.59 46.7362C42.6445 46.2352 42.6941 45.8037 42.7537 45.4515C42.8132 45.0994 42.8479 44.8563 42.8826 44.6431C42.8855 44.5417 42.9039 44.4413 42.9372 44.3455Z" fill="#263238"/>
<path d="M35.4577 64.7361C35.7436 64.7956 36.0129 64.9176 36.2463 65.0932C37.4511 65.8498 38.3477 67.0101 38.7759 68.3668C38.8835 68.6379 38.9325 68.9286 38.9198 69.2199C38.3416 67.3604 37.1078 65.774 35.4478 64.7559L35.4577 64.7361Z" fill="#263238"/>
<path d="M38.1357 64.7063C38.697 65.2787 39.1018 65.9858 39.3111 66.7597C39.5204 67.5336 39.5273 68.3483 39.3311 69.1257C39.3125 68.3536 39.2229 67.5848 39.0633 66.8292C38.8191 66.0949 38.5086 65.3844 38.1357 64.7063Z" fill="#263238"/>
<path d="M64.2504 70.8567C64.0246 70.7914 63.8054 70.7051 63.5957 70.5988L61.8349 69.8449C60.3469 69.215 58.2736 68.3966 55.9375 67.6129C53.6013 66.8292 51.4437 66.2489 49.8764 65.862L48.0164 65.4107C47.7862 65.3685 47.5604 65.3054 47.3418 65.2222C47.5757 65.2281 47.8084 65.258 48.0362 65.3115C48.4826 65.3859 49.1274 65.5099 49.921 65.6835C51.9814 66.1372 54.0162 66.7001 56.0168 67.3698C58.02 68.0425 59.9868 68.819 61.9093 69.6961C62.6484 70.0284 63.2386 70.3161 63.6404 70.5244C63.8541 70.615 64.0584 70.7263 64.2504 70.8567Z" fill="#263238"/>
<path d="M49.9507 7.92417C50.7468 6.97826 51.7314 6.20873 52.8416 5.66472C53.9519 5.12071 55.1633 4.81416 56.3987 4.76465C59.8707 4.45217 63.6006 5.33009 66.2096 7.61665C68.6003 9.71473 69.7659 12.9586 69.9097 16.1379C69.9643 17.2589 69.5427 18.3005 69.1508 19.352C68.5692 20.5586 67.5976 21.5337 66.3931 22.1197C65.3614 22.5611 64.9745 22.1941 64.1908 21.3856C63.7517 20.8563 63.4273 20.2415 63.2385 19.5802C62.2465 16.8571 61.066 14.1242 59.2011 11.917C57.3361 9.70977 54.6776 7.99857 51.7611 7.85969" fill="#FF725E"/>
<path d="M48.1202 13.9952C47.9213 12.9106 47.9836 11.7943 48.3019 10.7385C48.6202 9.68282 49.1853 8.71807 49.9504 7.92412C51.1579 6.77435 52.66 5.98123 54.2904 5.6326C56.4568 5.04205 58.7607 5.21725 60.8128 6.1286C62.7968 7.1206 64.384 9.10461 64.4981 11.3118C64.5477 12.3038 64.3146 13.3603 64.5874 14.3324C64.7768 14.7288 64.8425 15.173 64.7759 15.6072C64.6979 15.7932 64.5681 15.953 64.4019 16.0673C64.2357 16.1816 64.0401 16.2457 63.8384 16.252C63.4354 16.2552 63.0386 16.1526 62.6877 15.9544C61.489 15.2854 60.4082 14.4241 59.4885 13.4049" fill="#263238"/>
<path d="M48.0559 15.0666C48.413 11.9468 50.6897 8.21687 53.7897 8.70791L63.3972 11.6839C63.8511 11.7607 64.2596 12.0052 64.5416 12.369C64.8237 12.7328 64.9587 13.1894 64.9199 13.6481L62.6482 37.0692L60.074 39.8269C59.5279 40.421 58.8422 40.8694 58.0791 41.1315C57.3159 41.3937 56.4995 41.4614 55.7036 41.3284C54.9077 41.1954 54.1576 40.866 53.5211 40.37C52.8847 39.874 52.382 39.227 52.0586 38.4877C51.974 38.3051 51.9155 38.1114 51.885 37.9124C51.8573 37.7484 51.8407 37.5827 51.8354 37.4164C51.7636 36.3403 51.8051 35.2597 51.9594 34.1924C52.0338 32.2927 52.0735 31.514 52.0735 31.5338C52.0735 31.5537 48.1055 30.6609 47.555 25.4033C47.2772 22.7745 47.6294 18.5287 48.0559 15.0666Z" fill="#FFBE9D"/>
<path d="M49.3854 18.6377C49.3731 18.8124 49.4303 18.985 49.5445 19.1178C49.6588 19.2506 49.8209 19.333 49.9955 19.3469C50.08 19.358 50.1659 19.3521 50.2481 19.3295C50.3302 19.3069 50.4071 19.2682 50.4741 19.2155C50.5411 19.1628 50.5969 19.0973 50.6382 19.0228C50.6795 18.9483 50.7055 18.8662 50.7147 18.7815C50.7245 18.6073 50.6664 18.4362 50.5526 18.3039C50.4389 18.1717 50.2783 18.0886 50.1046 18.0722C50.02 18.0604 49.9339 18.0659 49.8515 18.0882C49.769 18.1105 49.6919 18.1492 49.6248 18.2019C49.5576 18.2547 49.5018 18.3205 49.4607 18.3954C49.4196 18.4703 49.394 18.5527 49.3854 18.6377Z" fill="#263238"/>
<path d="M48.8346 17.3234C48.914 17.4177 49.4397 17.0705 50.1589 17.1102C50.8781 17.1498 51.389 17.5367 51.4733 17.4524C51.5577 17.3681 51.4337 17.254 51.2154 17.0705C50.9136 16.8395 50.5485 16.7063 50.1689 16.6886C49.7955 16.6676 49.4253 16.7666 49.1124 16.9713C48.8793 17.1201 48.7949 17.2838 48.8346 17.3234Z" fill="#263238"/>
<path d="M56.4584 19.2777C56.4473 19.4521 56.505 19.624 56.619 19.7565C56.733 19.8891 56.8943 19.9718 57.0684 19.987C57.1532 19.998 57.2394 19.9922 57.3218 19.9696C57.4043 19.9471 57.4815 19.9084 57.5489 19.8558C57.6163 19.8032 57.6725 19.7377 57.7144 19.6631C57.7562 19.5886 57.7828 19.5064 57.7926 19.4215C57.8024 19.2473 57.7443 19.0762 57.6305 18.9439C57.5168 18.8117 57.3562 18.7286 57.1825 18.7122C57.0977 18.7011 57.0116 18.707 56.9291 18.7295C56.8467 18.7521 56.7695 18.7907 56.7021 18.8434C56.6347 18.896 56.5784 18.9615 56.5366 19.036C56.4948 19.1106 56.4682 19.1927 56.4584 19.2777Z" fill="#263238"/>
<path d="M55.9025 17.8294C55.9819 17.9236 56.5077 17.5715 57.2318 17.6111C57.956 17.6508 58.4569 18.0427 58.5413 17.9583C58.6256 17.874 58.5065 17.7599 58.2833 17.5764C57.9831 17.3461 57.6197 17.2129 57.2417 17.1945C56.8668 17.1731 56.4949 17.2722 56.1803 17.4772C55.9521 17.6161 55.8678 17.7897 55.9025 17.8294Z" fill="#263238"/>
<path d="M53.0157 23.0324C52.6436 22.8929 52.2553 22.8013 51.8601 22.7596C51.6765 22.7298 51.5029 22.6852 51.4781 22.5562C51.4751 22.3664 51.5287 22.1799 51.6319 22.0205L52.2469 20.6466C53.105 18.6973 53.7349 17.0853 53.6605 17.0506C53.5861 17.0159 52.8223 18.5733 51.9642 20.5226L51.369 21.9015C51.2397 22.1175 51.1922 22.3727 51.2351 22.6207C51.2578 22.6869 51.2957 22.7469 51.3456 22.796C51.3955 22.845 51.4562 22.8818 51.5228 22.9034C51.6226 22.9353 51.7258 22.9552 51.8303 22.9629C52.2209 23.0364 52.6192 23.0597 53.0157 23.0324Z" fill="#263238"/>
<path d="M52.0688 31.5041C54.522 31.6741 56.9742 31.1589 59.1517 30.0161C59.1517 30.0161 57.2074 33.5377 52.0093 32.7739L52.0688 31.5041Z" fill="#EB996E"/>
<path d="M53.2243 24.7833C53.3708 24.618 53.5569 24.4926 53.7651 24.4188C53.9733 24.3451 54.1968 24.3254 54.4147 24.3617C54.5737 24.3862 54.7261 24.4428 54.8625 24.5281C54.9989 24.6133 55.1166 24.7255 55.2083 24.8577C55.2966 24.9842 55.344 25.1349 55.344 25.2892C55.344 25.4435 55.2966 25.5942 55.2083 25.7207C55.0853 25.8433 54.9286 25.9266 54.7582 25.9602C54.5878 25.9937 54.4113 25.976 54.251 25.9092C53.9158 25.7717 53.6121 25.5675 53.3582 25.309C53.2797 25.248 53.214 25.1722 53.1648 25.0858C53.1379 25.0464 53.1235 24.9997 53.1235 24.9519C53.1235 24.9042 53.1379 24.8575 53.1648 24.818" fill="#EB996E"/>
<path d="M55.104 23.6424C54.9899 23.6424 54.9453 24.4112 54.2459 24.9271C53.5466 25.4429 52.7232 25.3189 52.7133 25.4231C52.7034 25.5272 52.8869 25.5818 53.239 25.6115C53.696 25.6417 54.1491 25.51 54.5187 25.2395C54.8733 24.9792 55.1133 24.5917 55.1883 24.1583C55.233 23.8359 55.1586 23.6375 55.104 23.6424Z" fill="#263238"/>
<path d="M55.8975 15.6321C55.957 15.8305 56.6812 15.7759 57.5194 15.9247C58.3576 16.0735 59.0074 16.3364 59.1512 16.1678C59.2058 16.0834 59.0967 15.895 58.8338 15.6718C58.4803 15.4139 58.0706 15.2439 57.6384 15.1758C57.2097 15.1 56.769 15.1289 56.3538 15.2601C56.0364 15.4089 55.8727 15.5527 55.8975 15.6321Z" fill="#263238"/>
<path d="M49.2116 14.1888C49.3257 14.3574 49.8316 14.1888 50.4317 14.2384C51.0319 14.288 51.5229 14.407 51.6519 14.2384C51.7065 14.159 51.6519 13.9904 51.4237 13.8267C51.1351 13.6177 50.7881 13.5049 50.4317 13.5043C50.0807 13.495 49.7349 13.5918 49.4397 13.782C49.2364 13.9408 49.157 14.1044 49.2116 14.1888Z" fill="#263238"/>
<path d="M62.9804 22.2884C62.9804 21.8966 63.5012 21.0088 63.8881 20.9691C64.9198 20.86 66.7599 21.0385 66.6409 23.6425C66.4772 27.1988 62.9407 26.3011 62.9407 26.2019C62.9407 26.1027 62.906 23.6276 62.9804 22.2884Z" fill="#FFBE9D"/>
<path d="M64.0866 24.9022C64.0866 24.9022 64.1462 24.9468 64.2503 25.0014C64.3949 25.0689 64.5596 25.0796 64.7116 25.0312C64.9485 24.8962 65.145 24.7005 65.2811 24.4642C65.4171 24.2279 65.4876 23.9596 65.4854 23.687C65.5099 23.3831 65.4641 23.0776 65.3514 22.7942C65.3243 22.6816 65.2698 22.5774 65.1928 22.4909C65.1158 22.4044 65.0187 22.3382 64.91 22.2982C64.8396 22.2761 64.7638 22.2789 64.6952 22.306C64.6266 22.333 64.5694 22.3828 64.533 22.447C64.4834 22.5462 64.5033 22.6206 64.4834 22.6256C64.4636 22.6305 64.4091 22.5611 64.4438 22.4172C64.4674 22.3298 64.5198 22.2529 64.5926 22.199C64.6952 22.1322 64.8188 22.1057 64.9398 22.1246C65.0851 22.1594 65.219 22.231 65.3284 22.3327C65.4379 22.4344 65.5193 22.5626 65.5647 22.7049C65.6994 23.0173 65.7573 23.3575 65.7334 23.6969C65.6788 24.4112 65.282 25.0659 64.7414 25.1849C64.645 25.2089 64.5445 25.2106 64.4474 25.19C64.3503 25.1693 64.2592 25.1269 64.1809 25.0659C64.0916 24.9865 64.0767 24.9072 64.0866 24.9022Z" fill="#EB996E"/>
<path d="M53.3086 8.06791C53.4072 8.94101 53.7406 9.77106 54.2734 10.4698C54.8061 11.1685 55.5183 11.7097 56.3342 12.0359C57.2022 12.3682 58.2686 12.5319 58.7447 13.3205C59.2209 14.1092 58.8291 15.2549 59.2755 16.0981C59.8955 17.2637 61.8001 17.3431 62.2515 18.5781C62.44 19.1237 62.2763 19.7437 62.4796 20.2844C62.6415 20.6338 62.9206 20.9155 63.2686 21.0804C63.6166 21.2453 64.0114 21.2831 64.3843 21.1871C64.7525 21.0742 65.0918 20.8827 65.3787 20.6258C65.6656 20.3689 65.8932 20.0527 66.0459 19.6991C66.3447 18.9907 66.5273 18.2387 66.5865 17.4721C66.8381 15.9798 66.8213 14.4547 66.5369 12.9684C65.7929 9.89319 61.7307 5.41927 58.5662 5.41431" fill="#263238"/>
<path d="M59.2802 6.96684C58.2034 7.01526 57.1422 7.24326 56.1405 7.6414C55.1669 8.11507 54.2786 8.74696 53.5117 9.51133C53.6544 9.21899 53.8514 8.95642 54.092 8.73756C55.2053 7.60282 56.7097 6.93578 58.2981 6.8726C58.6285 6.83554 58.9629 6.86763 59.2802 6.96684Z" fill="#455A64"/>
<path d="M55.3271 6.52556C54.8278 6.8628 54.3829 7.27425 54.0077 7.74572C53.6977 8.26404 53.4717 8.8282 53.3381 9.41724C53.3034 9.41724 53.2588 9.20396 53.3034 8.86172C53.3667 8.40988 53.534 7.97892 53.7922 7.60278C54.0505 7.22664 54.3925 6.91561 54.7914 6.6942C55.1039 6.53548 55.3172 6.50076 55.3271 6.52556Z" fill="#455A64"/>
<path d="M65.7305 33.8664L38.645 29.1489L37.4391 36.073L64.5246 40.7905L65.7305 33.8664Z" fill="#FF725E"/>
<path opacity="0.3" d="M65.7273 33.8612L46.2549 30.4697L45.0489 37.3938L64.5214 40.7853L65.7273 33.8612Z" fill="black"/>
<path d="M73.4154 42.3381L45.9146 37.5483L42.2805 58.4134L69.7814 63.2032L73.4154 42.3381Z" fill="#FF725E"/>
<path d="M59.6659 39.9451L32.165 35.1553L28.531 56.0204L56.0319 60.8102L59.6659 39.9451Z" fill="#FF725E"/>
<path opacity="0.3" d="M59.6659 39.9451L32.165 35.1553L28.531 56.0204L56.0319 60.8102L59.6659 39.9451Z" fill="white"/>
<path d="M48.6612 38.0264C48.542 38.2499 48.4008 38.4609 48.2396 38.6563C47.8401 39.228 47.3204 39.7054 46.7169 40.055C46.2791 40.2795 45.7896 40.3839 45.2983 40.3576C44.7457 40.3163 44.2033 40.1874 43.6912 39.9757C43.1506 39.7723 42.605 39.5144 42.0247 39.3011C41.4484 39.0563 40.825 38.9428 40.1994 38.9688C39.5777 39.0371 38.9845 39.2662 38.4783 39.6334C37.9823 39.9707 37.4863 40.3377 36.9903 40.6254C36.0729 41.1232 35.0294 41.3405 33.9895 41.2504C33.2973 41.1984 32.6226 41.0078 32.0055 40.6899C31.8332 40.6046 31.6674 40.5068 31.5095 40.3972C31.4053 40.3179 31.3557 40.2782 31.3607 40.2683C31.3656 40.2584 31.5938 40.4022 32.0303 40.6006C32.6498 40.874 33.3134 41.0336 33.9895 41.0718C34.9879 41.1299 35.9822 40.9028 36.8564 40.4171C37.3524 40.1443 37.8186 39.7723 38.3444 39.4251C38.8852 39.0318 39.5197 38.7873 40.1845 38.7158C40.8475 38.688 41.5083 38.8083 42.1189 39.068C42.7092 39.2912 43.2548 39.564 43.7805 39.7574C44.2694 39.9676 44.7883 40.0998 45.3181 40.1492C45.7739 40.1795 46.2299 40.0924 46.6424 39.8963C47.2325 39.5682 47.7517 39.1265 48.1701 38.5968C48.3179 38.3935 48.4821 38.2027 48.6612 38.0264Z" fill="#FAFAFA"/>
<path d="M62.7078 40.5065C62.2491 40.4048 61.7697 40.4571 61.3438 40.6553C60.8482 40.8927 60.4074 41.2305 60.0492 41.6473C59.6177 42.1185 59.2159 42.7434 58.6356 43.3386C58.3226 43.6736 57.9451 43.9417 57.5256 44.1266C57.1062 44.3116 56.6537 44.4097 56.1953 44.4149C55.1605 44.4033 54.1349 44.2206 53.1597 43.8743C52.1153 43.4898 51.0016 43.3292 49.8911 43.4031C49.3174 43.4902 48.7702 43.7037 48.289 44.0281C47.7862 44.3689 47.3057 44.7417 46.8506 45.1441C46.3873 45.5563 45.8895 45.928 45.3626 46.2551C44.8301 46.5581 44.2497 46.7678 43.6465 46.8751C42.5149 47.0511 41.3611 47.0242 40.239 46.7957C39.1726 46.6073 38.1806 46.3444 37.263 46.1658C36.401 45.9814 35.5204 45.8981 34.6391 45.9178C33.359 45.9398 32.1283 46.4162 31.1671 47.262C30.8367 47.593 30.559 47.9727 30.3438 48.3879C30.3506 48.3572 30.3606 48.3273 30.3735 48.2986C30.3735 48.2441 30.4231 48.1548 30.4777 48.0457C30.6403 47.7303 30.8493 47.441 31.0977 47.1876C32.0606 46.2863 33.3206 45.7692 34.6391 45.7343C35.536 45.7026 36.4334 45.7775 37.3126 45.9575C38.2599 46.1261 39.2569 46.3841 40.2886 46.5626C41.384 46.7782 42.5088 46.8001 43.6117 46.6271C44.1854 46.5221 44.7371 46.3209 45.2436 46.0319C45.7596 45.7136 46.2474 45.3519 46.7018 44.9506C47.1718 44.5376 47.669 44.1565 48.1898 43.8098C48.7037 43.4683 49.2861 43.2431 49.8961 43.1501C51.0428 43.0742 52.1926 43.2433 53.2689 43.6461C54.2238 43.9929 55.2292 44.1805 56.2449 44.2017C56.6715 44.1805 57.0905 44.0796 57.4799 43.9041C57.8518 43.7293 58.1882 43.4871 58.4719 43.1898C59.0423 42.6244 59.4639 42.0093 59.9103 41.5332C60.2878 41.1077 60.7532 40.7692 61.2743 40.5412C61.6013 40.397 61.9608 40.3422 62.3159 40.3825C62.4531 40.399 62.586 40.441 62.7078 40.5065Z" fill="#FAFAFA"/>
<path d="M73.1785 42.9467C73.1785 42.9467 72.9999 42.9467 72.6825 43.036C72.2158 43.1694 71.793 43.4244 71.4574 43.775C70.9346 44.345 70.471 44.9665 70.0735 45.63C69.5635 46.5341 68.8909 47.3362 68.0895 47.996C67.5847 48.3551 66.9873 48.5617 66.3684 48.5912C65.7094 48.6104 65.0511 48.5335 64.4142 48.363C63.7545 48.2142 63.0849 48.0208 62.3855 47.9265C61.6736 47.8122 60.9444 47.8752 60.2626 48.11C58.849 48.606 57.6586 49.6873 56.4038 50.7438C55.7615 51.2965 55.0594 51.7756 54.3106 52.1723C53.53 52.6007 52.6455 52.8034 51.7562 52.7576C50.8778 52.634 50.0441 52.293 49.3308 51.7656C48.6678 51.2767 47.9311 50.8966 47.1484 50.6396C46.7669 50.5464 46.3708 50.5295 45.9828 50.59C45.6025 50.6631 45.2359 50.7953 44.8966 50.9819C44.2342 51.3645 43.6169 51.8203 43.0564 52.3409C42.5139 52.8462 41.9371 53.3136 41.3303 53.7396C40.7456 54.1384 40.1184 54.4711 39.4604 54.7316C38.0225 55.3032 36.4673 55.517 34.9286 55.3546C33.3898 55.1922 31.9135 54.6584 30.6266 53.7992C30.0642 53.4425 29.5535 53.0103 29.1089 52.5145C29.1089 52.5145 29.2478 52.6286 29.5007 52.8468C29.8742 53.1625 30.2686 53.4525 30.6812 53.7148C31.9607 54.5357 33.4182 55.0384 34.9317 55.1808C36.4453 55.3231 37.9709 55.1011 39.381 54.5332C40.0214 54.2825 40.6319 53.9615 41.2014 53.576C41.7985 53.1511 42.3669 52.6872 42.9026 52.1872C43.4733 51.6501 44.1041 51.1808 44.7825 50.7884C45.1436 50.5861 45.5358 50.4453 45.9431 50.3718C46.3637 50.3014 46.7942 50.3183 47.2079 50.4214C48.0187 50.6812 48.7824 51.0697 49.4697 51.5721C50.1498 52.0736 50.9442 52.3975 51.781 52.5145C52.622 52.5557 53.4581 52.3635 54.1966 51.959C54.9269 51.5709 55.6122 51.1035 56.2401 50.5652C57.49 49.5187 58.7201 48.4027 60.1833 47.8968C60.9035 47.6573 61.6707 47.5943 62.4202 47.7132C63.1394 47.8174 63.809 48.0158 64.4638 48.1696C65.0786 48.3413 65.7153 48.4215 66.3535 48.4076C66.9382 48.3842 67.5042 48.195 67.9854 47.862C68.7798 47.2224 69.4519 46.4444 69.9694 45.5656C70.3667 44.8966 70.8357 44.273 71.3681 43.7056C71.7215 43.3506 72.1661 43.1 72.6527 42.9814C72.8254 42.9447 73.0025 42.933 73.1785 42.9467Z" fill="#FAFAFA"/>
<path d="M70.6242 54.4936C70.5311 54.4921 70.439 54.4753 70.3514 54.444L69.5826 54.2655C68.6496 54.0208 67.6828 53.9303 66.7206 53.9976C66.0676 54.0586 65.4401 54.282 64.8954 54.6474C64.2824 55.0967 63.7335 55.6273 63.2635 56.2246C62.7368 56.9072 62.1194 57.5146 61.4283 58.0301C60.6388 58.5383 59.7278 58.826 58.7896 58.8634C56.8602 58.9775 55.1192 58.3674 53.5766 57.9061C52.2285 57.4273 50.7994 57.2184 49.3706 57.2911C48.4083 57.3632 47.4863 57.7073 46.712 58.2831C46.4407 58.508 46.187 58.7535 45.9531 59.0171C46.1291 58.7031 46.365 58.4267 46.6475 58.2037C47.4232 57.5862 48.3632 57.2102 49.3507 57.1224C50.8046 57.0227 52.2638 57.2167 53.6411 57.6928C55.1986 58.1243 56.9147 58.7344 58.7698 58.6203C59.6647 58.5853 60.5343 58.3132 61.2894 57.8317C61.9633 57.3326 62.5672 56.7454 63.085 56.0858C63.5719 55.4761 64.1411 54.9369 64.7763 54.4837C65.3545 54.1066 66.0177 53.8799 66.7058 53.824C67.6861 53.7723 68.6679 53.8915 69.6074 54.1762L70.3663 54.4043C70.4541 54.4283 70.5403 54.4581 70.6242 54.4936Z" fill="#FAFAFA"/>
<path opacity="0.3" d="M73.415 42.3373L59.6646 39.9424L56.0305 60.8075L69.781 63.2024L73.415 42.3373Z" fill="black"/>
<path d="M43.4781 58.5807C43.4037 58.5807 44.103 53.8885 45.0405 48.125C45.9779 42.3615 46.7864 37.709 46.8558 37.709C46.9253 37.709 46.2259 42.4011 45.2934 48.1647C44.361 53.9282 43.5475 58.5906 43.4781 58.5807Z" fill="#263238"/>
<path d="M63.6255 62.2162C63.5561 62.2162 64.3149 57.5042 65.3218 51.7209C66.3287 45.9375 67.2017 41.2503 67.2761 41.2652C67.3505 41.2801 66.5866 45.9772 65.5748 51.7605C64.5629 57.5439 63.6949 62.2261 63.6255 62.2162Z" fill="#263238"/>
<path d="M71.3035 54.4638C71.3035 54.5332 61.949 52.9758 50.4467 50.962C38.9445 48.9483 29.6147 47.2768 29.6147 47.2073C29.6147 47.1379 38.9643 48.6953 50.4765 50.7091C61.9887 52.7228 71.3135 54.3943 71.3035 54.4638Z" fill="#263238"/>
<path d="M46.7066 37.7288C46.5717 37.7682 46.4293 37.7748 46.2912 37.7481C46.1532 37.7213 46.0235 37.662 45.913 37.575C45.3389 37.096 44.8552 36.5182 44.4846 35.8688C43.9538 35.1 43.3438 34.1675 42.7138 33.1011C42.3964 32.5654 42.079 32.0049 41.7566 31.4048C41.5756 31.0915 41.4718 30.7395 41.454 30.3781C41.4487 30.1786 41.497 29.9814 41.5938 29.8069C41.6907 29.6324 41.8325 29.4871 42.0046 29.3861C42.1933 29.2904 42.411 29.2692 42.6146 29.3265C42.7962 29.3817 42.9649 29.4728 43.1106 29.5944C43.3765 29.8222 43.6237 30.071 43.8497 30.3384C44.9956 31.6724 45.8413 33.237 46.3297 34.9264C46.5386 35.6385 46.6765 36.3695 46.7414 37.1088C46.7662 37.3717 46.7711 37.575 46.7711 37.7139C46.7784 37.7832 46.7784 37.853 46.7711 37.9222C46.6451 36.9277 46.4428 35.9444 46.166 34.9809C45.8387 33.9455 45.3785 32.9568 44.797 32.0397C44.4537 31.4998 44.069 30.9874 43.6463 30.507C43.4306 30.2524 43.1951 30.0153 42.942 29.7977C42.8349 29.6895 42.6988 29.6146 42.55 29.582C42.4013 29.5494 42.2463 29.5606 42.1038 29.6142C41.9738 29.695 41.8673 29.8086 41.795 29.9435C41.7228 30.0785 41.6873 30.23 41.6921 30.383C41.7076 30.7049 41.8012 31.0181 41.9649 31.2957C42.2724 31.8859 42.5898 32.4513 42.8974 32.987C43.5124 34.0534 44.1026 34.971 44.6135 35.7745C44.9635 36.4158 45.414 36.9969 45.9478 37.4957C46.1701 37.6509 46.4355 37.7325 46.7066 37.7288Z" fill="#263238"/>
<path d="M46.8854 37.3369C46.9224 37.1292 46.9823 36.9263 47.064 36.7318C47.2568 36.1899 47.4889 35.6627 47.7584 35.1545C48.3951 33.9485 49.2094 32.845 50.1739 31.8809C50.3622 31.6644 50.5982 31.4946 50.8634 31.3849C51.0211 31.3204 51.1975 31.3189 51.3563 31.3808C51.515 31.4426 51.644 31.5631 51.7165 31.7173C51.813 32.0113 51.7916 32.3314 51.657 32.6101C51.5452 32.86 51.4107 33.099 51.2552 33.3243C50.9788 33.747 50.6773 34.1528 50.3525 34.5395C49.803 35.1966 49.1918 35.7996 48.5272 36.34C48.0797 36.7054 47.6055 37.037 47.1086 37.332C46.9337 37.4495 46.7456 37.546 46.5482 37.6197C46.5184 37.575 47.312 37.1237 48.4082 36.2061C49.0484 35.6586 49.6377 35.0543 50.169 34.4006C50.4827 34.0159 50.7742 33.6134 51.0419 33.1953C51.1883 32.9844 51.3145 32.7602 51.4189 32.5257C51.5253 32.31 51.5465 32.0621 51.4784 31.8313C51.4322 31.7366 51.3511 31.6635 51.2521 31.6275C51.1531 31.5914 51.044 31.5951 50.9477 31.6379C50.7194 31.7282 50.5155 31.871 50.3525 32.0545C49.3962 32.996 48.578 34.0681 47.9221 35.2389C47.2128 36.4987 46.9301 37.3568 46.8854 37.3369Z" fill="#263238"/>
<path d="M44.9171 62.319L25.6084 59.5056L23.1733 76.2179L42.4821 79.0313L44.9171 62.319Z" fill="#FF725E"/>
<path d="M37.0139 61.1666L20.8169 58.8066L18.3811 75.5239L34.5781 77.8839L37.0139 61.1666Z" fill="#FF725E"/>
<path d="M27.2239 59.7363C27.2735 59.7859 25.602 61.4425 23.4989 63.4265C21.3959 65.4105 19.64 66.9828 19.5904 66.9332C19.5408 66.8836 21.2124 65.227 23.3204 63.238C25.4284 61.2491 27.1495 59.6867 27.2239 59.7363Z" fill="#FAFAFA"/>
<path d="M31.8219 60.4208C31.8715 60.4754 28.95 63.4811 25.2945 67.1465C21.639 70.812 18.6332 73.7384 18.5836 73.664C18.534 73.5896 21.4555 70.6037 25.111 66.9432C28.7665 63.2827 31.7673 60.3712 31.8219 60.4208Z" fill="#FAFAFA"/>
<path d="M36.5835 61.1053C36.6331 61.1549 33.3397 64.5376 29.2279 68.6544C25.116 72.7712 21.7432 76.0944 21.6887 76.025C21.6341 75.9555 24.9325 72.5976 29.0443 68.4758C33.1562 64.3541 36.5339 61.0557 36.5835 61.1053Z" fill="#FAFAFA"/>
<path d="M41.1766 61.7601C41.2262 61.8097 37.9923 65.1924 33.9499 69.3142C29.9075 73.436 26.5892 76.7542 26.5396 76.6947C26.49 76.6352 29.7239 73.2624 33.7663 69.1356C37.8087 65.0089 41.1121 61.7204 41.1766 61.7601Z" fill="#FAFAFA"/>
<path d="M44.5837 63.9127C44.6383 63.9623 41.6573 67.0326 37.9324 70.7625C34.2074 74.4924 31.1471 77.4833 31.0925 77.4337C31.038 77.3841 34.0239 74.3138 37.7489 70.579C41.4738 66.8441 44.5193 63.8631 44.5837 63.9127Z" fill="#FAFAFA"/>
<path opacity="0.5" d="M44.9168 62.3216L37.0146 61.1702L34.5788 77.8874L42.481 79.0388L44.9168 62.3216Z" fill="black"/>
<path d="M28.8816 59.562L27.9683 59.4329L25.6031 76.1577L26.5165 76.2868L28.8816 59.562Z" fill="#263238"/>
<path d="M41.1735 61.7716L40.6631 61.6973L38.2273 78.4145L38.7377 78.4889L41.1735 61.7716Z" fill="#263238"/>
<path d="M43.749 70.3412L19.6499 66.8298L19.5519 67.5023L43.6511 71.0136L43.749 70.3412Z" fill="#263238"/>
<path d="M31.3208 59.7761C31.1705 59.675 31.0352 59.5531 30.9191 59.414C30.581 59.059 30.274 58.6757 30.0015 58.2682C29.5911 57.6611 29.2484 57.0107 28.9797 56.3289C28.8173 55.9238 28.6895 55.5057 28.5978 55.079C28.5418 54.8206 28.5824 54.5506 28.7119 54.3201C28.7912 54.1972 28.9108 54.1057 29.0502 54.0614C29.1895 54.017 29.34 54.0226 29.4757 54.077C29.7131 54.1682 29.9243 54.3164 30.0908 54.5086C30.2495 54.6822 30.4032 54.8558 30.5372 55.0343C30.7991 55.3837 31.0298 55.7555 31.2266 56.1454C31.5502 56.8066 31.7678 57.5146 31.8714 58.2434C31.9441 58.7361 31.9557 59.2359 31.9061 59.7314C31.8995 59.9127 31.8644 60.0918 31.802 60.2622C31.8213 59.5989 31.7848 58.9353 31.6928 58.2782C31.5659 57.5741 31.337 56.8924 31.0133 56.2545C30.8164 55.8836 30.5909 55.5288 30.3388 55.193C30.0996 54.8298 29.7741 54.5316 29.3914 54.325C29.3111 54.2892 29.2207 54.2831 29.1363 54.3076C29.0518 54.3321 28.9788 54.3857 28.9301 54.459C28.8416 54.637 28.8154 54.8396 28.8557 55.0343C28.9432 55.4432 29.0626 55.8445 29.2128 56.2346C29.4675 56.9045 29.7847 57.5488 30.1602 58.1591C30.805 59.1858 31.3556 59.7265 31.3208 59.7761Z" fill="#263238"/>
<path d="M31.7475 59.776C31.7373 59.6091 31.7541 59.4416 31.7971 59.28C31.8773 58.8236 32.0036 58.3766 32.1741 57.9457C32.4297 57.3041 32.7629 56.6961 33.1661 56.1353C33.4046 55.8047 33.6683 55.493 33.9547 55.2029C34.1081 55.0398 34.2739 54.8889 34.4507 54.7515C34.515 54.7058 34.5904 54.6784 34.669 54.6721C34.7155 54.6715 34.7615 54.6815 34.8036 54.7013C34.8457 54.721 34.8828 54.7501 34.912 54.7862C34.9868 54.8972 35.0328 55.0251 35.0459 55.1582C35.1749 56.0087 35.0271 56.8781 34.6243 57.6382C34.3011 58.2531 33.8712 58.8056 33.3546 59.2701C33.0126 59.5803 32.646 59.8623 32.2584 60.1133C32.1235 60.2188 31.9729 60.3025 31.812 60.3613C31.7872 60.3216 32.4023 59.9347 33.2256 59.1361C33.7092 58.6736 34.1101 58.1317 34.4111 57.5341C34.7794 56.8108 34.9112 55.9902 34.788 55.188C34.7818 55.0993 34.7564 55.013 34.7136 54.935C34.6888 54.935 34.669 54.9053 34.5896 54.935C34.4335 55.0641 34.2845 55.2015 34.1432 55.3467C33.8646 55.6275 33.6061 55.9275 33.3695 56.2445C32.9723 56.7843 32.6394 57.3685 32.3775 57.9854C31.8914 59.0369 31.7971 59.776 31.7475 59.776Z" fill="#263238"/>
<path d="M31.688 60.6439C31.688 60.6439 31.8021 60.5249 32.0501 60.3513C32.2981 60.1777 32.6651 59.9446 33.1363 59.6866C33.6908 59.3872 34.2641 59.1237 34.8525 58.898C35.1999 58.7534 35.5603 58.6422 35.9288 58.5657C36.3402 58.4769 36.7677 58.4974 37.1688 58.6252L37.2878 58.6649L37.2531 58.779C37.1841 58.9845 37.0736 59.1738 36.9286 59.335C36.7836 59.4962 36.607 59.626 36.4099 59.7164C36.0735 59.8861 35.7234 60.0272 35.3634 60.138C34.7578 60.333 34.1322 60.4595 33.4984 60.515C33.0742 60.549 32.6479 60.549 32.2237 60.515C32.0666 60.5189 31.9102 60.4937 31.7624 60.4406C31.7624 60.3959 32.427 60.4406 33.4785 60.3166C34.0945 60.2366 34.701 60.0954 35.2889 59.895C35.6296 59.7812 35.9612 59.6419 36.2809 59.4783C36.4455 59.4021 36.5933 59.294 36.7159 59.1604C36.8385 59.0267 36.9334 58.8701 36.9952 58.6996L37.0745 58.8534C36.349 58.6936 35.5907 58.7827 34.9219 59.1063C34.339 59.319 33.7678 59.5623 33.2107 59.8354C32.2584 60.3215 31.688 60.6786 31.688 60.6439Z" fill="#263238"/>
<path d="M31.0878 60.4805C30.9279 60.4795 30.769 60.4545 30.6166 60.4061C30.1912 60.3034 29.7722 60.1759 29.3617 60.0241C28.7541 59.7985 28.1639 59.5283 27.596 59.2157L27.1 58.9329C26.9212 58.8358 26.7546 58.7176 26.604 58.5808C26.5116 58.4968 26.4445 58.3887 26.4104 58.2686C26.3762 58.1485 26.3762 58.0213 26.4105 57.9013C26.4631 57.7872 26.5441 57.6886 26.6457 57.6147C26.7473 57.5409 26.8662 57.4944 26.9909 57.4797C27.7996 57.3263 28.6362 57.4376 29.3766 57.7971C29.9801 58.0823 30.4945 58.5264 30.8646 59.0817C31.1144 59.4503 31.2927 59.8625 31.3904 60.2969C31.4408 60.4571 31.4561 60.6263 31.435 60.7929C31.2857 60.2274 31.0426 59.6909 30.7158 59.2057C30.3482 58.6981 29.8563 58.2933 29.2873 58.0302C28.5896 57.7105 27.8102 57.6135 27.0553 57.7525C26.9734 57.7585 26.8943 57.7847 26.825 57.8289C26.7558 57.873 26.6986 57.9337 26.6585 58.0054C26.6422 58.0805 26.646 58.1586 26.6695 58.2317C26.693 58.3049 26.7354 58.3705 26.7925 58.4221C26.9293 58.5452 27.079 58.6533 27.2389 58.7445C27.3976 58.8437 27.5629 58.9379 27.7349 59.0272C28.2873 59.3479 28.8607 59.6312 29.451 59.8753C30.4381 60.2721 31.1027 60.4408 31.0878 60.4805Z" fill="#263238"/>
<path d="M74.7581 63.5683L51.0732 59.6218L47.6575 80.1216L71.3423 84.0681L74.7581 63.5683Z" fill="#FF725E"/>
<path d="M65.0698 61.9493L45.2012 58.6387L41.7854 79.1384L61.654 82.4491L65.0698 61.9493Z" fill="#FF725E"/>
<path d="M53.016 59.9497C53.0607 60.0042 50.9576 61.9882 48.314 64.379C45.6703 66.7697 43.4928 68.6644 43.4432 68.6098C43.3936 68.5553 45.5016 66.5762 48.1404 64.1855C50.7791 61.7948 52.9764 59.9001 53.016 59.9497Z" fill="#FAFAFA"/>
<path d="M58.6902 60.9119C58.7398 60.9615 55.0595 64.5823 50.4715 68.9967C45.8835 73.4111 42.1238 76.9327 42.0742 76.893C42.0246 76.8533 45.7049 73.2226 50.2929 68.8082C54.8809 64.3938 58.6406 60.8623 58.6902 60.9119Z" fill="#FAFAFA"/>
<path d="M64.5331 61.8691C64.5827 61.9187 60.4361 65.9909 55.2777 70.9558C50.1193 75.9208 45.8885 79.8838 45.8537 79.8541C45.819 79.8243 49.9457 75.7323 55.1091 70.7674C60.2725 65.8024 64.4835 61.8195 64.5331 61.8691Z" fill="#FAFAFA"/>
<path d="M70.1678 62.8065C70.2174 62.861 66.1403 66.9332 61.0663 71.9031C55.9922 76.873 51.8357 80.8658 51.7861 80.8311C51.7365 80.7964 55.8086 76.7093 60.8877 71.7345C65.9667 66.7596 70.1182 62.7519 70.1678 62.8065Z" fill="#FAFAFA"/>
<path d="M74.2895 65.5297C74.3391 65.5793 70.5893 69.2695 65.912 73.7633C61.2347 78.257 57.4007 81.8679 57.3511 81.8183C57.3015 81.7687 61.0512 78.0785 65.7335 73.5797C70.4157 69.081 74.2399 65.4751 74.2895 65.5297Z" fill="#FAFAFA"/>
<path opacity="0.5" d="M74.7561 63.5659L65.064 61.9509L61.6482 82.4507L71.3403 84.0656L74.7561 63.5659Z" fill="black"/>
<path d="M54.5807 60.2076L53.0298 59.9492L49.614 80.449L51.1649 80.7074L54.5807 60.2076Z" fill="#263238"/>
<path d="M70.1719 62.8038L68.9146 62.5942L65.4988 83.094L66.7562 83.3035L70.1719 62.8038Z" fill="#263238"/>
<path d="M73.1194 73.4055L43.5586 68.48L43.4208 69.3068L72.9816 74.2324L73.1194 73.4055Z" fill="#263238"/>
</g>
</svg>
