<svg width="64" height="65" viewBox="0 0 64 65" fill="none" xmlns="http://www.w3.org/2000/svg">
<path d="M44.7482 7.31835C45.5382 5.38259 44.6108 3.02729 42.9326 1.77604C41.2545 0.52479 39.0071 0.242645 36.9389 0.549325C34.8707 0.856004 32.9153 1.72207 31.009 2.56359C30.1427 1.6817 29.0487 1.05753 27.8488 0.760588C26.6488 0.463647 25.39 0.505587 24.2124 0.881738C23.0349 1.25789 21.9849 1.95349 21.1793 2.89108C20.3737 3.82868 19.8441 4.97147 19.6496 6.19222C18.9013 5.99356 18.1129 6.00348 17.3698 6.2209C16.6268 6.43832 15.9574 6.85495 15.4342 7.42564C14.911 7.99634 14.554 8.69933 14.4018 9.45844C14.2497 10.2175 14.3081 11.0038 14.5709 11.7321L23.9112 15.0835L34.0193 33.1358C36.9929 35.7046 41.8826 35.6678 44.8144 33.0524C47.7463 30.4371 48.3425 25.5842 46.127 22.3383C46.7028 21.8316 47.1918 21.234 47.5745 20.5693C49.2036 19.588 50.4794 18.0251 50.9137 16.1532C51.8313 12.2129 48.7596 7.8164 44.7482 7.31835Z" fill="#263238"/>
<path d="M38.2956 44.7798C37.7338 41.8357 37.3413 39.8411 37.3462 39.8607C37.3511 39.8803 42.8811 37.7483 42.5499 30.047C42.3855 26.2098 40.9625 20.1547 39.6377 15.238C38.4453 10.8218 34.3579 5.91498 29.9883 7.29626L16.757 13.6384C15.4296 14.0555 15.1892 15.2994 15.4934 16.6586L15.5082 17.3185L20.5033 38.5874L22.6108 48.092C23.0623 50.0417 24.2267 51.7521 25.8751 52.8871C27.5235 54.022 29.5368 54.4994 31.5193 54.2255C32.5963 54.0761 33.6316 53.7093 34.5625 53.1473C35.4933 52.5853 36.3001 51.84 36.9339 50.9565C37.5677 50.073 38.0153 49.0699 38.2494 48.0081C38.4835 46.9462 38.4992 45.8479 38.2956 44.7798Z" fill="#B5836D"/>
<path d="M38.4428 22.7161C38.495 22.9667 38.4473 23.2277 38.3098 23.4436C38.1723 23.6595 37.9559 23.8131 37.7068 23.8717C37.5869 23.9062 37.4614 23.9163 37.3375 23.9015C37.2137 23.8867 37.0941 23.8473 36.9857 23.7856C36.8773 23.7238 36.7824 23.6411 36.7065 23.5421C36.6306 23.4431 36.5753 23.3299 36.5438 23.2092C36.4916 22.9587 36.5393 22.6976 36.6768 22.4818C36.8143 22.2659 37.0307 22.1123 37.2799 22.0537C37.3997 22.0199 37.5251 22.0103 37.6487 22.0254C37.7723 22.0405 37.8917 22.08 37.9999 22.1416C38.1081 22.2032 38.203 22.2858 38.279 22.3844C38.3551 22.483 38.4107 22.5958 38.4428 22.7161Z" fill="#263238"/>
<path d="M38.8722 19.453C38.779 19.6002 37.9423 19.2077 36.9094 19.4236C35.8765 19.6395 35.2288 20.3044 35.0914 20.2013C35.0252 20.1572 35.0915 19.9069 35.381 19.6002C35.7637 19.1991 36.262 18.9273 36.8064 18.8225C37.3419 18.7114 37.8989 18.7742 38.3962 19.0016C38.7667 19.1807 38.9188 19.3843 38.8722 19.453Z" fill="#263238"/>
<path d="M29.4437 24.2569C29.4959 24.5074 29.4482 24.7685 29.3107 24.9843C29.1732 25.2002 28.9568 25.3538 28.7076 25.4124C28.5876 25.4465 28.462 25.4563 28.3381 25.4412C28.2143 25.4261 28.0947 25.3864 27.9864 25.3245C27.878 25.2626 27.7832 25.1796 27.7073 25.0806C27.6315 24.9815 27.5762 24.8683 27.5447 24.7475C27.4925 24.497 27.5402 24.2359 27.6777 24.0201C27.8152 23.8042 28.0316 23.6506 28.2807 23.592C28.4008 23.5579 28.5264 23.5481 28.6502 23.5632C28.7741 23.5783 28.8937 23.618 29.002 23.6799C29.1103 23.7418 29.2052 23.8248 29.281 23.9238C29.3569 24.0229 29.4122 24.1361 29.4437 24.2569Z" fill="#263238"/>
<path d="M28.9849 21.244C28.8916 21.3937 28.055 20.9987 27.0221 21.2146C25.9892 21.4305 25.3415 22.0978 25.2041 21.9923C25.1379 21.9482 25.2041 21.6979 25.4936 21.3913C25.8761 20.9911 26.3733 20.7194 26.9166 20.6135C27.453 20.5035 28.0104 20.5662 28.5089 20.7926C28.8769 20.9815 29.0315 21.1852 28.9849 21.244Z" fill="#263238"/>
<path d="M34.1567 27.8021C34.1395 27.7456 34.7602 27.5052 35.771 27.1593C36.0287 27.0783 36.2617 26.9777 36.2765 26.7888C36.2912 26.5999 36.1317 26.3227 35.9403 26.0528L34.7553 24.1882C33.0943 21.5532 31.8357 19.3647 31.9412 19.2985C32.0467 19.2322 33.482 21.3152 35.1307 23.96C35.5331 24.6142 35.9182 25.2366 36.2863 25.8271C36.4457 26.1043 36.6862 26.411 36.6322 26.833C36.6127 26.9334 36.5704 27.028 36.5088 27.1096C36.4471 27.1913 36.3677 27.2577 36.2765 27.304C36.139 27.374 35.993 27.426 35.8422 27.4586C34.8216 27.7236 34.1739 27.8683 34.1567 27.8021Z" fill="#263238"/>
<path d="M37.3462 39.8607C33.8384 40.6295 30.186 40.4086 26.7964 39.2228C26.7964 39.2228 30.3907 43.9849 37.7264 41.767L37.3462 39.8607Z" fill="#7F594B"/>
<path d="M28.423 18.4545C28.3543 18.7514 27.2944 18.7366 26.0849 19.0262C24.8753 19.3157 23.9234 19.7622 23.7296 19.5168C23.6437 19.404 23.786 19.1169 24.154 18.7955C24.6482 18.396 25.2272 18.1147 25.8467 17.9731C26.4663 17.8315 27.11 17.8334 27.7287 17.9785C28.1997 18.1184 28.4524 18.3147 28.423 18.4545Z" fill="#263238"/>
<path d="M38.2908 16.4353C38.1239 16.715 37.2358 16.6414 36.2225 16.8352C35.2093 17.029 34.3874 17.3725 34.142 17.1664C34.0316 17.0658 34.1175 16.8033 34.4462 16.5064C34.9038 16.1206 35.4575 15.8662 36.0483 15.7704C36.6307 15.6565 37.233 15.704 37.7903 15.9078C38.1975 16.0918 38.3693 16.3028 38.2908 16.4353Z" fill="#263238"/>
<path d="M20.0324 8.69964C20.1801 9.45186 20.4918 10.1623 20.9453 10.7803C21.3988 11.3984 21.9829 11.9089 22.6562 12.2755C23.3294 12.6421 24.0752 12.8558 24.8404 12.9014C25.6056 12.947 26.3715 12.8233 27.0835 12.5393C28.1827 12.1001 29.3186 11.2733 30.43 11.683C31.5978 12.1148 31.956 13.6727 33.038 14.2886C34.5861 15.1669 36.4728 13.6727 38.2393 13.8347C39.6083 13.9573 40.6633 15.0295 41.7305 15.898C42.7978 16.7665 44.2796 17.4927 45.4965 16.8499C45.1801 15.7066 44.8611 14.5486 44.2919 13.5059C43.7227 12.4632 42.8738 11.5309 41.7698 11.0917C41.1662 10.8464 40.5014 10.763 39.9248 10.4612C38.6785 9.81104 38.1289 8.3537 37.226 7.27174C36.6329 6.58383 35.8845 6.04702 35.0428 5.70572C34.201 5.36442 33.2901 5.22842 32.3854 5.30899C30.8863 5.45374 29.4584 6.19959 27.952 6.12598C26.8406 6.07201 25.7758 5.56906 24.662 5.58132C22.4907 5.6034 20.8493 7.49255 19.6324 9.29091" fill="#263238"/>
<path d="M27.3288 10.3312C26.3474 10.2527 24.2988 10.0294 23.6315 9.31792C22.1864 7.77225 20.02 6.95281 18.0745 7.45331C17.073 7.73818 16.1906 8.33944 15.5591 9.16726C14.9277 9.99508 14.581 11.005 14.571 12.0461C12.1936 12.5368 10.1719 14.4996 9.48253 16.98C9.15088 18.24 9.13079 19.5617 9.42401 20.8312C9.71723 22.1007 10.315 23.2798 11.1656 24.2667C11.5784 24.7914 11.9547 25.3439 12.2917 25.9203C11.8184 26.5003 11.4011 27.1238 11.0454 27.7825C9.44082 31.2761 13.7294 32.6452 13.7294 32.6452C13.7294 35.0005 15.8958 35.0054 17.2894 35.0054C18.6289 35.0054 19.4288 38.7272 20.5132 38.5898L19.4778 27.1127C19.6392 27.1743 19.8105 27.2059 19.9832 27.2059C22.6109 27.2697 21.946 22.299 21.1143 21.0085C21.8503 20.0272 22.6158 19.0163 23.104 17.8534C23.5922 16.6905 23.6413 13.7709 23.2389 12.5442C24.1565 12.4117 27.7557 10.368 27.3288 10.3312Z" fill="#263238"/>
<path d="M19.8655 27.7211C19.4656 26.1485 17.52 25.4345 16.3031 26.4944C15.6333 27.0832 15.2309 28.0793 15.6382 29.755C16.7275 34.2203 20.9867 32.2084 20.9646 32.076C20.9499 32.0073 20.3316 29.5661 19.8655 27.7211Z" fill="#B5836D"/>
<path d="M19.1858 30.729C19.1637 30.729 19.122 30.8026 19.0043 30.8958C18.8391 31.0194 18.6323 31.074 18.4277 31.048C17.9125 30.9915 17.3335 30.3389 17.1151 29.5391C17.0102 29.1587 16.9918 28.7597 17.0611 28.3713C17.0687 28.222 17.1127 28.077 17.1892 27.9487C17.2658 27.8204 17.3726 27.7127 17.5003 27.6352C17.5836 27.5894 17.6804 27.5743 17.7738 27.5927C17.8671 27.6111 17.9509 27.6618 18.0106 27.7358C18.1014 27.8462 18.0965 27.9419 18.121 27.9444C18.1456 27.9468 18.1995 27.8462 18.121 27.6696C18.0697 27.5621 17.9831 27.4755 17.8757 27.4242C17.8033 27.3943 17.7258 27.3788 17.6475 27.3788C17.5692 27.3788 17.4917 27.3943 17.4193 27.4242C17.0808 27.5322 16.8477 27.9149 16.7741 28.3148C16.6777 28.7477 16.6895 29.1977 16.8084 29.625C17.0538 30.518 17.7236 31.2491 18.413 31.2761C18.5411 31.2824 18.669 31.2596 18.7872 31.2095C18.9053 31.1593 19.0105 31.0832 19.095 30.9866C19.2054 30.8394 19.2054 30.7339 19.1858 30.729Z" fill="#7F594B"/>
<path d="M11.9802 19.1954C11.9021 19.1647 11.8287 19.1234 11.7618 19.0727C11.5622 18.9367 11.3713 18.7884 11.1902 18.6287C10.5115 18.0428 9.99173 17.2951 9.67884 16.4549C9.46854 15.8667 9.39308 15.2387 9.45803 14.6173C9.52485 13.8969 9.79832 13.211 10.2456 12.6423C10.4944 12.3266 10.8033 12.0634 11.1546 11.868C11.5058 11.6726 11.8923 11.5488 12.2917 11.5039C12.7225 11.4434 13.1614 11.4832 13.5742 11.6203C13.987 11.7573 14.3625 11.9878 14.6716 12.2939L14.4753 12.4288L14.4532 12.3822C13.6951 10.8292 13.4718 9.05537 13.9969 7.61521C14.5219 6.17504 15.6456 5.16177 16.7693 4.91643C17.2085 4.80592 17.6655 4.78481 18.1131 4.85435C18.5607 4.92389 18.9898 5.08267 19.3748 5.32125C19.5812 5.451 19.7679 5.60963 19.9293 5.79231C19.9871 5.8552 20.0366 5.9253 20.0765 6.00085C19.8513 5.77109 19.5992 5.56927 19.3257 5.39976C18.5616 4.9683 17.6587 4.85378 16.811 5.08081C15.7535 5.35314 14.6716 6.3198 14.2079 7.70108C13.7442 9.08236 13.9331 10.7801 14.6716 12.289L14.6937 12.3356L15.0101 13.0103L14.4974 12.4706C14.2133 12.1923 13.8692 11.9828 13.4915 11.8582C13.1139 11.7336 12.7127 11.6971 12.3187 11.7517C11.9488 11.7911 11.5904 11.9033 11.2641 12.0818C10.9377 12.2603 10.6499 12.5017 10.4173 12.792C9.9935 13.328 9.72909 13.9724 9.6543 14.6517C9.5856 15.2446 9.64929 15.8454 9.84076 16.4108C10.1318 17.2341 10.6165 17.9754 11.2539 18.5722C11.7005 18.9893 11.9949 19.1782 11.9802 19.1954Z" fill="#263238"/>
<path d="M31.3868 29.728C31.2548 30.2751 31.2322 30.843 31.3206 31.3988C31.3665 31.6763 31.4682 31.9416 31.6196 32.1786C31.771 32.4156 31.9689 32.6194 32.2014 32.7776C32.6919 33.0517 33.2691 33.1264 33.8133 32.9862H33.8304C34.1605 32.907 34.4557 32.7223 34.6713 32.4602C34.8869 32.1981 35.0112 31.8729 35.0253 31.5338L35.094 30.096C34.093 30.0102 32.3854 29.8114 31.3868 29.728Z" fill="#7F594B"/>
<path d="M34.9835 32.3777C34.9835 32.3949 34.8731 32.471 34.6744 32.6231C34.5507 32.7208 34.4213 32.8109 34.2867 32.8929C34.098 32.9943 33.8942 33.0647 33.6832 33.1015C33.4287 33.1515 33.1679 33.1614 32.9104 33.1309C32.6075 33.0991 32.3169 32.9938 32.0639 32.8243C31.7873 32.6151 31.5611 32.3465 31.4023 32.0381C31.2435 31.7298 31.156 31.3897 31.1463 31.0431C31.1224 30.5923 31.1629 30.1404 31.2666 29.701L31.2886 29.5931H31.3966C32.4663 29.7059 33.3912 29.8139 34.0488 29.8998C34.4025 29.924 34.7527 29.9849 35.0939 30.0813C34.7415 30.1089 34.3872 30.1006 34.0365 30.0568C33.3741 30.0126 32.4467 29.9366 31.377 29.8409L31.507 29.7427C31.4157 30.1607 31.3794 30.5887 31.399 31.0161C31.4077 31.3256 31.4837 31.6295 31.6219 31.9066C31.76 32.1837 31.9569 32.4274 32.1989 32.6206C32.6297 32.8979 33.1493 33.0022 33.6538 32.9126C33.8498 32.8905 34.0411 32.8375 34.2205 32.7556C34.3775 32.682 34.5075 32.5936 34.618 32.5298C34.7275 32.4535 34.8522 32.4016 34.9835 32.3777Z" fill="#263238"/>
<path d="M31.2543 27.8683C30.994 27.562 30.7021 27.284 30.3834 27.039C30.0306 26.7844 29.6398 26.5873 29.2253 26.4551C28.721 26.2882 28.1869 26.2306 27.6586 26.286C27.1302 26.3414 26.6197 26.5086 26.161 26.7765C25.7832 26.991 25.4427 27.2653 25.1526 27.5886C24.8923 27.8916 24.6638 28.2204 24.4706 28.57C24.4987 28.4642 24.539 28.3621 24.5908 28.2658C24.7226 28.0007 24.8875 27.7534 25.0815 27.5297C25.5744 26.9323 26.2372 26.4989 26.9821 26.2868C27.7269 26.0747 28.5187 26.0941 29.2523 26.3423C29.6759 26.4834 30.0731 26.694 30.4275 26.9654C30.6643 27.1479 30.8777 27.3589 31.063 27.5935C31.1386 27.6763 31.2029 27.7687 31.2543 27.8683Z" fill="#7F594B"/>
<path d="M31.3868 29.728C31.2548 30.2751 31.2322 30.843 31.3206 31.3988C31.3665 31.6763 31.4682 31.9416 31.6196 32.1786C31.771 32.4156 31.9689 32.6194 32.2014 32.7776C32.6919 33.0517 33.2691 33.1264 33.8133 32.9862H33.8304C34.1605 32.907 34.4557 32.7223 34.6713 32.4602C34.8869 32.1981 35.0112 31.8729 35.0253 31.5338L35.094 30.096C34.093 30.0102 32.3854 29.8114 31.3868 29.728Z" fill="#7F594B"/>
<path d="M34.9835 32.3777C34.9835 32.3949 34.8731 32.471 34.6744 32.6231C34.5507 32.7208 34.4213 32.8109 34.2867 32.8929C34.098 32.9943 33.8942 33.0647 33.6832 33.1015C33.4287 33.1515 33.1679 33.1614 32.9104 33.1309C32.6075 33.0991 32.3169 32.9938 32.0639 32.8243C31.7873 32.6151 31.5611 32.3465 31.4023 32.0381C31.2435 31.7298 31.156 31.3897 31.1463 31.0431C31.1224 30.5923 31.1629 30.1404 31.2666 29.701L31.2886 29.5931H31.3966C32.4663 29.7059 33.3912 29.8139 34.0488 29.8998C34.4025 29.924 34.7527 29.9849 35.0939 30.0813C34.7415 30.1089 34.3872 30.1006 34.0365 30.0568C33.3741 30.0126 32.4467 29.9366 31.377 29.8409L31.507 29.7427C31.4157 30.1607 31.3794 30.5887 31.399 31.0161C31.4077 31.3256 31.4837 31.6295 31.6219 31.9066C31.76 32.1837 31.9569 32.4274 32.1989 32.6206C32.6297 32.8979 33.1493 33.0022 33.6538 32.9126C33.8498 32.8905 34.0411 32.8375 34.2205 32.7556C34.3775 32.682 34.5075 32.5936 34.618 32.5298C34.7275 32.4535 34.8522 32.4016 34.9835 32.3777Z" fill="#263238"/>
<path d="M31.2543 27.8683C30.994 27.562 30.7021 27.284 30.3834 27.039C30.0306 26.7844 29.6398 26.5873 29.2253 26.4551C28.721 26.2882 28.1869 26.2306 27.6586 26.286C27.1302 26.3414 26.6197 26.5086 26.161 26.7765C25.7832 26.991 25.4427 27.2653 25.1526 27.5886C24.8923 27.8916 24.6638 28.2204 24.4706 28.57C24.4987 28.4642 24.539 28.3621 24.5908 28.2658C24.7226 28.0007 24.8875 27.7534 25.0815 27.5297C25.5744 26.9323 26.2372 26.4989 26.9821 26.2868C27.7269 26.0747 28.5187 26.0941 29.2523 26.3423C29.6759 26.4834 30.0731 26.694 30.4275 26.9654C30.6643 27.1479 30.8777 27.3589 31.063 27.5935C31.1386 27.6763 31.2029 27.7687 31.2543 27.8683Z" fill="#7F594B"/>
<path d="M16.9435 32.0539C16.7659 32.1596 16.6013 32.2856 16.4528 32.4292C16.076 32.8613 15.8398 33.3979 15.7756 33.9675C15.7143 34.356 15.7226 34.7523 15.8002 35.1378C15.8932 35.578 16.0976 35.9868 16.3939 36.3253C16.7281 36.6987 17.1496 36.9836 17.6206 37.1546C18.1165 37.352 18.6607 37.394 19.181 37.2748C19.7016 37.1583 20.1772 36.8933 20.55 36.5118C20.8971 36.1558 21.139 35.7109 21.2493 35.2262C21.3516 34.8174 21.3662 34.3916 21.2922 33.9768C21.2182 33.562 21.0572 33.1675 20.8199 32.8193C20.4869 32.3522 19.9918 32.0259 19.4313 31.9042C19.2246 31.87 19.0146 31.8601 18.8056 31.8748C18.8574 31.8583 18.9109 31.8476 18.9651 31.8429C19.1228 31.8256 19.2821 31.8298 19.4386 31.8551C20.022 31.9618 20.5425 32.2874 20.8935 32.7654C21.1452 33.1223 21.3173 33.5291 21.3981 33.9583C21.479 34.3875 21.4667 34.8291 21.3621 35.2531C21.2506 35.7594 21.0009 36.2247 20.6408 36.5976C20.2509 36.9981 19.7532 37.2768 19.208 37.3999C18.6637 37.5246 18.0942 37.4792 17.5765 37.2699C17.0907 37.0906 16.6578 36.7919 16.3178 36.4014C16.0112 36.047 15.8016 35.6193 15.7094 35.1599C15.6359 34.7617 15.6359 34.3535 15.7094 33.9553C15.7822 33.37 16.0401 32.8233 16.4454 32.3949C16.5606 32.2854 16.6902 32.1921 16.8306 32.1177C16.8663 32.0931 16.9041 32.0718 16.9435 32.0539Z" fill="#449EEE"/>
<path d="M21.6197 43.6243L14.7157 46.1955L9.98303 60.1923L16.7643 83.6594L12.7726 96.5645H54.0099L50.2365 85.2787C50.8376 81.1078 53.4996 71.4536 53.1365 66.9687C52.3465 57.258 48.5069 43.5335 48.5069 43.5335L37.908 43.0109C35.4644 49.2476 24.5613 49.7235 21.6197 43.6243Z" fill="#449EEE"/>
<g opacity="0.3">
<path d="M35.6705 46.8186C35.6705 46.8186 35.7245 46.9315 35.8226 47.1253C36.2962 48.0601 37.7731 50.8742 38.8821 51.7525C40.2217 52.8148 41.8409 54.2059 41.8409 54.2059C43.4185 64.4343 46.5294 73.2814 50.8254 81.0637L48.0726 66.8166L43.4577 49.8486L35.7245 46.9315" fill="black"/>
</g>
<path d="M48.3375 43.5703C48.3375 43.5703 51.1075 42.9717 54.7533 47.6037C57.9427 51.6544 61.9369 58.0676 61.9369 58.0676L52.3293 62.1722L48.3817 44.9982L48.3375 43.5703Z" fill="#449EEE"/>
<path d="M0 67.9697C0 67.9697 3.30477 52.1254 6.56048 49.6254C9.87998 47.0763 16.7643 45.5331 16.7643 45.5331L16.4405 71.9418L0 67.9697Z" fill="#449EEE"/>
<path d="M13.5601 56.8704C13.583 56.9155 13.6003 56.9633 13.6116 57.0127C13.641 57.1059 13.6778 57.2457 13.7269 57.4273C13.8201 57.7904 13.9452 58.3154 14.0753 58.973C14.41 60.6825 14.6443 62.4103 14.777 64.1472C14.9157 65.8848 14.9485 67.6291 14.8751 69.3706C14.8579 70.0379 14.8064 70.5777 14.777 70.9506C14.7622 71.1248 14.75 71.2671 14.7377 71.3775C14.7365 71.4281 14.7291 71.4784 14.7156 71.5272C14.7113 71.4774 14.7113 71.4273 14.7156 71.3775C14.7156 71.2647 14.7156 71.1322 14.7303 70.9457C14.7451 70.5728 14.7819 70.0355 14.7892 69.3682C14.8345 67.6299 14.7886 65.8905 14.6518 64.1571C14.5197 62.4245 14.2986 60.7 13.9894 58.9901C13.8716 58.3326 13.7588 57.8051 13.6803 57.4396C13.6435 57.2678 13.6116 57.128 13.587 57.02C13.5724 56.9713 13.5634 56.9211 13.5601 56.8704Z" fill="#263238"/>
<path d="M13.6435 58.6589C13.523 58.587 13.4089 58.5049 13.3025 58.4136C13.089 58.2516 12.775 58.0235 12.3824 57.7511C11.3587 57.0401 10.2845 56.4047 9.16841 55.8497C8.04948 55.3 6.8916 54.8334 5.70416 54.4537C5.25028 54.309 4.87736 54.2084 4.61975 54.1274C4.48451 54.095 4.3517 54.0532 4.22229 54.0023C4.36073 54.0163 4.49777 54.0417 4.63201 54.0783C4.89453 54.1348 5.26991 54.2329 5.73115 54.3679C6.93231 54.7236 8.10107 55.1808 9.22484 55.7344C10.3479 56.2911 11.4222 56.9411 12.4364 57.6775C12.8216 57.9621 13.1283 58.2001 13.3319 58.3768C13.4433 58.4621 13.5475 58.5565 13.6435 58.6589Z" fill="white"/>
<path d="M38.0209 49.7824C38.0016 49.7888 37.982 49.7937 37.962 49.7971L37.7829 49.829L37.0959 49.9419L34.5664 50.3467C32.4295 50.6901 29.4829 51.1857 26.237 51.7893C22.9911 52.3928 20.0642 52.989 17.9469 53.4355L15.4394 53.9655L14.7574 54.1078L14.5807 54.1421H14.5194C14.5194 54.1421 14.539 54.1421 14.5783 54.12L14.7525 54.0759L15.4296 53.9091C16.0185 53.7692 16.8723 53.5729 17.9272 53.3399C20.0396 52.8713 22.9666 52.2603 26.2149 51.6568C29.4633 51.0533 32.4123 50.5724 34.5566 50.251C35.6263 50.0891 36.4924 49.9639 37.0935 49.8854L37.7853 49.7971L37.9644 49.7775C37.9834 49.7758 38.0025 49.7775 38.0209 49.7824Z" fill="white"/>
<path d="M54.5153 47.7411C54.5423 47.7632 53.8063 48.6391 52.874 49.7039C51.9417 50.7687 51.1566 51.5955 51.137 51.5734C51.6509 50.8921 52.1987 50.237 52.7783 49.6107C53.3253 48.9585 53.9051 48.3345 54.5153 47.7411Z" fill="white"/>
<path d="M39.2377 54.6377C39.2377 54.6377 37.6332 55.4449 37.4786 57.3095C37.324 59.1741 37.4786 63.9534 37.4786 63.9534L40.2461 63.6001L39.2377 54.6377Z" fill="#7F594B"/>
<path d="M39.0022 59.2723C38.9409 58.2394 38.7569 57.1844 38.249 56.2889C37.8169 55.5912 37.2477 54.9886 36.5757 54.5175C35.8246 53.9453 34.9851 53.4994 34.0904 53.1976C32.8563 52.7922 31.5373 52.7184 30.2656 52.9836C28.994 53.2488 27.8144 53.8437 26.8452 54.7085C25.876 55.5734 25.1511 56.6778 24.7434 57.9112C24.3356 59.1445 24.2593 60.4634 24.522 61.7355L24.5049 61.6644C24.5049 61.7184 24.5269 61.7699 24.5367 61.8239C24.5466 61.8778 24.549 61.8827 24.5564 61.9122C24.9293 63.6517 25.4838 65.0673 26.8552 66.2425C27.7581 67.0153 28.9382 67.376 30.1036 67.6041C31.8921 67.9574 33.8328 68.0237 35.457 67.1944C36.8167 66.4535 37.8624 65.2457 38.4011 63.794C38.9265 62.348 39.1316 60.8053 39.0022 59.2723Z" fill="#FFBE8D"/>
<path d="M38.8599 58.1854C38.9777 59.1422 38.4159 60.0574 38.065 60.9578C37.8393 61.5392 37.5743 62.1649 37.0321 62.474C36.6347 62.6997 36.1342 62.7193 35.7686 62.9966C35.4644 63.2198 35.2926 63.5879 34.9835 63.8062C34.2475 64.3239 33.168 63.7768 32.3657 64.1767C32.1313 64.3211 31.9097 64.4853 31.7033 64.6674C31.5984 64.7556 31.4757 64.8199 31.3435 64.8559C31.2113 64.8919 31.0729 64.8987 30.9378 64.8759C30.6238 64.7925 30.4471 64.4686 30.1601 64.3018C29.8092 64.0908 29.37 64.1472 28.9628 64.1374C28.3077 64.1106 27.6739 63.8976 27.1355 63.5235C26.5972 63.1494 26.1766 62.6296 25.923 62.025C25.923 62.025 25.2679 62.8347 24.9416 62.5157C24.7234 62.2821 24.5703 61.9953 24.4975 61.684L24.5147 61.7551C24.252 60.483 24.3283 59.1641 24.7361 57.9308C25.1438 56.6975 25.8686 55.593 26.8379 54.7281C27.8071 53.8633 28.9867 53.2684 30.2583 53.0032C31.53 52.7381 32.849 52.8118 34.0831 53.2172C34.9778 53.5191 35.8173 53.9649 36.5684 54.5371C37.2404 55.0082 37.8096 55.6109 38.2417 56.3085C38.5669 56.8884 38.7769 57.5257 38.8599 58.1854Z" fill="#FF725E"/>
<g opacity="0.3">
<path d="M37.5179 56.9979C37.4488 56.7398 37.3277 56.4986 37.1621 56.2889C36.2809 55.0647 35.0213 54.1646 33.5777 53.7275C32.1473 53.2982 30.7219 53.5263 29.3259 54.0612C29.1617 54.105 29.0213 54.2117 28.935 54.3581C28.8488 54.5045 28.8235 54.6789 28.8646 54.8438C28.9147 55.0064 29.0061 55.1531 29.13 55.2697C29.2539 55.3862 29.4059 55.4686 29.5712 55.5087C29.9035 55.5861 30.2497 55.581 30.5796 55.494C30.9132 55.4253 31.2396 55.3247 31.5757 55.2879C32.3857 55.2405 33.1888 55.4622 33.8598 55.9184C34.5226 56.3738 35.1522 56.8756 35.7441 57.4199C35.9613 57.6273 36.2172 57.7899 36.4973 57.8983C36.6386 57.9499 36.7911 57.9628 36.9391 57.9356C37.087 57.9084 37.225 57.8422 37.3388 57.7438C37.427 57.6434 37.4895 57.523 37.5207 57.393C37.5519 57.2631 37.5509 57.1275 37.5179 56.9979Z" fill="white"/>
</g>
<g opacity="0.3">
<path d="M32.3853 60.2905C31.7327 60.1114 31.0654 60.4524 30.4569 60.7468C29.8485 61.0412 29.1076 61.2939 28.5212 60.9529C27.9912 60.6462 27.6919 59.9028 27.0786 59.8807C26.8817 59.8896 26.6932 59.9632 26.5424 60.09C26.3916 60.2169 26.2868 60.39 26.2444 60.5824C26.1711 60.9734 26.2417 61.3778 26.4431 61.7208C26.7433 62.2738 27.2079 62.7199 27.7728 62.9973C28.3376 63.2746 28.9746 63.3696 29.5958 63.2689C30.1797 63.161 30.7268 62.8813 31.3132 62.8224C31.8382 62.7733 32.4467 62.8788 32.8294 62.5157C33.1361 62.2262 33.428 62.0005 33.5654 61.3921C33.6636 60.9284 33.4477 60.499 32.3853 60.2905Z" fill="white"/>
</g>
<g opacity="0.3">
<path d="M35.6484 60.3567C35.5552 60.0206 35.1111 59.8513 34.7627 59.8807H34.7406C34.6403 59.9116 34.5483 59.9645 34.4711 60.0356C34.394 60.1067 34.3338 60.1942 34.295 60.2916C34.2561 60.3891 34.2396 60.494 34.2467 60.5987C34.2538 60.7033 34.2842 60.8051 34.3358 60.8964C34.4225 61.0478 34.5601 61.1634 34.7241 61.2227C34.8881 61.282 35.0679 61.2812 35.2313 61.2203C35.39 61.1469 35.5183 61.0206 35.5944 60.8631C35.6705 60.7057 35.6895 60.5267 35.6484 60.3567Z" fill="white"/>
</g>
<g opacity="0.3">
<path d="M29.7259 59.9445C30.2901 59.5996 30.9306 59.3988 31.5908 59.3599C32.251 59.321 32.9106 59.4451 33.5115 59.7213C33.9897 59.2262 34.6093 58.8911 35.2853 58.762C35.0044 58.2249 34.603 57.7602 34.1125 57.4042C33.622 57.0482 33.0557 56.8107 32.458 56.7101C31.8603 56.6096 31.2474 56.6488 30.6674 56.8248C30.0875 57.0007 29.5561 57.3085 29.115 57.7242C28.7371 58.0848 28.4157 58.6172 28.5997 59.1054C28.7568 59.525 29.218 59.7335 29.6351 59.8979" fill="black"/>
</g>
<path d="M36.3893 58.8257C36.0901 58.7774 35.7867 58.7602 35.484 58.7742C35.1536 58.808 34.8328 58.9055 34.5394 59.0613C34.1729 59.2617 33.8226 59.4905 33.4918 59.7458L33.4624 59.7629L33.428 59.7507C33.2568 59.6876 33.0823 59.6335 32.9054 59.5888C32.4393 59.4706 31.9565 59.4324 31.4775 59.4759C31.086 59.5142 30.701 59.6025 30.3318 59.7384C29.6988 59.9838 29.3504 60.2119 29.3357 60.1898C29.4112 60.1241 29.4935 60.0666 29.581 60.0181C29.8164 59.8771 30.0625 59.7549 30.3171 59.6525C30.6905 59.5025 31.0825 59.4035 31.4824 59.3581C31.9755 59.3069 32.4738 59.3426 32.9545 59.4636C33.1372 59.5109 33.3173 59.5674 33.4943 59.6329H33.4329C33.7711 59.3755 34.1306 59.1473 34.5075 58.9509C34.8135 58.7965 35.1471 58.7048 35.4889 58.681C35.7162 58.6697 35.9441 58.6895 36.1661 58.7399C36.2438 58.759 36.3188 58.7879 36.3893 58.8257Z" fill="#263238"/>
<path d="M35.2681 58.6442C35.0273 58.2902 34.7448 57.9665 34.4266 57.68C34.075 57.379 33.6741 57.1408 33.2416 56.9759C32.7139 56.7759 32.1475 56.6987 31.5855 56.7501C31.0226 56.8036 30.4774 56.9759 29.9859 57.2556C29.5853 57.485 29.2295 57.7851 28.9358 58.1412C28.7347 58.3795 28.5852 58.6569 28.4966 58.9558C28.4378 59.1692 28.4402 59.2944 28.4279 59.2944C28.4226 59.2643 28.4226 59.2336 28.4279 59.2036C28.4309 59.1163 28.4407 59.0293 28.4574 58.9435C28.5309 58.6306 28.6734 58.3381 28.8745 58.0873C29.1653 57.7111 29.526 57.3945 29.9368 57.155C30.4396 56.8584 31.0018 56.6766 31.5831 56.6226C32.1668 56.5689 32.7551 56.6529 33.3005 56.8679C33.7416 57.0386 34.1482 57.288 34.5002 57.6039C34.7372 57.817 34.9451 58.0603 35.1185 58.3277C35.1657 58.4002 35.2083 58.4756 35.246 58.5534C35.258 58.5824 35.2654 58.613 35.2681 58.6442Z" fill="#263238"/>
<path d="M25.7856 61.3822C25.7604 61.2825 25.7448 61.1806 25.739 61.078C25.7087 60.8002 25.6948 60.5208 25.6973 60.2414C25.6988 59.8252 25.7283 59.4096 25.7856 58.9975C25.9279 57.9843 26.231 57.0003 26.6836 56.0828C26.8685 55.7101 27.0783 55.3502 27.3117 55.0057C27.4667 54.7734 27.6355 54.5506 27.8171 54.3384C27.8783 54.2559 27.9491 54.1809 28.0281 54.1151C28.0477 54.1299 27.7656 54.4635 27.3877 55.0573C27.1669 55.4036 26.9677 55.7633 26.7915 56.1343C26.5761 56.5888 26.3925 57.0577 26.242 57.5377C26.0956 58.02 25.9824 58.5119 25.9034 59.0097C25.8407 59.416 25.8022 59.8256 25.7881 60.2365C25.766 60.9455 25.8102 61.3798 25.7856 61.3822Z" fill="white"/>
<path d="M27.7287 63.6713C27.674 63.5379 27.6313 63.4 27.6011 63.2591C27.5533 63.0979 27.5148 62.934 27.4858 62.7684C27.4515 62.5746 27.3999 62.3538 27.3754 62.106C27.3366 61.8376 27.312 61.5673 27.3018 61.2963C27.2773 61.0044 27.2871 60.6904 27.3018 60.3616C27.3306 59.6465 27.4233 58.9354 27.579 58.2369C27.7443 57.5413 27.9726 56.8622 28.2611 56.2079C28.4034 55.9111 28.531 55.624 28.6831 55.3738C28.8113 55.1342 28.9522 54.9016 29.1051 54.677C29.2351 54.4635 29.3774 54.2893 29.4952 54.1299C29.5942 53.9933 29.7007 53.8622 29.8141 53.7373C29.9034 53.6239 30.0028 53.5188 30.111 53.4233C30.0366 53.5436 29.9546 53.6592 29.8656 53.7692C29.7773 53.8772 29.6743 54.0146 29.5639 54.174C29.4535 54.3335 29.3185 54.5126 29.1934 54.7261C29.0683 54.9395 28.9186 55.1652 28.7861 55.4228C28.6537 55.6804 28.5187 55.9601 28.3813 56.2545C27.8139 57.5549 27.492 58.949 27.4318 60.3665C27.4318 60.6903 27.4122 61.0019 27.4318 61.2914C27.4515 61.5809 27.4637 61.8508 27.4907 62.0962C27.5177 62.3415 27.5521 62.5623 27.5815 62.7561C27.6109 62.95 27.6428 63.1168 27.6747 63.2468C27.7031 63.3868 27.7211 63.5287 27.7287 63.6713Z" fill="white"/>
<path d="M30.4446 64.3901C30.3264 64.2045 30.2355 64.0029 30.1747 63.7915C30.0006 63.2906 29.891 62.7695 29.8484 62.2409C29.8039 61.7126 29.8278 61.1807 29.9196 60.6584C29.9449 60.4403 30.0019 60.2271 30.0888 60.0255C30.074 60.2419 30.047 60.4573 30.0079 60.6707C29.9456 61.1885 29.9349 61.7112 29.976 62.2311C30.0192 62.7505 30.1146 63.2642 30.2606 63.7645C30.3333 63.9695 30.3947 64.1784 30.4446 64.3901Z" fill="white"/>
<path d="M31.3696 55.9798C31.3832 55.4669 31.5 54.9621 31.7131 54.4954C31.8871 54.0135 32.1548 53.5707 32.5007 53.1927C32.5326 53.2147 32.1425 53.7717 31.8309 54.5445C31.5193 55.3173 31.4064 55.9871 31.3696 55.9798Z" fill="white"/>
<path d="M33.9653 56.8704C33.896 56.4094 33.9228 55.9392 34.0438 55.4891C34.1242 55.029 34.2969 54.59 34.5517 54.1986C34.5885 54.2158 34.3284 54.7776 34.1689 55.5161C34.0095 56.2546 34.0045 56.8704 33.9653 56.8704Z" fill="white"/>
<path d="M33.644 63.762C33.5421 63.6395 33.4594 63.5022 33.3987 63.3548C33.0494 62.6611 32.8339 61.9079 32.7632 61.1344C32.7358 60.9761 32.7358 60.8143 32.7632 60.656C32.8025 60.656 32.8466 61.392 33.0969 62.2409C33.3471 63.0898 33.6808 63.7424 33.644 63.762Z" fill="white"/>
<path d="M36.9782 56.1319C36.9565 56.241 36.9245 56.3478 36.8825 56.4508C36.8042 56.7401 36.7509 57.0356 36.723 57.334C36.6875 57.778 36.6768 58.2236 36.6911 58.6687C36.7153 59.2192 36.7047 59.7707 36.6592 60.3199C36.6325 60.6057 36.5783 60.8884 36.4973 61.1639C36.4597 61.2984 36.4113 61.4296 36.3526 61.5564C36.3185 61.6215 36.2728 61.6797 36.2176 61.7281C36.1867 61.7535 36.1511 61.7725 36.1127 61.7839C36.0744 61.7952 36.0341 61.7988 35.9944 61.7944C35.8594 61.7576 35.7441 61.6696 35.673 61.549C35.5969 61.4534 35.5282 61.3577 35.462 61.2644C35.3436 61.0906 35.2363 60.9095 35.1406 60.7222C35.0031 60.4503 34.8938 60.165 34.8143 59.8709C34.7795 59.7653 34.7589 59.6556 34.7529 59.5446C34.8795 59.9348 35.0362 60.3146 35.2215 60.6805C35.3202 60.8621 35.43 61.0375 35.5503 61.2056C35.6141 61.2939 35.6828 61.3871 35.7588 61.4779C35.8349 61.5687 35.9134 61.6619 36.0042 61.6742C36.095 61.6864 36.1857 61.6006 36.2495 61.4926C36.3033 61.3736 36.3476 61.2506 36.382 61.1246C36.4596 60.8553 36.5113 60.5793 36.5366 60.3002C36.5815 59.7568 36.5954 59.2113 36.5783 58.6663C36.5693 58.2165 36.589 57.7666 36.6372 57.3193C36.674 57.017 36.7422 56.7193 36.8408 56.4312C36.876 56.3269 36.922 56.2265 36.9782 56.1319Z" fill="white"/>
<path d="M40.9453 60.3591L40.0057 58.0063C40.0057 58.0063 39.1004 58.4602 39.1494 60.0696C39.1985 61.6791 38.9041 62.182 38.9041 62.182C38.9041 62.182 37.9473 61.9808 37.697 63.6418C37.4468 65.3028 35.7858 67.0128 35.7858 67.0128L30.8029 67.3686C30.8029 67.3686 27.9299 66.348 26.7719 65.3936C25.6138 64.4392 25.9671 63.1855 25.7169 60.8645C25.4666 58.5436 23.9995 59.6575 23.9995 59.6575C23.9995 59.6575 24.2448 61.7208 23.5947 63.5829C22.9445 65.4451 22.3876 67.1036 22.3876 67.3048L27.2184 71.9344C27.4766 71.3783 27.8883 70.9075 28.4052 70.5776C28.922 70.2477 29.5224 70.0723 30.1355 70.0723C30.1355 70.0723 37.0787 70.1238 37.8344 69.5693C38.5901 69.0148 38.8918 67.7587 38.8918 67.7587C38.8918 67.7587 40.5479 65.3494 40.9993 64.6134C41.5857 63.6713 40.9453 60.3591 40.9453 60.3591Z" fill="#B5836D"/>
<path d="M38.6538 62.3219C38.6538 62.3219 38.6685 62.3047 38.7053 62.2802C38.7634 62.2511 38.8269 62.2344 38.8918 62.2311C39.0116 62.2311 39.1297 62.2595 39.2363 62.3141C39.343 62.3687 39.4351 62.4479 39.5052 62.5451C39.685 62.8485 39.7519 63.2056 39.6941 63.5535C39.6622 63.9338 39.6205 64.3484 39.5714 64.7802C39.4934 65.5242 39.3647 66.2619 39.1862 66.9883C39.1151 67.268 39.0439 67.4913 38.9899 67.6434C38.9665 67.7239 38.9336 67.8013 38.8918 67.874C38.8722 67.874 38.9777 67.5281 39.0979 66.9662C39.2503 66.2365 39.3657 65.4995 39.4438 64.7581C39.4904 64.3239 39.537 63.9093 39.5763 63.5314C39.6358 63.2093 39.5848 62.8764 39.4315 62.5869C39.3715 62.4964 39.2918 62.4207 39.1983 62.3654C39.1048 62.3102 39 62.2769 38.8918 62.2679C38.8105 62.2756 38.7305 62.2937 38.6538 62.3219Z" fill="#7F594B"/>
<path d="M46.7723 31.438C47.2196 31.6325 47.6145 31.9302 47.9245 32.3068C48.2346 32.6834 48.4509 33.1281 48.5559 33.6044C48.9509 35.258 48.2517 36.3817 47.4617 37.1226C46.7256 37.8194 43.2908 41.1046 40.6068 41.4186C37.9227 41.7326 36.2397 41.9903 34.4732 40.7022C32.9005 39.554 33.0428 37.1398 34.4732 35.8763C35.9035 34.6128 39.2132 32.6868 40.8987 31.7398C42.5842 30.7928 45.2389 30.361 46.7723 31.438Z" fill="#FFBE8D"/>
<path d="M47.2016 32.5298C47.1452 32.8141 47.0178 33.0795 46.8311 33.3013C46.6445 33.5231 46.4048 33.6941 46.1343 33.7983C45.5676 34.0043 44.9076 34.1589 44.6059 34.6864C44.4194 35.0201 44.385 35.4985 44.0318 35.6481C43.7447 35.7708 43.3914 35.5942 43.1068 35.7217C42.4885 36.0039 43.0087 37.1668 42.4419 37.5422C42.123 37.7507 41.7059 37.5422 41.3943 37.3189C41.0827 37.0957 40.7196 36.8282 40.359 36.9583C39.7922 37.1521 39.8388 38.0648 39.3187 38.3641C39.0169 38.5407 38.6293 38.4377 38.3177 38.2782C38.0257 38.084 37.7043 37.9382 37.3658 37.8464C36.9505 37.8194 36.5368 37.9205 36.1808 38.1359C35.8263 38.3529 35.4268 38.4856 35.0129 38.5236C34.5983 38.5236 33.7592 38.2782 33.7421 37.8734C33.7421 37.8734 33.1262 37.1742 34.4511 35.8665C35.4644 34.868 38.8992 32.8022 38.8992 32.8022C38.8992 32.8022 42.1745 30.4321 45.0745 30.7953C45.0843 30.8124 47.5819 31.021 47.2016 32.5298Z" fill="#FF725E"/>
<path d="M43.6907 33.1726C43.6907 33.1923 43.3497 33.337 42.8345 33.6633C42.3193 33.9896 41.647 34.4901 40.8717 35.0201C40.221 35.49 39.4915 35.8398 38.7176 36.053C38.4813 36.1106 38.2395 36.1427 37.9963 36.1487C37.9068 36.1564 37.8167 36.1506 37.7289 36.1315C38.0538 36.0985 38.376 36.0428 38.6931 35.9646C39.4479 35.7313 40.1597 35.3766 40.8006 34.9146C41.5661 34.3895 42.2457 33.8817 42.783 33.5848C42.9929 33.4645 43.21 33.3571 43.4331 33.2634C43.5138 33.2202 43.6007 33.1895 43.6907 33.1726Z" fill="#263238"/>
<g opacity="0.3">
<path d="M43.6858 32.2379C43.5221 32.2011 43.351 32.2148 43.1951 32.2771C42.02 32.628 41.0803 33.4891 40.1357 34.2718C39.1911 35.0544 38.1264 35.815 36.9045 35.8935C37.4216 36.1402 38.0098 36.1941 38.5631 36.0456C40.7025 35.4053 41.9463 33.8375 43.6809 33.1726C43.7754 33.1239 43.8556 33.0515 43.9137 32.9625C43.9717 32.8735 44.0057 32.7709 44.0121 32.6648C43.9991 32.5716 43.9622 32.4833 43.905 32.4085C43.8478 32.3337 43.7724 32.2749 43.6858 32.2379Z" fill="black"/>
</g>
<path d="M35.089 38.239C34.9722 38.2976 34.8384 38.3132 34.7112 38.2831C34.5536 38.2637 34.4023 38.2093 34.2684 38.1239C34.1346 38.0385 34.0215 37.9242 33.9375 37.7894C33.8536 37.6546 33.8008 37.5027 33.7831 37.3449C33.7654 37.1871 33.7833 37.0273 33.8353 36.8773C33.9163 36.6467 34.034 36.5461 34.0414 36.5559C34.0488 36.5657 33.9752 36.686 33.9236 36.9019C33.887 37.0396 33.8791 37.1834 33.9002 37.3243C33.9214 37.4653 33.9712 37.6004 34.0466 37.7213C34.122 37.8423 34.2214 37.9465 34.3387 38.0275C34.4559 38.1085 34.5886 38.1646 34.7284 38.1924C34.9344 38.2439 35.0866 38.2169 35.089 38.239Z" fill="white"/>
<path d="M38.8281 38.0574C38.633 38.0861 38.4338 38.0553 38.2564 37.9691C37.9522 37.8636 37.7387 37.7066 37.7657 37.6772C37.9535 37.7093 38.1359 37.767 38.3079 37.8489C38.4901 37.8942 38.6651 37.9644 38.8281 38.0574Z" fill="white"/>
<path d="M40.2756 35.6064C40.1554 35.7166 40.0167 35.8046 39.8659 35.8665C39.5153 36.039 39.1443 36.1668 38.7618 36.2468C38.3777 36.3246 37.9854 36.3542 37.594 36.3351C37.4322 36.3368 37.2713 36.3111 37.118 36.2591C37.6597 36.2538 38.2001 36.2079 38.7349 36.1217C39.2609 35.9896 39.776 35.8173 40.2756 35.6064Z" fill="white"/>
<path d="M41.9905 37.1153C41.9905 37.1472 41.7624 37.1865 41.4998 37.0687C41.2373 36.9509 41.122 36.7522 41.1515 36.7326C41.1809 36.7129 41.3281 36.8528 41.5538 36.9534C41.7795 37.054 41.9881 37.0785 41.9905 37.1153Z" fill="white"/>
<path d="M43.8895 35.1673C43.8895 35.2041 43.7963 35.236 43.676 35.2409C43.5558 35.2458 43.4601 35.2188 43.4577 35.1845C43.4552 35.1501 43.5534 35.1158 43.6711 35.1109C43.7889 35.106 43.887 35.1329 43.8895 35.1673Z" fill="white"/>
<path d="M46.598 32.8856C46.6128 32.8856 46.598 33.0083 46.4975 33.1702C46.3591 33.3752 46.1685 33.5395 45.9454 33.6462C45.7269 33.7486 45.4947 33.8189 45.256 33.8547C45.0745 33.8841 44.9616 33.889 44.9567 33.8719C44.9518 33.8547 45.0622 33.8179 45.2339 33.7664C45.4589 33.7034 45.678 33.6213 45.889 33.521C46.0936 33.4217 46.2757 33.2814 46.4238 33.1089C46.5343 32.9837 46.5784 32.8782 46.598 32.8856Z" fill="white"/>
<g opacity="0.2">
<path d="M40.359 32.1373C40.2682 32.1962 40.1774 32.2575 40.0891 32.3213L40.359 32.1373Z" fill="white"/>
<path d="M45.8523 31.2001C45.5843 31.0242 45.2698 30.9328 44.9494 30.9376C43.3308 30.8414 41.7235 31.2615 40.359 32.1373C40.1741 32.2474 40.0131 32.3934 39.8855 32.5666C39.8234 32.6565 39.7969 32.7661 39.8109 32.8744C39.825 32.9827 39.8786 33.082 39.9616 33.153C40.1578 33.2904 40.4253 33.1923 40.6387 33.0868C41.3453 32.7286 42.0151 32.282 42.7658 32.0293C43.5166 31.7766 44.3974 31.7447 45.0573 32.1839C45.2683 32.3262 45.4818 32.52 45.7345 32.493C45.8742 32.4599 45.9971 32.3773 46.0806 32.2604C46.1641 32.1436 46.2023 32.0005 46.1884 31.8576C46.1816 31.7306 46.1481 31.6064 46.0902 31.4931C46.0323 31.3798 45.9512 31.28 45.8523 31.2001Z" fill="white"/>
</g>
<g opacity="0.2">
<path d="M39.0562 36.8135C39.0109 36.7891 38.9604 36.7757 38.909 36.7743L36.9585 36.551C36.3549 36.4799 35.7318 36.4136 35.1479 36.5952C35.0005 36.6109 34.8629 36.6763 34.7577 36.7807C34.6524 36.885 34.5858 37.0221 34.5688 37.1693C34.5746 37.3031 34.6325 37.4294 34.7302 37.5211C34.8278 37.6128 34.9575 37.6627 35.0914 37.66C35.3312 37.603 35.5509 37.4817 35.7269 37.3091C36.1357 37.0164 36.6437 36.8974 37.14 36.9779C37.6994 37.0687 38.2367 37.4122 38.7937 37.3042C38.9114 37.2896 39.0193 37.2309 39.0954 37.1398C39.1152 37.1162 39.1299 37.0888 39.1386 37.0593C39.1473 37.0298 39.15 36.9988 39.1463 36.9682C39.1426 36.9376 39.1327 36.9082 39.1172 36.8816C39.1017 36.855 39.081 36.8318 39.0562 36.8135Z" fill="white"/>
</g>
<path d="M48.291 34.7379C48.264 34.6742 48.2204 34.619 48.1647 34.578C48.109 34.537 48.0433 34.5117 47.9745 34.5049C47.7095 34.5637 47.7561 34.8753 47.8272 35.0127C47.8447 35.042 47.8677 35.0676 47.8951 35.0879C47.9224 35.1083 47.9536 35.123 47.9867 35.1312C48.0198 35.1394 48.0542 35.141 48.0879 35.1358C48.1216 35.1306 48.1539 35.1188 48.183 35.101C48.2391 35.0613 48.2802 35.004 48.2997 34.9381C48.3193 34.8723 48.3162 34.8018 48.291 34.7379Z" fill="#EB996E"/>
<path d="M44.8807 37.5986C44.8655 37.562 44.8405 37.5303 44.8085 37.5069C44.7765 37.4835 44.7386 37.4694 44.6991 37.4662C44.547 37.4981 44.574 37.6772 44.6133 37.7581C44.6235 37.7749 44.6371 37.7895 44.653 37.801C44.6689 37.8125 44.687 37.8208 44.7061 37.8254C44.7253 37.8299 44.7451 37.8307 44.7645 37.8276C44.784 37.8244 44.8026 37.8175 44.8193 37.8072C44.8517 37.7845 44.8754 37.7515 44.8865 37.7137C44.8977 37.6758 44.8956 37.6352 44.8807 37.5986Z" fill="#EB996E"/>
<path d="M47.1428 34.5147C47.125 34.4794 47.099 34.4489 47.067 34.4259C47.035 34.4028 46.9978 34.3878 46.9588 34.3822C46.8067 34.4165 46.8337 34.5956 46.8754 34.6741C46.8852 34.691 46.8983 34.7058 46.914 34.7175C46.9296 34.7293 46.9474 34.7378 46.9664 34.7426C46.9853 34.7474 47.005 34.7484 47.0244 34.7455C47.0437 34.7426 47.0623 34.7358 47.079 34.7257C47.111 34.7021 47.1345 34.6688 47.146 34.6308C47.1575 34.5927 47.1564 34.552 47.1428 34.5147Z" fill="#EB996E"/>
<path d="M42.1377 52.6112C42.1377 52.6112 49.6035 77.256 50.0672 78.6544C50.5309 80.0529 53.502 88.3062 59.7116 86.4195C66.726 84.2924 61.4855 70.1655 61.4855 70.1655L58.5414 59.4661L53.8259 61.0069L50.023 49.2476L42.1377 52.6112Z" fill="#B5836D"/>
<path d="M34.1985 40.7807C34.1985 40.7807 35.2289 46.1194 35.8227 46.9266C36.4164 47.7338 39.65 50.9723 39.65 50.9723L43.156 53.2908L50.0575 49.353L48.8185 43.8549L47.2777 37.3557L45.5015 38.7297L45.6904 40.7268C45.6904 40.7268 43.0971 36.4112 42.128 37.3557C41.1589 38.3003 42.8861 40.241 43.4259 41.8578C43.9656 43.4746 43.5338 44.3382 43.5338 44.3382C43.5338 44.3382 43.102 44.4462 42.5083 43.4231C42.0789 42.6871 40.4915 39.3038 39.1348 38.1335C39.0167 38.0289 38.87 37.9618 38.7137 37.9408C38.5573 37.9198 38.3982 37.9458 38.2566 38.0155C38.1151 38.0853 37.9975 38.1956 37.9188 38.3323C37.8401 38.4691 37.8039 38.6262 37.8148 38.7836L37.8713 39.5933L39.9739 44.878L40.7295 46.1685L38.7128 44.6621C38.7128 44.6621 37.7977 41.9289 36.8408 40.4103C36.654 40.108 36.3557 39.8914 36.0104 39.8073C35.6652 39.7233 35.3007 39.7786 34.9959 39.9613L35.4448 41.7498C35.4448 41.7498 35.4448 40.7268 34.1985 40.7807Z" fill="#B5836D"/>
<path d="M39.6401 49.0365C39.5259 48.9936 39.4179 48.9358 39.3187 48.8648C39.12 48.7421 38.8427 48.5459 38.5091 48.2932C38.1754 48.0405 37.773 47.7411 37.3339 47.4124C37.0992 47.228 36.9068 46.9954 36.7696 46.7303C36.6977 46.5904 36.6409 46.4432 36.6003 46.2912L36.4752 45.8373C36.1464 44.6106 35.9084 43.4722 35.6999 42.665C35.5968 42.2602 35.5085 41.929 35.4545 41.7106C35.4139 41.5959 35.3844 41.4776 35.3662 41.3573C35.4211 41.466 35.4663 41.5793 35.5012 41.6959C35.5797 41.9167 35.6827 42.2381 35.798 42.6404C36.0286 43.4452 36.2887 44.5738 36.6077 45.8029C36.674 46.1018 36.7693 46.3935 36.8922 46.6739C37.0194 46.9246 37.1983 47.1454 37.4173 47.3216C37.8564 47.6479 38.249 47.9644 38.5729 48.222C38.8967 48.4796 39.1666 48.6882 39.3555 48.8231C39.5444 48.958 39.645 49.0292 39.6401 49.0365Z" fill="#7F594B"/>
<path d="M42.734 47.5449C42.734 47.5596 42.6162 47.5841 42.4224 47.5694C42.1652 47.5485 41.9148 47.4759 41.6864 47.3559C41.4601 47.2385 41.2591 47.0776 41.0951 46.8824C40.9724 46.7303 40.9258 46.6175 40.9381 46.6101C41.3982 47.1321 42.0354 47.4651 42.7266 47.5449H42.734Z" fill="#7F594B"/>
<path d="M45.9748 44.6621C45.4337 44.6009 44.9055 44.4552 44.4095 44.2303C44.6823 44.2421 44.9518 44.2942 45.2094 44.3848C45.4772 44.4374 45.7354 44.5309 45.9748 44.6621Z" fill="#7F594B"/>
<path d="M47.2482 44.4462C47.1192 44.2945 47.0156 44.123 46.9415 43.9383C46.7394 43.5059 46.5632 43.0619 46.414 42.6085C46.2325 42.081 46.0681 41.6051 45.9234 41.2714C45.8377 41.0943 45.7624 40.9125 45.6976 40.7267C45.827 40.8786 45.9313 41.05 46.0068 41.2346C46.208 41.6671 46.3833 42.1111 46.5318 42.5644C46.7134 43.0919 46.8802 43.5678 47.0225 43.9015C47.1081 44.0786 47.1835 44.2604 47.2482 44.4462Z" fill="#7F594B"/>
<path d="M61.8904 80.8625C61.8882 80.8437 61.8882 80.8248 61.8904 80.806C61.8904 80.7619 61.9174 80.7104 61.9345 80.6441C61.9664 80.5018 62.0425 80.2982 62.0867 80.0234C62.2451 79.2546 62.2667 78.464 62.1504 77.6877C62.0253 76.7064 61.6352 75.5729 61.1519 74.3511C60.9066 73.7377 60.6612 73.0949 60.4011 72.4202C60.2834 72.0792 60.1558 71.7431 60.0135 71.402C59.8712 71.061 59.6995 70.7298 59.5081 70.4035C58.7811 69.1741 57.9917 67.9826 57.143 66.8337C56.3775 65.7591 55.6979 64.7827 55.1802 63.9264C54.7632 63.2557 54.4005 62.5525 54.0958 61.8238C53.9854 61.5785 53.9339 61.3552 53.8824 61.2178C53.8628 61.154 53.848 61.1001 53.8333 61.0584C53.8265 61.0402 53.8224 61.0212 53.821 61.0019C53.8325 61.0173 53.8408 61.0348 53.8456 61.0535L53.9069 61.208C53.9658 61.3454 54.0247 61.554 54.1523 61.8042C54.4725 62.5223 54.8448 63.216 55.2661 63.8798C55.7911 64.7262 56.4757 65.6953 57.246 66.765C57.6288 67.3023 58.0336 67.8642 58.4409 68.4579C58.8481 69.0516 59.2579 69.6699 59.6259 70.3397C59.8197 70.6709 59.9792 71.0144 60.1362 71.3505C60.2932 71.6866 60.411 72.0399 60.5263 72.3785C60.7716 73.0507 61.0292 73.6935 61.2623 74.3069C61.7407 75.5336 62.1259 76.6745 62.2437 77.6755C62.3528 78.4612 62.317 79.2603 62.1382 80.0332C62.0918 80.2427 62.0328 80.4491 61.9615 80.6515L61.9076 80.811C61.9039 80.8288 61.8981 80.846 61.8904 80.8625Z" fill="#7F594B"/>
<path d="M39.6598 50.9723C39.6598 50.9723 39.6058 50.9257 39.5077 50.8275L39.0685 50.3957C38.6858 50.013 38.119 49.4463 37.4026 48.7029C37.0444 48.3324 36.6494 47.9178 36.2274 47.4516C35.993 47.2185 35.7975 46.9493 35.6484 46.6542C35.5108 46.3263 35.3928 45.9904 35.2951 45.6483C34.8878 44.2352 34.5272 42.6036 34.1616 40.7881V40.7366H34.218C34.516 40.7119 34.814 40.7823 35.0694 40.9377C35.2008 41.0311 35.3091 41.1532 35.3861 41.2948C35.463 41.4364 35.5066 41.5937 35.5135 41.7547H35.4153C35.2755 41.2003 35.1209 40.5918 34.9639 39.9662V39.9269L34.9982 39.9073C35.1096 39.8329 35.2289 39.7712 35.354 39.7233C35.4847 39.6767 35.6225 39.6526 35.7613 39.6521C36.0464 39.6474 36.3245 39.741 36.5488 39.9171C36.6592 40.008 36.7537 40.1167 36.8285 40.2385C36.9046 40.3563 36.9831 40.4839 37.0518 40.5967C37.1941 40.8421 37.3266 41.0874 37.4541 41.345C37.9688 42.4142 38.4178 43.5137 38.7986 44.6375L38.7765 44.6081L40.7957 46.112L40.7049 46.1905L39.9493 44.9025C39.3997 43.5261 38.8305 42.0958 38.2466 40.6286C38.0839 40.262 37.959 39.8797 37.8737 39.4878C37.8335 39.2885 37.8057 39.0869 37.7902 38.8842C37.7673 38.6661 37.8268 38.4473 37.9571 38.2709C38.0888 38.0947 38.2795 37.9719 38.4944 37.9249C38.7114 37.8787 38.9379 37.9174 39.1274 38.0329C39.174 38.0623 39.2157 38.0991 39.2599 38.131L39.3703 38.239C39.4439 38.3126 39.5199 38.3837 39.5862 38.4622C39.726 38.6168 39.856 38.7763 39.9836 38.9529C40.6409 39.8581 41.2297 40.811 41.7452 41.8038L42.5107 43.2513C42.6328 43.4867 42.7792 43.7087 42.9474 43.9138C43.0304 44.0124 43.1251 44.1006 43.2295 44.1763C43.3217 44.2482 43.4341 44.2893 43.5509 44.294L43.5092 44.3259C43.6858 43.7917 43.7163 43.2199 43.5975 42.6699C43.4959 42.123 43.3167 41.5934 43.0651 41.0972C42.8198 40.6065 42.5475 40.1158 42.3046 39.6252C42.1809 39.3863 42.0711 39.1406 41.9758 38.8891C41.8751 38.6333 41.8203 38.3617 41.8139 38.0869C41.8106 37.947 41.8362 37.808 41.889 37.6784C41.9417 37.5488 42.0205 37.4315 42.1206 37.3337C42.1734 37.2828 42.2362 37.2434 42.3051 37.2181C42.3739 37.1927 42.4473 37.182 42.5205 37.1864C42.6585 37.1959 42.7926 37.2362 42.913 37.3042C43.3531 37.5787 43.7431 37.9264 44.0661 38.3322C44.6931 39.083 45.2622 39.8802 45.7688 40.7169L45.6682 40.7513C45.6044 40.0643 45.5406 39.3994 45.4818 38.7542V38.7272L45.5038 38.71L47.2826 37.3361L47.3415 37.2919L47.3586 37.3631C48.2247 41.058 48.9436 44.0512 49.3901 46.1366C49.6183 47.1744 49.7949 47.9816 49.9176 48.5336C49.9765 48.8059 50.0206 49.0243 50.0525 49.1592C50.0844 49.2941 50.0918 49.3727 50.0918 49.3727C50.0918 49.3727 50.0721 49.3015 50.0378 49.1617C50.0034 49.0218 49.9544 48.8108 49.8906 48.5409C49.763 47.9889 49.5765 47.1842 49.3386 46.1488C48.8749 44.0683 48.1437 41.0776 47.2654 37.3852L47.3415 37.4122L45.5652 38.791L45.5848 38.7468C45.6486 39.3896 45.7132 40.0545 45.7786 40.7415L45.8007 40.9696L45.678 40.7734C45.1736 39.9425 44.6068 39.151 43.9827 38.4058C43.6677 38.0123 43.2887 37.6747 42.8615 37.4073C42.7667 37.336 42.6513 37.2975 42.5327 37.2975C42.4141 37.2975 42.2988 37.336 42.204 37.4073C42.1157 37.4951 42.0463 37.6 41.9999 37.7156C41.9535 37.8312 41.9311 37.955 41.9341 38.0795C41.942 38.3402 41.9951 38.5975 42.0911 38.8401C42.1846 39.0915 42.2928 39.3373 42.415 39.5761C42.6603 40.0668 42.9326 40.5378 43.178 41.0481C43.4358 41.5549 43.6192 42.0961 43.7227 42.6551C43.8481 43.2307 43.8141 43.8296 43.6245 44.3873V44.4167H43.5951C43.4425 44.4256 43.2921 44.3775 43.1731 44.2818C43.0597 44.2006 42.9574 44.1049 42.8689 43.9972C42.6926 43.787 42.5396 43.5583 42.4125 43.3151L41.6102 41.8529C41.0978 40.8673 40.5131 39.9209 39.8609 39.0216C39.6238 38.6964 39.3478 38.4014 39.039 38.1433C38.8764 38.0472 38.6838 38.015 38.4988 38.0531C38.3137 38.0912 38.1495 38.1968 38.038 38.3494C37.7927 38.6536 37.9178 39.0854 37.9767 39.4632C38.0591 39.8487 38.1816 40.2245 38.3423 40.5845C38.9237 42.0565 39.4929 43.482 40.04 44.8608L40.7933 46.1513L40.9454 46.4114L40.7 46.2323L38.6858 44.7258H38.671V44.7087C38.2943 43.5899 37.8494 42.4953 37.3388 41.4309C37.2137 41.1855 37.0812 40.9255 36.9414 40.6949C36.8191 40.4544 36.6583 40.2357 36.4654 40.0471C36.3139 39.9273 36.1345 39.8481 35.9439 39.8167C35.7533 39.7854 35.5579 39.8031 35.3761 39.868C35.2568 39.9128 35.1432 39.9712 35.0375 40.0422L35.062 39.9834C35.2166 40.609 35.3687 41.2101 35.5086 41.7744L35.408 41.7891C35.4014 41.6444 35.3623 41.503 35.2934 41.3756C35.2246 41.2482 35.1279 41.1379 35.0105 41.0531C34.7717 40.9089 34.4936 40.8437 34.2156 40.8666L34.2598 40.8102C34.618 42.6233 34.9713 44.245 35.3736 45.6655C35.4677 46.005 35.5824 46.3385 35.7171 46.6641C35.8614 46.9539 36.052 47.2182 36.2814 47.4467C36.6985 47.9153 37.091 48.3324 37.4468 48.7078L39.093 50.4252L39.5224 50.8668C39.6131 50.9306 39.6598 50.9723 39.6598 50.9723Z" fill="#7F594B"/>
<path d="M43.4725 31.1608C43.2875 31.069 43.1225 30.9415 42.9869 30.7858C42.8513 30.63 42.7479 30.4489 42.6825 30.2531L42.4886 29.0828L42.3807 30.3095C42.2625 30.715 42.0009 31.0638 41.6447 31.2909C41.8357 31.3856 42.0052 31.5185 42.1428 31.6814C42.2804 31.8443 42.3831 32.0337 42.4445 32.2379L42.5721 33.1923L42.7659 32.1864C42.8669 31.7878 43.1207 31.4449 43.4725 31.232L43.524 31.2025L43.4725 31.1608Z" fill="white"/>
</svg>
