<svg width="96" height="75" viewBox="0 0 96 75" fill="none" xmlns="http://www.w3.org/2000/svg">
<path d="M82.3157 39.3235C82.0245 39.0136 82.1514 39.1155 79.489 40.7463C79.489 40.7463 83.2683 38.3917 82.0494 38.2503C81.8414 38.2253 81.2029 38.5186 80.5227 38.8743C81.465 38.217 81.7541 37.7407 81.6126 37.4869C81.3672 37.048 79.0688 38.3355 78.0101 38.9595C78.8774 38.4333 80.5352 37.4079 80.843 37.0667C81.259 36.6008 80.504 36.5675 79.8696 36.7194C79.1562 36.8899 75.1584 38.4687 73.979 38.8639C73.1699 39.1363 72.964 38.4083 72.964 38.4083C72.7165 36.6216 71.5683 35.3632 71.092 35.1677C70.6157 34.9722 70.1955 35.5546 70.495 36.033C70.7384 36.4178 70.9464 37.1811 71.0795 37.7615C71.1914 38.2382 71.2216 38.7306 71.169 39.2175C71.1045 39.7811 69.8669 42.1295 69.3677 42.5163L74.1704 46.7117C74.1704 46.7117 79.6886 42.0442 80.7536 41.1664C82.064 40.0931 82.5341 39.5565 82.3157 39.3235Z" fill="#FFBE9D"/>
<path d="M78.1619 41.4451C78.2056 41.52 79.127 41.0083 80.2211 40.3032C81.3152 39.5981 82.1617 38.9658 82.1118 38.8951C82.0619 38.8243 81.1404 39.3381 80.0526 40.0391C78.9648 40.74 78.112 41.3723 78.1619 41.4451Z" fill="#EB996E"/>
<path d="M77.3569 40.3927C77.3985 40.4675 78.4115 39.9767 79.62 39.2986C80.8284 38.6205 81.7707 38.0048 81.7291 37.9299C81.6875 37.8551 80.6745 38.3459 79.466 39.0261C78.2576 39.7063 77.3132 40.3178 77.3569 40.3927Z" fill="#EB996E"/>
<path d="M76.5249 39.2944C76.5665 39.3693 77.5337 38.9221 78.684 38.2939C79.8342 37.6658 80.7349 37.0959 80.6933 37.0189C80.6517 36.9419 79.6845 37.3912 78.5342 38.0194C77.384 38.6475 76.4833 39.2195 76.5249 39.2944Z" fill="#EB996E"/>
<path d="M53.1125 51.8597L67.9928 41.1518L74.7299 47.1422L61.6259 59.225C56.4259 63.932 54.5976 65.1259 45.9677 60.2088L40.491 57.0722L42.5128 82.053H17.7483C15.0277 81.9656 21.2843 75.139 20.8683 75.139L15.425 56.808L7.0176 62.4469L14.9861 68.6765L11.1006 76.9133L-1.57696 69.1923C-6.51488 65.908 -5.85344 59.5099 -1.63936 55.3333C5.94848 47.8141 11.6581 42.5579 18.1456 41.4493C19.7935 41.0861 21.46 40.8133 23.1376 40.6318C23.1376 40.6318 27.9507 39.9704 31.2766 40.0952C32.072 40.1302 32.865 40.208 33.652 40.3282C36.7042 40.7836 39.5997 41.9751 42.0885 43.7997L53.1125 51.8597Z" fill="#263238"/>
<path d="M16.6188 60.3981C16.6014 60.3693 16.5875 60.3386 16.5772 60.3066L16.4774 60.0403C16.3921 59.8094 16.2694 59.4704 16.13 59.0523C15.8409 58.1995 15.454 57.0493 15.0256 55.7784C14.5971 54.5075 14.1811 53.351 13.867 52.5253L13.4926 51.5477C13.451 51.4416 13.4198 51.3542 13.3907 51.2814C13.3767 51.2504 13.3676 51.2175 13.3636 51.1837C13.382 51.2114 13.398 51.2406 13.4115 51.271C13.4448 51.3418 13.4843 51.427 13.53 51.531C13.634 51.7557 13.7734 52.0864 13.946 52.4962C14.2788 53.3282 14.7032 54.4638 15.1358 55.743C15.5684 57.0222 15.9408 58.185 16.2112 59.0274L16.5252 60.0278C16.5585 60.136 16.5835 60.2254 16.6064 60.3003C16.6166 60.3318 16.6209 60.365 16.6188 60.3981Z" fill="#455A64"/>
<path d="M33.2672 44.4612C33.2726 44.4949 33.2726 44.5293 33.2672 44.5631C33.2672 44.6442 33.2672 44.7419 33.2672 44.8605C33.2672 44.9271 33.2672 44.9978 33.2672 45.0685C33.2672 45.1392 33.2506 45.2328 33.2402 45.3223C33.2226 45.5317 33.1934 45.74 33.1528 45.9463C33.1299 46.0586 33.105 46.1771 33.0821 46.3019C33.0592 46.4267 33.0135 46.5495 32.9781 46.6805C32.9003 46.959 32.8079 47.2332 32.7015 47.5021C32.2041 48.7377 31.4299 49.8428 30.4384 50.7323C30.2221 50.9251 29.9958 51.1063 29.7603 51.2752C29.6501 51.3522 29.5523 51.4333 29.44 51.4999L29.1301 51.6892C28.9522 51.7961 28.7689 51.894 28.581 51.9824C28.4978 52.0219 28.4229 52.0615 28.3501 52.0947L28.1421 52.1717L27.8655 52.2757C27.8333 52.2893 27.7998 52.2998 27.7656 52.3069C27.7935 52.2858 27.8243 52.269 27.8571 52.257L28.1255 52.1343L28.321 52.0469C28.3917 52.0136 28.4645 51.9699 28.5456 51.9283C28.7295 51.8355 28.9086 51.7335 29.0823 51.6226L29.3839 51.4312C29.4899 51.3626 29.5919 51.2815 29.7 51.2024C29.9205 51.0485 30.1327 50.8551 30.3615 50.6575C31.334 49.7714 32.0983 48.6811 32.5995 47.4647C32.7056 47.1818 32.8075 46.9155 32.8845 46.6555C32.9199 46.5266 32.9635 46.4039 32.9927 46.2812C33.0218 46.1584 33.0447 46.044 33.0696 45.9317C33.1142 45.7305 33.1482 45.5271 33.1715 45.3223C33.184 45.2328 33.1986 45.1475 33.2069 45.0706C33.2152 44.9936 33.2173 44.9229 33.2215 44.8626C33.2215 44.744 33.2381 44.6546 33.2443 44.5672C33.2473 44.531 33.255 44.4954 33.2672 44.4612Z" fill="#455A64"/>
<path d="M39.4032 49.5779C39.4323 49.5779 39.7048 51.3147 40.0105 53.4655C40.3163 55.6162 40.5409 57.3675 40.5118 57.3717C40.4827 57.3759 40.2102 55.6349 39.9045 53.4821C39.5987 51.3293 39.3741 49.5821 39.4032 49.5779Z" fill="#455A64"/>
<path d="M7.32545 62.4781C7.32545 62.4989 6.93857 62.347 6.28545 62.2368C6.11076 62.2045 5.93436 62.1823 5.75713 62.1702C5.56785 62.1474 5.36193 62.1494 5.14769 62.1453C4.68058 62.1555 4.21543 62.2091 3.75825 62.3054C3.3042 62.4126 2.86128 62.5623 2.43537 62.7526C2.24193 62.8483 2.05681 62.9336 1.89249 63.0334C1.7373 63.1196 1.58729 63.2147 1.44321 63.3184C0.908646 63.6928 0.629926 63.9923 0.611206 63.9736C0.669485 63.8994 0.733466 63.8299 0.802566 63.7656C0.879414 63.6834 0.962138 63.607 1.05009 63.5368C1.16359 63.4361 1.28306 63.3423 1.40785 63.256C1.55155 63.1474 1.70157 63.0473 1.85713 62.9565C2.02145 62.8504 2.20865 62.761 2.40417 62.6611C2.83443 62.4618 3.28398 62.3071 3.74577 62.1994C4.20948 62.1008 4.68195 62.0492 5.15601 62.0454C5.36401 62.0454 5.57201 62.0454 5.78001 62.0808C5.95958 62.0967 6.13807 62.1231 6.31457 62.1598C6.47681 62.1848 6.62033 62.2326 6.74721 62.2638C6.85577 62.2904 6.96216 62.3251 7.06545 62.3678C7.15569 62.3955 7.24283 62.4324 7.32545 62.4781Z" fill="#455A64"/>
<path d="M53.4556 56.7706C53.4108 56.7179 53.3736 56.659 53.3454 56.5958C53.2546 56.4303 53.1754 56.2586 53.1083 56.0821C53.0073 55.8204 52.9266 55.5513 52.867 55.2771C52.7167 54.6052 52.6921 53.9113 52.7942 53.2304C52.8345 52.9528 52.8964 52.6788 52.9793 52.4109C53.0326 52.2303 53.0986 52.0538 53.1769 51.8826C53.2019 51.8178 53.2348 51.7563 53.2747 51.6995C53.2934 51.6995 53.1748 51.9762 53.0521 52.4317C52.981 52.6983 52.9275 52.9693 52.892 53.2429C52.8507 53.5782 52.8354 53.9161 52.8462 54.2538C52.86 54.5912 52.8997 54.927 52.9648 55.2584C53.016 55.5284 53.0855 55.7945 53.1728 56.055C53.335 56.5002 53.4723 56.7622 53.4556 56.7706Z" fill="#455A64"/>
<path d="M23.7823 15.208C25.8623 13.0927 29.1404 11.8426 31.8569 13.0323C33.6852 13.8311 34.9228 15.545 36.5265 16.7306C37.6955 17.5938 39.1369 18.2615 39.7505 19.5781C40.2892 20.7387 40.0292 22.0907 39.8982 23.3637C39.7671 24.6367 39.8607 26.1072 40.8467 26.9226C41.3646 27.3511 42.0447 27.5216 42.6292 27.8565C43.8023 28.5283 44.5012 29.8367 44.7529 31.1679C45.0046 32.4991 44.8673 33.8719 44.7321 35.2114L39.1348 36.2784L38.2155 34.733L37.8951 37.1624L30.7524 37.8072L23.7823 15.208Z" fill="#263238"/>
<path d="M22.8589 17.5147L22.8464 19.0706L22.4076 42.4165C22.368 45.1205 24.9576 47.4251 27.8551 47.4438C30.7816 47.4646 31.9755 45.2661 32.0587 42.533C32.1482 39.6646 32.2917 36.6466 32.2917 36.6466C32.2917 36.6466 36.0045 36.1349 36.9031 31.3342C37.3503 28.9464 37.3378 25.011 37.2234 21.7933C37.1996 21.1066 37.0371 20.4317 36.7458 19.8095C36.4544 19.1872 36.0401 18.6303 35.5279 18.1722C35.0157 17.7142 34.4161 17.3646 33.7652 17.1443C33.1143 16.9241 32.4256 16.8378 31.7405 16.8907L22.8589 17.5147Z" fill="#FFBE9D"/>
<path d="M35.5906 24.4765C35.5864 24.637 35.5205 24.7896 35.4066 24.9027C35.2927 25.0158 35.1396 25.0807 34.9791 25.0839C34.9002 25.0881 34.8213 25.0764 34.747 25.0497C34.6726 25.023 34.6044 24.9816 34.5463 24.9282C34.4881 24.8747 34.4413 24.8101 34.4085 24.7383C34.3756 24.6664 34.3575 24.5887 34.3551 24.5098C34.3594 24.3472 34.4271 24.1927 34.5436 24.0793C34.6602 23.9658 34.8165 23.9024 34.9791 23.9024C35.0571 23.8994 35.1349 23.9119 35.208 23.9392C35.2812 23.9665 35.3481 24.008 35.405 24.0615C35.4619 24.1149 35.5077 24.1791 35.5395 24.2503C35.5714 24.3216 35.5888 24.3985 35.5906 24.4765Z" fill="#263238"/>
<path d="M36.3145 23.8151C36.2354 23.892 35.7778 23.5322 35.1122 23.5155C34.4466 23.4989 33.9495 23.8192 33.8788 23.736C33.8455 23.6986 33.9266 23.5551 34.145 23.4053C34.4383 23.2144 34.7833 23.1185 35.133 23.1307C35.4788 23.1399 35.8128 23.2578 36.0877 23.4677C36.2895 23.632 36.354 23.7797 36.3145 23.8151Z" fill="#263238"/>
<path d="M28.9657 24.4016C28.9615 24.5621 28.8956 24.7147 28.7817 24.8278C28.6678 24.9409 28.5147 25.0058 28.3542 25.009C28.2752 25.0132 28.1961 25.0015 28.1216 24.9746C28.0472 24.9477 27.9788 24.9062 27.9207 24.8525C27.8625 24.7988 27.8157 24.734 27.783 24.6619C27.7503 24.5899 27.7323 24.5119 27.7302 24.4328C27.7345 24.2724 27.8004 24.1197 27.9143 24.0066C28.0282 23.8935 28.1813 23.8286 28.3417 23.8254C28.4208 23.8213 28.4999 23.8329 28.5743 23.8598C28.6488 23.8867 28.7171 23.9282 28.7753 23.9819C28.8335 24.0356 28.8803 24.1004 28.913 24.1725C28.9457 24.2446 28.9636 24.3225 28.9657 24.4016Z" fill="#263238"/>
<path d="M29.7708 23.7589C29.6917 23.8358 29.232 23.476 28.5685 23.4594C27.905 23.4427 27.4058 23.763 27.3351 23.6798C27.3018 23.6424 27.3829 23.4989 27.5992 23.3491C27.8934 23.1585 28.239 23.0627 28.5893 23.0746C28.9351 23.0837 29.2691 23.2016 29.544 23.4115C29.7437 23.5758 29.8103 23.7235 29.7708 23.7589Z" fill="#263238"/>
<path d="M32.0505 28.7592C32.0505 28.7218 32.4665 28.6615 33.1362 28.5949C33.3068 28.5803 33.469 28.5512 33.5002 28.4368C33.5196 28.2614 33.4847 28.0843 33.4004 27.9293L32.9345 26.6231C32.2876 24.7615 31.8237 23.2327 31.8945 23.2077C31.9652 23.1827 32.5559 24.6637 33.2028 26.5357C33.3567 26.9933 33.5064 27.4322 33.6479 27.8503C33.7485 28.0586 33.7728 28.2956 33.7165 28.52C33.6909 28.5793 33.6517 28.6317 33.6023 28.6733C33.5528 28.7148 33.4944 28.7442 33.4316 28.7592C33.3362 28.7823 33.2384 28.7935 33.1404 28.7925C32.4706 28.805 32.0505 28.7967 32.0505 28.7592Z" fill="#263238"/>
<path d="M32.2917 36.6466C30.0207 36.6181 27.8023 35.9599 25.8832 34.7455C25.8832 34.7455 27.3579 38.1005 32.196 37.7823L32.2917 36.6466Z" fill="#EB996E"/>
<path d="M31.728 30.3546C31.6056 30.1918 31.4438 30.0629 31.2579 29.98C31.072 29.897 30.868 29.8627 30.6651 29.8803C30.5181 29.8893 30.3745 29.928 30.2429 29.9942C30.1114 30.0603 29.9946 30.1525 29.8997 30.2651C29.8071 30.373 29.7502 30.5069 29.7368 30.6484C29.7234 30.79 29.7542 30.9322 29.8248 31.0555C29.9281 31.1781 30.0656 31.267 30.2198 31.3108C30.3741 31.3545 30.5378 31.3511 30.6901 31.301C31.0078 31.1985 31.302 31.0337 31.5554 30.8163C31.6318 30.7652 31.6981 30.7003 31.7509 30.625C31.7749 30.5881 31.7876 30.5451 31.7876 30.5012C31.7876 30.4573 31.7749 30.4143 31.7509 30.3774" fill="#EB996E"/>
<path d="M30.0785 29.1648C30.1867 29.1648 30.168 29.8845 30.7733 30.4128C31.3785 30.9411 32.1481 30.8829 32.1502 30.9848C32.1606 31.0306 31.9755 31.12 31.651 31.12C31.2274 31.1148 30.8193 30.9601 30.4987 30.6832C30.1929 30.4185 30.0014 30.0459 29.9641 29.6432C29.9433 29.3374 30.0286 29.1606 30.0785 29.1648Z" fill="#263238"/>
<path d="M29.9829 21.8224C29.9122 22.0013 29.2507 21.8973 28.4666 21.9701C27.6824 22.0429 27.0459 22.2384 26.9461 22.072C26.9024 21.993 27.0168 21.8266 27.2768 21.656C27.6204 21.4466 28.0091 21.3225 28.4104 21.2941C28.8115 21.2573 29.2156 21.3158 29.5898 21.4647C29.8727 21.5915 30.012 21.7371 29.9829 21.8224Z" fill="#263238"/>
<path d="M36.3394 22.4693C36.1938 22.617 35.6405 22.4443 34.9686 22.4194C34.2968 22.3944 33.7206 22.4859 33.6 22.3237C33.5459 22.2467 33.6395 22.097 33.8912 21.9618C34.2393 21.7919 34.6259 21.7165 35.0123 21.7434C35.3963 21.7547 35.7704 21.8681 36.096 22.072C36.331 22.2405 36.4038 22.3986 36.3394 22.4693Z" fill="#263238"/>
<path d="M26.3034 14.6651C27.177 15.8383 27.5909 16.7451 28.1151 18.8251C28.3709 19.8464 27.541 20.5661 26.7173 21.1901C26.6285 21.2576 26.5241 21.3018 26.4138 21.3184C26.3034 21.3351 26.1907 21.3237 26.0859 21.2854C25.9811 21.2471 25.8876 21.183 25.814 21.0991C25.7404 21.0152 25.6891 20.9142 25.6648 20.8053C25.6648 20.8053 25.9519 24.0002 24.7975 25.4333C24.2546 26.1051 24.2317 26.9663 24.3607 27.6922C24.5078 28.4313 24.8695 29.1106 25.4007 29.6453C26.7402 31.0535 27.1125 33.3519 26.189 35.0783C25.9519 35.5213 25.6419 35.9248 25.4547 36.3907C25.3412 36.658 25.2886 36.9472 25.3008 37.2373C25.3137 37.4063 25.262 37.5738 25.1563 37.7062C25.0505 37.8386 24.8985 37.926 24.7309 37.9507C20.762 38.5265 16.7403 38.648 12.7439 38.3127C12.6065 38.3013 12.4761 38.2472 12.3709 38.1581C12.2658 38.069 12.1911 37.9492 12.1573 37.8155C11.8453 36.4906 12.3653 35.0471 13.0371 33.8282C13.7839 32.4679 14.7344 31.1616 14.9923 29.6287C15.2336 28.1872 14.8405 26.6335 15.4083 25.2919C16.1197 23.6445 18.052 22.8666 19.0192 21.3544C19.9323 19.9296 19.8512 18.0597 20.6832 16.5704C21.7232 14.6672 24.317 13.7895 26.2992 14.6568" fill="#263238"/>
<path d="M26.528 16.4352C28.0443 17.2152 28.7453 19.0706 30.2179 19.9296C31.5595 20.7117 33.2339 20.5037 34.7711 20.2728C34.7128 19.9338 34.6567 19.5927 34.5984 19.2515C34.7359 19.5614 34.9291 19.8434 35.1683 20.0835C35.2895 20.2013 35.4403 20.2841 35.6048 20.3229C35.7693 20.3617 35.9412 20.3552 36.1023 20.304C36.616 20.096 36.6847 19.3888 36.5536 18.848C36.3172 17.9847 35.854 17.2004 35.212 16.5767C34.0657 15.4121 32.5382 14.6996 30.9093 14.5697C29.2804 14.4398 27.6592 14.9013 26.3429 15.8695" fill="#263238"/>
<path d="M20.6437 20.381C20.8753 19.8123 20.9319 19.1874 20.8063 18.5864C20.6807 17.9854 20.3786 17.4355 19.9386 17.0072C19.4855 16.593 18.9307 16.3064 18.3307 16.1766C17.7306 16.0469 17.1069 16.0787 16.5232 16.2688C15.9944 16.4254 15.528 16.744 15.1899 17.1798C14.5992 17.9952 14.7136 19.1974 15.3251 19.9982C15.9367 20.799 16.9559 21.2234 17.9626 21.2795C18.9693 21.3357 19.9677 21.059 20.8995 20.6722" fill="#263238"/>
<path d="M18.9901 20.408C19.0068 20.3893 19.2813 20.616 19.7847 20.901C20.0809 21.0621 20.3906 21.1972 20.7103 21.3045C21.1014 21.4324 21.5041 21.5223 21.9125 21.5728C22.3223 21.6162 22.7353 21.6204 23.146 21.5853C23.4807 21.5536 23.812 21.4923 24.136 21.4022C24.6914 21.2462 25.0117 21.0798 25.0221 21.1027C24.9583 21.1534 24.8884 21.196 24.8141 21.2296C24.7271 21.2771 24.6368 21.3182 24.5437 21.3523C24.4222 21.4042 24.2979 21.4494 24.1714 21.4875C23.8442 21.5897 23.5076 21.6593 23.1668 21.6955C22.7519 21.7385 22.3336 21.7385 21.9188 21.6955C21.5011 21.6435 21.0898 21.5487 20.6916 21.4126C20.368 21.2981 20.0565 21.1518 19.7618 20.9758C19.6478 20.9127 19.5374 20.8432 19.4311 20.7678C19.3491 20.7124 19.2706 20.652 19.196 20.5869C19.1199 20.5364 19.0507 20.4763 18.9901 20.408Z" fill="#455A64"/>
<path d="M25.2217 23.189C25.1373 23.2268 25.0486 23.254 24.9576 23.2701C24.787 23.3138 24.5416 23.3699 24.2254 23.424C23.4098 23.5822 22.5718 23.5872 21.7544 23.4386C20.9294 23.2763 20.1801 22.849 19.6203 22.2218C19.456 22.03 19.3201 21.8157 19.2168 21.5853C19.1743 21.5037 19.1448 21.416 19.1294 21.3253C19.2821 21.6234 19.4692 21.9027 19.6868 22.1573C20.2479 22.7522 20.9797 23.1585 21.7814 23.32C22.5842 23.4641 23.4057 23.4712 24.2108 23.3408C24.5228 23.2971 24.7745 23.2555 24.9492 23.2264C25.0383 23.2034 25.1297 23.1908 25.2217 23.189Z" fill="#455A64"/>
<path d="M16.6334 37.9466C16.6334 37.9466 16.621 37.9466 16.6022 37.9133C16.5726 37.88 16.5455 37.8446 16.5211 37.8072C16.4269 37.6592 16.3613 37.4948 16.3277 37.3226C16.2799 37.0035 16.3026 36.6777 16.3943 36.3683C16.4859 36.0589 16.6442 35.7734 16.8581 35.5317C17.1511 35.2005 17.4909 34.9138 17.8669 34.681C18.2621 34.421 18.6989 34.1797 19.1419 33.8864C19.6045 33.594 20.0006 33.2078 20.3046 32.7528C20.4542 32.5097 20.5526 32.2386 20.5938 31.9562C20.6296 31.6631 20.6134 31.3659 20.5459 31.0784C20.3882 30.5082 20.1844 29.9517 19.9365 29.4144C19.6988 28.904 19.5578 28.3539 19.5205 27.792C19.4946 26.8336 19.7872 25.8936 20.3525 25.1192C20.7217 24.5969 21.2092 24.1693 21.7752 23.8712L22.0456 23.7423L22.2536 23.6695C22.3095 23.6471 22.3673 23.6297 22.4262 23.6175C22.374 23.6476 22.319 23.6727 22.2619 23.6923L22.0539 23.7755L21.7918 23.9149C21.2442 24.225 20.7746 24.6561 20.419 25.1754C19.8795 25.9388 19.6041 26.8577 19.6349 27.792C19.674 28.3397 19.8114 28.8759 20.0405 29.3749C20.2958 29.9171 20.5045 30.4801 20.6645 31.0576C20.7353 31.3595 20.7515 31.6715 20.7123 31.9791C20.6706 32.2792 20.5657 32.567 20.4045 32.8235C20.091 33.2928 19.6812 33.6899 19.2022 33.9883C18.7571 34.2858 18.312 34.5208 17.9189 34.7746C17.548 35.0027 17.2118 35.2829 16.9205 35.6066C16.7114 35.8383 16.5542 36.112 16.4595 36.4094C16.3648 36.7068 16.3347 37.021 16.3714 37.3309C16.4161 37.5518 16.5053 37.7612 16.6334 37.9466Z" fill="#455A64"/>
<path d="M23.0565 38.0339C23.0074 38.0134 22.9607 37.9876 22.9172 37.957C22.792 37.866 22.6866 37.7507 22.6073 37.6179C22.4827 37.4059 22.408 37.1683 22.3889 36.9232C22.3643 36.5998 22.4003 36.2746 22.4949 35.9643C22.6905 35.255 23.2812 34.6123 23.7263 33.8032C23.9674 33.3854 24.0924 32.9107 24.0882 32.4283C24.0653 31.9109 23.9335 31.4041 23.7013 30.9411C23.2437 29.9718 22.5386 29.2002 22.0519 28.3931C21.8114 28.0149 21.6205 27.6074 21.4841 27.1805C21.3668 26.8048 21.3265 26.4094 21.3655 26.0178C21.4017 25.445 21.6519 24.9067 22.0665 24.5098C22.1834 24.4099 22.3136 24.3266 22.4533 24.2622C22.5018 24.2387 22.5527 24.2205 22.6052 24.2082C22.4234 24.3 22.2536 24.4138 22.0997 24.5472C21.7121 24.9447 21.4822 25.4696 21.4529 26.024C21.4214 26.4034 21.4659 26.7852 21.5839 27.1472C21.7245 27.5654 21.9181 27.9638 22.1601 28.3328C22.4055 28.7259 22.6988 29.1211 22.9921 29.535C23.3111 29.9587 23.5896 30.4113 23.8241 30.887C24.0635 31.367 24.1982 31.8924 24.2193 32.4283C24.2229 32.9304 24.0907 33.4242 23.8365 33.8573C23.3748 34.6893 22.7841 35.3133 22.5885 35.9893C22.4929 36.2887 22.452 36.603 22.4679 36.917C22.4801 37.1535 22.5447 37.3844 22.6572 37.593C22.7571 37.7669 22.8933 37.9173 23.0565 38.0339Z" fill="#455A64"/>
<path d="M32.5746 19.9317C32.5746 19.9317 32.5413 19.9317 32.4831 19.8942C32.3995 19.8491 32.3196 19.7977 32.2439 19.7403C31.968 19.5273 31.7333 19.2658 31.5512 18.9686C31.2875 18.5279 31.0641 18.0642 30.8836 17.5834C30.7712 17.3171 30.6527 17.0405 30.5071 16.768C30.3552 16.4862 30.1769 16.2195 29.9746 15.9714C29.255 15.0976 28.2806 14.4701 27.1874 14.1763C26.7325 14.0634 26.268 13.9938 25.8 13.9683C25.9259 13.9487 26.0534 13.9417 26.1807 13.9475C26.5275 13.9568 26.8725 14.0014 27.2103 14.0806C27.7118 14.202 28.1927 14.3968 28.6372 14.6589C29.1849 14.9782 29.671 15.3931 30.0724 15.884C30.2796 16.1381 30.4614 16.4119 30.6152 16.7014C30.7541 16.9722 30.8791 17.2499 30.9896 17.5334C31.1636 18.0105 31.3765 18.4724 31.6261 18.9146C31.7981 19.2091 32.0173 19.4733 32.2751 19.6966C32.4602 19.8589 32.5788 19.9213 32.5746 19.9317Z" fill="#455A64"/>
<path d="M35.9379 19.913C35.8938 19.9129 35.8499 19.908 35.8068 19.8984C35.6835 19.8787 35.5623 19.8474 35.4449 19.8048C35.0117 19.6426 34.6192 19.3878 34.2947 19.0581C33.8183 18.57 33.4166 18.0142 33.1028 17.4086C32.7243 16.7472 32.3582 15.9838 31.7904 15.3286C31.2517 14.7082 30.5396 14.2634 29.7457 14.0515C29.0952 13.8805 28.4257 13.7917 27.7531 13.7874C27.179 13.7749 26.7131 13.7978 26.3907 13.8102L26.0184 13.8248C25.9748 13.8297 25.9309 13.8297 25.8873 13.8248C25.9288 13.8104 25.9724 13.8027 26.0163 13.8019C26.1016 13.8019 26.2243 13.777 26.3865 13.7645C26.7089 13.7374 27.1748 13.6979 27.7552 13.7C28.4369 13.6919 29.1166 13.7737 29.7769 13.9434C30.596 14.1552 31.3314 14.6107 31.886 15.2496C32.4684 15.9298 32.8324 16.7056 33.2027 17.3629C33.5084 17.9615 33.8971 18.514 34.3571 19.004C34.6683 19.3329 35.0444 19.5935 35.4616 19.7694C35.7611 19.8755 35.94 19.8984 35.9379 19.913Z" fill="#455A64"/>
<path d="M41.6308 35.5629C41.6184 35.5629 41.6932 35.3923 41.7723 35.0762C41.8897 34.6342 41.9395 34.1769 41.92 33.72C41.8956 33.0405 41.7208 32.3749 41.4083 31.7711C41.2223 31.4167 40.9901 31.0887 40.7177 30.7955C40.439 30.4835 40.1187 30.1903 39.7963 29.8803C39.4741 29.584 39.1751 29.2634 38.9019 28.9215C38.653 28.5974 38.4376 28.249 38.2592 27.8815C38.0967 27.548 37.9664 27.1997 37.8702 26.8415C37.7847 26.5313 37.7242 26.2149 37.6892 25.8951C37.6364 25.4324 37.6413 24.965 37.7038 24.5035C37.7189 24.379 37.7411 24.2553 37.7704 24.1333C37.7768 24.0892 37.788 24.046 37.8037 24.0043C37.8182 24.0043 37.7808 24.1853 37.7517 24.5098C37.7093 24.9676 37.7177 25.4287 37.7766 25.8847C37.818 26.1983 37.8827 26.5083 37.97 26.8123C38.0698 27.1613 38.2014 27.5004 38.3632 27.8253C38.5409 28.1847 38.7541 28.5255 38.9997 28.8424C39.2699 29.1792 39.5654 29.4949 39.8837 29.7867C40.2061 30.0946 40.5264 30.392 40.8092 30.7082C41.0861 31.0108 41.3218 31.3486 41.5102 31.7128C41.8255 32.3328 41.9962 33.0162 42.0094 33.7117C42.0216 34.1785 41.9584 34.6441 41.8222 35.0907C41.7867 35.2121 41.7429 35.331 41.6912 35.4464C41.6773 35.4882 41.657 35.5275 41.6308 35.5629Z" fill="#455A64"/>
<path d="M15.2129 19.7216C15.2105 19.6414 15.221 19.5613 15.2441 19.4845C15.2944 19.2726 15.3742 19.0689 15.4812 18.8792C15.6531 18.5588 15.8908 18.2784 16.1788 18.0564C16.4668 17.8344 16.7985 17.6758 17.1521 17.5911C17.5057 17.5065 17.8732 17.4976 18.2305 17.5651C18.5878 17.6326 18.9268 17.7749 19.2252 17.9827C19.4067 18.1037 19.5705 18.2493 19.7119 18.4154C19.769 18.4757 19.8142 18.5463 19.845 18.6234C19.6422 18.4158 19.4184 18.2297 19.1773 18.068C18.8856 17.8774 18.558 17.7484 18.2146 17.6887C17.8713 17.629 17.5194 17.64 17.1804 17.721C16.8415 17.802 16.5226 17.9513 16.2433 18.1597C15.964 18.3682 15.7302 18.6314 15.5561 18.9333C15.4159 19.1841 15.301 19.4482 15.2129 19.7216Z" fill="#455A64"/>
<path d="M17.5507 20.7367C17.5474 20.5521 17.5698 20.368 17.6173 20.1896C17.6901 19.7413 17.8876 19.3225 18.1872 18.9811C18.3507 18.8157 18.5562 18.698 18.7817 18.6409C19.0071 18.5837 19.2439 18.5891 19.4664 18.6567C19.5995 18.7013 19.7176 18.7819 19.8075 18.8896C19.8679 18.9687 19.8866 19.0186 19.8803 19.0227C19.7589 18.894 19.6074 18.7975 19.4394 18.7419C19.2338 18.6935 19.0193 18.6981 18.8159 18.7552C18.6125 18.8123 18.427 18.9201 18.2767 19.0685C17.9947 19.3961 17.7982 19.7884 17.7047 20.2104C17.6695 20.3901 17.618 20.5663 17.5507 20.7367Z" fill="#455A64"/>
<path d="M20.6125 17.2048C20.6458 17.2277 20.2443 17.756 19.9885 18.5173C19.7326 19.2786 19.7015 19.9421 19.6619 19.9379C19.6224 19.9338 19.5912 19.2598 19.8699 18.4819C20.0134 18.0037 20.2678 17.5661 20.6125 17.2048Z" fill="#FF725E"/>
<path d="M18.9089 77.0735L23.7824 73.421L22.4075 55.3562L38.8187 54.4909L40.4993 73.421L42.0094 76.2914L43.2824 84.2287H15.167L18.9089 77.0735Z" fill="#FF725E"/>
<path d="M35.0997 40.0786L37.292 55.4519L38.8729 55.1045L36.9863 40.6235C36.9863 40.6235 35.9775 39.7395 35.0997 40.0786Z" fill="#FF725E"/>
<path d="M22.4075 55.352L16.2965 41.8778C16.2965 41.8778 16.9704 40.9522 17.636 40.9522C18.3016 40.9522 18.1456 41.4451 18.1456 41.4451L23.7824 55.4477L22.4075 55.352Z" fill="#FF725E"/>
<path d="M36.9468 61.7293C36.9494 61.7458 36.9494 61.7627 36.9468 61.7792C36.9468 61.8187 36.9468 61.8687 36.9468 61.9269C36.9468 62.0579 36.9592 62.2493 36.9634 62.4968C36.9755 63.1925 36.9324 63.888 36.8344 64.5768C36.6992 65.6123 36.3531 66.6091 35.8173 67.5055C35.4902 68.0296 35.0767 68.4944 34.5943 68.8804C34.3395 69.0855 34.0658 69.2659 33.7768 69.4191C33.4797 69.5773 33.1658 69.7015 32.8408 69.7893C32.5147 69.8787 32.1785 69.9255 31.8404 69.9287C31.5123 69.9282 31.1858 69.8849 30.869 69.7997C30.2719 69.6289 29.7196 69.3293 29.2508 68.9219C28.472 68.2288 27.8762 67.3544 27.516 66.376C27.2641 65.7231 27.0617 65.0522 26.9108 64.3688C26.8567 64.1275 26.8172 63.9403 26.7922 63.8135C26.7818 63.7552 26.7735 63.7074 26.7652 63.6679C26.7629 63.6513 26.7629 63.6345 26.7652 63.6179C26.7716 63.6334 26.7765 63.6494 26.7797 63.6658L26.8172 63.8072C26.8525 63.9424 26.8983 64.1275 26.9565 64.3605C27.1226 65.0363 27.3345 65.7 27.5909 66.3469C27.9596 67.3092 28.5588 68.1663 29.336 68.8429C29.7949 69.2384 30.3343 69.5294 30.9168 69.6957C31.2251 69.7768 31.5424 69.818 31.8612 69.8184C32.1894 69.8155 32.5159 69.7701 32.8325 69.6832C33.1504 69.5978 33.4574 69.4764 33.7477 69.3213C34.0311 69.1723 34.2993 68.9961 34.5485 68.7951C35.0228 68.4177 35.4306 67.9635 35.7549 67.4514C36.2863 66.5673 36.635 65.5856 36.7804 64.5644C36.8837 63.8757 36.9379 63.1807 36.9426 62.4844C36.9426 62.2452 36.9426 62.0538 36.9426 61.9165C36.9426 61.8562 36.9426 61.8083 36.9426 61.7667C36.9422 61.7541 36.9436 61.7415 36.9468 61.7293Z" fill="#263238"/>
<path d="M36.0523 60.968C36.0523 60.968 36.0274 60.9909 35.9754 61.0263C35.9234 61.0616 35.8443 61.1115 35.7382 61.1698C35.4422 61.3382 35.1351 61.4863 34.8189 61.6128C33.7713 62.0347 32.6491 62.2398 31.52 62.216C30.8606 62.2035 30.2387 62.1328 29.673 62.0933C29.1736 62.0488 28.6715 62.0433 28.1712 62.0767C27.835 62.1018 27.5025 62.1625 27.179 62.2576C27.0627 62.3012 26.9439 62.338 26.8234 62.3679C26.8496 62.3488 26.8783 62.3334 26.9086 62.3221C26.9926 62.2826 27.0787 62.2479 27.1666 62.2181C27.4899 62.1093 27.8251 62.0395 28.165 62.0101C28.6688 61.9669 29.1754 61.9669 29.6792 62.0101C30.247 62.0434 30.869 62.112 31.5221 62.1245C32.9793 62.1495 34.4202 61.8151 35.7174 61.1511C35.825 61.0829 35.9369 61.0218 36.0523 60.968Z" fill="#263238"/>
<g opacity="0.4">
<path d="M26.7755 64.504C27.125 65.96 27.4848 67.4514 28.2606 68.7389C29.0365 70.0264 30.3053 71.106 31.7966 71.2661C33.0446 71.4013 34.3093 70.8709 35.2099 70.0015C36.0924 69.1002 36.6962 67.9634 36.9488 66.7276C37.2275 65.5066 37.0299 64.3272 36.9488 63.0751C36.9488 63.0751 36.8573 64.4749 36.7096 64.9824C36.3269 66.2845 35.8485 67.4784 34.9146 68.4685C33.9806 69.4586 32.5746 70.0285 31.2392 69.7935C30.0994 69.5855 29.1134 68.8284 28.4312 67.8924C27.749 66.9564 27.3392 65.8498 27.0022 64.7412" fill="black"/>
</g>
<g opacity="0.4">
<path d="M30.5112 59.928C30.1063 59.846 29.7153 59.7059 29.3506 59.512C29.1452 59.4162 28.965 59.2737 28.8243 59.096C28.7557 59.0062 28.712 58.8998 28.6977 58.7876C28.6835 58.6755 28.6992 58.5616 28.7432 58.4574C28.8067 58.3477 28.9041 58.2616 29.0208 58.2121C29.1374 58.1626 29.2671 58.1523 29.3901 58.1829C29.512 58.2176 29.625 58.2784 29.7212 58.361C29.8175 58.4435 29.8947 58.546 29.9475 58.6613C29.8331 58.341 30.0806 57.9166 30.4176 57.9458C30.5409 57.9691 30.6528 58.033 30.7357 58.1272C30.8186 58.2214 30.8677 58.3405 30.8752 58.4658C30.8865 58.7165 30.8305 58.9657 30.713 59.1875C30.597 59.4133 30.5183 59.6563 30.48 59.9072" fill="white"/>
</g>
<g opacity="0.4">
<path d="M34.5277 75.8858C34.1224 75.805 33.7313 75.6648 33.367 75.4698C33.1611 75.3749 32.9807 75.2323 32.8408 75.0538C32.7706 74.9652 32.7257 74.8592 32.7111 74.747C32.6964 74.6349 32.7125 74.521 32.7576 74.4173C32.8211 74.3076 32.9185 74.2215 33.0352 74.1719C33.1518 74.1224 33.2815 74.1122 33.4045 74.1427C33.5268 74.1761 33.6402 74.2361 33.7366 74.3184C33.8329 74.4008 33.9099 74.5034 33.9619 74.619C33.8496 74.3008 34.095 73.8744 34.432 73.9056C34.5552 73.9288 34.6671 73.9923 34.7503 74.086C34.8335 74.1798 34.8832 74.2985 34.8917 74.4235C34.901 74.6748 34.8451 74.9241 34.7294 75.1474C34.613 75.3687 34.5336 75.6076 34.4944 75.8546" fill="white"/>
</g>
<g opacity="0.4">
<path d="M32.7057 66.5237C32.3004 66.443 31.9093 66.3028 31.545 66.1077C31.3396 66.0119 31.1594 65.8694 31.0188 65.6917C30.9498 65.6021 30.9057 65.4958 30.8911 65.3836C30.8765 65.2715 30.8918 65.1575 30.9356 65.0532C30.9997 64.9436 31.0976 64.8579 31.2146 64.8088C31.3317 64.7596 31.4614 64.7498 31.5845 64.7807C31.7065 64.8147 31.8196 64.8749 31.9159 64.9572C32.0122 65.0395 32.0894 65.1418 32.142 65.257C32.0276 64.9387 32.273 64.5123 32.6121 64.5435C32.735 64.5668 32.8467 64.6304 32.9295 64.7242C33.0124 64.8179 33.0617 64.9366 33.0697 65.0615C33.0796 65.3128 33.0237 65.5623 32.9074 65.7853C32.7918 66.007 32.7124 66.2457 32.6724 66.4925" fill="white"/>
</g>
<g opacity="0.4">
<path d="M37.5375 71.6301C37.1773 71.4296 36.848 71.1781 36.5599 70.8834C36.3941 70.729 36.2666 70.5382 36.1875 70.3259C36.1496 70.2208 36.1406 70.1075 36.1615 69.9977C36.1823 69.888 36.2323 69.7858 36.3061 69.7019C36.4005 69.6171 36.52 69.5654 36.6465 69.5545C36.7729 69.5436 36.8995 69.5742 37.0071 69.6416C37.1121 69.7117 37.2006 69.8038 37.2663 69.9116C37.3321 70.0193 37.3735 70.1402 37.3877 70.2656C37.3877 69.9266 37.7455 69.5979 38.0554 69.7311C38.1654 69.7916 38.2522 69.8869 38.3022 70.0021C38.3523 70.1173 38.3628 70.2458 38.332 70.3675C38.2633 70.609 38.1328 70.8284 37.9535 71.004C37.7753 71.1801 37.6259 71.3829 37.5104 71.6051" fill="white"/>
</g>
<g opacity="0.4">
<path d="M35.237 59.0482C35.0169 58.9861 34.8068 58.893 34.613 58.7715C34.5051 58.709 34.4127 58.623 34.3426 58.5199C34.309 58.4672 34.2898 58.4066 34.2869 58.3442C34.284 58.2818 34.2974 58.2198 34.326 58.1642C34.3664 58.1074 34.424 58.0651 34.4902 58.0434C34.5565 58.0217 34.6279 58.0217 34.6941 58.0435C34.7596 58.0678 34.8191 58.106 34.8683 58.1556C34.9175 58.2052 34.9553 58.2649 34.9791 58.3306C34.9312 58.1517 35.0852 57.9291 35.2703 57.9603C35.3369 57.9788 35.3955 58.0188 35.4369 58.0741C35.4783 58.1295 35.5002 58.197 35.4991 58.2661C35.4935 58.4044 35.4511 58.5386 35.3764 58.6551C35.3036 58.7724 35.2489 58.9 35.2141 59.0336" fill="white"/>
</g>
<g opacity="0.4">
<path d="M38.4152 65.3901C38.255 65.3442 38.1028 65.2741 37.9638 65.1821C37.8844 65.1376 37.8167 65.0748 37.7662 64.9991C37.7408 64.9613 37.7262 64.9173 37.724 64.8718C37.7218 64.8264 37.7321 64.7812 37.7538 64.7411C37.7827 64.6991 37.8245 64.6677 37.873 64.6515C37.9214 64.6354 37.9737 64.6355 38.0221 64.6517C38.0698 64.669 38.1132 64.6967 38.1492 64.7326C38.1851 64.7685 38.2127 64.8119 38.2301 64.8597C38.1947 64.7287 38.307 64.5643 38.4381 64.5893C38.4868 64.6023 38.5296 64.6314 38.5598 64.6718C38.59 64.7121 38.6057 64.7615 38.6045 64.8119C38.6003 64.9131 38.5695 65.0114 38.515 65.0968C38.4614 65.1813 38.422 65.2741 38.3986 65.3714" fill="white"/>
</g>
<g opacity="0.4">
<path d="M37.968 56.417C37.8078 56.3711 37.6556 56.301 37.5167 56.209C37.4373 56.1644 37.3695 56.1017 37.3191 56.0259C37.2943 55.9879 37.2801 55.944 37.2779 55.8987C37.2757 55.8534 37.2856 55.8083 37.3066 55.768C37.3355 55.726 37.3774 55.6946 37.4258 55.6784C37.4742 55.6623 37.5265 55.6624 37.5749 55.6786C37.6225 55.6962 37.6658 55.7239 37.7017 55.7598C37.7376 55.7957 37.7653 55.839 37.7829 55.8866C37.7475 55.7556 37.8619 55.5933 37.9909 55.6162C38.0396 55.6292 38.0825 55.6583 38.1126 55.6987C38.1428 55.739 38.1585 55.7884 38.1573 55.8388C38.1539 55.9398 38.1237 56.0381 38.0699 56.1237C38.0152 56.2087 37.9752 56.3022 37.9514 56.4004" fill="white"/>
</g>
<g opacity="0.4">
<path d="M24.2816 57.5943C24.1221 57.5466 23.9701 57.4766 23.8303 57.3863C23.7508 57.3409 23.6831 57.2775 23.6327 57.2011C23.6079 57.1631 23.5937 57.1192 23.5915 57.0739C23.5893 57.0286 23.5992 56.9835 23.6202 56.9432C23.6492 56.9013 23.6911 56.8701 23.7396 56.8543C23.7881 56.8385 23.8404 56.8391 23.8885 56.8559C23.9363 56.8732 23.9797 56.9008 24.0156 56.9368C24.0515 56.9727 24.0792 57.0161 24.0965 57.0639C24.0611 56.9307 24.1735 56.7685 24.3045 56.7914C24.3533 56.8049 24.3963 56.8343 24.4264 56.875C24.4566 56.9157 24.4722 56.9654 24.4709 57.016C24.4671 57.1167 24.4362 57.2144 24.3815 57.2989C24.3278 57.3841 24.2884 57.4776 24.265 57.5755" fill="white"/>
</g>
<g opacity="0.4">
<path d="M29.4046 72.7554C29.1839 72.6951 28.9735 72.6018 28.7806 72.4787C28.6722 72.417 28.5796 72.3308 28.5102 72.2271C28.4766 72.1748 28.4574 72.1146 28.4545 72.0525C28.4516 71.9904 28.4651 71.9287 28.4936 71.8734C28.5336 71.8162 28.5911 71.7734 28.6575 71.7517C28.7239 71.7299 28.7956 71.7303 28.8618 71.7528C28.9275 71.7767 28.9871 71.8148 29.0364 71.8644C29.0856 71.9141 29.1233 71.974 29.1467 72.0399C29.0989 71.8589 29.2528 71.6363 29.4379 71.6675C29.5044 71.6863 29.5628 71.7264 29.6041 71.7816C29.6455 71.8369 29.6675 71.9043 29.6667 71.9733C29.6611 72.1122 29.6188 72.2471 29.544 72.3643C29.4706 72.4813 29.4158 72.609 29.3818 72.7429" fill="white"/>
</g>
<g opacity="0.4">
<path d="M25.2529 66.0099C25.0328 65.9481 24.8226 65.8549 24.6289 65.7333C24.5201 65.6721 24.4274 65.5858 24.3585 65.4816C24.3243 65.4296 24.3047 65.3693 24.3018 65.3071C24.2988 65.2449 24.3127 65.183 24.3419 65.128C24.3816 65.0704 24.439 65.0272 24.5054 65.0051C24.5718 64.9829 24.6437 64.983 24.71 65.0053C24.7757 65.0299 24.8352 65.0685 24.8844 65.1184C24.9336 65.1684 24.9714 65.2284 24.995 65.2944C24.9472 65.1135 25.1011 64.8909 25.2841 64.9221C25.3509 64.9402 25.4097 64.9801 25.4512 65.0356C25.4927 65.091 25.5144 65.1587 25.5129 65.2279C25.5068 65.3664 25.4652 65.501 25.3923 65.6189C25.3175 65.7344 25.2627 65.8617 25.23 65.9954" fill="white"/>
</g>
<path d="M40.4994 73.421C40.4541 73.4587 40.4054 73.4922 40.3538 73.5208C40.2561 73.579 40.1188 73.6789 39.9233 73.7787C39.3823 74.076 38.813 74.3184 38.2239 74.5026C36.7409 74.9934 34.5693 75.293 32.1919 75.1266C31.0042 75.0371 29.8789 74.9186 28.8639 74.7688C27.9599 74.6391 27.064 74.4578 26.1807 74.2259C25.4257 74.0179 24.8266 73.8245 24.4189 73.6726C24.2109 73.5998 24.057 73.5333 23.9509 73.4917C23.8953 73.4727 23.8416 73.4483 23.7908 73.4189C23.8481 73.4322 23.9044 73.4495 23.9593 73.4709C24.0674 73.5062 24.2255 73.5666 24.4335 73.6331C24.8495 73.7725 25.4465 73.9618 26.1994 74.1531C27.083 74.3715 27.9772 74.5444 28.8785 74.671C29.8956 74.8146 31.0229 74.929 32.2065 75.0184C34.5714 75.1806 36.7305 74.8957 38.2093 74.4277C38.7964 74.2498 39.3665 74.0201 39.9129 73.7413C40.1084 73.6477 40.2498 73.552 40.3517 73.5C40.3991 73.4703 40.4484 73.4438 40.4994 73.421Z" fill="#263238"/>
<path d="M14.7282 69.1466C15.0051 69.4071 15.296 69.6522 15.5997 69.8808L17.0557 69.3567L18.8632 70.2823C18.8632 70.2823 20.4856 70.4528 20.5002 71.0373C20.5148 71.6218 21.4653 74.5026 20.2298 76.4723C18.9943 78.4421 18.1228 79.0931 18.1228 79.0931L13.8962 74.6149L12.6482 73.6456L14.7282 69.1466Z" fill="#FFBE9D"/>
<path d="M61.2931 45.7986C61.7238 45.7986 62.0731 45.4493 62.0731 45.0186C62.0731 44.5878 61.7238 44.2386 61.2931 44.2386C60.8623 44.2386 60.5131 44.5878 60.5131 45.0186C60.5131 45.4493 60.8623 45.7986 61.2931 45.7986Z" fill="#FF725E"/>
<path d="M59.3066 43.2485C59.4275 43.216 59.5544 43.2124 59.6769 43.2381C59.9768 43.2783 60.2612 43.3951 60.5028 43.5772C60.7443 43.7594 60.9349 44.0008 61.0559 44.2781C61.1136 44.3886 61.1443 44.5112 61.1454 44.6359C61.0858 44.5308 61.0323 44.4225 60.9852 44.3114C60.8542 44.0558 60.6675 43.8328 60.439 43.659C60.2104 43.4851 59.9457 43.3647 59.6644 43.3067C59.5441 43.294 59.4247 43.2746 59.3066 43.2485Z" fill="#263238"/>
<path d="M60.929 44.64C60.9415 44.613 61.0268 44.6213 61.1121 44.5734C61.1973 44.5256 61.2369 44.4528 61.2681 44.4549C61.2993 44.457 61.2909 44.4882 61.2785 44.5339C61.2585 44.5917 61.2177 44.6399 61.1641 44.6691C61.1099 44.6981 61.047 44.7062 60.9873 44.692C60.9415 44.6774 60.9228 44.6525 60.929 44.64Z" fill="#263238"/>
<path d="M61.8401 45.3534C61.8846 45.164 61.8846 44.9667 61.8401 44.7773C61.7319 44.4736 61.4657 44.3613 61.4823 44.3259C61.499 44.2905 61.5614 44.3259 61.6612 44.3862C61.7914 44.4707 61.8901 44.5958 61.942 44.7421C61.9939 44.8884 61.9961 45.0477 61.9482 45.1954C61.9025 45.3077 61.8526 45.368 61.8401 45.3534Z" fill="white"/>
<path d="M68.1133 44.7607C68.1133 44.9779 68.0489 45.1902 67.9283 45.3708C67.8076 45.5514 67.6361 45.6922 67.4354 45.7753C67.2347 45.8584 67.0139 45.8802 66.8009 45.8378C66.5878 45.7954 66.3921 45.6908 66.2385 45.5372C66.0849 45.3836 65.9803 45.188 65.938 44.9749C65.8956 44.7619 65.9173 44.5411 66.0005 44.3404C66.0836 44.1397 66.2244 43.9682 66.405 43.8475C66.5856 43.7268 66.7979 43.6624 67.0151 43.6624C67.3062 43.663 67.5852 43.7789 67.7911 43.9847C67.9969 44.1905 68.1128 44.4696 68.1133 44.7607Z" fill="#FF725E"/>
<path d="M69.8127 42.2667C69.8127 42.2834 69.6047 42.2792 69.3073 42.3416C68.9073 42.4206 68.5306 42.59 68.2061 42.837C67.8816 43.0839 67.618 43.4018 67.4353 43.7664C67.2918 44.0451 67.2439 44.2386 67.2273 44.2323C67.2383 44.058 67.2858 43.8879 67.3667 43.7331C67.5381 43.3454 67.8051 43.0075 68.1427 42.7511C68.4803 42.4946 68.8774 42.328 69.2969 42.2667C69.4669 42.2299 69.6428 42.2299 69.8127 42.2667Z" fill="#455A64"/>
<path d="M67.529 44.224C67.529 44.2365 67.5061 44.2656 67.4437 44.2822C67.364 44.2971 67.2816 44.2847 67.2099 44.247C67.1382 44.2092 67.0813 44.1483 67.0485 44.0742C67.0298 44.0139 67.0381 43.9744 67.0485 43.9723C67.0589 43.9702 67.1254 44.0888 67.2565 44.1574C67.3875 44.2261 67.5165 44.197 67.529 44.224Z" fill="#263238"/>
<path d="M66.2435 45.2307C66.2331 45.2307 66.1666 45.16 66.1166 45.004C66.055 44.7997 66.0601 44.5811 66.1312 44.38C66.2025 44.1777 66.3375 44.0039 66.516 43.885C66.6512 43.7955 66.7531 43.7768 66.7573 43.7872C66.7614 43.7976 66.6762 43.8475 66.5618 43.9453C66.4127 44.0697 66.2997 44.2318 66.2346 44.4147C66.1695 44.5976 66.1546 44.7947 66.1915 44.9853C66.2186 45.135 66.256 45.2224 66.2435 45.2307Z" fill="white"/>
<path d="M59.1278 45.7424H69.5153V55.5413H58.5017V46.3664C58.5017 46.2843 58.5179 46.203 58.5494 46.1271C58.5809 46.0513 58.627 45.9824 58.6852 45.9244C58.7434 45.8665 58.8124 45.8205 58.8884 45.7893C58.9643 45.7581 59.0457 45.7421 59.1278 45.7424Z" fill="#FF725E"/>
<g opacity="0.3">
<path d="M58.9011 46.3352C62.2874 46.3768 65.5779 46.1646 68.9642 46.2062L69.5112 46.5744L69.5237 48.1885C69.5237 48.1885 69.2907 48.28 69.2242 48.1053C69.175 47.9002 69.175 47.6864 69.2242 47.4813C69.0266 47.3502 68.9101 47.525 68.8082 47.7434C68.7334 47.9697 68.7072 48.2092 68.7312 48.4464C68.7416 48.5651 68.7264 48.6847 68.6865 48.797C68.6467 48.9093 68.5832 49.0118 68.5003 49.0974C68.3901 49.1698 68.2601 49.2063 68.1282 49.2019C67.9964 49.1974 67.8691 49.1522 67.764 49.0725C67.5576 48.9077 67.3888 48.7006 67.269 48.4651C67.1002 48.1326 66.8652 47.8381 66.5784 47.5998C66.4334 47.4833 66.2567 47.413 66.0712 47.3982C65.8858 47.3833 65.7001 47.4246 65.5384 47.5166C65.2098 47.7454 65.0871 48.255 64.7064 48.3486C64.253 48.4485 63.8744 47.8806 63.4168 47.9098C63.0279 47.9347 62.8053 48.3549 62.6368 48.7085C62.4683 49.0621 62.1751 49.4614 61.7903 49.3949C61.2786 49.3054 61.1496 48.4776 60.6338 48.4256C60.2386 48.3861 59.9807 48.8416 59.6146 48.9872C59.4214 49.0522 59.2121 49.0504 59.0201 48.9822C58.8281 48.9139 58.6646 48.7831 58.5559 48.6107C58.4526 48.4352 58.3865 48.2403 58.3614 48.0382C58.3364 47.8361 58.353 47.631 58.4103 47.4355C58.5271 47.0465 58.6972 46.6755 58.9157 46.3331" fill="black"/>
</g>
<path d="M69.5506 45.7029C69.3526 45.6238 69.1395 45.5897 68.9266 45.603C65.6361 45.5614 62.4308 45.7528 59.1506 45.7403C58.9478 45.7392 58.749 45.7965 58.5779 45.9053C58.4068 46.0141 58.2705 46.1698 58.1855 46.3539C58.1059 46.5215 58.0425 46.6963 57.9962 46.876C57.9371 47.078 57.9198 47.2899 57.9456 47.4988C57.9713 47.7077 58.0395 47.9092 58.146 48.0907C58.2587 48.2684 58.4277 48.4033 58.626 48.4738C58.8243 48.5443 59.0405 48.5463 59.2401 48.4797C59.6186 48.3216 59.887 47.8557 60.2946 47.8994C60.8292 47.9534 60.9623 48.8083 61.4906 48.8998C61.9441 48.9789 62.2748 48.4339 62.4308 48.045C62.4993 47.8579 62.612 47.6902 62.7594 47.5562C63.45 46.9634 63.9118 47.9514 64.5087 47.8203C64.9122 47.7288 65.0391 47.1963 65.3782 46.9654C65.5457 46.8702 65.7379 46.8275 65.93 46.8427C66.122 46.8579 66.3051 46.9303 66.4556 47.0507C66.7513 47.2982 66.9946 47.6023 67.1711 47.9451C67.2947 48.1876 67.4692 48.4005 67.6828 48.5691C67.7912 48.6521 67.9227 48.6993 68.0591 48.7042C68.1955 48.709 68.3301 48.6713 68.4441 48.5962C68.5301 48.5077 68.5959 48.4017 68.6368 48.2853C68.6778 48.1689 68.6929 48.045 68.6812 47.9222C68.6575 47.6766 68.6851 47.4287 68.7623 47.1942C68.8642 46.9717 69.1554 46.8094 69.3614 46.9446C69.3094 47.1332 69.3094 47.3323 69.3614 47.5208C69.3899 47.6139 69.453 47.6925 69.5377 47.7405C69.6225 47.7885 69.7224 47.8021 69.8169 47.7787C70.0082 47.7038 70.0519 47.4563 70.0665 47.2483C70.1081 46.6742 70.0748 45.9546 69.5506 45.7029Z" fill="#FF725E"/>
<path d="M64.0928 39.752C63.9717 39.7203 63.8602 39.6596 63.7679 39.5751C63.6756 39.4906 63.6052 39.3848 63.563 39.267C63.5208 39.1492 63.508 39.0229 63.5256 38.899C63.5433 38.7751 63.5909 38.6574 63.6643 38.556C63.8224 38.348 64.0948 38.2024 64.1822 37.9486C64.2118 37.816 64.2299 37.6809 64.2363 37.5451C64.2396 37.4784 64.2606 37.4137 64.2971 37.3578C64.3337 37.3019 64.3845 37.2567 64.4443 37.2269C64.5024 37.2135 64.5631 37.2172 64.6192 37.2375C64.6753 37.2578 64.7243 37.2938 64.7604 37.3413C64.8298 37.4374 64.8773 37.5474 64.8998 37.6637C65.0154 38.0716 65.0154 38.5037 64.8998 38.9117C64.8505 39.1108 64.7486 39.2931 64.6048 39.4394C64.461 39.5858 64.2806 39.6909 64.0824 39.7437" fill="#FF725E"/>
<path d="M64.4734 40.0723H63.6892V45.6696H64.4734V40.0723Z" fill="#455A64"/>
<path d="M64.4651 40.5528C64.3532 40.6693 64.2306 40.7751 64.0991 40.869C63.9769 40.975 63.8453 41.0697 63.7059 41.1518C63.818 41.0354 63.9405 40.9296 64.072 40.8357C64.1937 40.729 64.3254 40.6343 64.4651 40.5528Z" fill="#263238"/>
<path d="M64.4651 41.5387C64.3532 41.6552 64.2306 41.761 64.0991 41.8549C63.9769 41.961 63.8453 42.0557 63.7059 42.1378C63.819 42.0256 63.9415 41.9233 64.072 41.832C64.1939 41.7226 64.3255 41.6244 64.4651 41.5387Z" fill="#263238"/>
<path d="M64.4651 42.5246C64.2317 42.748 63.9775 42.9486 63.7059 43.1237C63.8186 43.0079 63.9411 42.9021 64.072 42.8075C64.195 42.7025 64.3265 42.6079 64.4651 42.5246Z" fill="#263238"/>
<path d="M64.4651 43.5126C64.3519 43.6278 64.2295 43.7335 64.0991 43.8288C63.9756 43.9332 63.8442 44.0278 63.7059 44.1117C63.8176 43.9942 63.9402 43.8877 64.072 43.7934C64.194 43.6878 64.3257 43.5938 64.4651 43.5126Z" fill="#263238"/>
<path d="M64.4651 44.4986C64.3519 44.6137 64.2295 44.7194 64.0991 44.8147C63.9763 44.92 63.8448 45.0146 63.7059 45.0976C63.8173 44.9805 63.9399 44.8746 64.072 44.7814C64.1937 44.6748 64.3254 44.5801 64.4651 44.4986Z" fill="#263238"/>
<path d="M64.0948 39.1821C64.1253 39.4912 64.1253 39.8027 64.0948 40.1118C64.067 39.8025 64.067 39.4914 64.0948 39.1821Z" fill="#263238"/>
<path d="M52.3782 55.56C52.2118 55.3694 52.1239 55.1227 52.1324 54.8698C52.1409 54.6169 52.2451 54.3766 52.424 54.1976C52.6477 54.0335 52.885 53.8888 53.1333 53.765C53.3683 53.6152 53.5763 53.349 53.5201 53.0848C53.4827 52.8934 53.3121 52.7229 53.3537 52.5315C53.3822 52.4397 53.4451 52.3624 53.5292 52.3159C53.6133 52.2694 53.7122 52.2572 53.8051 52.2819C53.991 52.3365 54.154 52.4504 54.2689 52.6064C54.6988 53.1068 54.9703 53.7236 55.0489 54.3786C55.0864 54.6947 54.9969 55.2792 54.7702 55.5018C54.4405 55.5327 54.1091 55.5431 53.7781 55.533" fill="#FF725E"/>
<path d="M56.247 55.56C56.0798 55.3699 55.9913 55.1232 55.9994 54.8702C56.0075 54.6171 56.1117 54.3766 56.2907 54.1976C56.5149 54.0331 56.7529 53.8883 57.0021 53.765C57.235 53.6152 57.443 53.349 57.3889 53.0848C57.3494 52.8935 57.1809 52.7229 57.2205 52.5315C57.2494 52.4395 57.3126 52.3623 57.3971 52.3158C57.4816 52.2693 57.5807 52.2571 57.6739 52.2819C57.859 52.337 58.0211 52.4509 58.1357 52.6064C58.5656 53.1068 58.837 53.7236 58.9157 54.3786C58.9531 54.6947 58.8657 55.2792 58.639 55.5018C58.3093 55.5327 57.9779 55.5431 57.6469 55.533" fill="#FF725E"/>
<path d="M60.1137 55.56C59.9472 55.3694 59.8594 55.1227 59.8679 54.8698C59.8764 54.6169 59.9806 54.3766 60.1595 54.1976C60.3829 54.0331 60.6202 53.8883 60.8687 53.765C61.1017 53.6152 61.3118 53.349 61.2556 53.0848C61.2182 52.8934 61.0476 52.7229 61.0892 52.5315C61.1177 52.4397 61.1805 52.3624 61.2647 52.3159C61.3488 52.2694 61.4477 52.2572 61.5406 52.2819C61.7262 52.337 61.889 52.4509 62.0044 52.6064C62.4343 53.1068 62.7058 53.7236 62.7844 54.3786C62.8219 54.6947 62.7324 55.2792 62.5057 55.5018C62.1759 55.5327 61.8446 55.5431 61.5135 55.533" fill="#FF725E"/>
<path d="M63.9825 55.56C63.8153 55.3699 63.7268 55.1232 63.7349 54.8702C63.743 54.6171 63.8472 54.3766 64.0262 54.1976C64.2503 54.0331 64.4883 53.8883 64.7375 53.765C64.9705 53.6152 65.1785 53.349 65.1244 53.0848C65.0849 52.8935 64.9164 52.7229 64.9559 52.5315C64.9848 52.4395 65.0481 52.3623 65.1326 52.3158C65.217 52.2693 65.3162 52.2571 65.4094 52.2819C65.5945 52.337 65.7566 52.4509 65.8711 52.6064C66.301 53.1068 66.5725 53.7236 66.6511 54.3786C66.6886 54.6947 66.6012 55.2792 66.3745 55.5018C66.0447 55.5327 65.7134 55.5431 65.3823 55.533" fill="#FF725E"/>
<path d="M67.8493 55.56C67.6828 55.3694 67.595 55.1227 67.6035 54.8698C67.612 54.6169 67.7162 54.3766 67.895 54.1976C68.1185 54.0331 68.3558 53.8883 68.6043 53.765C68.8373 53.6152 69.0474 53.349 68.9912 53.0848C68.9517 52.8934 68.7832 52.7229 68.8248 52.5315C68.8533 52.4397 68.9161 52.3624 69.0003 52.3159C69.0844 52.2694 69.1833 52.2572 69.2762 52.2819C69.4618 52.337 69.6246 52.4509 69.74 52.6064C70.1699 53.1068 70.4414 53.7236 70.52 54.3786C70.5554 54.6947 70.468 55.2792 70.2413 55.5018C69.9115 55.5327 69.5802 55.5431 69.2491 55.533" fill="#FF725E"/>
<path d="M71.716 55.56C71.5495 55.3694 71.4617 55.1227 71.4702 54.8698C71.4787 54.6169 71.5829 54.3766 71.7617 54.1976C71.9859 54.0331 72.2239 53.8883 72.4731 53.765C72.7061 53.6152 72.9141 53.349 72.86 53.0848C72.8205 52.8935 72.652 52.7229 72.6915 52.5315C72.7204 52.4395 72.7837 52.3623 72.8682 52.3158C72.9526 52.2693 73.0518 52.2571 73.1449 52.2819C73.3301 52.337 73.4922 52.4509 73.6067 52.6064C74.0366 53.1068 74.3081 53.7236 74.3867 54.3786C74.4241 54.6947 74.3368 55.2792 74.108 55.5018C73.7789 55.5327 73.4483 55.5431 73.1179 55.533" fill="#FF725E"/>
<g opacity="0.8">
<path d="M52.3782 55.5603C52.2118 55.3696 52.1239 55.1229 52.1324 54.87C52.1409 54.6171 52.2451 54.3769 52.424 54.1979C52.6477 54.0338 52.885 53.889 53.1333 53.7652C53.3683 53.6155 53.5763 53.3492 53.5201 53.0851C53.4827 52.8937 53.3121 52.7231 53.3537 52.5318C53.3822 52.4399 53.4451 52.3627 53.5292 52.3162C53.6133 52.2696 53.7122 52.2575 53.8051 52.2822C53.991 52.3367 54.154 52.4507 54.2689 52.6066C54.6988 53.107 54.9703 53.7238 55.0489 54.3788C55.0864 54.695 54.9969 55.2795 54.7702 55.502C54.4405 55.533 54.1091 55.5434 53.7781 55.5332" fill="white"/>
<path d="M56.247 55.56C56.0798 55.3699 55.9913 55.1232 55.9994 54.8702C56.0075 54.6171 56.1117 54.3766 56.2907 54.1976C56.5149 54.0331 56.7529 53.8883 57.0021 53.765C57.235 53.6152 57.443 53.349 57.3889 53.0848C57.3494 52.8935 57.1809 52.7229 57.2205 52.5315C57.2494 52.4395 57.3126 52.3623 57.3971 52.3158C57.4816 52.2693 57.5807 52.2571 57.6739 52.2819C57.859 52.337 58.0211 52.4509 58.1357 52.6064C58.5656 53.1068 58.837 53.7236 58.9157 54.3786C58.9531 54.6947 58.8657 55.2792 58.639 55.5018C58.3093 55.5327 57.9779 55.5431 57.6469 55.533" fill="white"/>
<path d="M60.1137 55.56C59.9472 55.3694 59.8594 55.1227 59.8679 54.8698C59.8764 54.6169 59.9806 54.3766 60.1595 54.1976C60.3829 54.0331 60.6202 53.8883 60.8687 53.765C61.1017 53.6152 61.3118 53.349 61.2556 53.0848C61.2182 52.8934 61.0476 52.7229 61.0892 52.5315C61.1177 52.4397 61.1805 52.3624 61.2647 52.3159C61.3488 52.2694 61.4477 52.2572 61.5406 52.2819C61.7262 52.337 61.889 52.4509 62.0044 52.6064C62.4343 53.1068 62.7058 53.7236 62.7844 54.3786C62.8219 54.6947 62.7324 55.2792 62.5057 55.5018C62.1759 55.5327 61.8446 55.5431 61.5135 55.533" fill="white"/>
<path d="M63.9825 55.56C63.8153 55.3699 63.7268 55.1232 63.7349 54.8702C63.743 54.6171 63.8472 54.3766 64.0262 54.1976C64.2503 54.0331 64.4883 53.8883 64.7375 53.765C64.9705 53.6152 65.1785 53.349 65.1244 53.0848C65.0849 52.8935 64.9164 52.7229 64.9559 52.5315C64.9848 52.4395 65.0481 52.3623 65.1326 52.3158C65.217 52.2693 65.3162 52.2571 65.4094 52.2819C65.5945 52.337 65.7566 52.4509 65.8711 52.6064C66.301 53.1068 66.5725 53.7236 66.6511 54.3786C66.6886 54.6947 66.6012 55.2792 66.3745 55.5018C66.0447 55.5327 65.7134 55.5431 65.3823 55.533" fill="white"/>
<path d="M67.8493 55.56C67.6828 55.3694 67.595 55.1227 67.6035 54.8698C67.612 54.6169 67.7162 54.3766 67.895 54.1976C68.1185 54.0331 68.3558 53.8883 68.6043 53.765C68.8373 53.6152 69.0474 53.349 68.9912 53.0848C68.9517 52.8934 68.7832 52.7229 68.8248 52.5315C68.8533 52.4397 68.9161 52.3624 69.0003 52.3159C69.0844 52.2694 69.1833 52.2572 69.2762 52.2819C69.4618 52.337 69.6246 52.4509 69.74 52.6064C70.1699 53.1068 70.4414 53.7236 70.52 54.3786C70.5554 54.6947 70.468 55.2792 70.2413 55.5018C69.9115 55.5327 69.5802 55.5431 69.2491 55.533" fill="white"/>
<path d="M71.716 55.56C71.5495 55.3694 71.4617 55.1227 71.4702 54.8698C71.4787 54.6169 71.5829 54.3766 71.7617 54.1976C71.9859 54.0331 72.2239 53.8883 72.4731 53.765C72.7061 53.6152 72.9141 53.349 72.86 53.0848C72.8205 52.8935 72.652 52.7229 72.6915 52.5315C72.7204 52.4395 72.7837 52.3623 72.8682 52.3158C72.9526 52.2693 73.0518 52.2571 73.1449 52.2819C73.3301 52.337 73.4922 52.4509 73.6067 52.6064C74.0366 53.1068 74.3081 53.7236 74.3867 54.3786C74.4241 54.6947 74.3368 55.2792 74.108 55.5018C73.7789 55.5327 73.4483 55.5431 73.1179 55.533" fill="white"/>
</g>
<path d="M76.9326 55.5413H50.7474V67.1019H76.9326V55.5413Z" fill="#FF725E"/>
<path d="M48.8713 66.8232H79.6803C79.8292 66.8232 79.9721 66.8824 80.0774 66.9877C80.1827 67.093 80.2419 67.2359 80.2419 67.3848V81.3915C80.2419 81.5405 80.1827 81.6833 80.0774 81.7886C79.9721 81.894 79.8292 81.9531 79.6803 81.9531H47.9145C47.7656 81.9531 47.6227 81.894 47.5174 81.7886C47.4121 81.6833 47.3529 81.5405 47.3529 81.3915V68.3416C47.3526 68.1421 47.3917 67.9446 47.4679 67.7602C47.5441 67.5759 47.656 67.4084 47.797 67.2673C47.9381 67.1263 48.1056 67.0144 48.2899 66.9382C48.4743 66.862 48.6718 66.8229 48.8713 66.8232Z" fill="#FF725E"/>
<g opacity="0.3">
<path d="M47.3113 71.8298C47.5917 72.0232 47.9227 72.1299 48.2633 72.1368C48.6039 72.1437 48.939 72.0504 49.227 71.8685C49.515 71.6866 49.7432 71.4242 49.8834 71.1137C50.0235 70.8032 50.0694 70.4584 50.0153 70.1221C50.1766 70.3806 50.4232 70.5747 50.7124 70.6709C51.0016 70.767 51.3153 70.7592 51.5993 70.6487C51.8834 70.5383 52.12 70.3321 52.2682 70.0658C52.4165 69.7996 52.4671 69.4899 52.4114 69.1903C52.65 69.4092 52.9644 69.5268 53.288 69.5182C53.6117 69.5097 53.9194 69.3757 54.1462 69.1445C54.3188 68.9552 54.4394 68.7056 54.6682 68.5912C55.0281 68.4103 55.4815 68.6765 55.6604 69.0384C55.8393 69.4003 55.831 69.8226 55.8518 70.2261C55.8726 70.6296 55.9433 71.0581 56.2345 71.3431C56.5257 71.628 57.0998 71.6218 57.2641 71.2515C57.3598 71.0435 57.3348 70.7211 57.5553 70.6463C57.7238 70.5901 57.8922 70.744 57.9588 70.9063C58.0019 71.0774 58.0561 71.2455 58.121 71.4096C58.302 71.7299 58.7658 71.7882 59.0986 71.6322C59.4178 71.4482 59.6865 71.1881 59.8807 70.8751C59.7977 71.3512 59.8155 71.8393 59.9327 72.3082C60.0825 72.7679 60.4902 73.1797 60.9727 73.1735C61.5967 73.1735 62.0127 72.5224 62.1313 71.9255C62.2498 71.3285 62.2207 70.6775 62.489 70.1159C62.6554 69.7747 63.0298 69.4648 63.3855 69.5917C63.7724 69.7311 63.8618 70.2739 64.2175 70.4757C64.6502 70.7191 65.1681 70.3384 65.4655 69.937C65.763 69.5355 66.0354 69.0426 66.5222 68.9573C67.0089 68.872 67.5122 69.3088 67.7286 69.7893C67.9449 70.2698 68.0031 70.8106 68.2402 71.2807C68.4774 71.7507 69.0015 72.1543 69.5028 71.992C69.9188 71.8589 70.1268 71.42 70.3785 71.0685C70.6302 70.717 71.1169 70.4112 71.4726 70.6525C71.8282 70.8938 71.8095 71.4845 72.2026 71.5989C72.6894 71.7362 72.941 70.9624 73.4278 70.8231C74.1038 70.6275 74.4678 71.7071 75.1521 71.8859C75.7095 72.0336 76.2274 71.5136 76.4417 70.9791C76.6559 70.4445 76.7183 69.8392 77.0657 69.3795C77.413 68.9199 78.2242 68.7431 78.5217 69.2381C78.6361 69.4315 78.6361 69.6707 78.7297 69.8746C78.9689 70.3883 80.0338 70.4341 80.2564 69.9141V67.6656H47.355L47.3113 71.8298Z" fill="black"/>
</g>
<g opacity="0.3">
<path d="M47.7439 76.0064L56.9313 76.2518C59.8433 76.3309 62.7761 76.4078 65.6673 76.0438C68.4025 75.6965 71.1293 74.9498 73.8729 75.2118C75.1105 75.3262 76.3231 75.6445 77.5607 75.7464C78.6236 75.8358 79.1997 76.0355 80.2397 75.5613V74.9914C77.5212 74.9914 75.2477 74.6877 72.5729 74.6856C69.7212 74.6856 66.9028 75.008 64.0449 75.0059H48.3596C48.0557 74.981 47.7504 75.0325 47.4714 75.1557C47.398 75.2173 47.3446 75.2993 47.318 75.3914C47.2914 75.4834 47.2928 75.5813 47.3221 75.6725C47.3513 75.7638 47.407 75.8442 47.4821 75.9037C47.5573 75.9632 47.6484 75.9989 47.7439 76.0064Z" fill="black"/>
</g>
<path d="M47.2218 75.528L56.4092 75.7734C59.3212 75.8525 62.254 75.9294 65.1452 75.5654C67.8804 75.2181 70.6073 74.4713 73.3529 74.7334C74.5884 74.8478 75.801 75.1661 77.0386 75.268C78.1015 75.3574 79.5575 75.268 80.5975 74.7875C80.6263 74.7745 80.6497 74.7521 80.6641 74.724C80.6784 74.6959 80.6828 74.6638 80.6765 74.6328C80.6703 74.6019 80.6537 74.5741 80.6295 74.5538C80.6053 74.5335 80.575 74.5221 80.5434 74.5213C77.8249 74.5213 74.7548 74.5317 72.0862 74.5317H63.527H47.8417C47.5378 74.5067 47.2325 74.5582 46.9535 74.6814C46.8744 74.7411 46.8155 74.8237 46.7849 74.918C46.7543 75.0123 46.7535 75.1137 46.7826 75.2084C46.8117 75.3032 46.8693 75.3867 46.9475 75.4476C47.0257 75.5085 47.1208 75.5438 47.2198 75.5488" fill="#FF725E"/>
<g opacity="0.3">
<path d="M66.5326 73.1485C66.5097 73.1298 66.5971 72.9696 66.7302 72.7886C66.8633 72.6077 66.9881 72.4766 67.0131 72.4933C67.038 72.5099 66.9486 72.6722 66.8175 72.8531C66.6865 73.0341 66.5575 73.1651 66.5326 73.1485Z" fill="black"/>
</g>
<g opacity="0.3">
<path d="M70.4159 73.24C70.3889 73.2525 70.3181 73.1547 70.2578 73.0216C70.1975 72.8885 70.1705 72.772 70.1975 72.7595C70.2245 72.747 70.2973 72.8448 70.3577 72.9779C70.418 73.111 70.4409 73.2234 70.4159 73.24Z" fill="black"/>
</g>
<g opacity="0.3">
<path d="M73.4673 72.616C73.484 72.641 73.4091 72.72 73.3009 72.7928C73.1928 72.8656 73.0929 72.903 73.0742 72.8781C73.0555 72.8531 73.1325 72.7741 73.2406 72.7013C73.3488 72.6285 73.4507 72.5994 73.4673 72.616Z" fill="black"/>
</g>
<g opacity="0.3">
<path d="M78.1827 72.9259C78.1598 72.9446 78.0537 72.8635 77.9456 72.7429C77.8374 72.6222 77.7667 72.5099 77.7896 72.4891C77.8125 72.4683 77.9185 72.5494 78.0267 72.6701C78.1349 72.7907 78.2035 72.9051 78.1827 72.9259Z" fill="black"/>
</g>
<g opacity="0.3">
<path d="M56.9396 73.7143C56.9188 73.6935 56.9708 73.6082 57.054 73.525C57.1372 73.4418 57.2246 73.3877 57.2454 73.4106C57.2662 73.4335 57.2163 73.5167 57.131 73.5999C57.0457 73.6831 56.9604 73.7371 56.9396 73.7143Z" fill="black"/>
</g>
<g opacity="0.3">
<path d="M54.192 72.8094C54.1732 72.7845 54.2481 72.7034 54.3563 72.6306C54.4644 72.5578 54.5643 72.5182 54.5809 72.5432C54.5976 72.5682 54.5248 72.6472 54.4166 72.72C54.3084 72.7928 54.2169 72.824 54.192 72.8094Z" fill="black"/>
</g>
<g opacity="0.3">
<path d="M49.616 73.4979C49.6014 73.5229 49.4953 73.4854 49.4267 73.3731C49.358 73.2608 49.3684 73.1506 49.3976 73.1485C49.4267 73.1464 49.462 73.2275 49.5182 73.3149C49.5744 73.4022 49.6305 73.4709 49.616 73.4979Z" fill="black"/>
</g>
<g opacity="0.3">
<path d="M52.3615 71.185C52.3844 71.2058 52.3449 71.289 52.2721 71.3742C52.1993 71.4595 52.1223 71.5115 52.0994 71.4907C52.0766 71.4699 52.1182 71.3867 52.1889 71.3035C52.2596 71.2203 52.3386 71.16 52.3615 71.185Z" fill="black"/>
</g>
<path d="M47.3113 70.9894C47.5919 71.183 47.9232 71.2899 48.264 71.2967C48.6048 71.3036 48.9401 71.2101 49.2282 71.0279C49.5163 70.8458 49.7446 70.5829 49.8845 70.2721C50.0244 69.9613 50.0699 69.6162 50.0153 69.2797C50.1753 69.5404 50.4216 69.7367 50.7114 69.8344C51.0012 69.9321 51.3162 69.9251 51.6013 69.8144C51.8864 69.7038 52.1237 69.4966 52.2718 69.229C52.4198 68.9614 52.4693 68.6503 52.4115 68.3499C52.6504 68.5686 52.9648 68.6858 53.2885 68.6769C53.6122 68.6679 53.9198 68.5335 54.1462 68.3021C54.3813 68.0462 54.5206 67.6781 54.9657 67.6885C55.0713 67.6943 55.1745 67.7221 55.2687 67.7701C55.3629 67.8181 55.446 67.8852 55.5128 67.9672C55.8477 68.3832 55.8269 68.8928 55.8518 69.3837C55.8726 69.7872 55.9433 70.2157 56.2345 70.5027C56.5257 70.7898 57.0998 70.7794 57.2641 70.4112C57.3598 70.2032 57.3349 69.8808 57.5553 69.8059C57.7238 69.7498 57.8923 69.9016 57.9589 70.0659C58.0019 70.2371 58.0561 70.4052 58.1211 70.5693C58.3021 70.8896 58.7659 70.9458 59.0987 70.7918C59.418 70.6071 59.6866 70.3463 59.8808 70.0326C59.8205 70.6088 59.7622 71.2078 60.0472 71.7362C60.1212 71.8837 60.2275 72.0128 60.3582 72.1136C60.4889 72.2144 60.6407 72.2845 60.8022 72.3186C61.5136 72.4413 61.9961 71.7341 62.1313 71.0706C62.2769 70.3758 62.2062 69.6146 62.6305 69.0197C62.6957 68.9215 62.7846 68.8413 62.8889 68.7864C62.9932 68.7315 63.1096 68.7037 63.2275 68.7056C63.7558 68.7368 63.8182 69.3941 64.2197 69.6208C64.6211 69.8475 65.1702 69.4835 65.4677 69.0821C65.7942 68.6286 66.1104 68.0566 66.7157 68.0899C66.8569 68.1022 66.9942 68.1432 67.119 68.2104C67.2439 68.2777 67.3536 68.3697 67.4416 68.481C68.0219 69.1736 67.8929 70.145 68.5024 70.823C68.593 70.9297 68.705 71.0163 68.8311 71.0772C68.9572 71.1381 69.0946 71.172 69.2345 71.1766C69.8273 71.1766 70.0665 70.6317 70.3702 70.2115C70.624 69.8621 71.1086 69.5542 71.4643 69.7955C71.82 70.0368 71.8013 70.6275 72.1944 70.7419C72.6811 70.8792 72.9328 70.1054 73.4195 69.9661C74.0955 69.7706 74.4595 70.8501 75.1438 71.029C75.7013 71.1746 76.2192 70.6566 76.4334 70.1221C76.683 69.4981 76.7267 68.7784 77.2529 68.3062C77.3751 68.193 77.5262 68.1157 77.6894 68.0827C77.8527 68.0496 78.0219 68.0622 78.1785 68.119C78.6465 68.2958 78.5675 68.7014 78.7152 69.0155C78.9544 69.5293 80.0193 69.5771 80.2419 69.055L80.3792 67.233C80.3843 67.1644 80.3753 67.0955 80.3527 67.0306C80.3301 66.9657 80.2943 66.9061 80.2477 66.8556C80.2011 66.805 80.1445 66.7646 80.0816 66.7369C80.0187 66.7091 79.9508 66.6946 79.8821 66.6942L48.1163 66.6131C47.994 66.6122 47.8728 66.636 47.76 66.6832C47.6471 66.7303 47.545 66.7998 47.4597 66.8874C47.3744 66.9751 47.3077 67.079 47.2636 67.1931C47.2195 67.3072 47.199 67.429 47.2032 67.5512L47.3113 70.9894Z" fill="#FF725E"/>
<g opacity="0.6">
<path d="M47.2218 75.528L56.4092 75.7734C59.3212 75.8525 62.254 75.9294 65.1452 75.5654C67.8804 75.2181 70.6073 74.4713 73.3529 74.7334C74.5884 74.8478 75.801 75.1661 77.0386 75.268C78.1015 75.3574 79.5575 75.268 80.5975 74.7875C80.6263 74.7745 80.6497 74.7521 80.6641 74.724C80.6784 74.6959 80.6828 74.6638 80.6765 74.6328C80.6703 74.6019 80.6537 74.5741 80.6295 74.5538C80.6053 74.5335 80.575 74.5221 80.5434 74.5213C77.8249 74.5213 74.7548 74.5317 72.0862 74.5317H63.527H47.8417C47.5378 74.5067 47.2325 74.5582 46.9535 74.6814C46.8744 74.7411 46.8155 74.8237 46.7849 74.918C46.7543 75.0123 46.7535 75.1137 46.7826 75.2084C46.8117 75.3032 46.8693 75.3867 46.9475 75.4476C47.0257 75.5085 47.1208 75.5438 47.2198 75.5488" fill="white"/>
</g>
<g opacity="0.3">
<path d="M76.6331 61.5608C70.9776 61.3362 65.3096 61.1136 59.6644 61.4943C57.0956 61.6669 54.4915 61.9643 51.9684 61.4651C51.682 61.3828 51.3813 61.3629 51.0865 61.4069C50.9844 61.4323 50.8883 61.4775 50.8036 61.54C50.7545 61.577 50.717 61.6273 50.6955 61.6849C50.674 61.7425 50.6694 61.8051 50.6823 61.8652C50.6952 61.9253 50.7251 61.9805 50.7683 62.0243C50.8115 62.068 50.8664 62.0984 50.9264 62.112C55.2944 63.0106 59.7809 61.8271 64.2508 62.0309C65.7526 62.0995 67.2481 62.32 68.7478 62.2555C69.7774 62.2119 70.7966 62.033 71.8241 61.9747C73.4257 61.8832 75.0377 62.0787 76.6352 61.9227C76.7641 61.9082 76.9305 61.8479 76.9181 61.7147C76.9056 61.5816 76.7517 61.565 76.6331 61.5608Z" fill="black"/>
</g>
<path d="M76.6559 61.2155C70.9422 60.9909 65.2159 60.7662 59.5105 61.149C56.9167 61.3216 54.2855 61.619 51.7334 61.1198C51.4441 61.0376 51.1407 61.0177 50.8431 61.0616C50.7398 61.0872 50.6424 61.1324 50.5561 61.1947C50.507 61.2319 50.4695 61.2823 50.4481 61.3401C50.4268 61.3978 50.4224 61.4605 50.4355 61.5207C50.4486 61.5808 50.4787 61.636 50.5222 61.6796C50.5657 61.7232 50.6208 61.7534 50.6809 61.7667C55.0926 62.6653 59.6249 61.4818 64.1447 61.6856C65.659 61.7543 67.1711 61.9747 68.6875 61.9102C69.7275 61.8645 70.755 61.6877 71.795 61.6294C73.4132 61.5379 75.0419 61.7335 76.6559 61.5754C76.7849 61.5629 76.9555 61.5026 76.9409 61.3674C76.9263 61.2322 76.7662 61.2197 76.6559 61.2155Z" fill="#FF725E"/>
<g opacity="0.3">
<path d="M50.7474 55.5413C50.7474 56.9619 51.8228 58.3368 52.8607 58.8006C53.3827 59.0304 53.946 59.1517 54.5163 59.157C55.0866 59.1624 55.6521 59.0518 56.1783 58.8319C57.0748 58.4512 57.9609 57.7378 58.9031 57.9874C59.4023 58.1205 59.7892 58.5074 60.201 58.8194C60.6129 59.1314 61.1454 59.3934 61.6342 59.2229C62.3954 58.9566 62.6263 57.8085 63.4209 57.6712C64.2154 57.5339 64.9455 58.6259 65.7505 58.3951C66.3225 58.2307 66.5554 57.4736 67.1233 57.2947C67.6911 57.1158 68.2423 57.5797 68.8206 57.5319C69.2906 57.4923 69.6879 57.1158 70.1601 57.0992C70.6322 57.0826 71.0794 57.4362 71.3644 57.8355C71.6494 58.2349 71.8553 58.6946 72.1964 59.044C72.5375 59.3934 73.1012 59.6035 73.5276 59.3581C73.954 59.1127 74.0372 58.6114 74.1745 58.1683C74.3118 57.7253 74.6238 57.2323 75.0876 57.2635C75.5514 57.2947 75.903 57.9167 76.3959 57.8875C76.5532 57.8605 76.6971 57.7825 76.8058 57.6656C76.9144 57.5488 76.9816 57.3994 76.997 57.2406C77.0207 56.9218 76.9716 56.6018 76.8535 56.3046L50.7474 55.5413Z" fill="black"/>
</g>
<path d="M50.7474 55.4851C51.1135 56.5626 51.8228 57.6171 52.8607 58.081C53.3824 58.3116 53.9457 58.4336 54.5161 58.4393C55.0865 58.445 55.6521 58.3344 56.1783 58.1142C57.0748 57.7336 57.9609 57.0202 58.9031 57.2698C59.4023 57.4029 59.7892 57.7877 60.201 58.1018C60.6129 58.4158 61.1454 58.6758 61.6342 58.5053C62.3954 58.2411 62.6263 57.0909 63.4209 56.9536C64.2154 56.8163 64.9455 57.9104 65.7505 57.6774C66.3225 57.5131 66.5554 56.756 67.1233 56.5792C67.6911 56.4024 68.2423 56.8642 68.8206 56.8142C69.2906 56.7768 69.6879 56.3982 70.1601 56.3816C70.6322 56.365 71.0794 56.7186 71.3644 57.1179C71.6494 57.5173 71.8553 57.977 72.1964 58.3264C72.5375 58.6758 73.1012 58.8859 73.5276 58.6405C73.954 58.395 74.0372 57.8938 74.1745 57.4507C74.3118 57.0077 74.6238 56.5168 75.0876 56.5459C75.5514 56.575 75.903 57.199 76.3959 57.1699C76.553 57.1425 76.6968 57.0645 76.8054 56.9477C76.9139 56.8309 76.9812 56.6817 76.997 56.523C77.0718 56.1528 77.076 55.7717 77.0095 55.3998L50.7474 55.4851Z" fill="#FF725E"/>
<g opacity="0.3">
<path d="M54.4291 64.712C54.5928 64.3681 54.8192 64.0577 55.0968 63.7968C55.0356 63.9795 54.9403 64.1489 54.816 64.296C54.6225 64.5415 54.454 64.7328 54.4291 64.712Z" fill="black"/>
</g>
<g opacity="0.3">
<path d="M58.0898 64.5352C58.0711 64.5581 57.9463 64.4811 57.8111 64.3626C57.6759 64.244 57.5823 64.1317 57.6031 64.1088C57.6239 64.0859 57.7487 64.1629 57.8818 64.2815C58.015 64.4 58.1106 64.504 58.0898 64.5352Z" fill="black"/>
</g>
<g opacity="0.3">
<path d="M56.8107 65.388C56.8294 65.413 56.7753 65.4858 56.6921 65.5523C56.6089 65.6189 56.5257 65.6563 56.507 65.6334C56.4883 65.6106 56.5403 65.5357 56.6255 65.4691C56.7108 65.4026 56.7919 65.3651 56.8107 65.388Z" fill="black"/>
</g>
<g opacity="0.3">
<path d="M61.5635 63.8051C61.5385 63.8218 61.4366 63.7115 61.3368 63.5597C61.2369 63.4078 61.1745 63.2726 61.1995 63.256C61.2244 63.2394 61.3264 63.3496 61.4262 63.4994C61.526 63.6491 61.5884 63.7885 61.5635 63.8051Z" fill="black"/>
</g>
<g opacity="0.3">
<path d="M61.7444 65.6917C61.7673 65.7083 61.6945 65.829 61.5364 65.8872C61.3783 65.9454 61.2473 65.908 61.2535 65.8872C61.2597 65.8664 61.37 65.8456 61.4969 65.7957C61.6237 65.7458 61.7215 65.6709 61.7444 65.6917Z" fill="black"/>
</g>
<g opacity="0.3">
<path d="M65.1598 64.1088C65.1411 64.1317 65.0142 64.0464 64.9394 63.8779C64.8645 63.7095 64.8874 63.5597 64.9165 63.5597C64.9456 63.5597 64.9726 63.6907 65.0392 63.8343C65.1058 63.9778 65.1806 64.088 65.1598 64.1088Z" fill="black"/>
</g>
<g opacity="0.3">
<path d="M65.6506 65.4026C65.6506 65.4317 65.555 65.4816 65.4218 65.517C65.2887 65.5523 65.1722 65.5565 65.1639 65.5274C65.1556 65.4982 65.2596 65.4462 65.3948 65.413C65.53 65.3797 65.6444 65.3734 65.6506 65.4026Z" fill="black"/>
</g>
<g opacity="0.3">
<path d="M68.39 64.0485C68.363 64.061 68.2735 63.9362 68.182 63.7677C68.0905 63.5992 68.053 63.4515 68.078 63.4391C68.103 63.4266 68.1966 63.5514 68.286 63.7199C68.3754 63.8883 68.417 64.0339 68.39 64.0485Z" fill="black"/>
</g>
<g opacity="0.3">
<path d="M69.6692 65.752C69.6505 65.7291 69.7253 65.6355 69.7877 65.5066C69.8501 65.3776 69.8834 65.2632 69.9146 65.2653C69.9458 65.2674 69.9604 65.4046 69.8834 65.5544C69.8065 65.7042 69.6879 65.777 69.6692 65.752Z" fill="black"/>
</g>
<g opacity="0.3">
<path d="M71.1273 63.7469C71.1065 63.7677 70.9921 63.6429 71.0171 63.4536C71.0421 63.2643 71.1793 63.1707 71.196 63.1978C71.2126 63.2248 71.1398 63.3205 71.1232 63.4661C71.1065 63.6117 71.1544 63.7302 71.1273 63.7469Z" fill="black"/>
</g>
<g opacity="0.3">
<path d="M73.8292 65.2029C73.8001 65.2029 73.7481 65.0781 73.7148 64.9096C73.6815 64.7411 73.6773 64.5997 73.7148 64.5934C73.7522 64.5872 73.7959 64.7203 73.8292 64.8867C73.8625 65.0531 73.8583 65.1966 73.8292 65.2029Z" fill="black"/>
</g>
<g opacity="0.3">
<path d="M75.148 64.8971C75.123 64.8805 75.148 64.7848 75.225 64.6891C75.3019 64.5935 75.3664 64.5207 75.3914 64.5373C75.4163 64.5539 75.381 64.6496 75.3144 64.7453C75.2478 64.841 75.1709 64.92 75.148 64.8971Z" fill="black"/>
</g>
<g opacity="0.3">
<path d="M75.3165 59.7699C75.2915 59.7533 75.3165 59.6742 75.3643 59.591C75.4122 59.5078 75.4787 59.4517 75.5058 59.4683C75.5328 59.485 75.5058 59.564 75.4579 59.6472C75.4101 59.7304 75.3435 59.7845 75.3165 59.7699Z" fill="black"/>
</g>
<g opacity="0.3">
<path d="M69.9146 60.0861C69.8876 60.1006 69.7961 59.9738 69.7066 59.8074C69.6172 59.641 69.5756 59.4912 69.6026 59.4766C69.6297 59.4621 69.7191 59.589 69.8106 59.7574C69.9022 59.9259 69.9396 60.0736 69.9146 60.0861Z" fill="black"/>
</g>
<g opacity="0.3">
<path d="M70.5845 58.5635C70.5533 58.5635 70.5304 58.549 70.5304 58.5323C70.5304 58.5157 70.5533 58.5032 70.5845 58.5032C70.6157 58.5032 70.6386 58.5157 70.6386 58.5323C70.6386 58.549 70.624 58.5635 70.5845 58.5635Z" fill="black"/>
</g>
<g opacity="0.3">
<path d="M65.9024 59.9114C65.8774 59.8927 65.9669 59.7408 66.1 59.5723C66.2331 59.4039 66.3621 59.2811 66.3849 59.2999C66.4078 59.3186 66.3184 59.4704 66.1769 59.6389C66.0355 59.8074 65.9253 59.928 65.9024 59.9114Z" fill="black"/>
</g>
<g opacity="0.3">
<path d="M63.76 59.304C63.733 59.2936 63.76 59.1771 63.8016 59.0419C63.8432 58.9067 63.916 58.8069 63.943 58.8173C63.9701 58.8277 63.9534 58.9462 63.9035 59.0794C63.8536 59.2125 63.787 59.304 63.76 59.304Z" fill="black"/>
</g>
<g opacity="0.3">
<path d="M62.1126 59.9654C62.1002 59.9384 62.1709 59.876 62.2707 59.8261C62.3706 59.7762 62.4642 59.7554 62.4787 59.7824C62.4933 59.8094 62.4205 59.8718 62.3206 59.9218C62.2208 59.9717 62.1272 59.9925 62.1126 59.9654Z" fill="black"/>
</g>
<g opacity="0.3">
<path d="M58.3873 59.6639C58.3623 59.6805 58.2999 59.6243 58.25 59.5411C58.2001 59.4579 58.1772 59.3768 58.2042 59.3602C58.2313 59.3435 58.2916 59.4018 58.3415 59.485C58.3914 59.5682 58.4122 59.6493 58.3873 59.6639Z" fill="black"/>
</g>
<g opacity="0.3">
<path d="M58.3394 59.1147C58.3124 59.1002 58.3186 59.0357 58.3519 58.967C58.3852 58.8984 58.4351 58.8568 58.4601 58.8714C58.485 58.8859 58.4829 58.9483 58.4476 59.017C58.4122 59.0856 58.3665 59.1272 58.3394 59.1147Z" fill="black"/>
</g>
<g opacity="0.3">
<path d="M55.8352 60.941C55.8082 60.9535 55.7063 60.7995 55.6043 60.5978C55.5024 60.396 55.4442 60.2213 55.4691 60.2088C55.4941 60.1963 55.6002 60.3482 55.7021 60.5499C55.804 60.7517 55.856 60.9264 55.8352 60.941Z" fill="black"/>
</g>
<g opacity="0.3">
<path d="M53.0314 60.0257C53.0612 60.0257 53.0855 59.9438 53.0855 59.8427C53.0855 59.7416 53.0612 59.6597 53.0314 59.6597C53.0015 59.6597 52.9773 59.7416 52.9773 59.8427C52.9773 59.9438 53.0015 60.0257 53.0314 60.0257Z" fill="black"/>
</g>
<g opacity="0.3">
<path d="M51.2654 59.7824C51.2342 59.7824 51.2259 59.6784 51.2425 59.5619C51.2592 59.4454 51.2966 59.3539 51.3257 59.3539C51.3548 59.3539 51.3652 59.4558 51.3486 59.5744C51.332 59.693 51.2945 59.7866 51.2654 59.7824Z" fill="black"/>
</g>
<g opacity="0.3">
<path d="M58.2126 60.4522C58.2126 60.4813 58.1065 60.5458 57.9547 60.5957C57.8028 60.6456 57.6739 60.6643 57.6635 60.6352C57.6531 60.6061 57.7696 60.5437 57.9214 60.4917C58.0732 60.4397 58.2022 60.4251 58.2126 60.4522Z" fill="black"/>
</g>
<g opacity="0.8">
<path d="M47.3113 70.9894C47.5919 71.183 47.9232 71.2899 48.264 71.2967C48.6048 71.3036 48.9401 71.2101 49.2282 71.0279C49.5163 70.8458 49.7446 70.5829 49.8845 70.2721C50.0244 69.9613 50.0699 69.6162 50.0153 69.2797C50.1753 69.5404 50.4216 69.7367 50.7114 69.8344C51.0012 69.9321 51.3162 69.9251 51.6013 69.8144C51.8864 69.7038 52.1237 69.4966 52.2718 69.229C52.4198 68.9614 52.4693 68.6503 52.4115 68.3499C52.6504 68.5686 52.9648 68.6858 53.2885 68.6769C53.6122 68.6679 53.9198 68.5335 54.1462 68.3021C54.3813 68.0462 54.5206 67.6781 54.9657 67.6885C55.0713 67.6943 55.1745 67.7221 55.2687 67.7701C55.3629 67.8181 55.446 67.8852 55.5128 67.9672C55.8477 68.3832 55.8269 68.8928 55.8518 69.3837C55.8726 69.7872 55.9433 70.2157 56.2345 70.5027C56.5257 70.7898 57.0998 70.7794 57.2641 70.4112C57.3598 70.2032 57.3349 69.8808 57.5553 69.8059C57.7238 69.7498 57.8923 69.9016 57.9589 70.0659C58.0019 70.2371 58.0561 70.4052 58.1211 70.5693C58.3021 70.8896 58.7659 70.9458 59.0987 70.7918C59.418 70.6071 59.6866 70.3463 59.8808 70.0326C59.8205 70.6088 59.7622 71.2078 60.0472 71.7362C60.1212 71.8837 60.2275 72.0128 60.3582 72.1136C60.4889 72.2144 60.6407 72.2845 60.8022 72.3186C61.5136 72.4413 61.9961 71.7341 62.1313 71.0706C62.2769 70.3758 62.2062 69.6146 62.6305 69.0197C62.6957 68.9215 62.7846 68.8413 62.8889 68.7864C62.9932 68.7315 63.1096 68.7037 63.2275 68.7056C63.7558 68.7368 63.8182 69.3941 64.2197 69.6208C64.6211 69.8475 65.1702 69.4835 65.4677 69.0821C65.7942 68.6286 66.1104 68.0566 66.7157 68.0899C66.8569 68.1022 66.9942 68.1432 67.119 68.2104C67.2439 68.2777 67.3536 68.3697 67.4416 68.481C68.0219 69.1736 67.8929 70.145 68.5024 70.823C68.593 70.9297 68.705 71.0163 68.8311 71.0772C68.9572 71.1381 69.0946 71.172 69.2345 71.1766C69.8273 71.1766 70.0665 70.6317 70.3702 70.2115C70.624 69.8621 71.1086 69.5542 71.4643 69.7955C71.82 70.0368 71.8013 70.6275 72.1944 70.7419C72.6811 70.8792 72.9328 70.1054 73.4195 69.9661C74.0955 69.7706 74.4595 70.8501 75.1438 71.029C75.7013 71.1746 76.2192 70.6566 76.4334 70.1221C76.683 69.4981 76.7267 68.7784 77.2529 68.3062C77.3751 68.193 77.5262 68.1157 77.6894 68.0827C77.8527 68.0496 78.0219 68.0622 78.1785 68.119C78.6465 68.2958 78.5675 68.7014 78.7152 69.0155C78.9544 69.5293 80.0193 69.5771 80.2419 69.055L80.3792 67.233C80.3843 67.1644 80.3753 67.0955 80.3527 67.0306C80.3301 66.9657 80.2943 66.9061 80.2477 66.8556C80.2011 66.805 80.1445 66.7646 80.0816 66.7369C80.0187 66.7091 79.9508 66.6946 79.8821 66.6942L48.1163 66.6131C47.994 66.6122 47.8728 66.636 47.76 66.6832C47.6471 66.7303 47.545 66.7998 47.4597 66.8874C47.3744 66.9751 47.3077 67.079 47.2636 67.1931C47.2195 67.3072 47.199 67.429 47.2032 67.5512L47.3113 70.9894Z" fill="white"/>
</g>
<g opacity="0.8">
<path d="M50.7474 55.4851C51.1135 56.5626 51.8228 57.6171 52.8607 58.081C53.3824 58.3116 53.9457 58.4336 54.5161 58.4393C55.0865 58.445 55.6521 58.3344 56.1783 58.1142C57.0748 57.7336 57.9609 57.0202 58.9031 57.2698C59.4023 57.4029 59.7892 57.7877 60.201 58.1018C60.6129 58.4158 61.1454 58.6758 61.6342 58.5053C62.3954 58.2411 62.6263 57.0909 63.4209 56.9536C64.2154 56.8163 64.9455 57.9104 65.7505 57.6774C66.3225 57.5131 66.5554 56.756 67.1233 56.5792C67.6911 56.4024 68.2423 56.8642 68.8206 56.8142C69.2906 56.7768 69.6879 56.3982 70.1601 56.3816C70.6322 56.365 71.0794 56.7186 71.3644 57.1179C71.6494 57.5173 71.8553 57.977 72.1964 58.3264C72.5375 58.6758 73.1012 58.8859 73.5276 58.6405C73.954 58.395 74.0372 57.8938 74.1745 57.4507C74.3118 57.0077 74.6238 56.5168 75.0876 56.5459C75.5514 56.575 75.903 57.199 76.3959 57.1699C76.553 57.1425 76.6968 57.0645 76.8054 56.9477C76.9139 56.8309 76.9812 56.6817 76.997 56.523C77.0718 56.1528 77.076 55.7717 77.0095 55.3998L50.7474 55.4851Z" fill="white"/>
</g>
<g opacity="0.8">
<path d="M69.5506 45.7029C69.3526 45.6238 69.1395 45.5897 68.9266 45.603C65.6361 45.5614 62.4308 45.7528 59.1506 45.7403C58.9478 45.7392 58.749 45.7965 58.5779 45.9053C58.4068 46.0141 58.2705 46.1698 58.1855 46.3539C58.1059 46.5215 58.0425 46.6963 57.9962 46.876C57.9371 47.078 57.9198 47.2899 57.9456 47.4988C57.9713 47.7077 58.0395 47.9092 58.146 48.0907C58.2587 48.2684 58.4277 48.4033 58.626 48.4738C58.8243 48.5443 59.0405 48.5463 59.2401 48.4797C59.6186 48.3216 59.887 47.8557 60.2946 47.8994C60.8292 47.9534 60.9623 48.8083 61.4906 48.8998C61.9441 48.9789 62.2748 48.4339 62.4308 48.045C62.4993 47.8579 62.612 47.6902 62.7594 47.5562C63.45 46.9634 63.9118 47.9514 64.5087 47.8203C64.9122 47.7288 65.0391 47.1963 65.3782 46.9654C65.5457 46.8702 65.7379 46.8275 65.93 46.8427C66.122 46.8579 66.3051 46.9303 66.4556 47.0507C66.7513 47.2982 66.9946 47.6023 67.1711 47.9451C67.2947 48.1876 67.4692 48.4005 67.6828 48.5691C67.7912 48.6521 67.9227 48.6993 68.0591 48.7042C68.1955 48.709 68.3301 48.6713 68.4441 48.5962C68.5301 48.5077 68.5959 48.4017 68.6368 48.2853C68.6778 48.1689 68.6929 48.045 68.6812 47.9222C68.6575 47.6766 68.6851 47.4287 68.7623 47.1942C68.8642 46.9717 69.1554 46.8094 69.3614 46.9446C69.3094 47.1332 69.3094 47.3323 69.3614 47.5208C69.3899 47.6139 69.453 47.6925 69.5377 47.7405C69.6225 47.7885 69.7224 47.8021 69.8169 47.7787C70.0082 47.7038 70.0519 47.4563 70.0665 47.2483C70.1081 46.6742 70.0748 45.9546 69.5506 45.7029Z" fill="white"/>
</g>
<g opacity="0.6">
<path d="M76.6559 61.2155C70.9422 60.9909 65.2159 60.7662 59.5105 61.149C56.9167 61.3216 54.2855 61.619 51.7334 61.1198C51.4441 61.0376 51.1407 61.0177 50.8431 61.0616C50.7398 61.0872 50.6424 61.1324 50.5561 61.1947C50.507 61.2319 50.4695 61.2823 50.4481 61.3401C50.4268 61.3978 50.4224 61.4605 50.4355 61.5207C50.4486 61.5808 50.4787 61.636 50.5222 61.6796C50.5657 61.7232 50.6208 61.7534 50.6809 61.7667C55.0926 62.6653 59.6249 61.4818 64.1447 61.6856C65.659 61.7543 67.1711 61.9747 68.6875 61.9102C69.7275 61.8645 70.755 61.6877 71.795 61.6294C73.4132 61.5379 75.0419 61.7335 76.6559 61.5754C76.7849 61.5629 76.9555 61.5026 76.9409 61.3674C76.9263 61.2322 76.7662 61.2197 76.6559 61.2155Z" fill="white"/>
</g>
<path d="M55.3048 49.4656C55.1837 49.4339 55.0722 49.3732 54.9799 49.2887C54.8876 49.2042 54.8173 49.0984 54.7751 48.9806C54.7329 48.8628 54.72 48.7365 54.7377 48.6126C54.7553 48.4887 54.8029 48.371 54.8763 48.2696C55.0344 48.0512 55.3048 47.9139 55.3921 47.6602C55.4228 47.5283 55.4409 47.3939 55.4462 47.2587C55.4501 47.1908 55.4725 47.1252 55.511 47.0691C55.5495 47.013 55.6026 46.9685 55.6646 46.9405C55.7224 46.927 55.7829 46.9306 55.8387 46.951C55.8945 46.9713 55.9431 47.0074 55.9787 47.0549C56.0497 47.15 56.0975 47.2604 56.1181 47.3773C56.2337 47.7852 56.2337 48.2173 56.1181 48.6253C56.068 48.824 55.9658 49.0059 55.8222 49.1521C55.6785 49.2983 55.4985 49.4037 55.3006 49.4573" fill="#FF725E"/>
<path d="M55.6854 49.7963H54.9012V55.3936H55.6854V49.7963Z" fill="#455A64"/>
<path d="M55.675 50.2768C55.5623 50.3926 55.4398 50.4983 55.3089 50.593C55.1859 50.698 55.0544 50.7926 54.9158 50.8758C55.0278 50.7594 55.1503 50.6535 55.2818 50.5597C55.404 50.4536 55.5356 50.3589 55.675 50.2768Z" fill="#263238"/>
<path d="M55.675 51.2627C55.5629 51.3792 55.4404 51.485 55.3089 51.5789C55.1865 51.6847 55.055 51.7794 54.9158 51.8618C55.0278 51.7453 55.1503 51.6394 55.2818 51.5456C55.404 51.4395 55.5356 51.3448 55.675 51.2627Z" fill="#263238"/>
<path d="M55.675 52.2486C55.5636 52.3657 55.441 52.4716 55.3089 52.5648C55.1872 52.6714 55.0556 52.7662 54.9158 52.8477C55.029 52.7325 55.1514 52.6268 55.2818 52.5315C55.4046 52.4262 55.5361 52.3316 55.675 52.2486Z" fill="#263238"/>
<path d="M55.675 53.2346C55.5636 53.3517 55.441 53.4576 55.3089 53.5507C55.1872 53.6574 55.0556 53.7521 54.9158 53.8336C55.029 53.7185 55.1514 53.6127 55.2818 53.5174C55.4053 53.413 55.5367 53.3184 55.675 53.2346Z" fill="#263238"/>
<path d="M55.675 54.2205C55.5633 54.338 55.4407 54.4445 55.3089 54.5387C55.1859 54.6437 55.0544 54.7384 54.9158 54.8216C55.028 54.7048 55.1505 54.5983 55.2818 54.5034C55.4053 54.3989 55.5367 54.3043 55.675 54.2205Z" fill="#263238"/>
<path d="M55.3068 48.904C55.3346 49.2133 55.3346 49.5245 55.3068 49.8338C55.2763 49.5246 55.2763 49.2132 55.3068 48.904Z" fill="#263238"/>
<path d="M74.5635 49.4115C74.4426 49.3796 74.3313 49.3187 74.2393 49.234C74.1472 49.1494 74.0772 49.0437 74.0352 48.9259C73.9932 48.8081 73.9805 48.6819 73.9983 48.5581C74.0161 48.4343 74.0637 48.3167 74.1371 48.2155C74.2952 48.0075 74.5656 47.8619 74.653 47.6081C74.6825 47.4761 74.7006 47.3418 74.7071 47.2067C74.7107 47.1387 74.733 47.073 74.7715 47.0169C74.81 46.9607 74.8633 46.9163 74.9255 46.8885C74.9833 46.8753 75.0437 46.879 75.0994 46.8993C75.1551 46.9196 75.2038 46.9556 75.2395 47.0029C75.3092 47.0987 75.3568 47.2088 75.3789 47.3253C75.4945 47.7332 75.4945 48.1653 75.3789 48.5733C75.3286 48.7723 75.2262 48.9543 75.0821 49.1005C74.9381 49.2468 74.7576 49.352 74.5594 49.4053" fill="#FF725E"/>
<path d="M74.9461 49.7422H74.162V55.3395H74.9461V49.7422Z" fill="#455A64"/>
<path d="M74.9358 50.2227C74.8242 50.3402 74.7016 50.4467 74.5698 50.541C74.4473 50.646 74.3157 50.74 74.1766 50.8218C74.2893 50.706 74.4118 50.6002 74.5427 50.5056C74.6661 50.4011 74.7976 50.3066 74.9358 50.2227Z" fill="#263238"/>
<path d="M74.9358 51.2107C74.8232 51.3265 74.7007 51.4323 74.5698 51.5269C74.4463 51.6313 74.3149 51.7259 74.1766 51.8098C74.2883 51.6923 74.4109 51.5857 74.5427 51.4915C74.6652 51.3865 74.7967 51.2925 74.9358 51.2107Z" fill="#263238"/>
<path d="M74.9358 52.1967C74.8232 52.3124 74.7007 52.4182 74.5698 52.5128C74.447 52.6181 74.3155 52.7127 74.1766 52.7957C74.288 52.6786 74.4106 52.5727 74.5427 52.4795C74.6648 52.3734 74.7964 52.2788 74.9358 52.1967Z" fill="#263238"/>
<path d="M74.9358 53.1826C74.8238 53.299 74.7013 53.4048 74.5698 53.4987C74.4476 53.6048 74.316 53.6995 74.1766 53.7816C74.2887 53.6652 74.4112 53.5593 74.5427 53.4654C74.6648 53.3593 74.7964 53.2647 74.9358 53.1826Z" fill="#263238"/>
<path d="M74.9358 54.1685C74.8244 54.2856 74.7018 54.3915 74.5698 54.4846C74.4476 54.5907 74.316 54.6854 74.1766 54.7675C74.2893 54.6518 74.4118 54.546 74.5427 54.4514C74.6655 54.3461 74.797 54.2515 74.9358 54.1685Z" fill="#263238"/>
<path d="M74.576 48.8541C74.6037 49.1634 74.6037 49.4746 74.576 49.7839C74.5455 49.4747 74.5455 49.1633 74.576 48.8541Z" fill="#263238"/>
</svg>
