<svg width="32" height="32" viewBox="0 0 32 32" fill="none" xmlns="http://www.w3.org/2000/svg">
<path d="M23.6345 17.36L18.6665 21.3333H11.9998V20H17.4198C17.5404 19.9999 17.6587 19.9672 17.7622 19.9052C17.8656 19.8432 17.9503 19.7543 18.0072 19.648C18.0641 19.5417 18.0912 19.4219 18.0854 19.3015C18.0796 19.181 18.0413 19.0644 17.9745 18.964L16.7905 17.188C16.5476 16.8224 16.218 16.5226 15.8311 16.3153C15.4443 16.108 15.0121 15.9997 14.5732 16H3.99984C3.64622 16 3.30708 16.1405 3.05703 16.3905C2.80698 16.6406 2.6665 16.9797 2.6665 17.3333V25.3333C2.6665 26.0406 2.94746 26.7189 3.44755 27.219C3.94765 27.719 4.62593 28 5.33317 28H18.1852C18.7553 28.0001 19.3189 27.8784 19.8381 27.6429C20.3574 27.4074 20.8203 27.0637 21.1958 26.6347L29.3332 17.3333L27.3972 16.688C26.7638 16.4769 26.0876 16.4278 25.4303 16.5451C24.7731 16.6625 24.1557 16.9427 23.6345 17.36ZM25.6772 9.85333C26.2785 9.23333 26.6505 8.376 26.6505 7.42933C26.6505 6.48267 26.2785 5.62533 25.6772 5.00533C25.3731 4.68797 25.008 4.43533 24.6038 4.26257C24.1996 4.08981 23.7647 4.0005 23.3252 4C23.3252 4 21.6665 3.996 19.9998 5.71467C18.3332 3.996 16.6745 4 16.6745 4C16.2351 4.00056 15.8003 4.08976 15.3962 4.26228C14.992 4.43479 14.6269 4.68706 14.3225 5.004C13.7212 5.62533 13.3492 6.48133 13.3492 7.428C13.3492 8.37467 13.7212 9.23333 14.3225 9.852L19.9998 16L25.6772 9.85333Z" fill="#449EEE"/>
</svg>
