<svg width="15" height="15" viewBox="0 0 15 15" fill="none" xmlns="http://www.w3.org/2000/svg">
<path d="M6.625 8.625L5.26562 7.26562C5.15104 7.15104 5.01042 7.09375 4.84375 7.09375C4.67708 7.09375 4.53125 7.15625 4.40625 7.28125C4.29167 7.39583 4.23437 7.54167 4.23437 7.71875C4.23437 7.89583 4.29167 8.04167 4.40625 8.15625L6.1875 9.9375C6.30208 10.0521 6.44792 10.1094 6.625 10.1094C6.80208 10.1094 6.94792 10.0521 7.0625 9.9375L10.6094 6.39062C10.724 6.27604 10.7812 6.13542 10.7812 5.96875C10.7812 5.80208 10.7187 5.65625 10.5937 5.53125C10.4792 5.41667 10.3333 5.35937 10.1562 5.35937C9.97917 5.35937 9.83333 5.41667 9.71875 5.53125L6.625 8.625ZM7.5 13.75C6.63542 13.75 5.82292 13.5858 5.0625 13.2575C4.30208 12.9296 3.64062 12.4844 3.07812 11.9219C2.51563 11.3594 2.07042 10.6979 1.7425 9.9375C1.41417 9.17708 1.25 8.36458 1.25 7.5C1.25 6.63542 1.41417 5.82292 1.7425 5.0625C2.07042 4.30208 2.51563 3.64062 3.07812 3.07812C3.64062 2.51563 4.30208 2.07021 5.0625 1.74187C5.82292 1.41396 6.63542 1.25 7.5 1.25C8.36458 1.25 9.17708 1.41396 9.9375 1.74187C10.6979 2.07021 11.3594 2.51563 11.9219 3.07812C12.4844 3.64062 12.9296 4.30208 13.2575 5.0625C13.5858 5.82292 13.75 6.63542 13.75 7.5C13.75 8.36458 13.5858 9.17708 13.2575 9.9375C12.9296 10.6979 12.4844 11.3594 11.9219 11.9219C11.3594 12.4844 10.6979 12.9296 9.9375 13.2575C9.17708 13.5858 8.36458 13.75 7.5 13.75Z" fill="url(#paint0_linear_384_14787)"/>
<defs>
<linearGradient id="paint0_linear_384_14787" x1="1.25" y1="13.75" x2="4.17393" y2="-0.689154" gradientUnits="userSpaceOnUse">
<stop stop-color="#449EEE"/>
<stop offset="1" stop-color="#8FC5F5"/>
</linearGradient>
</defs>
</svg>
