<svg width="15" height="15" viewBox="0 0 15 15" fill="none" xmlns="http://www.w3.org/2000/svg">
<g clip-path="url(#clip0_313_15470)">
<path d="M7.5 1.875C8.94625 1.875 10.285 2.13 11.2863 2.56813C11.7856 2.78688 12.2294 3.06312 12.5562 3.40187C12.8594 3.71437 13.0844 4.10687 13.12 4.56187L13.125 4.6875V10.9375C13.125 11.4462 12.8869 11.8812 12.5562 12.2231C12.2294 12.5619 11.7856 12.8381 11.2863 13.0569C10.285 13.4944 8.94625 13.75 7.5 13.75C6.05375 13.75 4.715 13.495 3.71375 13.0569C3.21437 12.8381 2.77063 12.5619 2.44375 12.2231C2.14063 11.9106 1.91562 11.5181 1.88 11.0631L1.875 10.9375V4.6875C1.875 4.17875 2.11313 3.74375 2.44375 3.40187C2.77063 3.06312 3.21437 2.78688 3.71375 2.56813C4.715 2.13063 6.05375 1.875 7.5 1.875ZM11.875 9.62937C11.6855 9.7429 11.4889 9.84394 11.2863 9.93188C10.285 10.3694 8.94625 10.625 7.5 10.625C6.05375 10.625 4.715 10.37 3.71375 9.93188C3.51113 9.84396 3.31446 9.74291 3.125 9.62937V10.9375C3.125 11.0325 3.16625 11.1725 3.3425 11.3544C3.52125 11.5394 3.81 11.7344 4.215 11.9119C5.02375 12.2656 6.18437 12.5 7.5 12.5C8.81563 12.5 9.97625 12.2656 10.785 11.9119C11.19 11.7344 11.4788 11.5394 11.6575 11.3544C11.8338 11.1731 11.875 11.0325 11.875 10.9375V9.62937ZM11.875 6.50437C11.6855 6.6179 11.4889 6.71894 11.2863 6.80687C10.285 7.24437 8.94625 7.5 7.5 7.5C6.05375 7.5 4.715 7.245 3.71375 6.80687C3.51113 6.71896 3.31446 6.61791 3.125 6.50437V7.8125C3.125 7.9075 3.16625 8.0475 3.3425 8.22937C3.52125 8.41437 3.81 8.60938 4.215 8.78687C5.02375 9.14062 6.18437 9.375 7.5 9.375C8.81563 9.375 9.97625 9.14062 10.785 8.78687C11.19 8.60938 11.4788 8.41437 11.6575 8.22937C11.8338 8.04812 11.875 7.9075 11.875 7.8125V6.50437ZM7.5 3.125C6.18437 3.125 5.02375 3.35938 4.215 3.71312C3.81 3.89062 3.52125 4.08563 3.3425 4.27063C3.16625 4.45188 3.125 4.5925 3.125 4.6875C3.125 4.7825 3.16625 4.9225 3.3425 5.10437C3.52125 5.28937 3.81 5.48438 4.215 5.66188C5.02375 6.01562 6.18437 6.25 7.5 6.25C8.81563 6.25 9.97625 6.01562 10.785 5.66188C11.19 5.48438 11.4788 5.28937 11.6575 5.10437C11.8338 4.92312 11.875 4.7825 11.875 4.6875C11.875 4.5925 11.8338 4.4525 11.6575 4.27063C11.4788 4.08563 11.19 3.89062 10.785 3.71312C9.97625 3.35938 8.81563 3.125 7.5 3.125Z" fill="#449EEE"/>
</g>
<defs>
<clipPath id="clip0_313_15470">
<rect width="15" height="15" fill="white"/>
</clipPath>
</defs>
</svg>
