<svg width="15" height="15" viewBox="0 0 15 15" fill="none" xmlns="http://www.w3.org/2000/svg">
<g clip-path="url(#clip0_258_15273)">
<path d="M7.5 14.375C6.33333 14.375 5.26042 14.1094 4.28125 13.5781C3.30208 13.0469 2.5 12.3385 1.875 11.4531V13.125H0.625V9.375H4.375V10.625H2.82812C3.32812 11.375 3.98708 11.9792 4.805 12.4375C5.62292 12.8958 6.52125 13.125 7.5 13.125C8.28125 13.125 9.01312 12.9765 9.69562 12.6794C10.3781 12.3823 10.9719 11.9815 11.4769 11.4769C11.9819 10.9715 12.3829 10.3777 12.68 9.69562C12.9771 9.01354 13.1254 8.28167 13.125 7.5H14.375C14.375 8.44792 14.1952 9.33854 13.8356 10.1719C13.476 11.0052 12.984 11.7344 12.3594 12.3594C11.7344 12.9844 11.0052 13.4767 10.1719 13.8363C9.33854 14.1958 8.44792 14.3754 7.5 14.375ZM0.625 7.5C0.625 6.55208 0.804792 5.66146 1.16438 4.82812C1.52396 3.99479 2.01604 3.26562 2.64062 2.64062C3.26562 2.01562 3.99479 1.52354 4.82812 1.16438C5.66146 0.805208 6.55208 0.625417 7.5 0.625C8.66667 0.625 9.73958 0.890625 10.7188 1.42188C11.6979 1.95313 12.5 2.66146 13.125 3.54688V1.875H14.375V5.625H10.625V4.375H12.1719C11.6719 3.625 11.0129 3.02083 10.195 2.5625C9.37708 2.10417 8.47875 1.875 7.5 1.875C6.71875 1.875 5.98688 2.02354 5.30438 2.32063C4.62188 2.61771 4.02813 3.01854 3.52313 3.52313C3.01854 4.02854 2.61792 4.6225 2.32125 5.305C2.02458 5.9875 1.87583 6.71917 1.875 7.5H0.625ZM7.5 11.25C7.71875 11.25 7.90375 11.1744 8.055 11.0231C8.20625 10.8719 8.28167 10.6871 8.28125 10.4688C8.28125 10.25 8.20563 10.0625 8.05438 9.90625C7.90313 9.75 7.71833 9.67188 7.5 9.67188C7.28125 9.67188 7.09625 9.7475 6.945 9.89875C6.79375 10.05 6.71833 10.2348 6.71875 10.4531C6.71875 10.6719 6.79437 10.8594 6.94562 11.0156C7.09687 11.1719 7.28167 11.25 7.5 11.25ZM6.9375 8.875H8.07812C8.07812 8.5 8.1225 8.21875 8.21125 8.03125C8.3 7.84375 8.47958 7.61458 8.75 7.34375C9.11458 6.97917 9.35688 6.68479 9.47688 6.46062C9.59688 6.23646 9.65667 5.96833 9.65625 5.65625C9.65625 5.07292 9.44792 4.60938 9.03125 4.26562C8.61458 3.92187 8.10417 3.75 7.5 3.75C6.97917 3.75 6.53125 3.88542 6.15625 4.15625C5.78125 4.42708 5.51042 4.8125 5.34375 5.3125L6.375 5.75C6.44792 5.47917 6.58604 5.25521 6.78937 5.07812C6.99271 4.90104 7.22958 4.8125 7.5 4.8125C7.78125 4.8125 8.01813 4.89333 8.21063 5.055C8.40313 5.21667 8.49958 5.43271 8.5 5.70312C8.5 5.88021 8.45833 6.05729 8.375 6.23438C8.29167 6.41146 8.11458 6.61979 7.84375 6.85938C7.5 7.16146 7.26312 7.45583 7.13313 7.7425C7.00313 8.02917 6.93792 8.40667 6.9375 8.875Z" fill="#222222"/>
</g>
<defs>
<clipPath id="clip0_258_15273">
<rect width="15" height="15" fill="white"/>
</clipPath>
</defs>
</svg>
