<svg width="18" height="18" viewBox="0 0 18 18" fill="none" xmlns="http://www.w3.org/2000/svg">
<path d="M2.25 6.19764V6.18751C2.24999 5.18745 2.54617 4.20979 3.10117 3.37788C3.65618 2.54596 4.44515 1.89706 5.36854 1.51305C6.29193 1.12904 7.30838 1.02711 8.28963 1.22014C9.27088 1.41316 10.173 1.89249 10.8821 2.59764C11.4401 2.32225 12.0633 2.20647 12.6829 2.26307C13.3026 2.31968 13.8945 2.54648 14.3933 2.9184C14.8921 3.29033 15.2784 3.79291 15.5095 4.37062C15.7406 4.94833 15.8075 5.57868 15.7028 6.19201C15.8567 6.2063 16.006 6.25216 16.1415 6.32674C16.2769 6.40132 16.3955 6.503 16.4899 6.62546C16.5842 6.74791 16.6524 6.8885 16.69 7.03846C16.7276 7.18841 16.7339 7.34451 16.7085 7.49701C16.2 10.5559 14.9423 12.492 12.9375 13.3065V14.0625C12.9375 14.5101 12.7597 14.9393 12.4432 15.2558C12.1268 15.5722 11.6976 15.75 11.25 15.75H6.75C6.30245 15.75 5.87323 15.5722 5.55676 15.2558C5.24029 14.9393 5.0625 14.5101 5.0625 14.0625V13.3065C3.05775 12.492 1.8 10.5559 1.2915 7.49701C1.26696 7.34856 1.27245 7.1967 1.30764 7.05041C1.34283 6.90411 1.40701 6.76637 1.49638 6.64532C1.58575 6.52427 1.69849 6.42238 1.82794 6.34568C1.95739 6.26897 2.1009 6.21902 2.25 6.19876V6.19764ZM3.375 6.18751H4.5C4.5 5.44159 4.79632 4.72622 5.32376 4.19878C5.85121 3.67133 6.56658 3.37501 7.3125 3.37501C8.05842 3.37501 8.77379 3.67133 9.30124 4.19878C9.82868 4.72622 10.125 5.44159 10.125 6.18751H11.25C11.25 5.14322 10.8352 4.14171 10.0967 3.40328C9.35831 2.66486 8.35679 2.25001 7.3125 2.25001C6.26821 2.25001 5.26669 2.66486 4.52827 3.40328C3.78984 4.14171 3.375 5.14322 3.375 6.18751ZM5.625 6.18751H9C9 5.73996 8.82221 5.31074 8.50574 4.99427C8.18928 4.6778 7.76005 4.50001 7.3125 4.50001C6.86495 4.50001 6.43573 4.6778 6.11926 4.99427C5.80279 5.31074 5.625 5.73996 5.625 6.18751ZM13.3493 6.18751H14.5541C14.6391 5.85504 14.647 5.50758 14.5773 5.17158C14.5076 4.83559 14.3621 4.51994 14.1519 4.24869C13.9418 3.97743 13.6725 3.75773 13.3645 3.60633C13.0566 3.45492 12.7181 3.37581 12.375 3.37501C12.105 3.37501 11.8485 3.42226 11.61 3.50889C11.8091 3.82839 11.9734 4.17264 12.0994 4.53376C12.3136 4.48062 12.5388 4.49156 12.7469 4.56523C12.955 4.63891 13.1369 4.77207 13.27 4.94819C13.4031 5.12431 13.4816 5.33564 13.4957 5.55596C13.5098 5.77628 13.4589 5.99588 13.3493 6.18751ZM11.8125 13.5H6.1875V14.0625C6.1875 14.2117 6.24676 14.3548 6.35225 14.4603C6.45774 14.5658 6.60082 14.625 6.75 14.625H11.25C11.3992 14.625 11.5423 14.5658 11.6477 14.4603C11.7532 14.3548 11.8125 14.2117 11.8125 14.0625V13.5ZM5.7915 12.375H12.2085C13.9928 11.8013 15.1223 10.179 15.5993 7.31251H2.40075C2.87775 10.179 4.00725 11.8013 5.7915 12.375Z" fill="white"/>
</svg>
