<svg width="14" height="14" viewBox="0 0 14 14" fill="none" xmlns="http://www.w3.org/2000/svg">
<path d="M7.32955 3.73242H6.67193C6.61178 3.73242 6.56256 3.78164 6.56256 3.8418V7.60567C6.56256 7.64121 6.57897 7.67402 6.60768 7.69453L8.86764 9.34473C8.91686 9.38027 8.98522 9.3707 9.02076 9.32149L9.41178 8.78828C9.44869 8.7377 9.43776 8.66934 9.38854 8.63516L7.43893 7.22559V3.8418C7.43893 3.78164 7.38971 3.73242 7.32955 3.73242ZM10.3346 4.76055L12.4784 5.28418C12.5467 5.30059 12.6137 5.24863 12.6137 5.17891L12.6247 2.9709C12.6247 2.8793 12.5194 2.82735 12.4483 2.88477L10.2936 4.56777C10.2773 4.58037 10.2649 4.59731 10.2578 4.61664C10.2508 4.63597 10.2493 4.65691 10.2536 4.67705C10.2578 4.69719 10.2677 4.7157 10.2821 4.73048C10.2964 4.74525 10.3146 4.75567 10.3346 4.76055ZM12.6274 8.87715L11.8522 8.61055C11.8252 8.60128 11.7956 8.60296 11.7698 8.61523C11.744 8.62749 11.724 8.64937 11.7141 8.67617C11.6881 8.7459 11.6608 8.81426 11.6321 8.88262C11.3887 9.4582 11.0401 9.97637 10.5944 10.4207C10.1536 10.8628 9.6313 11.2152 9.05631 11.4584C8.46066 11.7102 7.82039 11.8395 7.17369 11.8385C6.52018 11.8385 5.88717 11.7113 5.29108 11.4584C4.71609 11.2152 4.19374 10.8628 3.75299 10.4207C3.30865 9.97637 2.96002 9.4582 2.71529 8.88262C2.46485 8.28664 2.33653 7.64646 2.33795 7C2.33795 6.34649 2.4651 5.71211 2.71803 5.11602C2.96139 4.54043 3.31002 4.02227 3.75572 3.57793C4.19648 3.13581 4.71882 2.7834 5.29381 2.54024C5.88717 2.28731 6.52154 2.16016 7.17506 2.16016C7.82858 2.16016 8.46158 2.28731 9.05768 2.54024C9.63266 2.7834 10.155 3.13581 10.5958 3.57793C10.7352 3.71875 10.8665 3.86504 10.9868 4.01953L11.8044 3.37969C10.7284 2.0043 9.05357 1.11973 7.17232 1.1211C3.89654 1.12246 1.26608 3.78301 1.29889 7.06016C1.3317 10.2799 3.94986 12.8789 7.17506 12.8789C9.71119 12.8789 11.8713 11.2711 12.6944 9.01934C12.7149 8.96192 12.6848 8.89766 12.6274 8.87715Z" fill="#222222"/>
</svg>
